<?xml version="1.0" encoding="utf-8"?>
<!-- Generator: Adobe Illustrator 19.0.0, SVG Export Plug-In . SVG Version: 6.00 Build 0)  -->
<svg version="1.1" id="Layer_1" xmlns="http://www.w3.org/2000/svg" xmlns:xlink="http://www.w3.org/1999/xlink" x="0px" y="0px"
	 viewBox="0 0 200 200" style="enable-background:new 0 0 200 200;" xml:space="preserve">
<style type="text/css">
	.st0{fill:#CCD1E8;}
	.st1{fill:#FFFFFF;}
	.st2{fill:#E0E1E3;}
	.st3{fill:#EDF0F1;}
	.st4{fill:#FFE376;}
	.st5{fill:#1A3459;}
	.st6{fill:#37589D;}
	.st7{fill:#F15926;}
	.st8{fill:#EEF6FC;}
	.st9{fill:#FDB626;}
	.st10{fill:#B53625;}
	.st11{fill:#D8E8F7;}
</style>
<path id="XMLID_315_" class="st0" d="M100,200c55.1,0,100-44.9,100-100S155.1,0,100,0S0,44.9,0,100C0,155.1,44.9,200,100,200z"/>
<g id="XMLID_358_">
	<path id="XMLID_314_" class="st1" d="M84.8,40.2c0.9,0,1.8,0.1,2.6,0.4c1.4-6.6,7.2-11.5,14.2-11.5c8,0,14.5,6.5,14.6,14.5
		c0.3,0,0.6-0.1,0.9-0.1c4,0,7.3,3.2,7.3,7.3s-3.2,7.3-7.3,7.3c-2.6,0-4.8-1.3-6.1-3.3c-2.5,2.1-5.8,3.4-9.4,3.4
		c-3.7,0-7.2-1.4-9.7-3.7c-1.6,2.2-4.2,3.5-7.1,3.5c-4.9,0-8.9-4-8.9-8.9C75.9,44.2,79.9,40.2,84.8,40.2z"/>
	<path id="XMLID_313_" class="st1" d="M105.8,140.7c0.7,0,1.4,0.1,2,0.3c1.1-5.1,5.6-8.9,10.9-8.9c6.2,0,11.2,5,11.2,11.2
		c0.2,0,0.5,0,0.7,0c3.1,0,5.6,2.5,5.6,5.6c0,3.1-2.5,5.6-5.6,5.6c-2,0-3.7-1-4.7-2.5c-1.9,1.6-4.5,2.6-7.2,2.6
		c-2.9,0-5.5-1.1-7.5-2.9c-1.2,1.7-3.2,2.7-5.4,2.7c-3.8,0-6.8-3-6.8-6.8C98.9,143.8,102,140.7,105.8,140.7z"/>
	<path id="XMLID_312_" class="st1" d="M34.4,60.3c0.3,0,0.7,0.1,1,0.1c0.5-2.5,2.7-4.3,5.3-4.3c3,0,5.4,2.4,5.4,5.4
		c0.1,0,0.2,0,0.3,0c1.5,0,2.7,1.2,2.7,2.7c0,1.5-1.2,2.7-2.7,2.7c-1,0-1.8-0.5-2.3-1.2C43.2,66.5,42,67,40.7,67
		c-1.4,0-2.7-0.5-3.6-1.4c-0.6,0.8-1.6,1.3-2.6,1.3c-1.8,0-3.3-1.5-3.3-3.3S32.5,60.3,34.4,60.3L34.4,60.3L34.4,60.3z"/>
</g>
<g id="XMLID_325_">
	<path id="XMLID_289_" class="st1" d="M91.9,134.8c1.4,0,2.5,1.1,2.5,2.5c0,1.4-1.1,2.5-2.5,2.5c-1.4,0-2.5-1.1-2.5-2.5
		C89.4,135.9,90.5,134.8,91.9,134.8z"/>
	<path id="XMLID_288_" class="st1" d="M71.6,111.5c0.3,0,0.5,0.2,0.5,0.5c0,0.3-0.2,0.5-0.5,0.5c-0.3,0-0.5-0.2-0.5-0.5
		C71.2,111.7,71.4,111.5,71.6,111.5z"/>
	<path id="XMLID_286_" class="st1" d="M62.7,113.9c0.8,0,1.4,0.6,1.4,1.4c0,0.8-0.6,1.4-1.4,1.4s-1.4-0.6-1.4-1.4
		C61.3,114.5,62,113.9,62.7,113.9z"/>
	<path id="XMLID_285_" class="st1" d="M39.1,124.5c1.4,0,2.5,1.1,2.5,2.5c0,1.4-1.1,2.5-2.5,2.5c-1.4,0-2.5-1.1-2.5-2.5
		C36.6,125.6,37.7,124.5,39.1,124.5z"/>
	<path id="XMLID_282_" class="st1" d="M75.3,107.1c0.8,0,1.4,0.6,1.4,1.4c0,0.8-0.6,1.4-1.4,1.4c-0.8,0-1.4-0.6-1.4-1.4
		C73.9,107.7,74.5,107.1,75.3,107.1z"/>
	<path id="XMLID_281_" class="st1" d="M81.7,150.8c1,0,1.8,0.8,1.8,1.8c0,1-0.8,1.8-1.8,1.8c-1,0-1.8-0.8-1.8-1.8
		C79.8,151.6,80.6,150.8,81.7,150.8z"/>
	<path id="XMLID_280_" class="st1" d="M92.7,128.6c0.5,0,1,0.4,1,1s-0.4,1-1,1c-0.5,0-1-0.4-1-1C91.7,129,92.1,128.6,92.7,128.6z"/>
	<path id="XMLID_278_" class="st1" d="M85.9,189.9c-1.1-0.8-2.3-1.4-3.6-1.7c1.2-3.2,0.5-6.9-2-9.4c-2.5-2.5-6-3.2-9.1-2.1
		c1.6-3,1.1-6.9-1.5-9.4c-0.7-0.7-1.4-1.2-2.2-1.6c2.4-2.5,2.8-6.2,1.1-9c1.2-0.3,2.2-1,3.2-1.9c1.9-1.9,2.5-4.6,1.9-7
		c1.5-0.1,2.9-0.7,4-1.8c0.9-0.9,1.5-2.1,1.7-3.3c0.8-0.2,1.5-0.6,2.2-1.3c1.3-1.3,1.7-3.1,1.3-4.8c1-0.1,1.7-0.2,2.7-1.2
		c1-1,2.2-3.5,0.7-5.4l25.3-32.7l-2.9-2.9l-2.9-2.9l-33.5,25c-1.5-0.6-3.3-0.3-4.5,1c-0.8,0.8-1.2,1.7-1.2,2.7
		c-1.6-0.4-3.5,0-4.8,1.3c-0.6,0.6-1,1.4-1.3,2.2c-1.2,0.2-2.4,0.8-3.3,1.7c-1.1,1.1-1.7,2.5-1.8,4c-2.4-0.6-5.1,0-7,1.9
		c-0.9,0.9-1.6,2.1-1.9,3.3c-2.8-1.5-6.3-1-8.7,1.3c-0.4-0.8-0.9-1.6-1.6-2.2c-2.5-2.5-6.4-3-9.4-1.5c1.1-3.1,0.4-6.7-2.1-9.1
		c-2.5-2.5-6.3-3.2-9.4-2c-0.3-1.3-0.8-2.5-1.7-3.6c1.6-0.6,3-1.6,4.3-2.8c5-5,5-13,0-18c-4.9-4.9-12.8-5-17.7-0.2
		C0,97.6,0,98.8,0,100c0,55.2,44.8,100,100,100c3.2,0,6.4-0.2,9.5-0.4c5.3-12.7-10.9-23.7-20.7-13.9
		C87.5,186.9,86.6,188.4,85.9,189.9L85.9,189.9z"/>
</g>
<path id="XMLID_277_" class="st2" d="M85.9,189.9c-1.1-0.8-2.3-1.4-3.6-1.7c1.2-3.2,0.5-6.9-2-9.4c-2.5-2.5-6-3.2-9.1-2.1
	c1.6-3,1.1-6.9-1.5-9.4c-0.7-0.7-1.4-1.2-2.2-1.6c2.4-2.5,2.8-6.2,1.1-9c1.2-0.3,2.2-1,3.2-1.9c1.9-1.9,2.5-4.6,1.9-7
	c1.5-0.1,2.9-0.7,4-1.8c0.9-0.9,1.5-2.1,1.7-3.3c0.8-0.2,1.5-0.6,2.2-1.3c1.3-1.3,1.7-3.1,1.3-4.8c3.3-0.2,5.3-4.1,3.4-6.6
	l25.3-32.7l-26.6,32.5c1.5,2.8-0.2,5.7-3.5,5.9c1.6,2.7-0.8,6-3.6,5.7c1,3.4-2.2,5.3-5.1,5c0.4,4.4-1.2,8.5-5.7,9.6
	c2.7,3.5,1.1,7.6-1.4,9.5c5.8,3.3,5.9,8.3,3.2,12.5c6.7-1.7,13.8,1.5,12,10.6c0,0,3.7,0.5,5.5,3.3c0,0,6.7-12.2,16.2-7.2
	c7.2,3.7,6,11.4,4.9,15c0.6,0,1.2-0.1,1.9-0.2c5.3-12.7-10.9-23.7-20.7-13.9C87.5,186.9,86.6,188.4,85.9,189.9L85.9,189.9
	L85.9,189.9z"/>
<path id="XMLID_275_" class="st3" d="M26.6,140.2c5.5,0,10.1,3.8,11.2,9c0.7-0.2,1.4-0.3,2.2-0.3c3.2,0,5.9,1.8,7.3,4.5
	c1.2-0.8,2.7-1.3,4.2-1.3c4.1,0,7.4,3.3,7.4,7.4c0,1.4-0.4,2.8-1.1,3.9c1.3,1.7,2,3.8,2,6.1c0,1.9-0.5,3.6-1.4,5.2
	c3.9,0.2,7.1,3.4,7.1,7.4c0,1.5-0.4,2.8-1.2,4c0.2,0,0.4,0,0.6,0c2.1,0,3.8,1.4,4.3,3.3c1.9,0.5,3.3,2.2,3.3,4.3
	c0,0.9-0.3,1.7-0.7,2.4c-23.7-6.9-43.8-22.4-56.6-42.9c0-0.1,0-0.2,0-0.3l-0.1,0c-4.7-7.6-8.4-15.8-11-24.5c0.4-0.1,0.7-0.1,1.1-0.1
	c3.8,0,6.9,3.1,6.9,6.9c0,0.6-0.1,1.2-0.2,1.7c0.5-0.1,1-0.1,1.5-0.1c3.4,0,6.3,2.1,7.5,5C22.6,140.7,24.5,140.2,26.6,140.2
	L26.6,140.2z"/>
<g id="XMLID_317_">
	<path id="XMLID_274_" class="st1" d="M59,191.2c-18.1-8.1-33.3-21.5-43.8-38.2c0-0.1,0-0.2,0-0.3l-0.1,0c-1-1.5-1.9-3.1-2.7-4.7
		c0.9,0.8,1.6,1.8,2,2.9c1.7-1,3.6-1.5,5.7-1.5c5.5,0,10.1,3.8,11.2,9c0.7-0.2,1.4-0.3,2.2-0.3c3.2,0,5.9,1.8,7.3,4.5
		c1.2-0.8,2.7-1.3,4.3-1.3c4.1,0,7.4,3.3,7.4,7.4c0,1.4-0.4,2.8-1.1,3.9c1.3,1.7,2,3.8,2,6.1c0,1.9-0.5,3.6-1.4,5.2
		C55.8,184,59,187.3,59,191.2L59,191.2L59,191.2z"/>
	<path id="XMLID_273_" class="st1" d="M94.8,96.6l7.2-6.6l1.5,1.7L94.8,96.6z"/>
	<path id="XMLID_272_" class="st1" d="M106.2,108.4l5.8-8.1l1.6,1.5L106.2,108.4L106.2,108.4z"/>
	<path id="XMLID_271_" class="st1" d="M110.4,107.9l4.1-5.4l1.2,1L110.4,107.9L110.4,107.9z"/>
	<path id="XMLID_270_" class="st1" d="M95,93.2l5.5-5l0.7,0.9L95,93.2L95,93.2L95,93.2z"/>
</g>
<g id="XMLID_207_">
	<path id="XMLID_249_" class="st4" d="M99.3,104.7c-0.4-0.4-0.7-1-0.8-1.6c-0.1-0.5-1.5-12.1,5.1-18.8c2.2-2.2,5.1-3.7,8.7-4.6
		c1-0.2,2,0.1,2.7,0.8l8.5,8.5c0.7,0.7,1,1.7,0.8,2.7c-0.8,3.6-2.4,6.6-4.6,8.7c-6.6,6.6-18.3,5.2-18.8,5.1
		C100.3,105.4,99.7,105.1,99.3,104.7z"/>
	<path id="XMLID_247_" class="st5" d="M146,108.1c-0.3-0.3-0.5-0.6-0.6-0.9l-9.2-21.5c-0.6-1.4,0.1-3.1,1.5-3.7
		c1.4-0.6,18.5-8.4,18.5-8.4c0.3,0.5,7.3,12.8-5.7,34.1c-0.6,0.9-1.6,1.4-2.6,1.4C147.1,108.9,146.4,108.6,146,108.1z"/>
	<path id="XMLID_246_" class="st6" d="M95,57.2c-0.5-0.5-0.8-1.1-0.8-1.8c-0.1-1.1,0.4-2.1,1.4-2.6c21.3-13.1,33.6-6,34.1-5.7
		c0,0-7.8,17-8.4,18.5c-0.6,1.4-2.3,2.1-3.7,1.5l-21.5-9.2C95.6,57.6,95.3,57.4,95,57.2z"/>
	<g id="XMLID_266_">
		<path id="XMLID_245_" class="st7" d="M125.6,96.6l-19.1-19.1c-1.1-1.1-1.1-2.9,0-4l8.7-9c0.5-0.6,1.3-0.9,2-0.9
			c0.8,0,1.5,0.3,2,0.8l19.5,19.5c0.5,0.5,0.8,1.3,0.8,2c0,0.8-0.3,1.5-0.9,2l-9,8.7C128.5,97.7,126.7,97.7,125.6,96.6z"/>
		<path id="XMLID_242_" class="st7" d="M178.4,40.9l-16.2-16.2c-0.7-0.7-1-1.7-0.8-2.6c0.2-0.9,0.9-1.7,1.8-2.1
			c12.3-4.7,21.8-5.3,22.2-5.3c0.8,0,1.6,0.3,2.2,0.8s0.9,1.4,0.8,2.2c0,0.4-0.6,9.9-5.3,22.2c-0.3,0.9-1.1,1.6-2.1,1.8
			C180.1,41.9,179.1,41.6,178.4,40.9z"/>
	</g>
	<g id="XMLID_263_">
		<path id="XMLID_241_" class="st8" d="M135,88.3l-20.2-20.2c-0.7-0.7-1-1.8-0.7-2.9c1.5-4.9,6.3-11.3,10.1-15.9
			c2.9-3.5,6.1-7,9.6-10.5c8.1-8.1,18-14.5,29.4-18.8c1-0.4,2.2-0.1,3,0.6l16.2,16.2c0.8,0.8,1,2,0.6,3
			c-4.3,11.3-10.7,21.2-18.8,29.4c-3.5,3.5-7,6.7-10.5,9.6c-4.5,3.8-11,8.6-15.9,10.1C136.9,89.3,135.8,89,135,88.3z"/>
		<path id="XMLID_240_" class="st8" d="M149.6,53.5c-3-3-3-8,0-11c3-3,8-3,11,0c3,3,3,8,0,11C157.6,56.5,152.6,56.5,149.6,53.5z"/>
	</g>
	<path id="XMLID_260_" class="st6" d="M147.4,55.7c-4.2-4.2-4.2-11.1,0-15.4s11.1-4.2,15.4,0c4.2,4.2,4.2,11.1,0,15.4
		C158.6,59.9,151.7,59.9,147.4,55.7z M158.8,44.3c-2-2-5.3-2-7.3,0c-2,2-2,5.3,0,7.3c2,2,5.3,2,7.3,0
		C160.8,49.6,160.8,46.4,158.8,44.3z"/>
	<path id="XMLID_237_" class="st9" d="M123.5,89l-4.3-4.3l-20,20c0.4,0.4,1,0.7,1.6,0.8c0.5,0.1,12.1,1.5,18.8-5.1
		c2.2-2.2,3.7-5.1,4.6-8.7C124.5,90.7,124.2,89.7,123.5,89z"/>
	<g id="XMLID_256_">
		<path id="XMLID_236_" class="st10" d="M138.7,83.9l-9.8-9.8L116.1,87l9.6,9.6c1.1,1.1,2.9,1.1,4,0l9-8.7c0.6-0.5,0.9-1.3,0.9-2
			C139.6,85.2,139.3,84.5,138.7,83.9z"/>
		<path id="XMLID_234_" class="st10" d="M188.4,17.7c0-0.8-0.3-1.6-0.8-2.2l-17.3,17.3l8.1,8.1c0.7,0.7,1.7,1,2.6,0.8
			s1.7-0.9,2.1-1.8C187.8,27.6,188.4,18.1,188.4,17.7z"/>
	</g>
	<g id="XMLID_252_">
		<path id="XMLID_231_" class="st11" d="M182.4,36.9l-8.1-8.1l-49.4,49.4L135,88.3c0.7,0.7,1.8,1,2.9,0.7
			c4.9-1.5,11.3-6.3,15.9-10.1c3.5-2.9,7-6.1,10.5-9.6c8.1-8.1,14.5-18,18.8-29.4C183.5,38.9,183.2,37.7,182.4,36.9z"/>
		<path id="XMLID_230_" class="st11" d="M160.6,42.5l-11,11c3,3,8,3,11,0C163.7,50.5,163.7,45.5,160.6,42.5z"/>
	</g>
	<path id="XMLID_228_" class="st5" d="M162.8,40.3l-4,4c2,2,2,5.3,0,7.3c-2,2-5.3,2-7.3,0l-4,4c4.2,4.2,11.1,4.2,15.4,0
		C167,51.5,167,44.6,162.8,40.3z"/>
</g>
</svg>
