<?xml version="1.0" encoding="utf-8"?>
<!-- Generator: Adobe Illustrator 19.0.0, SVG Export Plug-In . SVG Version: 6.00 Build 0)  -->
<svg version="1.1" id="Layer_1" xmlns="http://www.w3.org/2000/svg" xmlns:xlink="http://www.w3.org/1999/xlink" x="0px" y="0px"
	 viewBox="0 0 200 200" style="enable-background:new 0 0 200 200;" xml:space="preserve">
<style type="text/css">
	.st0{fill:#CCD1E8;}
	.st1{fill:#FFFFFF;}
	.st2{fill:#00AEEF;}
	.st3{fill:#F15D64;}
	.st4{fill:#252E3C;}
	.st5{fill:#E6E5E5;}
	.st6{fill:#F15926;}
	.st7{fill:#CCCBCA;}
</style>
<circle id="XMLID_203_" class="st0" cx="100" cy="100" r="100"/>
<rect id="XMLID_152_" x="43.9" y="30.5" class="st1" width="111.9" height="150.5"/>
<rect id="XMLID_151_" x="43.9" y="18.1" class="st2" width="111.9" height="12.4"/>
<rect id="XMLID_150_" x="43.9" y="80.7" class="st2" width="111.9" height="50.2"/>
<g id="XMLID_248_">
	<polygon id="XMLID_149_" class="st1" points="102.9,99.9 86.5,116.3 119.2,116.3 	"/>
	<polygon id="XMLID_148_" class="st1" points="91.2,105.6 80.5,116.3 101.9,116.3 	"/>
	<path id="XMLID_147_" class="st1" d="M98,98.6c0,1.9-1.5,3.4-3.4,3.4c-1.9,0-3.4-1.5-3.4-3.4c0-1.9,1.5-3.4,3.4-3.4
		C96.5,95.2,98,96.7,98,98.6z"/>
</g>
<g id="XMLID_243_">
	<rect id="XMLID_146_" x="52.5" y="139.4" class="st3" width="25.8" height="20.6"/>
	<rect id="XMLID_145_" x="86.9" y="139.4" class="st3" width="25.8" height="20.6"/>
	<rect id="XMLID_144_" x="121.4" y="139.4" class="st3" width="25.8" height="20.6"/>
	<rect id="XMLID_143_" x="52.5" y="58.4" class="st3" width="94.7" height="4.5"/>
</g>
<g id="XMLID_232_">
	<rect id="XMLID_142_" x="52.5" y="162.3" class="st4" width="25.8" height="2.2"/>
	<rect id="XMLID_141_" x="52.5" y="166.8" class="st4" width="25.8" height="2.2"/>
	<rect id="XMLID_140_" x="52.5" y="171.2" class="st4" width="12.9" height="2.2"/>
	<rect id="XMLID_139_" x="86.9" y="162.3" class="st4" width="25.8" height="2.2"/>
	<rect id="XMLID_138_" x="86.9" y="166.8" class="st4" width="25.8" height="2.2"/>
	<rect id="XMLID_137_" x="86.9" y="171.2" class="st4" width="12.9" height="2.2"/>
	<rect id="XMLID_136_" x="121.4" y="162.3" class="st4" width="25.8" height="2.2"/>
	<rect id="XMLID_135_" x="121.4" y="166.8" class="st4" width="25.8" height="2.2"/>
	<rect id="XMLID_134_" x="121.4" y="171.2" class="st4" width="12.9" height="2.2"/>
	<rect id="XMLID_133_" x="68.6" y="70.7" class="st4" width="62.5" height="2.2"/>
</g>
<rect id="XMLID_132_" x="52.5" y="38.3" class="st2" width="94.7" height="12.4"/>
<g id="XMLID_226_">
	<rect id="XMLID_131_" x="63" y="43.3" class="st1" width="10.5" height="2.2"/>
	<rect id="XMLID_130_" x="84.1" y="43.3" class="st1" width="10.5" height="2.2"/>
	<rect id="XMLID_129_" x="105.1" y="43.3" class="st1" width="10.5" height="2.2"/>
	<rect id="XMLID_128_" x="126.2" y="43.3" class="st1" width="10.5" height="2.2"/>
</g>
<rect id="XMLID_127_" x="138.6" y="86.5" class="st5" width="48.8" height="27.9"/>
<rect id="XMLID_126_" x="145.7" y="105.6" class="st6" width="5" height="3.9"/>
<g id="XMLID_221_">
	<rect id="XMLID_125_" x="153.1" y="98.2" class="st7" width="5" height="11.2"/>
	<rect id="XMLID_124_" x="160.6" y="102.7" class="st7" width="4.9" height="6.8"/>
</g>
<rect id="XMLID_123_" x="168" y="91.4" class="st2" width="4.9" height="18.1"/>
<rect id="XMLID_122_" x="175.4" y="95.9" class="st7" width="5" height="13.6"/>
<g id="XMLID_166_">
	<rect id="XMLID_121_" x="64.3" y="148.6" class="st4" width="2.2" height="2.2"/>
	<path id="XMLID_205_" class="st4" d="M62,150.9h-2.3v-2.2H62V150.9z M57.3,150.9H55v-2.2h2.3V150.9z M52.7,150.9h-2.3v-2.2h2.3
		V150.9z M48,150.9h-2.3v-2.2H48V150.9z M43.4,150.9h-2.3v-2.2h2.3V150.9z M38.8,150.9h-2.3v-2.2h2.3V150.9z M34.1,150.9h-2.3v-2.2
		h2.3V150.9z M29.5,150.9h-2.3v-2.2h2.3V150.9z M24.8,150.9h-2.3v-2.2h2.3V150.9z M20.2,150.9h-2.3v-2.2h2.3V150.9z M15.5,150.9
		h-2.3v-2.2h2.3V150.9z M10.9,150.9H8.5v-2.2h2.3L10.9,150.9L10.9,150.9z"/>
	<rect id="XMLID_108_" x="4" y="148.6" class="st4" width="2.2" height="2.2"/>
	<path id="XMLID_193_" class="st4" d="M6.2,146.4H4v-2.2h2.2V146.4z M6.2,141.9H4v-2.2h2.2V141.9z M6.2,137.4H4v-2.2h2.2V137.4z
		 M6.2,132.9H4v-2.2h2.2V132.9z M6.2,128.4H4v-2.2h2.2V128.4z M6.2,124H4v-2.2h2.2V124z M6.2,119.5H4v-2.2h2.2V119.5z M6.2,115H4
		v-2.2h2.2V115z M6.2,110.5H4v-2.2h2.2V110.5z M6.2,106H4v-2.2h2.2V106z"/>
	<rect id="XMLID_94_" x="4" y="99.3" class="st4" width="2.2" height="2.2"/>
	<path id="XMLID_179_" class="st4" d="M62,101.5h-2.3v-2.2H62V101.5z M57.3,101.5H55v-2.2h2.3V101.5z M52.7,101.5h-2.3v-2.2h2.3
		V101.5z M48,101.5h-2.3v-2.2H48V101.5z M43.4,101.5h-2.3v-2.2h2.3V101.5z M38.8,101.5h-2.3v-2.2h2.3V101.5z M34.1,101.5h-2.3v-2.2
		h2.3V101.5z M29.5,101.5h-2.3v-2.2h2.3V101.5z M24.8,101.5h-2.3v-2.2h2.3V101.5z M20.2,101.5h-2.3v-2.2h2.3V101.5z M15.5,101.5
		h-2.3v-2.2h2.3V101.5z M10.9,101.5H8.5v-2.2h2.3L10.9,101.5L10.9,101.5z"/>
	<polygon id="XMLID_79_" class="st4" points="65.4,101.5 64.3,101.5 64.3,99.3 66.6,99.3 66.6,101.5 	"/>
	<path id="XMLID_167_" class="st4" d="M66.6,146.4h-2.2v-2.2h2.2V146.4z M66.6,141.9h-2.2v-2.2h2.2V141.9z M66.6,137.4h-2.2v-2.2
		h2.2V137.4z M66.6,132.9h-2.2v-2.2h2.2V132.9z M66.6,128.4h-2.2v-2.2h2.2V128.4z M66.6,124h-2.2v-2.2h2.2V124z M66.6,119.5h-2.2
		v-2.2h2.2V119.5z M66.6,115h-2.2v-2.2h2.2V115z M66.6,110.5h-2.2v-2.2h2.2V110.5z M66.6,106h-2.2v-2.2h2.2V106z"/>
</g>
<rect id="XMLID_62_" x="164.1" y="66.3" class="st4" width="26.7" height="2.2"/>
<rect id="XMLID_61_" x="164.1" y="61.8" class="st4" width="24" height="2.2"/>
<rect id="XMLID_60_" x="164.1" y="57.3" class="st4" width="18.5" height="2.2"/>
<polygon id="XMLID_59_" class="st4" points="180.5,165.7 169.9,139.4 196.2,150 186,155.5 "/>
<polygon id="XMLID_153_" class="st4" points="186.4,153 183.5,155.9 192.2,164.7 195.2,161.7 "/>
<path id="XMLID_67_" class="st2" d="M6.2,77.7H36V58.6h-27c0,0-1.2,2.6-2.7,6.6V77.7z"/>
<rect id="XMLID_65_" x="11.1" y="62" class="st1" width="21.3" height="2.1"/>
<rect id="XMLID_63_" x="11.1" y="72.8" class="st1" width="11.7" height="2.1"/>
<rect id="XMLID_64_" x="11.1" y="65.6" class="st1" width="21.3" height="2.1"/>
<rect id="XMLID_66_" x="11.1" y="69.2" class="st1" width="21.3" height="2.1"/>
</svg>
