<?xml version="1.0" encoding="UTF-8" standalone="no"?><!DOCTYPE svg PUBLIC "-//W3C//DTD SVG 1.1//EN" "http://www.w3.org/Graphics/SVG/1.1/DTD/svg11.dtd"><svg width="100%" height="100%" viewBox="0 0 851 851" version="1.1" xmlns="http://www.w3.org/2000/svg" xmlns:xlink="http://www.w3.org/1999/xlink" xml:space="preserve" style="fill-rule:evenodd;clip-rule:evenodd;stroke-linecap:round;stroke-linejoin:round;stroke-miterlimit:1.5;"><circle cx="424.945" cy="425.592" r="423.723" style="fill:#e7eaf5;"/><clipPath id="_clip1"><circle cx="424.945" cy="425.592" r="423.723"/></clipPath><g clip-path="url(#_clip1)"><path d="M839.81,594.271c0,-7.387 -5.998,-13.385 -13.385,-13.385l-784.368,0c-7.388,0 -13.386,5.998 -13.386,13.385l0,280.377c0,7.388 5.998,13.386 13.386,13.386l784.368,0c7.387,0 13.385,-5.998 13.385,-13.386l0,-280.377Z" style="fill:#ccd1e8;"/><clipPath id="_clip2"><path d="M839.81,594.271c0,-7.387 -5.998,-13.385 -13.385,-13.385l-784.368,0c-7.388,0 -13.386,5.998 -13.386,13.385l0,280.377c0,7.388 5.998,13.386 13.386,13.386l784.368,0c7.387,0 13.385,-5.998 13.385,-13.386l0,-280.377Z"/></clipPath><g clip-path="url(#_clip2)"><path d="M345.572,714.043c0,-10.329 -8.386,-18.715 -18.714,-18.715l-37.429,0c-10.329,0 -18.715,8.386 -18.715,18.715l0,250.711c0,10.329 8.386,18.715 18.715,18.715l37.429,0c10.328,0 18.714,-8.386 18.714,-18.715l0,-250.711Z" style="fill:#bec5e3;"/><path d="M476.145,717.372c0,-12.614 -10.241,-22.855 -22.855,-22.855l-45.709,0c-12.614,0 -22.855,10.241 -22.855,22.855l0,254.713c0,12.613 10.241,22.854 22.855,22.854l45.709,0c12.614,0 22.855,-10.241 22.855,-22.854l0,-254.713Z" style="fill:#bec5e3;"/><path d="M585.341,713.232c0,-10.329 -8.385,-18.715 -18.714,-18.715l-37.429,0c-10.329,0 -18.715,8.386 -18.715,18.715l0,275.495c0,10.329 8.386,18.715 18.715,18.715l37.429,0c10.329,0 18.714,-8.386 18.714,-18.715l0,-275.495Z" style="fill:#bec5e3;"/></g><path d="M482.526,580.886l365.853,0l0.289,-36.978c-1.402,-21.968 -7.609,-41.829 -33.782,-52.068c-53.693,-11.547 -97.968,-25.015 -98.189,-46.269c-0.365,-35.141 36.882,-72.451 39.56,-148.006c-3.428,-58.338 -29.688,-97.679 -89.847,-97.767c-54.881,2.611 -92.914,29.598 -91.238,100.802c1.057,69.635 41.713,117.074 40.988,140.393c-0.732,23.57 -32.088,36.561 -89.397,46.856c-31.066,7.47 -45.729,27.277 -44.677,55.488c0.519,13.94 0.216,24.761 0.44,37.549Z" style="fill:#bec5e3;stroke:#bec5e3;stroke-width:0.65px;"/><path d="M-3.196,580.886l365.853,0l0.289,-36.978c-1.402,-21.968 -7.61,-41.829 -33.782,-52.068c-53.693,-11.547 -97.969,-25.015 -98.189,-46.269c-0.365,-35.141 36.882,-72.451 39.56,-148.006c-3.429,-58.338 -29.688,-97.679 -89.847,-97.767c-54.881,2.611 -92.914,29.598 -91.239,100.802c1.057,69.635 41.713,117.074 40.989,140.393c-0.732,23.57 -32.088,36.561 -89.397,46.856c-31.066,7.47 -45.729,27.277 -44.678,55.488c0.52,13.94 0.217,24.761 0.441,37.549Z" style="fill:#bec5e3;stroke:#bec5e3;stroke-width:0.65px;"/><path d="M194.575,580.886l455.069,0l0.36,-45.996c-1.744,-27.324 -9.465,-52.028 -42.02,-64.765c-66.787,-14.362 -121.859,-31.115 -122.133,-57.551c-0.454,-43.711 45.876,-90.119 49.207,-184.098c-4.265,-72.565 -36.928,-121.499 -111.757,-121.609c-68.264,3.247 -115.572,36.816 -113.488,125.383c1.315,86.616 51.885,145.623 50.984,174.629c-0.911,29.318 -39.913,45.477 -111.198,58.283c-38.641,9.291 -56.879,33.928 -55.572,69.019c0.646,17.339 0.27,30.799 0.548,46.705Z" style="fill:#ccd1e8;"/><path d="M839.81,588.257c0,-4.069 -3.303,-7.371 -7.371,-7.371l-828.757,0c-4.069,0 -7.371,3.302 -7.371,7.371l0,14.741c0,4.068 3.302,7.371 7.371,7.371l828.757,0c4.068,0 7.371,-3.303 7.371,-7.371l0,-14.741Z" style="fill:#bec5e3;"/></g></svg>