<?xml version="1.0" encoding="UTF-8" standalone="no"?><!DOCTYPE svg PUBLIC "-//W3C//DTD SVG 1.1//EN" "http://www.w3.org/Graphics/SVG/1.1/DTD/svg11.dtd"><svg width="100%" height="100%" viewBox="0 0 851 851" version="1.1" xmlns="http://www.w3.org/2000/svg" xmlns:xlink="http://www.w3.org/1999/xlink" xml:space="preserve" style="fill-rule:evenodd;clip-rule:evenodd;stroke-linejoin:round;stroke-miterlimit:1.41421;"><circle cx="424.945" cy="425.592" r="423.723" style="fill:url(#_Linear1);"/><path d="M468.735,110.53c0,-15.905 -12.912,-28.817 -28.817,-28.817l-34.155,0c-15.905,0 -28.817,12.912 -28.817,28.817c0,15.904 12.912,28.817 28.817,28.817l34.155,0c15.905,0 28.817,-12.913 28.817,-28.817Z" style="fill:url(#_Linear2);"/><path d="M506.044,197.91c0,-15.904 -12.912,-28.817 -28.817,-28.817l-123.069,0c-15.904,0 -28.816,12.913 -28.816,28.817c0,15.905 12.912,28.817 28.816,28.817l123.069,0c15.905,0 28.817,-12.912 28.817,-28.817Z" style="fill:url(#_Linear3);"/><path d="M369.011,290.399c0,-15.904 -12.913,-28.817 -28.817,-28.817l-34.156,0c-15.904,0 -28.817,12.913 -28.817,28.817c0,15.905 12.913,28.817 28.817,28.817l34.156,0c15.904,0 28.817,-12.912 28.817,-28.817Z" style="fill:url(#_Linear4);"/><path d="M563.31,290.399c0,-15.904 -12.913,-28.817 -28.817,-28.817l-114.322,0c-15.904,0 -28.817,12.913 -28.817,28.817c0,15.905 12.913,28.817 28.817,28.817l114.322,0c15.904,0 28.817,-12.912 28.817,-28.817Z" style="fill:url(#_Linear5);"/><path d="M358.723,377.779c0,-15.904 -12.913,-28.817 -28.817,-28.817l-78.684,0c-15.904,0 -28.817,12.913 -28.817,28.817c0,15.905 12.913,28.817 28.817,28.817l78.684,0c15.904,0 28.817,-12.912 28.817,-28.817Z" style="fill:url(#_Linear6);"/><path d="M518.133,377.779c0,-15.904 -12.913,-28.817 -28.817,-28.817l-78.683,0c-15.905,0 -28.817,12.913 -28.817,28.817c0,15.905 12.912,28.817 28.817,28.817l78.683,0c15.904,0 28.817,-12.912 28.817,-28.817Z" style="fill:url(#_Linear7);"/><path d="M618.586,377.779c0,-15.904 -12.912,-28.817 -28.817,-28.817l-16.272,0c-15.904,0 -28.817,12.913 -28.817,28.817c0,15.905 12.913,28.817 28.817,28.817l16.272,0c15.905,0 28.817,-12.912 28.817,-28.817Z" style="fill:url(#_Linear8);"/><path d="M312.52,470.419c0,-15.904 -12.912,-28.817 -28.817,-28.817l-63.052,0c-15.905,0 -28.817,12.913 -28.817,28.817c0,15.905 12.912,28.817 28.817,28.817l63.052,0c15.905,0 28.817,-12.912 28.817,-28.817Z" style="fill:url(#_Linear9);"/><path d="M465,470.419c0,-15.904 -12.912,-28.817 -28.817,-28.817l-63.052,0c-15.904,0 -28.817,12.913 -28.817,28.817c0,15.905 12.913,28.817 28.817,28.817l63.052,0c15.905,0 28.817,-12.912 28.817,-28.817Z" style="fill:url(#_Linear10);"/><path d="M662.029,470.419c0,-15.904 -12.912,-28.817 -28.817,-28.817l-120.058,0c-15.904,0 -28.817,12.913 -28.817,28.817c0,15.905 12.913,28.817 28.817,28.817l120.058,0c15.905,0 28.817,-12.912 28.817,-28.817Z" style="fill:url(#_Linear11);"/><path d="M240.528,560.333c0,-15.905 -12.913,-28.817 -28.817,-28.817l-16.272,0c-15.904,0 -28.817,12.912 -28.817,28.817c0,15.904 12.913,28.817 28.817,28.817l16.272,0c15.904,0 28.817,-12.913 28.817,-28.817Z" style="fill:url(#_Linear12);"/><path d="M411.076,560.333c0,-15.905 -12.912,-28.817 -28.817,-28.817l-83.034,0c-15.904,0 -28.817,12.912 -28.817,28.817c0,15.904 12.913,28.817 28.817,28.817l83.034,0c15.905,0 28.817,-12.913 28.817,-28.817Z" style="fill:url(#_Linear13);"/><path d="M683.267,560.333c0,-15.905 -12.912,-28.817 -28.817,-28.817l-184.676,0c-15.905,0 -28.817,12.912 -28.817,28.817c0,15.904 12.912,28.817 28.817,28.817l184.676,0c15.905,0 28.817,-12.913 28.817,-28.817Z" style="fill:url(#_Linear14);"/><path d="M326.397,651.042c0,-15.904 -12.913,-28.817 -28.817,-28.817l-75.233,0c-15.905,0 -28.817,12.913 -28.817,28.817c0,15.905 12.912,28.817 28.817,28.817l75.233,0c15.904,0 28.817,-12.912 28.817,-28.817Z" style="fill:url(#_Linear15);"/><path d="M472.952,651.042c0,-15.904 -12.912,-28.817 -28.817,-28.817l-59.028,0c-15.905,0 -28.817,12.913 -28.817,28.817c0,15.905 12.912,28.817 28.817,28.817l59.028,0c15.905,0 28.817,-12.912 28.817,-28.817Z" style="fill:url(#_Linear16);"/><path d="M651.349,651.042c0,-15.904 -12.912,-28.817 -28.816,-28.817l-89.935,0c-15.905,0 -28.817,12.913 -28.817,28.817c0,15.905 12.912,28.817 28.817,28.817l89.935,0c15.904,0 28.816,-12.912 28.816,-28.817Z" style="fill:url(#_Linear17);"/><path d="M383.313,740.654c0,-15.904 -12.913,-28.817 -28.817,-28.817l-49.725,0c-15.904,0 -28.816,12.913 -28.816,28.817c0,15.905 12.912,28.817 28.816,28.817l49.725,0c15.904,0 28.817,-12.912 28.817,-28.817Z" style="fill:url(#_Linear18);"/><path d="M577.565,740.654c0,-15.904 -12.912,-28.817 -28.817,-28.817l-105.31,0c-15.905,0 -28.817,12.913 -28.817,28.817c0,15.905 12.912,28.817 28.817,28.817l105.31,0c15.905,0 28.817,-12.912 28.817,-28.817Z" style="fill:url(#_Linear19);"/><defs><linearGradient id="_Linear1" x1="0" y1="0" x2="1" y2="0" gradientUnits="userSpaceOnUse" gradientTransform="matrix(-554.737,638.701,-638.701,-554.737,723.739,124.97)"><stop offset="0" style="stop-color:#f75f8d;stop-opacity:1"/><stop offset="1" style="stop-color:#bd539b;stop-opacity:1"/></linearGradient><linearGradient id="_Linear2" x1="0" y1="0" x2="1" y2="0" gradientUnits="userSpaceOnUse" gradientTransform="matrix(-220.339,712.902,-712.902,-220.339,484.571,71.6041)"><stop offset="0" style="stop-color:#fcf0f5;stop-opacity:1"/><stop offset="1" style="stop-color:#ca629f;stop-opacity:1"/></linearGradient><linearGradient id="_Linear3" x1="0" y1="0" x2="1" y2="0" gradientUnits="userSpaceOnUse" gradientTransform="matrix(-220.339,712.902,-712.902,-220.339,484.571,71.6041)"><stop offset="0" style="stop-color:#fcf0f5;stop-opacity:1"/><stop offset="1" style="stop-color:#ca629f;stop-opacity:1"/></linearGradient><linearGradient id="_Linear4" x1="0" y1="0" x2="1" y2="0" gradientUnits="userSpaceOnUse" gradientTransform="matrix(-220.339,712.902,-712.902,-220.339,484.571,71.6041)"><stop offset="0" style="stop-color:#fcf0f5;stop-opacity:1"/><stop offset="1" style="stop-color:#ca629f;stop-opacity:1"/></linearGradient><linearGradient id="_Linear5" x1="0" y1="0" x2="1" y2="0" gradientUnits="userSpaceOnUse" gradientTransform="matrix(-220.339,712.902,-712.902,-220.339,484.571,71.6041)"><stop offset="0" style="stop-color:#fcf0f5;stop-opacity:1"/><stop offset="1" style="stop-color:#ca629f;stop-opacity:1"/></linearGradient><linearGradient id="_Linear6" x1="0" y1="0" x2="1" y2="0" gradientUnits="userSpaceOnUse" gradientTransform="matrix(-220.339,712.902,-712.902,-220.339,484.571,71.6041)"><stop offset="0" style="stop-color:#fcf0f5;stop-opacity:1"/><stop offset="1" style="stop-color:#ca629f;stop-opacity:1"/></linearGradient><linearGradient id="_Linear7" x1="0" y1="0" x2="1" y2="0" gradientUnits="userSpaceOnUse" gradientTransform="matrix(-220.339,712.902,-712.902,-220.339,484.571,71.6041)"><stop offset="0" style="stop-color:#fcf0f5;stop-opacity:1"/><stop offset="1" style="stop-color:#ca629f;stop-opacity:1"/></linearGradient><linearGradient id="_Linear8" x1="0" y1="0" x2="1" y2="0" gradientUnits="userSpaceOnUse" gradientTransform="matrix(-220.339,712.902,-712.902,-220.339,484.571,71.6041)"><stop offset="0" style="stop-color:#fcf0f5;stop-opacity:1"/><stop offset="1" style="stop-color:#ca629f;stop-opacity:1"/></linearGradient><linearGradient id="_Linear9" x1="0" y1="0" x2="1" y2="0" gradientUnits="userSpaceOnUse" gradientTransform="matrix(-220.339,712.902,-712.902,-220.339,484.571,71.6041)"><stop offset="0" style="stop-color:#fcf0f5;stop-opacity:1"/><stop offset="1" style="stop-color:#ca629f;stop-opacity:1"/></linearGradient><linearGradient id="_Linear10" x1="0" y1="0" x2="1" y2="0" gradientUnits="userSpaceOnUse" gradientTransform="matrix(-220.339,712.902,-712.902,-220.339,484.571,71.6041)"><stop offset="0" style="stop-color:#fcf0f5;stop-opacity:1"/><stop offset="1" style="stop-color:#ca629f;stop-opacity:1"/></linearGradient><linearGradient id="_Linear11" x1="0" y1="0" x2="1" y2="0" gradientUnits="userSpaceOnUse" gradientTransform="matrix(-220.339,712.902,-712.902,-220.339,484.571,71.6041)"><stop offset="0" style="stop-color:#fcf0f5;stop-opacity:1"/><stop offset="1" style="stop-color:#ca629f;stop-opacity:1"/></linearGradient><linearGradient id="_Linear12" x1="0" y1="0" x2="1" y2="0" gradientUnits="userSpaceOnUse" gradientTransform="matrix(-220.339,712.902,-712.902,-220.339,484.571,71.6041)"><stop offset="0" style="stop-color:#fcf0f5;stop-opacity:1"/><stop offset="1" style="stop-color:#ca629f;stop-opacity:1"/></linearGradient><linearGradient id="_Linear13" x1="0" y1="0" x2="1" y2="0" gradientUnits="userSpaceOnUse" gradientTransform="matrix(-220.339,712.902,-712.902,-220.339,484.571,71.6041)"><stop offset="0" style="stop-color:#fcf0f5;stop-opacity:1"/><stop offset="1" style="stop-color:#ca629f;stop-opacity:1"/></linearGradient><linearGradient id="_Linear14" x1="0" y1="0" x2="1" y2="0" gradientUnits="userSpaceOnUse" gradientTransform="matrix(-220.339,712.902,-712.902,-220.339,484.571,71.6041)"><stop offset="0" style="stop-color:#fcf0f5;stop-opacity:1"/><stop offset="1" style="stop-color:#ca629f;stop-opacity:1"/></linearGradient><linearGradient id="_Linear15" x1="0" y1="0" x2="1" y2="0" gradientUnits="userSpaceOnUse" gradientTransform="matrix(-220.339,712.902,-712.902,-220.339,484.571,71.6041)"><stop offset="0" style="stop-color:#fcf0f5;stop-opacity:1"/><stop offset="1" style="stop-color:#ca629f;stop-opacity:1"/></linearGradient><linearGradient id="_Linear16" x1="0" y1="0" x2="1" y2="0" gradientUnits="userSpaceOnUse" gradientTransform="matrix(-220.339,712.902,-712.902,-220.339,484.571,71.6041)"><stop offset="0" style="stop-color:#fcf0f5;stop-opacity:1"/><stop offset="1" style="stop-color:#ca629f;stop-opacity:1"/></linearGradient><linearGradient id="_Linear17" x1="0" y1="0" x2="1" y2="0" gradientUnits="userSpaceOnUse" gradientTransform="matrix(-220.339,712.902,-712.902,-220.339,484.571,71.6041)"><stop offset="0" style="stop-color:#fcf0f5;stop-opacity:1"/><stop offset="1" style="stop-color:#ca629f;stop-opacity:1"/></linearGradient><linearGradient id="_Linear18" x1="0" y1="0" x2="1" y2="0" gradientUnits="userSpaceOnUse" gradientTransform="matrix(-220.339,712.902,-712.902,-220.339,484.571,71.6041)"><stop offset="0" style="stop-color:#fcf0f5;stop-opacity:1"/><stop offset="1" style="stop-color:#ca629f;stop-opacity:1"/></linearGradient><linearGradient id="_Linear19" x1="0" y1="0" x2="1" y2="0" gradientUnits="userSpaceOnUse" gradientTransform="matrix(-220.339,712.902,-712.902,-220.339,484.571,71.6041)"><stop offset="0" style="stop-color:#fcf0f5;stop-opacity:1"/><stop offset="1" style="stop-color:#ca629f;stop-opacity:1"/></linearGradient></defs></svg>