<?xml version="1.0" encoding="utf-8"?>
<!-- Generator: Adobe Illustrator 19.0.0, SVG Export Plug-In . SVG Version: 6.00 Build 0)  -->
<svg version="1.1" id="Layer_1" xmlns="http://www.w3.org/2000/svg" xmlns:xlink="http://www.w3.org/1999/xlink" x="0px" y="0px"
	 viewBox="0 0 200 200" style="enable-background:new 0 0 200 200;" xml:space="preserve">
<style type="text/css">
	.st0{fill:#F6F7FB;}
	.st1{fill:#45A7DE;}
	.st2{fill:#FFFFFF;}
	.st3{fill:#8994C5;}
	.st4{fill:#3E396B;}
</style>
<circle id="XMLID_20_" class="st0" cx="100" cy="100" r="100"/>
<path id="XMLID_21_" class="st1" d="M129.8,59.1H52c-3.6,0-6.5,2.9-6.5,6.5v58.9c0,3.6,2.9,6.5,6.5,6.5h77.8V59.1z"/>
<path id="XMLID_19_" class="st2" d="M168.6,98.4h-6.1c0,0-1.9-11.9-3.1-17.3c-1.2-5.3-5.9-13.1-13.1-13.1h-16.6v44.8H45.5v11.7
	c0,3.6,2.9,6.5,6.5,6.5h77.8h23.1h15.7c3.2,0,5.9-2.6,5.9-5.9v-20.9C174.5,101,171.9,98.4,168.6,98.4z"/>
<g>
	<circle id="XMLID_18_" class="st3" cx="70.8" cy="129.7" r="11.3"/>
	<circle id="XMLID_17_" class="st3" cx="149.7" cy="129.7" r="11.3"/>
</g>
<g>
	<circle id="XMLID_16_" class="st4" cx="70.8" cy="129.7" r="3.5"/>
	<circle id="XMLID_15_" class="st4" cx="149.7" cy="129.7" r="3.5"/>
</g>
<circle id="XMLID_14_" class="st2" cx="86.7" cy="86.4" r="18.6"/>
<g>
	<path class="st4" d="M86.7,106.9c-11.3,0-20.5-9.2-20.5-20.5c0-11.3,9.2-20.5,20.5-20.5c11.3,0,20.5,9.2,20.5,20.5
		C107.2,97.7,98,106.9,86.7,106.9z M86.7,69.6c-9.2,0-16.7,7.5-16.7,16.7c0,9.2,7.5,16.7,16.7,16.7c9.2,0,16.7-7.5,16.7-16.7
		C103.5,77.2,96,69.6,86.7,69.6z"/>
	<path id="XMLID_11_" class="st4" d="M93.8,79.9l-0.3-0.2c-0.6-0.5-1.5-0.4-2,0.2l-3.2,4V73.5c0-0.8-0.6-1.4-1.4-1.4h-0.4
		c-0.8,0-1.4,0.6-1.4,1.4v14.4c-0.1,0.4-0.1,0.8,0.1,1.1c0.2,0.4,0.5,0.7,0.9,0.8c0.4,0.2,0.9,0.2,1.3,0c0.4-0.1,0.6-0.4,0.8-0.8
		l5.8-7.1C94.5,81.3,94.4,80.4,93.8,79.9z"/>
	<path class="st4" d="M168.6,133.1c4.4,0,7.9-3.6,7.9-7.9v-20.9c0-4.4-3.6-7.9-7.9-7.9h-4.3c-0.6-3.5-1.9-11.5-2.8-15.7
		C160.3,75,155.1,66,146.4,66h-14.5v-9H52c-4.7,0-8.6,3.9-8.6,8.6v15.6H25.6c-1.1,0-2.1,0.9-2.1,2.1c0,1.1,0.9,2.1,2.1,2.1h17.8
		v12.1h-5.8c-1.2,0-2.2,1-2,2.2c0.1,1.1,1.1,1.9,2.2,1.9h5.7v9.2v4.2h-7.9c-1.1,0-2.1,0.9-2.1,2.1s0.9,2.1,2.1,2.1h7.9v5.4
		c0,4.7,3.9,8.6,8.6,8.6h5.8c0.6,2.2,1.7,4.2,3.2,5.8H48.2c-1.1,0-2,0.9-2,2c0,1.1,0.9,2,2,2h20.5c0.7,0.1,1.3,0.1,2,0.1
		s1.3-0.1,2-0.1h75c0.7,0.1,1.3,0.1,2,0.1c0.7,0,1.3-0.1,2-0.1h21.6c1.1,0,2-0.9,2-2c0-1.1-0.9-2-2-2h-13.8c1.5-1.6,2.6-3.6,3.2-5.8
		L168.6,133.1L168.6,133.1L168.6,133.1z M131.9,110.8V70.1h14.5c5.9,0,10,6.7,11.1,11.5c1.1,5.2,3,17,3,17.2l0.3,1.7h7.8
		c2.1,0,3.8,1.7,3.8,3.8v20.9c0,2.1-1.7,3.8-3.8,3.8h-5.5c-0.4-7.1-6.2-12.7-13.4-12.7s-13,5.6-13.4,12.7h-4.5L131.9,110.8
		L131.9,110.8L131.9,110.8z M136.8,133.1c0.6,2.2,1.7,4.2,3.2,5.8H80.5c1.5-1.6,2.6-3.6,3.2-5.8h44.1h4.1H136.8z M47.5,65.6
		c0-2.5,2-4.5,4.5-4.5h75.8V66v44.8H47.5V65.6z M47.5,124.5v-9.6h80.3V129H84.1c-0.4-7.1-6.2-12.7-13.4-12.7
		c-7.1,0-13,5.6-13.4,12.7H52C49.5,129,47.5,127,47.5,124.5z M61.5,129.7c0-5.1,4.2-9.3,9.3-9.3c5.1,0,9.3,4.2,9.3,9.3
		c0,4.7-3.5,8.6-8,9.2h-2.5C65,138.3,61.5,134.4,61.5,129.7z M148.5,138.9c-4.5-0.6-8-4.5-8-9.2c0-5.1,4.2-9.3,9.3-9.3
		s9.3,4.2,9.3,9.3c0,4.7-3.5,8.6-8,9.2H148.5z"/>
</g>
<path id="XMLID_3_" class="st3" d="M154.7,98.1c-0.4-2.5-1.8-10.9-2.7-14.9c-0.8-3.7-4.1-7.7-8.2-7.7h-5.9v24.8h17.2L154.7,98.1z"/>
<path class="st2" d="M121,81.9c-1,0-1.8-0.8-1.8-1.8v-0.2c0-1,0.8-1.8,1.8-1.8s1.8,0.8,1.8,1.8V80C122.9,81.1,122,81.9,121,81.9z
	 M121,75.6c-1,0-1.8-0.8-1.8-1.8v-2.4c0-1,0.8-1.8,1.8-1.8s1.8,0.8,1.8,1.8v2.4C122.9,74.8,122,75.6,121,75.6z"/>
</svg>
