<?xml version="1.0" encoding="utf-8"?>
<!-- Generator: Adobe Illustrator 19.0.0, SVG Export Plug-In . SVG Version: 6.00 Build 0)  -->
<svg version="1.1" id="Capa_1" xmlns="http://www.w3.org/2000/svg" xmlns:xlink="http://www.w3.org/1999/xlink" x="0px" y="0px"
	 viewBox="228 -228 512 512" style="enable-background:new 228 -228 512 512;" xml:space="preserve">
<style type="text/css">
	.st0{fill:#3E396B;}
	.st1{fill:#CCD1E8;}
</style>
<g>
	<g>
		<path class="st0" d="M684,100.8V-44.8c18.2-3.7,32-19.9,32-39.2c0-22.1-17.9-40-40-40c-11.8,0-22.5,5.2-29.8,13.4l-122.6-71.6
			c0.3-1.9,0.4-3.8,0.4-5.8c0-22.1-17.9-40-40-40s-40,17.9-40,40c0,2,0.1,3.9,0.4,5.8l-122.6,71.6c-7.3-8.2-18-13.4-29.8-13.4
			c-22.1,0-40,17.9-40,40c0,19.3,13.8,35.5,32,39.2v145.6c-18.2,3.7-32,19.9-32,39.2c0,22.1,17.9,40,40,40
			c11.8,0,22.5-5.2,29.8-13.4l122.6,71.6c-0.3,1.9-0.4,3.8-0.4,5.8c0,22.1,17.9,40,40,40s40-17.9,40-40c0-2-0.1-3.9-0.4-5.8
			l122.6-71.6c7.3,8.2,18,13.4,29.8,13.4c22.1,0,40-17.9,40-40C716,120.7,702.2,104.5,684,100.8z M663.1,102.1L589.2-24.1l57-33.3
			c5.6,6.3,13.2,10.8,21.8,12.6v145.6C666.3,101.1,664.7,101.6,663.1,102.1z M492,132V67.2c8.6-1.8,16.2-6.3,21.8-12.6l124.3,72.5
			c-0.5,1.6-1,3.2-1.3,4.8L492,132L492,132z M331.2,132c-0.3-1.6-0.8-3.3-1.3-4.8l124.3-72.5c5.6,6.3,13.2,10.8,21.8,12.6V132H331.2
			z M300,100.8V-44.8c8.6-1.8,16.2-6.3,21.8-12.6l57,33.3l-73.9,126.3C303.3,101.6,301.7,101.1,300,100.8z M392.6-16l53.5,31.2
			c-1.4,4-2.1,8.3-2.1,12.8c0,4.5,0.8,8.8,2.1,12.8l-124.3,72.5c-1-1.1-2-2.1-3.1-3.1L392.6-16z M476-148.8v137.6
			c-8.6,1.8-16.2,6.3-21.8,12.6l-53.5-31.2l70.4-120.3C472.7-149.6,474.3-149.1,476-148.8z M496.9-150.1l70.4,120.3L513.8,1.4
			c-5.6-6.3-13.2-10.8-21.8-12.6v-137.6C493.7-149.1,495.3-149.6,496.9-150.1z M484,52c-8.6,0-16.1-4.5-20.3-11.3
			c-0.1-0.2-0.2-0.4-0.3-0.7c-0.1-0.2-0.3-0.4-0.4-0.7C461,36,460,32.1,460,28c0-4.2,1.1-8.1,2.9-11.5c0.1-0.2,0.3-0.3,0.4-0.5
			c0.1-0.2,0.2-0.4,0.3-0.6C467.9,8.5,475.4,4,484,4c8.6,0,16.1,4.5,20.4,11.3c0.1,0.2,0.2,0.4,0.3,0.6c0.1,0.2,0.2,0.4,0.4,0.5
			c1.9,3.4,3,7.3,3,11.5c0,4.1-1,8-2.9,11.4c-0.2,0.2-0.3,0.4-0.4,0.7c-0.1,0.2-0.2,0.4-0.3,0.6C500.1,47.5,492.6,52,484,52z
			 M646.2,113.4L521.9,40.8c1.4-4,2.1-8.3,2.1-12.8s-0.8-8.8-2.1-12.8L575.4-16l73.9,126.3C648.2,111.2,647.2,112.3,646.2,113.4z
			 M676-108c13.2,0,24,10.8,24,24s-10.8,24-24,24c-8.6,0-16.1-4.5-20.4-11.3c-0.1-0.2-0.2-0.4-0.3-0.6c-0.1-0.2-0.3-0.5-0.4-0.7
			C653-76,652-79.9,652-84c0-4.2,1.1-8.1,2.9-11.5c0.1-0.2,0.3-0.3,0.4-0.5c0.1-0.2,0.2-0.4,0.3-0.6C659.9-103.5,667.4-108,676-108z
			 M638.1-96.8c-1.4,4-2.1,8.3-2.1,12.8s0.8,8.8,2.1,12.8l-57,33.3l-70.4-120.3c2.8-2.5,5.3-5.5,7.3-8.7L638.1-96.8z M484-212
			c13.2,0,24,10.8,24,24c0,2.5-0.4,4.9-1.1,7.2c0,0,0,0,0,0c-1.8,5.7-5.6,10.4-10.6,13.4c-0.1,0-0.1,0.1-0.2,0.1
			c0,0-0.1,0.1-0.1,0.1c-3.5,2-7.6,3.2-12,3.2c-4.4,0-8.5-1.2-12-3.2c0,0-0.1-0.1-0.1-0.1c-0.1,0-0.1-0.1-0.2-0.1
			c-5-3-8.8-7.8-10.6-13.4c0,0,0,0,0,0c-0.7-2.3-1.1-4.7-1.1-7.2C460-201.2,470.8-212,484-212z M450-166.9c2,3.2,4.5,6.2,7.3,8.7
			L386.9-37.9l-57-33.3c1.4-4,2.1-8.3,2.1-12.8c0-4.5-0.8-8.8-2.1-12.8L450-166.9z M268-84c0-13.2,10.8-24,24-24
			c8.6,0,16.1,4.5,20.4,11.3c0.1,0.2,0.2,0.4,0.3,0.6c0.1,0.2,0.2,0.4,0.4,0.5c1.9,3.4,3,7.3,3,11.5c0,4.1-1,8-2.9,11.4
			c-0.2,0.2-0.3,0.4-0.4,0.7c-0.1,0.2-0.2,0.4-0.3,0.6C308.1-64.5,300.6-60,292-60C278.8-60,268-70.8,268-84z M292,164
			c-13.2,0-24-10.8-24-24s10.8-24,24-24c4.4,0,8.5,1.2,12.1,3.3c0,0,0,0,0.1,0c0,0,0,0,0.1,0c3.3,2,6.1,4.7,8.2,8
			c0.1,0.2,0.2,0.4,0.3,0.6c0.1,0.2,0.2,0.4,0.4,0.5c1.9,3.4,3,7.3,3,11.5c0,4.1-1,8-2.9,11.3c-0.2,0.2-0.3,0.5-0.5,0.7
			c-0.1,0.2-0.3,0.5-0.4,0.7C308.1,159.5,300.6,164,292,164z M329.9,152.8c0.5-1.6,1-3.2,1.3-4.8H476v56.8
			c-10.9,2.2-20.3,8.9-26,18.1L329.9,152.8z M484,268c-13.2,0-24-10.8-24-24s10.8-24,24-24s24,10.8,24,24S497.2,268,484,268z
			 M518,222.9c-5.7-9.2-15-15.9-26-18.1V148h144.8c0.3,1.6,0.8,3.3,1.3,4.8L518,222.9z M676,164c-8.6,0-16.1-4.5-20.3-11.3
			c-0.1-0.2-0.2-0.5-0.4-0.7c-0.1-0.2-0.3-0.5-0.5-0.7c-1.8-3.4-2.9-7.2-2.9-11.4c0-4.2,1.1-8.1,2.9-11.5c0.1-0.2,0.3-0.3,0.4-0.5
			c0.1-0.2,0.2-0.4,0.3-0.6c2-3.3,4.8-6,8.2-8c0,0,0,0,0.1,0c0,0,0,0,0.1,0c3.5-2.1,7.7-3.3,12.1-3.3c13.2,0,24,10.8,24,24
			S689.2,164,676,164z"/>
	</g>
</g>
<circle class="st1" cx="484" cy="28" r="24"/>
</svg>
