<?xml version="1.0" encoding="utf-8"?>
<!-- Generator: Adobe Illustrator 19.0.0, SVG Export Plug-In . SVG Version: 6.00 Build 0)  -->
<svg version="1.1" id="Layer_1" xmlns="http://www.w3.org/2000/svg" xmlns:xlink="http://www.w3.org/1999/xlink" x="0px" y="0px"
	 viewBox="0 0 200 200" style="enable-background:new 0 0 200 200;" xml:space="preserve">
<style type="text/css">
	.st0{fill:#F6F7FB;}
	.st1{fill:#45A7DE;}
	.st2{fill:#FFFFFF;}
	.st3{fill:#BBC3DE;}
	.st4{fill:#3E396B;}
</style>
<circle id="XMLID_20_" class="st0" cx="100" cy="100" r="100"/>
<path id="XMLID_19_" class="st1" d="M159.1,156.8h-117c-0.9,0-1.6-0.7-1.6-1.6V146c0-0.9,0.7-1.6,1.6-1.6h117c0.9,0,1.6,0.7,1.6,1.6
	v9.1C160.7,156,160,156.8,159.1,156.8z"/>
<g id="XMLID_41_">
	<path id="XMLID_18_" class="st2" d="M154.9,60.1v-4.6c0-3.6-2.9-6.5-6.5-6.5H52.9c-3.6,0-6.5,2.9-6.5,6.5v4.6H154.9z"/>
	<path id="XMLID_17_" class="st2" d="M46.4,91.5v51c0,0.6,0.1,1.2,0.3,1.8c0,0,0,0,0,0h107.9c0,0,0,0,0,0c0.2-0.6,0.3-1.2,0.3-1.8
		v-51H46.4z"/>
</g>
<path id="XMLID_16_" class="st1" d="M155.3,60.1H45.9l-9.1,17.5v6.1c0,4.3,3.5,7.9,7.8,7.9h112c4.3,0,7.8-3.5,7.8-7.9v-6.1
	L155.3,60.1z"/>
<g id="XMLID_37_">
	<path id="XMLID_15_" class="st3" d="M90,144.4v-37.8c0-2.1-1.7-3.7-3.7-3.7H64.5c-2.1,0-3.7,1.7-3.7,3.7v37.8H90z"/>
	<path id="XMLID_14_" class="st3" d="M134.3,125.1h-28.9c-0.8,0-1.5-0.7-1.5-1.5v-19.3c0-0.8,0.7-1.5,1.5-1.5h28.9
		c0.8,0,1.5,0.7,1.5,1.5v19.3C135.7,124.4,135.1,125.1,134.3,125.1z"/>
</g>
<g id="XMLID_21_">
	<path id="XMLID_26_" class="st4" d="M166.3,76.6l-9.1-17.5c-0.1-0.1-0.1-0.2-0.2-0.3v-3.3c0-4.7-3.9-8.6-8.6-8.6H52.9
		c-4.7,0-8.6,3.9-8.6,8.6v3.3c-0.1,0.1-0.2,0.2-0.2,0.3L35,76.6c-0.2,0.3-0.2,0.6-0.2,1v6.1c0,5.4,4.2,9.7,9.5,9.9v49
		c0,0,0,0.1,0,0.1c-3.4,1-5.9,4.2-5.9,7.9c0,4.6,3.7,8.3,8.3,8.3h107.9c4.6,0,8.3-3.7,8.3-8.3c0-3.7-2.5-6.9-5.9-7.9
		c0,0,0-0.1,0-0.1v-49c5.3-0.2,9.5-4.6,9.5-9.9v-6.1C166.5,77.3,166.4,76.9,166.3,76.6z M52.9,51.1h95.5c2.4,0,4.4,2,4.4,4.4V58
		H48.4v-2.5C48.4,53.1,50.4,51.1,52.9,51.1z M81.4,62.2l-4.3,15.4H59.7l6.1-15.4H81.4z M85.7,62.2H99v15.4H81.4L85.7,62.2z
		 M103.2,62.2h13.6l4.3,15.4h-17.9L103.2,62.2L103.2,62.2z M125.4,77.6l-4.3-15.4h15.6l6.1,15.4H125.4z M88,142.3H62.8v-35.7
		c0-0.9,0.7-1.7,1.7-1.7h21.8c0.9,0,1.7,0.7,1.7,1.7L88,142.3L88,142.3z M92.1,142.3v-35.7c0-3.2-2.6-5.8-5.8-5.8H64.5
		c-3.2,0-5.8,2.6-5.8,5.8v35.7H48.4V93.6h104.4v48.7H92.1z M158.7,150.6c0,2.3-1.8,4.1-4.1,4.1H46.7c-2.3,0-4.1-1.8-4.1-4.1
		c0-2.3,1.8-4.1,4.1-4.1h108C156.8,146.5,158.7,148.3,158.7,150.6z M162.3,83.7c0,3.2-2.6,5.8-5.7,5.8h-112c-3.2,0-5.7-2.6-5.7-5.8
		v-5.6l8.3-15.9h14.2l-6.1,15.4h-8.9c-1.2,0-2.1,0.9-2.1,2.1s0.9,2.1,2.1,2.1h108.5c1.2,0,2.1-0.9,2.1-2.1s-0.9-2.1-2.1-2.1h-7.6
		l-6.1-15.4h12.9l8.3,15.9V83.7L162.3,83.7z"/>
	<circle id="XMLID_3_" class="st4" cx="83.3" cy="125.1" r="2.7"/>
	<path id="XMLID_22_" class="st4" d="M130.2,100.8h-20.7c-4.2,0-7.6,3.4-7.6,7.6v11.1c0,4.2,3.4,7.6,7.6,7.6h20.7
		c4.2,0,7.6-3.4,7.6-7.6v-11.1C137.8,104.2,134.4,100.8,130.2,100.8z M133.6,119.5c0,1.9-1.6,3.5-3.5,3.5h-20.7
		c-1.9,0-3.5-1.6-3.5-3.5v-11.1c0-1.9,1.6-3.5,3.5-3.5h20.7c1.9,0,3.5,1.6,3.5,3.5V119.5L133.6,119.5z"/>
</g>
</svg>
