<?xml version="1.0" encoding="utf-8"?>
<!-- Generator: Adobe Illustrator 19.0.0, SVG Export Plug-In . SVG Version: 6.00 Build 0)  -->
<svg version="1.1" id="Layer_1" xmlns="http://www.w3.org/2000/svg" xmlns:xlink="http://www.w3.org/1999/xlink" x="0px" y="0px"
	 viewBox="0 0 200 200" style="enable-background:new 0 0 200 200;" xml:space="preserve">
<style type="text/css">
	.st0{fill:#CCD1E8;}
	.st1{fill:#FFFFFF;}
	.st2{fill:#1A3459;}
	.st3{fill:#676767;}
	.st4{fill:#00AEEF;}
	.st5{fill:#48C1BA;}
	.st6{fill:#F15D64;}
	.st7{fill:#D0D4D6;}
</style>
<circle id="XMLID_269_" class="st0" cx="100" cy="100" r="100"/>
<polygon id="XMLID_468_" class="st1" points="159.6,178 42.1,178 42.1,19.7 138.1,19.7 159.6,41.4 "/>
<path id="XMLID_465_" class="st2" d="M166.3,119.7l6.3-3c1.7-0.8,3.8-0.1,4.7,1.6l17.5,36.4c0.8,1.7,0.1,3.8-1.6,4.7l-6.3,3
	c-1.7,0.8-3.8,0.1-4.7-1.6l-17.5-36.4C163.8,122.6,164.6,120.5,166.3,119.7z"/>
<rect id="XMLID_462_" x="163.5" y="117" transform="matrix(-0.9016 0.4326 -0.4326 -0.9016 376.3639 155.2695)" class="st2" width="14" height="7"/>
<rect id="XMLID_459_" x="165.7" y="123.4" transform="matrix(0.9016 -0.4326 0.4326 0.9016 -37.0817 87.022)" class="st3" width="14" height="3.1"/>
<rect id="XMLID_458_" x="165.5" y="111.6" transform="matrix(-0.9016 0.4326 -0.4326 -0.9016 368.5909 145.2851)" class="st3" width="4.6" height="6"/>
<circle id="XMLID_455_" class="st3" cx="153.4" cy="83.5" r="31.8"/>
<circle id="XMLID_454_" class="st1" cx="153.4" cy="83.5" r="29.3"/>
<circle id="XMLID_451_" class="st4" cx="153.4" cy="83.5" r="24.8"/>
<rect id="XMLID_450_" x="142.5" y="85.8" transform="matrix(0.7438 0.6684 -0.6684 0.7438 97.1733 -76.807)" class="st1" width="12.6" height="5"/>
<rect id="XMLID_449_" x="146.2" y="81.6" transform="matrix(-0.6809 0.7323 -0.7323 -0.6809 327.6341 25.4576)" class="st1" width="24.1" height="5"/>
<rect id="XMLID_446_" x="49.8" y="58.5" transform="matrix(0.7121 0.702 -0.702 0.7121 57.9113 -20.6602)" class="st5" width="8.7" height="3.5"/>
<rect id="XMLID_443_" x="52.5" y="55.9" transform="matrix(-0.7141 0.7001 -0.7001 -0.7141 144.6808 56.1702)" class="st5" width="16.8" height="3.5"/>
<rect id="XMLID_440_" x="51.5" y="74.8" transform="matrix(0.69 0.7238 -0.7238 0.69 73.4689 -18.512)" class="st6" width="13.8" height="3.5"/>
<rect id="XMLID_437_" x="51.6" y="74.8" transform="matrix(-0.7238 0.69 -0.69 -0.7238 153.6281 91.5395)" class="st6" width="13.8" height="3.5"/>
<g id="XMLID_154_">
	<rect id="XMLID_434_" x="71.8" y="36.7" class="st3" width="4.7" height="4.7"/>
	<rect id="XMLID_431_" x="80.9" y="36.7" class="st3" width="4.7" height="4.7"/>
	<rect id="XMLID_428_" x="90.9" y="36.7" class="st3" width="4.7" height="4.7"/>
	<rect id="XMLID_425_" x="71.8" y="49.7" class="st3" width="23.8" height="4.7"/>
	<rect id="XMLID_422_" x="100.7" y="49.7" class="st3" width="29.3" height="4.7"/>
	<rect id="XMLID_419_" x="71.8" y="59" class="st3" width="41.8" height="4.7"/>
	<rect id="XMLID_416_" x="71.8" y="69.4" class="st3" width="13.8" height="4.7"/>
	<rect id="XMLID_413_" x="90.9" y="69.4" class="st3" width="28.8" height="4.7"/>
	<rect id="XMLID_410_" x="71.8" y="79.1" class="st3" width="43.6" height="4.7"/>
	<rect id="XMLID_407_" x="71.8" y="89.3" class="st3" width="28.8" height="4.7"/>
	<rect id="XMLID_404_" x="105.3" y="89.3" class="st3" width="10.1" height="4.7"/>
	<rect id="XMLID_401_" x="71.8" y="98.8" class="st3" width="47.9" height="4.7"/>
	<rect id="XMLID_398_" x="71.8" y="108.6" class="st3" width="58.2" height="4.7"/>
	<rect id="XMLID_395_" x="71.8" y="118.5" class="st3" width="16.1" height="4.7"/>
	<rect id="XMLID_392_" x="93.6" y="118.5" class="st3" width="51.1" height="4.7"/>
	<rect id="XMLID_389_" x="71.8" y="128.7" class="st3" width="58.2" height="4.7"/>
	<rect id="XMLID_386_" x="135.3" y="128.7" class="st3" width="9.3" height="4.7"/>
	<rect id="XMLID_383_" x="71.8" y="138.8" class="st3" width="28.8" height="4.7"/>
	<rect id="XMLID_380_" x="105.3" y="138.8" class="st3" width="39.3" height="4.7"/>
</g>
<rect id="XMLID_377_" x="51.1" y="89.3" class="st7" width="14.8" height="14.8"/>
<rect id="XMLID_374_" x="51.1" y="108.7" class="st7" width="14.8" height="14.8"/>
<rect id="XMLID_371_" x="51.1" y="128.7" class="st7" width="14.8" height="14.8"/>
<rect id="XMLID_370_" x="51.1" y="157.8" class="st6" width="5.3" height="10.7"/>
<rect id="XMLID_367_" x="60.6" y="150.4" class="st4" width="5.3" height="18.1"/>
<rect id="XMLID_366_" x="70.8" y="163.1" class="st6" width="5.3" height="5.4"/>
<rect id="XMLID_365_" x="80.7" y="155.6" class="st6" width="5.3" height="12.9"/>
<rect id="XMLID_362_" x="90.1" y="150.4" class="st4" width="5.3" height="18.1"/>
<rect id="XMLID_361_" x="100.4" y="152.9" class="st6" width="5.3" height="15.6"/>
<rect id="XMLID_360_" x="110.3" y="157.8" class="st6" width="5.3" height="10.7"/>
<rect id="XMLID_359_" x="119.8" y="150.4" class="st6" width="5.3" height="18.1"/>
<rect id="XMLID_355_" x="130" y="148.4" class="st4" width="5.3" height="20.1"/>
<rect id="XMLID_353_" x="140" y="150.4" class="st6" width="5.3" height="18.1"/>
<polyline id="XMLID_212_" class="st7" points="159.6,41.4 138.1,41.4 138.1,19.7 "/>
</svg>
