<?xml version="1.0" encoding="UTF-8" standalone="no"?><!DOCTYPE svg PUBLIC "-//W3C//DTD SVG 1.1//EN" "http://www.w3.org/Graphics/SVG/1.1/DTD/svg11.dtd"><svg width="100%" height="100%" viewBox="0 0 851 851" version="1.1" xmlns="http://www.w3.org/2000/svg" xmlns:xlink="http://www.w3.org/1999/xlink" xml:space="preserve" style="fill-rule:evenodd;clip-rule:evenodd;stroke-linejoin:round;stroke-miterlimit:1.41421;"><circle cx="424.956" cy="425.613" r="423.723" style="fill:url(#_Linear1);"/><path d="M402.993,272.091l-52.481,-22.975l-10.497,-66.409l62.978,89.384Z" style="fill:#7da227;"/><path d="M433.651,452.799l0.155,127.267l117.791,19.628l47.386,-109.312l-165.332,-37.583Z" style="fill:url(#_Linear2);"/><path d="M551.597,599.622l-117.864,117.79l0.228,-137.346l117.636,19.556Z" style="fill:url(#_Linear3);"/><path d="M598.803,490.382l-47.206,109.312l45.72,33.987l77.227,-102.987l-75.741,-40.312Z" style="fill:url(#_Linear4);"/><path d="M433.651,717.412l163.666,-83.731l-45.717,-34.059l-117.949,117.79Z" style="fill:url(#_Linear5);"/><path d="M600.46,374.217l-1.657,116.165l75.741,40.312l-7.507,-113.087l-66.577,-43.39Z" style="fill:url(#_Linear6);"/><path d="M581.718,323.122l18.351,51.078l66.968,43.407l-82.776,-94.032" style="fill:url(#_Linear7);"/><path d="M433.651,452.799l165.332,37.583l1.477,-116.159l-126.767,-25.525l-40.042,104.101Z" style="fill:url(#_Linear8);"/><path d="M513.728,307.114l-40.035,41.584l126.767,25.689l-18.383,-51.202l-68.349,-16.071Z" style="fill:url(#_Linear9);"/><path d="M433.651,452.799l0.31,127.267l-118.255,19.628l-47.386,-109.312l165.331,-37.583Z" style="fill:url(#_Linear10);"/><path d="M315.706,599.622l118.052,117.79l0.203,-137.346l-118.255,19.556Z" style="fill:url(#_Linear11);"/><path d="M268.5,490.382l47.206,109.312l-45.72,33.987l-77.227,-102.987l75.741,-40.312Z" style="fill:url(#_Linear12);"/><path d="M433.83,717.412l-163.844,-83.731l45.717,-34.059l118.127,117.79Z" style="fill:url(#_Linear13);"/><path d="M266.843,374.217l1.657,116.165l-75.741,40.312l7.507,-113.087l66.577,-43.39Z" style="fill:url(#_Linear14);"/><path d="M285.585,323.122l-18.351,51.078l-66.968,43.407l82.776,-94.032" style="fill:url(#_Linear15);"/><path d="M433.651,452.799l-165.331,37.583l-1.477,-116.159l126.767,-25.525l40.041,104.101Z" style="fill:url(#_Linear16);"/><path d="M353.575,307.114l40.035,41.584l-126.767,25.689l18.382,-51.202l68.35,-16.071Z" style="fill:url(#_Linear17);"/><path d="M513.735,307.114l-40.159,41.852l-39.925,103.833l0.07,-104.464l80.014,-41.221Z" style="fill:url(#_Linear18);"/><path d="M354.911,307.349l38.886,41.594l39.854,103.856l0.068,-104.502l-78.808,-40.948Z" style="fill:url(#_Linear19);"/><path d="M448.33,351.415l5.893,-115.616l-38.893,-1.69l4.667,116.545l28.333,0.761Z" style="fill:#282525;"/><path d="M248.366,207.892l-116.324,-46.731l49.259,92.511l67.065,-45.78Z" style="fill:#8fac00;"/><path d="M248.366,207.892l-7.824,-66.978l-108.503,20.289l116.327,46.689Z" style="fill:#b0c800;"/><path d="M350.559,249.071l-10.471,-66.302l-99.604,-41.855l7.819,66.978l102.256,41.179Z" style="fill:#92b300;"/><path d="M350.559,249.07l-68.501,45.816l120.985,-22.785l-52.484,-23.031Z" style="fill:#677913;"/><path d="M181.301,253.639l66.952,-45.823l102.306,41.255l-68.501,45.815l-100.757,-41.247Z" style="fill:#799300;"/><defs><linearGradient id="_Linear1" x1="0" y1="0" x2="1" y2="0" gradientUnits="userSpaceOnUse" gradientTransform="matrix(-541.774,625.908,-625.908,-541.774,723.75,124.991)"><stop offset="0" style="stop-color:#fcd094;stop-opacity:1"/><stop offset="1" style="stop-color:#fcbcb5;stop-opacity:1"/></linearGradient><linearGradient id="_Linear2" x1="0" y1="0" x2="1" y2="0" gradientUnits="userSpaceOnUse" gradientTransform="matrix(164.157,0,0,141.91,434.646,528.248)"><stop offset="0" style="stop-color:#f85e3e;stop-opacity:1"/><stop offset="1" style="stop-color:#f85e3e;stop-opacity:1"/></linearGradient><linearGradient id="_Linear3" x1="0" y1="0" x2="1" y2="0" gradientUnits="userSpaceOnUse" gradientTransform="matrix(116.159,0,0,137.223,434.214,648.678)"><stop offset="0" style="stop-color:#d94629;stop-opacity:1"/><stop offset="1" style="stop-color:#d94629;stop-opacity:1"/></linearGradient><linearGradient id="_Linear4" x1="0" y1="0" x2="1" y2="0" gradientUnits="userSpaceOnUse" gradientTransform="matrix(124.189,0,0,143.834,550.778,561.764)"><stop offset="0" style="stop-color:#d9364b;stop-opacity:1"/><stop offset="1" style="stop-color:#da3e51;stop-opacity:1"/></linearGradient><linearGradient id="_Linear5" x1="0" y1="0" x2="1" y2="0" gradientUnits="userSpaceOnUse" gradientTransform="matrix(163.356,0,0,117.79,433.961,658.517)"><stop offset="0" style="stop-color:#c22338;stop-opacity:1"/><stop offset="1" style="stop-color:#c22338;stop-opacity:1"/></linearGradient><linearGradient id="_Linear6" x1="0" y1="0" x2="1" y2="0" gradientUnits="userSpaceOnUse" gradientTransform="matrix(75.3756,0,0,156.395,599.168,452.497)"><stop offset="0" style="stop-color:#ff455c;stop-opacity:1"/><stop offset="1" style="stop-color:#ff455c;stop-opacity:1"/></linearGradient><linearGradient id="_Linear7" x1="0" y1="0" x2="1" y2="0" gradientUnits="userSpaceOnUse" gradientTransform="matrix(84.4595,0,0,92.8271,582.452,369.857)"><stop offset="0" style="stop-color:#ff6a7c;stop-opacity:1"/><stop offset="1" style="stop-color:#ff6a7c;stop-opacity:1"/></linearGradient><linearGradient id="_Linear8" x1="0" y1="0" x2="1" y2="0" gradientUnits="userSpaceOnUse" gradientTransform="matrix(164.045,0,0,139.494,434.776,418.445)"><stop offset="0" style="stop-color:#f7715c;stop-opacity:1"/><stop offset="1" style="stop-color:#f7715c;stop-opacity:1"/></linearGradient><linearGradient id="_Linear9" x1="0" y1="0" x2="1" y2="0" gradientUnits="userSpaceOnUse" gradientTransform="matrix(126.324,0,0,66.8261,473.693,340.527)"><stop offset="0" style="stop-color:#f7826e;stop-opacity:1"/><stop offset="1" style="stop-color:#f7826e;stop-opacity:1"/></linearGradient><linearGradient id="_Linear10" x1="0" y1="0" x2="1" y2="0" gradientUnits="userSpaceOnUse" gradientTransform="matrix(-162.517,1.8775,-1.8775,-162.517,432.657,528.248)"><stop offset="0" style="stop-color:#fa7939;stop-opacity:1"/><stop offset="1" style="stop-color:#fa7939;stop-opacity:1"/></linearGradient><linearGradient id="_Linear11" x1="0" y1="0" x2="1" y2="0" gradientUnits="userSpaceOnUse" gradientTransform="matrix(-116.159,0,0,137.223,433.089,648.678)"><stop offset="0" style="stop-color:#f75c2e;stop-opacity:1"/><stop offset="1" style="stop-color:#f75c2e;stop-opacity:1"/></linearGradient><linearGradient id="_Linear12" x1="0" y1="0" x2="1" y2="0" gradientUnits="userSpaceOnUse" gradientTransform="matrix(-124.189,0,0,143.834,316.524,561.764)"><stop offset="0" style="stop-color:#f79e57;stop-opacity:1"/><stop offset="1" style="stop-color:#f79e57;stop-opacity:1"/></linearGradient><linearGradient id="_Linear13" x1="0" y1="0" x2="1" y2="0" gradientUnits="userSpaceOnUse" gradientTransform="matrix(-163.356,0,0,117.79,433.342,658.517)"><stop offset="0" style="stop-color:#e7753c;stop-opacity:1"/><stop offset="1" style="stop-color:#e7753c;stop-opacity:1"/></linearGradient><linearGradient id="_Linear14" x1="0" y1="0" x2="1" y2="0" gradientUnits="userSpaceOnUse" gradientTransform="matrix(-75.3756,0,0,156.395,268.135,452.497)"><stop offset="0" style="stop-color:#fbb674;stop-opacity:1"/><stop offset="1" style="stop-color:#fbb674;stop-opacity:1"/></linearGradient><linearGradient id="_Linear15" x1="0" y1="0" x2="1" y2="0" gradientUnits="userSpaceOnUse" gradientTransform="matrix(-84.4595,0,0,92.8271,284.85,369.857)"><stop offset="0" style="stop-color:#fdd2a4;stop-opacity:1"/><stop offset="1" style="stop-color:#fdd2a4;stop-opacity:1"/></linearGradient><linearGradient id="_Linear16" x1="0" y1="0" x2="1" y2="0" gradientUnits="userSpaceOnUse" gradientTransform="matrix(-164.045,0,0,139.494,432.527,418.445)"><stop offset="0" style="stop-color:#fc9944;stop-opacity:1"/><stop offset="1" style="stop-color:#fc9a45;stop-opacity:1"/></linearGradient><linearGradient id="_Linear17" x1="0" y1="0" x2="1" y2="0" gradientUnits="userSpaceOnUse" gradientTransform="matrix(-126.324,0,0,66.8261,393.61,340.527)"><stop offset="0" style="stop-color:#ffa95e;stop-opacity:1"/><stop offset="1" style="stop-color:#ffa95e;stop-opacity:1"/></linearGradient><linearGradient id="_Linear18" x1="0" y1="0" x2="1" y2="0" gradientUnits="userSpaceOnUse" gradientTransform="matrix(78.7408,0,0,145.451,433.721,380.097)"><stop offset="0" style="stop-color:#f85e3e;stop-opacity:1"/><stop offset="1" style="stop-color:#f85e3e;stop-opacity:1"/></linearGradient><linearGradient id="_Linear19" x1="0" y1="0" x2="1" y2="0" gradientUnits="userSpaceOnUse" gradientTransform="matrix(-78.7408,0,0,145.451,433.651,380.074)"><stop offset="0" style="stop-color:#f97d38;stop-opacity:1"/><stop offset="1" style="stop-color:#f97d38;stop-opacity:1"/></linearGradient></defs></svg>