<?xml version="1.0" encoding="utf-8"?>
<!-- Generator: Adobe Illustrator 19.0.0, SVG Export Plug-In . SVG Version: 6.00 Build 0)  -->
<svg version="1.1" id="Layer_1" xmlns="http://www.w3.org/2000/svg" xmlns:xlink="http://www.w3.org/1999/xlink" x="0px" y="0px"
	 viewBox="0 0 200 200" style="enable-background:new 0 0 200 200;" xml:space="preserve">
<style type="text/css">
	.st0{fill:#F6F7FB;}
	.st1{fill:#FFFFFF;}
	.st2{fill:#8994C5;}
	.st3{fill:#45A7DE;}
	.st4{fill:#3E396B;}
</style>
<circle id="XMLID_20_" class="st0" cx="100" cy="100" r="100"/>
<path id="XMLID_14_" class="st1" d="M148.5,117h-68c-6.9,0-12.5-5.6-12.5-12.5V66.3c0-6.9,5.6-12.5,12.5-12.5h68
	c6.9,0,12.5,5.6,12.5,12.5v38.2C161.1,111.4,155.4,117,148.5,117z"/>
<path id="XMLID_13_" class="st2" d="M68.2,70.1c-0.1,0.7-0.2,1.4-0.2,2.1v10.6h93.1V72.2c0-0.7-0.1-1.4-0.2-2.1H68.2z"/>
<path id="XMLID_12_" class="st3" d="M119.4,146.2H51.6c-7,0-12.7-5.7-12.7-12.7V95.6c0-7,5.7-12.7,12.7-12.7h67.8
	c7,0,12.7,5.7,12.7,12.7v37.9C132,140.5,126.3,146.2,119.4,146.2z"/>
<path id="XMLID_28_" class="st1" d="M122,133.2c-1.3,0-2.3-1-2.3-2.2v-0.2c0-1.2,1-2.2,2.3-2.2c1.3,0,2.3,1,2.3,2.2v0.2
	C124.3,132.2,123.3,133.2,122,133.2z M122,126.2c-1.3,0-2.3-1-2.3-2.2v-3c0-1.2,1-2.2,2.3-2.2c1.3,0,2.3,1,2.3,2.2v3
	C124.3,125.2,123.3,126.2,122,126.2z"/>
<path id="XMLID_22_" class="st4" d="M145.7,51.6H83.3c-9.7,0-17.6,7.7-17.6,17.2v3.4v8.5H54.3c-9.7,0-17.6,7.7-17.6,17.2v33.3
	c0,9.5,7.9,17.2,17.6,17.2h62.4c9.7,0,17.6-7.7,17.6-17.2v-11.9h11.4c9.7,0,17.6-7.7,17.6-17.2V85V72.2v-3.4
	C163.4,59.3,155.5,51.6,145.7,51.6z M83.3,56.1h62.4c6.9,0,12.5,5.2,13,11.8H70.3C70.8,61.3,76.5,56.1,83.3,56.1z M129.7,131.2
	c0,7-5.8,12.7-13,12.7H54.3c-7.2,0-13-5.7-13-12.7V97.9c0-7,5.8-12.7,13-12.7h62.4c7.2,0,13,5.7,13,12.7L129.7,131.2L129.7,131.2z
	 M158.8,102.1c0,7-5.8,12.7-13,12.7h-11.4V99.3h17.4v-4.5H134c-0.7-3.9-2.8-7.3-5.7-9.8h30.5L158.8,102.1L158.8,102.1L158.8,102.1z
	 M158.8,80.5H70.3v-8.2h88.5L158.8,80.5L158.8,80.5z"/>
<path id="XMLID_4_" class="st1" d="M95.4,100.5c-3.2,0-6.1,1-8.5,2.7c-2.4-1.7-5.3-2.7-8.5-2.7c-7.9,0-14.4,6.3-14.4,14.1
	s6.4,14.1,14.4,14.1c3.2,0,6.1-1,8.5-2.7c2.4,1.7,5.3,2.7,8.5,2.7c7.9,0,14.4-6.3,14.4-14.1S103.3,100.5,95.4,100.5z"/>
<path id="XMLID_16_" class="st4" d="M95.4,98.3c-3.1,0-6,0.8-8.5,2.3c-2.5-1.4-5.4-2.3-8.5-2.3c-9.2,0-16.7,7.3-16.7,16.3
	c0,9,7.5,16.3,16.7,16.3c3.1,0,6-0.8,8.5-2.3c2.5,1.4,5.4,2.3,8.5,2.3c9.2,0,16.7-7.3,16.7-16.3C112.1,105.6,104.6,98.3,95.4,98.3z
	 M66.3,114.6c0-6.5,5.4-11.8,12.1-11.8c6.7,0,12.1,5.3,12.1,11.8s-5.4,11.8-12.1,11.8C71.7,126.4,66.3,121.1,66.3,114.6z
	 M95.4,126.4c-1.6,0-3.2-0.3-4.6-0.9c2.7-2.9,4.3-6.7,4.3-10.9c0-4.2-1.6-8-4.3-10.9c1.4-0.6,3-0.9,4.6-0.9
	c6.7,0,12.1,5.3,12.1,11.8C107.5,121.1,102.1,126.4,95.4,126.4z"/>
</svg>
