<?xml version="1.0" encoding="utf-8"?>
<!-- Generator: Adobe Illustrator 19.0.0, SVG Export Plug-In . SVG Version: 6.00 Build 0)  -->
<svg version="1.1" id="Layer_1" xmlns="http://www.w3.org/2000/svg" xmlns:xlink="http://www.w3.org/1999/xlink" x="0px" y="0px"
	 viewBox="0 0 56 56" style="enable-background:new 0 0 56 56;" xml:space="preserve">
<style type="text/css">
	.st0{fill:#3F396A;}
	.st1{fill:#BBC3DF;}
</style>
<g id="XMLID_42_">
	<g id="XMLID_43_">
		<path id="XMLID_44_" class="st0" d="M52.2,15.8h-8v-2.1c0-0.5-0.5-1-1-1h-21c-0.5,0-1,0.5-1,1s0.5,1,1,1h20.1v7.5
			c0,6.6-3.5,12.7-9.2,16H14.4c-5.7-3.3-9.1-9.4-9.1-16v-7.5h6.6c0.5,0,1-0.5,1-1s-0.5-1-1-1H4.2c-0.5,0-1,0.5-1,1v8.5
			c0,3.6,1,7.3,2.8,10.5c1.3,2.1,2.9,4,4.8,5.6H4.2c-0.5,0-1,0.5-1,1c0,3.6,2.9,6.5,6.5,6.5h30.4c3.6,0,6.5-2.9,6.5-6.5
			c0-0.5-0.5-1-1-1h-9c1.7-1.5,3.3-3.1,4.6-5h2.7c5.2,0,9.4-4.2,9.4-9.4v-6.9C53.2,16.2,52.8,15.8,52.2,15.8z M44.5,40.1
			c-0.5,2-2.3,3.5-4.4,3.5H9.7c-2.1,0-3.9-1.5-4.4-3.5h8.8h19.2H44.5z M44.2,22.1v-0.5h3.2v2.1c0,1.9-1.6,3.6-3.6,3.6h-0.2
			C44,25.6,44.2,23.9,44.2,22.1z M51.2,23.7c0,4.1-3.4,7.5-7.5,7.5h-1.6c0.3-0.6,0.5-1.3,0.8-1.9h0.8c3,0,5.5-2.5,5.5-5.5v-3.1
			c0-0.5-0.5-1-1-1h-4.1v-1.9h7L51.2,23.7L51.2,23.7z"/>
	</g>
</g>
<g id="XMLID_39_">
	<g id="XMLID_40_">
		<path id="XMLID_41_" class="st1" d="M24.7,4.2l-0.5-0.5c-0.7-0.7-0.7-1.8,0-2.5c0.4-0.4,0.3-0.8-0.2-1.1s-1-0.2-1.4,0.1
			c-1.3,1.3-1.3,3,0,4.3l0.5,0.5c1,0.9,1,2.3,0,3.2l-0.5,0.5c-0.4,0.4-0.3,0.8,0.2,1.1c0.2,0.1,0.4,0.1,0.6,0.1s0.5-0.1,0.7-0.3
			l0.5-0.5C26.2,7.8,26.2,5.7,24.7,4.2z"/>
	</g>
</g>
<g id="XMLID_36_">
	<g id="XMLID_37_">
		<path id="XMLID_38_" class="st1" d="M30.1,5.9l-0.5-0.5c-0.7-0.7-0.7-1.8,0-2.5c0.4-0.4,0.3-0.8-0.2-1.1c-0.5-0.3-1-0.2-1.4,0.1
			c-1.3,1.3-1.3,3,0,4.3l0.5,0.5c1,0.9,1,2.3,0,3.2L28,10.5c-0.4,0.4-0.3,0.8,0.2,1.1c0.2,0.1,0.4,0.1,0.6,0.1
			c0.3,0,0.5-0.1,0.7-0.3l0.5-0.5C31.6,9.5,31.6,7.4,30.1,5.9z"/>
	</g>
</g>
<g id="XMLID_33_">
	<g id="XMLID_34_">
		<path id="XMLID_35_" class="st1" d="M19.3,5.9l-0.5-0.5c-0.7-0.7-0.7-1.8,0-2.5c0.4-0.4,0.3-0.8-0.2-1.1c-0.4-0.2-1-0.1-1.4,0.1
			c-1.3,1.3-1.3,3,0,4.3l0.5,0.5c1,0.9,1,2.3,0,3.2l-0.5,0.5c-0.4,0.4-0.3,0.8,0.2,1.1c0.2,0.1,0.4,0.1,0.6,0.1s0.5-0.1,0.7-0.3
			l0.5-0.5C20.8,9.5,20.8,7.4,19.3,5.9z"/>
	</g>
</g>
<g id="XMLID_30_">
	<g id="XMLID_31_">
		<path id="XMLID_32_" class="st0" d="M17.9,13c-0.2-0.2-0.5-0.3-0.7-0.3s-0.5,0.1-0.7,0.3c-0.2,0.2-0.3,0.5-0.3,0.7
			c0,0.3,0.1,0.5,0.3,0.7c0.2,0.2,0.5,0.3,0.7,0.3s0.5-0.1,0.7-0.3c0.2-0.2,0.3-0.5,0.3-0.7C18.2,13.5,18.1,13.2,17.9,13z"/>
	</g>
</g>
<g id="XMLID_27_">
	<g id="XMLID_28_">
		<path id="XMLID_29_" class="st1" d="M38.5,21.1c-0.5,0-1,0.5-1,1c0,3.6-1.5,7.2-4,9.8c-0.4,0.4-0.4,1,0,1.4
			c0.2,0.2,0.5,0.3,0.7,0.3s0.5-0.1,0.7-0.3c2.9-2.9,4.6-7,4.6-11.1C39.5,21.6,39.1,21.1,38.5,21.1z"/>
	</g>
</g>
<g id="XMLID_24_">
	<g id="XMLID_25_">
		<path id="XMLID_26_" class="st1" d="M32,34.5c-0.3-0.5-0.8-0.6-1.4-0.4l0,0c-0.5,0.3-0.6,0.8-0.4,1.4c0.2,0.3,0.5,0.5,0.8,0.5
			c0.2,0,0.4,0,0.5-0.1l0,0C32.1,35.6,32.2,35,32,34.5z"/>
	</g>
</g>
<g id="XMLID_23_">
</g>
<g id="XMLID_22_">
</g>
<g id="XMLID_21_">
</g>
<g id="XMLID_20_">
</g>
<g id="XMLID_19_">
</g>
<g id="XMLID_18_">
</g>
<g id="XMLID_17_">
</g>
<g id="XMLID_16_">
</g>
<g id="XMLID_15_">
</g>
<g id="XMLID_14_">
</g>
<g id="XMLID_13_">
</g>
<g id="XMLID_12_">
</g>
<g id="XMLID_11_">
</g>
<g id="XMLID_10_">
</g>
<g id="XMLID_9_">
</g>
</svg>
