<?xml version="1.0" encoding="utf-8"?>
<!-- Generator: Adobe Illustrator 19.0.0, SVG Export Plug-In . SVG Version: 6.00 Build 0)  -->
<svg version="1.1" id="Layer_1" xmlns="http://www.w3.org/2000/svg" xmlns:xlink="http://www.w3.org/1999/xlink" x="0px" y="0px"
	 viewBox="0 0 200 200" style="enable-background:new 0 0 200 200;" xml:space="preserve">
<style type="text/css">
	.st0{fill:#CCD1E8;}
	.st1{fill:#00AEEF;}
	.st2{fill:#F6F9FB;}
	.st3{fill:none;stroke:#FFFFFF;stroke-width:2.422;stroke-linecap:round;stroke-linejoin:round;stroke-miterlimit:10;}
	.st4{fill:#FDB626;}
	.st5{fill:#364A5E;}
	.st6{fill:#AAB5BE;}
	.st7{fill:#F15926;}
	.st8{fill:#B53625;}
	.st9{fill:#293B4D;}
	.st10{fill:#E7EAED;}
</style>
<circle id="XMLID_206_" class="st0" cx="100" cy="100" r="100"/>
<rect id="XMLID_57_" x="16.3" y="27.7" class="st1" width="152" height="117.6"/>
<g id="XMLID_95_">
	<rect id="XMLID_56_" x="23.5" y="46.1" class="st2" width="137.5" height="0.5"/>
	<rect id="XMLID_55_" x="23.5" y="57.6" class="st2" width="137.5" height="0.5"/>
	<rect id="XMLID_54_" x="23.5" y="69" class="st2" width="137.5" height="0.5"/>
	<rect id="XMLID_53_" x="23.5" y="80.5" class="st2" width="137.5" height="0.5"/>
	<rect id="XMLID_52_" x="23.5" y="92" class="st2" width="137.5" height="0.5"/>
	<rect id="XMLID_51_" x="23.5" y="103.5" class="st2" width="137.5" height="0.5"/>
	<rect id="XMLID_50_" x="23.5" y="114.9" class="st2" width="137.5" height="0.5"/>
	<rect id="XMLID_49_" x="23.5" y="126.4" class="st2" width="137.5" height="0.5"/>
	<rect id="XMLID_48_" x="149.4" y="34.9" class="st2" width="0.5" height="103.2"/>
	<rect id="XMLID_47_" x="137.9" y="34.9" class="st2" width="0.5" height="103.2"/>
	<rect id="XMLID_46_" x="126.4" y="34.9" class="st2" width="0.5" height="103.2"/>
	<rect id="XMLID_45_" x="115" y="34.9" class="st2" width="0.5" height="103.2"/>
	<rect id="XMLID_44_" x="103.5" y="34.9" class="st2" width="0.5" height="103.2"/>
	<rect id="XMLID_43_" x="92.1" y="34.9" class="st2" width="0.5" height="103.2"/>
	<rect id="XMLID_42_" x="80.6" y="34.9" class="st2" width="0.5" height="103.2"/>
	<rect id="XMLID_41_" x="69.1" y="34.9" class="st2" width="0.5" height="103.2"/>
	<rect id="XMLID_40_" x="57.7" y="34.9" class="st2" width="0.5" height="103.2"/>
	<rect id="XMLID_39_" x="46.2" y="34.9" class="st2" width="0.5" height="103.2"/>
	<rect id="XMLID_38_" x="34.7" y="34.9" class="st2" width="0.5" height="103.2"/>
	<path id="XMLID_99_" class="st2" d="M162.1,139.1H22.5V33.9h139.6V139.1z M24.6,137.1h135.5V36H24.6V137.1z"/>
	<path id="XMLID_96_" class="st2" d="M94.9,121.9h-5.2c-0.5,0-0.9-0.3-1-0.8l-1.4-6.9c-1.6-0.3-3.1-0.7-4.6-1.2l-4.6,5.3
		c-0.3,0.4-0.9,0.5-1.3,0.2l-4.5-2.6c-0.4-0.2-0.6-0.8-0.5-1.2l2.2-6.6c-1.2-1-2.3-2.1-3.3-3.3l-6.6,2.2c-0.5,0.2-1,0-1.2-0.5
		l-2.6-4.5c-0.2-0.4-0.2-1,0.2-1.3l5.3-4.6c-0.5-1.5-0.9-3-1.2-4.5l-6.9-1.4c-0.5-0.1-0.8-0.5-0.8-1l0-5.2c0-0.5,0.3-0.9,0.8-1
		l6.9-1.4c0.3-1.5,0.7-3.1,1.2-4.5l-5.3-4.6c-0.4-0.3-0.5-0.9-0.2-1.3l2.6-4.5c0.2-0.4,0.8-0.6,1.2-0.5l6.6,2.2
		c1-1.2,2.1-2.3,3.3-3.3l-2.2-6.6c-0.2-0.5,0-1,0.5-1.2l4.5-2.6c0.4-0.2,1-0.2,1.3,0.2l4.6,5.3c1.5-0.5,3-0.9,4.5-1.2l1.4-6.9
		c0.1-0.5,0.5-0.8,1-0.8h5.2c0.5,0,0.9,0.3,1,0.8l1.4,6.9c1.6,0.3,3.1,0.7,4.5,1.2l4.6-5.3c0.3-0.4,0.9-0.5,1.3-0.2l4.5,2.6
		c0.4,0.2,0.6,0.8,0.5,1.2l-2.2,6.6c1.2,1,2.3,2.1,3.3,3.3l6.6-2.2c0.5-0.2,1,0,1.2,0.5l2.6,4.5c0.3,0.4,0.2,1-0.2,1.3l-5.3,4.6
		c0.5,1.5,0.9,3,1.2,4.5l6.9,1.4c0.5,0.1,0.8,0.5,0.8,1l0,5.2c0,0.5-0.3,0.9-0.8,1l-6.9,1.4c-0.3,1.5-0.7,3-1.2,4.5l5.3,4.6
		c0.4,0.3,0.5,0.9,0.2,1.3l-2.6,4.5c-0.2,0.4-0.8,0.6-1.2,0.5l-6.6-2.2c-1,1.2-2.1,2.3-3.3,3.3l2.2,6.6c0.2,0.5,0,1-0.5,1.2
		l-4.5,2.6c-0.4,0.2-1,0.2-1.3-0.2l-4.6-5.3c-1.5,0.5-3,0.9-4.5,1.2l-1.4,6.9C95.8,121.6,95.4,121.9,94.9,121.9z M90.6,119.9h3.5
		l1.3-6.7c0.1-0.4,0.4-0.8,0.9-0.8c1.9-0.3,3.8-0.8,5.5-1.5c0.4-0.2,0.9,0,1.1,0.3l4.5,5.2l3.1-1.8l-2.2-6.5c-0.1-0.4,0-0.9,0.3-1.1
		c1.5-1.2,2.8-2.5,4-4c0.3-0.3,0.7-0.5,1.1-0.3l6.5,2.2l1.8-3l-5.1-4.5c-0.3-0.3-0.4-0.7-0.3-1.1c0.7-1.8,1.2-3.6,1.5-5.5
		c0.1-0.4,0.4-0.8,0.8-0.9l6.7-1.4l0-3.5l-6.7-1.3c-0.4-0.1-0.8-0.4-0.8-0.9c-0.3-1.9-0.8-3.7-1.5-5.5c-0.2-0.4,0-0.9,0.3-1.1
		l5.1-4.5l-1.8-3.1l-6.5,2.2c-0.4,0.1-0.9,0-1.1-0.3c-1.2-1.5-2.5-2.8-4-4c-0.3-0.3-0.5-0.7-0.3-1.1l2.2-6.5l-3.1-1.8l-4.5,5.2
		c-0.3,0.3-0.7,0.4-1.1,0.3c-1.7-0.7-3.6-1.2-5.5-1.5c-0.4-0.1-0.8-0.4-0.9-0.8l-1.3-6.7h-3.5l-1.3,6.7c-0.1,0.4-0.4,0.8-0.9,0.8
		c-1.9,0.3-3.8,0.8-5.5,1.5c-0.4,0.2-0.9,0-1.1-0.3l-4.5-5.2l-3.1,1.8l2.2,6.5c0.1,0.4,0,0.9-0.3,1.1c-1.5,1.2-2.8,2.5-4,4
		c-0.3,0.3-0.7,0.5-1.1,0.3l-6.5-2.2l-1.8,3.1l5.1,4.5c0.3,0.3,0.4,0.7,0.3,1.1c-0.7,1.8-1.2,3.6-1.5,5.5c-0.1,0.4-0.4,0.8-0.8,0.9
		L59,84.7v3.5l6.7,1.4c0.4,0.1,0.8,0.4,0.8,0.9c0.3,1.9,0.8,3.7,1.5,5.5c0.2,0.4,0,0.9-0.3,1.1l-5.1,4.5l1.8,3l6.5-2.2
		c0.4-0.1,0.9,0,1.1,0.3c1.2,1.5,2.5,2.8,4,4c0.3,0.3,0.5,0.7,0.3,1.1l-2.2,6.5l3.1,1.8l4.5-5.2c0.3-0.3,0.7-0.4,1.1-0.3
		c1.8,0.7,3.6,1.2,5.5,1.5c0.4,0.1,0.8,0.4,0.9,0.8L90.6,119.9z"/>
</g>
<path id="XMLID_92_" class="st3" d="M92.3,73.5c-7.2,0-13,5.8-13,13c0,7.2,5.8,13,13,13c7.2,0,13-5.8,13-13
	C105.3,79.3,99.5,73.5,92.3,73.5z M92.3,93c-3.6,0-6.5-2.9-6.5-6.5c0-3.6,2.9-6.5,6.5-6.5c3.6,0,6.5,2.9,6.5,6.5
	C98.8,90.1,95.9,93,92.3,93z"/>
<path id="XMLID_89_" class="st4" d="M84.6,163.7h102.1V61.6L84.6,163.7z M121.5,148.5l50-50v50H121.5L121.5,148.5z"/>
<g id="XMLID_69_">
	<rect id="XMLID_29_" x="184" y="157.9" class="st5" width="2.7" height="1.3"/>
	<rect id="XMLID_28_" x="184" y="152.8" class="st5" width="2.7" height="1.3"/>
	<rect id="XMLID_27_" x="184" y="147.7" class="st5" width="2.7" height="1.3"/>
	<rect id="XMLID_26_" x="184" y="142.6" class="st5" width="2.7" height="1.3"/>
	<rect id="XMLID_25_" x="184" y="137.5" class="st5" width="2.7" height="1.3"/>
	<rect id="XMLID_24_" x="184" y="132.4" class="st5" width="2.7" height="1.3"/>
	<rect id="XMLID_23_" x="184" y="127.3" class="st5" width="2.7" height="1.3"/>
	<rect id="XMLID_22_" x="184" y="122.2" class="st5" width="2.7" height="1.3"/>
	<rect id="XMLID_21_" x="184" y="117.1" class="st5" width="2.7" height="1.3"/>
	<rect id="XMLID_20_" x="184" y="112" class="st5" width="2.7" height="1.3"/>
	<rect id="XMLID_19_" x="184" y="106.9" class="st5" width="2.7" height="1.3"/>
	<rect id="XMLID_18_" x="184" y="101.8" class="st5" width="2.7" height="1.3"/>
	<rect id="XMLID_17_" x="184" y="96.7" class="st5" width="2.7" height="1.3"/>
	<rect id="XMLID_16_" x="184" y="91.6" class="st5" width="2.7" height="1.3"/>
	<rect id="XMLID_15_" x="184" y="86.5" class="st5" width="2.7" height="1.3"/>
	<rect id="XMLID_14_" x="184" y="81.3" class="st5" width="2.7" height="1.3"/>
	<rect id="XMLID_13_" x="184" y="76.2" class="st5" width="2.7" height="1.3"/>
	<rect id="XMLID_12_" x="184" y="71.1" class="st5" width="2.7" height="1.3"/>
	<rect id="XMLID_11_" x="184" y="66" class="st5" width="2.7" height="1.3"/>
</g>
<polygon id="XMLID_10_" class="st2" points="39.3,62.2 35,48.2 30.7,62.2 "/>
<polygon id="XMLID_9_" class="st6" points="35,48.2 39.3,62.2 36.6,62.2 "/>
<rect id="XMLID_8_" x="30.7" y="62.2" class="st7" width="8.5" height="89.6"/>
<rect id="XMLID_7_" x="36.6" y="62.2" class="st8" width="2.7" height="89.6"/>
<polygon id="XMLID_6_" class="st5" points="36.7,53.7 35,48.2 33.3,53.7 "/>
<polygon id="XMLID_5_" class="st9" points="36.7,53.7 35,48.2 35.6,53.7 "/>
<rect id="XMLID_4_" x="30.7" y="151.8" class="st10" width="8.5" height="4.9"/>
<rect id="XMLID_3_" x="36.6" y="151.8" class="st6" width="2.7" height="4.9"/>
<path id="XMLID_2_" class="st5" d="M30.7,156.8v2.7c0,1.1,0.4,2.2,1.2,3c0.8,0.8,1.9,1.2,3,1.2c1.1,0,2.2-0.4,3-1.2
	c0.8-0.8,1.3-1.9,1.3-3v-2.7H30.7z"/>
<path id="XMLID_1_" class="st9" d="M36.6,156.8c0,1.1-0.4,2.2-1.3,3c-0.8,0.8-1.9,1.2-3,1.2c-0.5,0-0.9-0.1-1.3-0.2
	c0.2,0.6,0.5,1.2,1,1.7c0.8,0.8,1.9,1.2,3,1.2c1.1,0,2.2-0.4,3-1.2c0.8-0.8,1.3-1.9,1.3-3v-2.7L36.6,156.8L36.6,156.8z"/>
</svg>
