<?xml version="1.0" encoding="utf-8"?>
<!-- Generator: Adobe Illustrator 19.0.0, SVG Export Plug-In . SVG Version: 6.00 Build 0)  -->
<svg version="1.1" id="Layer_1" xmlns="http://www.w3.org/2000/svg" xmlns:xlink="http://www.w3.org/1999/xlink" x="0px" y="0px"
	 viewBox="0 0 200 200" style="enable-background:new 0 0 200 200;" xml:space="preserve">
<style type="text/css">
	.st0{fill:#CCD1E8;}
	.st1{fill:#676767;}
	.st2{fill:#FFFFFF;}
	.st3{fill:#00AEEF;}
	.st4{fill:#FAD24D;}
	.st5{fill:#F15D64;}
	.st6{fill:#48C1BA;}
	.st7{fill:#C2C2C4;}
	.st8{fill:#B0B1B1;}
	.st9{fill:#EDF0F1;}
	.st10{fill:#B7B7B9;}
	.st11{fill:#FDB626;}
	.st12{fill:#EDB936;}
	.st13{fill:#B53625;}
	.st14{fill:#F15926;}
</style>
<circle id="XMLID_202_" class="st0" cx="100" cy="100" r="100"/>
<ellipse id="XMLID_201_" class="st1" cx="102.4" cy="162.9" rx="71" ry="5.6"/>
<path id="XMLID_200_" class="st1" d="M21.7,19.4h152.6c5,0,9.1,4.1,9.1,9.1v94H12.6v-94C12.6,23.5,16.7,19.4,21.7,19.4z"/>
<g id="XMLID_253_">
	<path id="XMLID_199_" class="st2" d="M18.8,116.4h158.4V28.6c0-1.6-1.3-2.9-2.9-2.9H21.7c-1.6,0-2.9,1.3-2.9,2.9L18.8,116.4
		L18.8,116.4z"/>
	<path id="XMLID_198_" class="st2" d="M183.5,122.5v10c0,5-4.5,9.1-10,9.1H22.7c-5.5,0-10-4.1-10-9.1v-10H183.5z"/>
</g>
<path id="XMLID_197_" class="st3" d="M53.4,116.4V25.6H21.7c-1.6,0-2.9,1.3-2.9,2.9v87.8L53.4,116.4L53.4,116.4L53.4,116.4z"/>
<path id="XMLID_244_" class="st2" d="M25.8,36.3h21.6V39H25.8V36.3z M25.8,100h21.6v2.6H25.8V100z M25.8,87.3h18.1v2.6H25.8V87.3z
	 M25.8,74.5h21.6v2.6H25.8V74.5z M25.8,61.8h13.5v2.6H25.8V61.8z M25.8,49.1h14.8v2.6H25.8V49.1z"/>
<rect id="XMLID_189_" x="60.6" y="36.1" class="st4" width="20" height="2.6"/>
<rect id="XMLID_188_" x="84.4" y="36.1" class="st5" width="29.7" height="2.6"/>
<rect id="XMLID_187_" x="60.6" y="44.6" class="st6" width="20" height="2.6"/>
<rect id="XMLID_186_" x="84.4" y="44.6" class="st5" width="35.8" height="2.6"/>
<rect id="XMLID_185_" x="123.1" y="44.6" class="st4" width="5.2" height="2.6"/>
<rect id="XMLID_184_" x="60.6" y="53" class="st5" width="13.2" height="2.6"/>
<rect id="XMLID_183_" x="77.7" y="53" class="st6" width="26.7" height="2.6"/>
<g id="XMLID_233_">
	<rect id="XMLID_182_" x="108.3" y="53" class="st4" width="20" height="2.6"/>
	<rect id="XMLID_181_" x="60.6" y="61.5" class="st4" width="20" height="2.6"/>
</g>
<rect id="XMLID_180_" x="85.6" y="61.5" class="st5" width="42.1" height="2.6"/>
<rect id="XMLID_178_" x="129.8" y="61.5" class="st6" width="17.5" height="2.6"/>
<rect id="XMLID_177_" x="60.6" y="70" class="st5" width="24.6" height="2.6"/>
<rect id="XMLID_176_" x="89.9" y="70" class="st6" width="24.6" height="2.6"/>
<g id="XMLID_224_">
	<rect id="XMLID_175_" x="119.1" y="70" class="st4" width="24.6" height="2.6"/>
	<rect id="XMLID_174_" x="60.6" y="78.5" class="st4" width="20" height="2.6"/>
</g>
<rect id="XMLID_173_" x="84.4" y="78.5" class="st6" width="12" height="2.6"/>
<rect id="XMLID_172_" x="98.7" y="78.5" class="st5" width="12" height="2.6"/>
<path id="XMLID_171_" class="st7" d="M117.1,155.5l14.1,4.5H64.9l11.3-4.5v-13.9h40.9V155.5z"/>
<path id="XMLID_170_" class="st8" d="M117.1,155.5l-40.9-13.9h40.9V155.5z"/>
<path id="XMLID_169_" class="st9" d="M76.2,155.5h40.9l14.1,4.5v1.9H98H64.9V160L76.2,155.5L76.2,155.5z"/>
<circle id="XMLID_168_" class="st10" cx="98" cy="132.1" r="3"/>
<path id="XMLID_165_" class="st11" d="M144.4,125.7h40.1l-3.4,32.9c-4.8,6.5-10.6,13.1-17.1,18.3l-15.3-0.4L144.4,125.7L144.4,125.7
	L144.4,125.7z"/>
<path id="XMLID_164_" class="st12" d="M144.4,125.7h40.1l-0.3,3h-39.5L144.4,125.7z"/>
<path id="XMLID_163_" class="st13" d="M152.6,117.4h23.6c1.1,0,2.1,0.9,2.1,2.1v2.1h-27.8v-2.1C150.5,118.4,151.5,117.4,152.6,117.4
	z"/>
<path id="XMLID_162_" class="st14" d="M144.9,119.6h39c1.3,0,2.3,1,2.3,2.3v5.2c0,0,0,0,0,0h-43.5c0,0,0,0,0,0v-5.2
	C142.6,120.6,143.7,119.6,144.9,119.6z"/>
<path id="XMLID_161_" class="st12" d="M148.7,176.5h15.7c-0.6,0.5-1.3,1-1.9,1.5H149c-0.2,0-0.3-0.1-0.3-0.3L148.7,176.5
	L148.7,176.5z"/>
<path id="XMLID_159_" class="st2" d="M145.9,143.9h36.9c0.9,0,1.2,0.8,1.1,1.9l-1.7,11.4c-0.8,1.1-0.3,0.5-1.2,1.5h-33.2
	c-0.9,0-1-0.4-1.2-1.4l-1.7-11.5C144.8,144.7,145,143.9,145.9,143.9z"/>
<path id="XMLID_58_" class="st12" d="M160.7,146.3c0,0,1.4,0.6,0.7,2.7c-0.7,2.1-0.9,3.2,0,4.2c0.8,1-0.6,1-1.3,0.5
	C156.8,151.2,158.6,145.8,160.7,146.3z M167.9,150.6c0,0,0.3,1.5-1.9,2.1c-0.9,0.2-1.5,0.4-2.1,0.7c0.7-0.7,1.2-2.1,1.1-3.5
	C166.4,149.5,167.6,149.7,167.9,150.6L167.9,150.6z M163.1,153.9c-0.3,0.3-0.5,0.6-0.6,1c-0.3,1.2-1.1,0.2-1.1-0.7
	c0.3-0.1,0.5-0.2,0.6-0.5c0.1,0.1,0.2,0.1,0.3,0.2C162.6,154,162.8,154,163.1,153.9L163.1,153.9L163.1,153.9L163.1,153.9z
	 M162.7,156.1c0,0-0.3-1.5,1.9-2.1c2.2-0.6,3.1-1,3.5-2.2c0.4-1.2,1.2-0.1,1.1,0.8C168.8,156.6,163.4,158.1,162.7,156.1L162.7,156.1
	z M162.4,153.6c0,0-1.4-0.6-0.7-2.7c0.7-2.1,0.9-3.2,0-4.2c-0.8-1,0.6-1,1.3-0.5C166.2,148.8,164.5,154.2,162.4,153.6L162.4,153.6
	L162.4,153.6z"/>
</svg>
