<?xml version="1.0" encoding="utf-8"?>
<!-- Generator: Adobe Illustrator 19.0.0, SVG Export Plug-In . SVG Version: 6.00 Build 0)  -->
<svg version="1.1" id="Layer_1" xmlns="http://www.w3.org/2000/svg" xmlns:xlink="http://www.w3.org/1999/xlink" x="0px" y="0px"
	 viewBox="-49 141 512 512" style="enable-background:new -49 141 512 512;" xml:space="preserve">
<style type="text/css">
	.st0{fill:#E7EAF5;}
	.st1{fill:#CCD1E8;}
	.st2{fill:#BBC3E1;}
</style>
<circle class="st0" cx="207" cy="397" r="256"/>
<g>
	<path class="st1" d="M268.8,373.7v47.2c0,8.6-7.1,15.7-15.7,15.7h-94.4c-8.6,0-15.7-7.1-15.7-15.7v-47.2c0-8.6,7.1-15.7,15.7-15.7
		H253C261.7,358,268.8,365.1,268.8,373.7z"/>
	<path class="st1" d="M268.8,232.2v47.2c0,8.6-7.1,15.7-15.7,15.7h-94.4c-8.6,0-15.7-7.1-15.7-15.7v-47.2c0-8.6,7.1-15.7,15.7-15.7
		H253C261.7,216.5,268.8,223.5,268.8,232.2z"/>
	<path class="st1" d="M268.8,515.3v47.2c0,8.6-7.1,15.7-15.7,15.7h-94.4c-8.6,0-15.7-7.1-15.7-15.7v-47.2c0-8.6,7.1-15.7,15.7-15.7
		H253C261.7,499.6,268.8,506.6,268.8,515.3z"/>
	<g>
		<path class="st2" d="M355.3,247.9H143c-4.3,0-7.9,3.5-7.9,7.9c0,4.3,3.5,7.9,7.9,7.9h212.2c3.6,0.1,8,1.5,8,7.9v110
			c-0.1,3.6-1.5,8-7.9,8h-28.2l10.2-10.2c3.1-3.1,3.1-8,0-11.1c-3.1-3.1-8-3.1-11.1,0l-23.6,23.6c-0.7,0.7-1.3,1.6-1.7,2.6
			c-0.8,1.9-0.8,4.1,0,6c0.4,1,1,1.8,1.7,2.6l23.6,23.6c1.5,1.5,3.5,2.3,5.6,2.3c2,0,4-0.8,5.6-2.3c3.1-3.1,3.1-8,0-11.1l-10.2-10.2
			h28.2c17.3,0,23.6-14.1,23.6-23.6V271.5C378.9,254.2,364.8,247.9,355.3,247.9L355.3,247.9z"/>
		<path class="st2" d="M268.8,389.5H56.5c-9.5,0-23.6,6.3-23.6,23.6v110.1c0,9.5,6.3,23.6,23.6,23.6h28.2l-10.2,10.2
			c-3.1,3.1-3.1,8,0,11.1c1.5,1.5,3.5,2.3,5.6,2.3c2,0,4-0.8,5.6-2.3l23.6-23.6c0.7-0.7,1.3-1.6,1.7-2.6c0.8-1.9,0.8-4.1,0-6
			c-0.4-1-1-1.8-1.7-2.6l-23.6-23.6c-3.1-3.1-8-3.1-11.1,0s-3.1,8,0,11.1L84.7,531H56.5c-6.3,0-7.8-4.3-7.9-7.9V413.1
			c0-6.3,4.3-7.8,7.9-7.9h212.3c4.3,0,7.9-3.5,7.9-7.9C276.6,393,273.1,389.5,268.8,389.5z"/>
	</g>
	<g>
		<path class="st2" d="M190.1,531h-7.9c-4.3,0-7.9,3.5-7.9,7.9s3.5,7.9,7.9,7.9h7.9c4.3,0,7.9-3.5,7.9-7.9
			C198,534.5,194.5,531,190.1,531z"/>
		<path class="st2" d="M221.6,546.7h7.9c4.3,0,7.9-3.5,7.9-7.9c0-4.3-3.5-7.9-7.9-7.9h-7.9c-4.3,0-7.9,3.5-7.9,7.9
			C213.7,543.2,217.2,546.7,221.6,546.7z"/>
	</g>
	<g>
		<path class="st2" d="M198,295.1h15.7V358H198V295.1L198,295.1z"/>
		<path class="st2" d="M198,436.7h15.7v62.9H198V436.7L198,436.7z"/>
	</g>
</g>
</svg>
