<?xml version="1.0" encoding="utf-8"?>
<!-- Generator: Adobe Illustrator 19.0.0, SVG Export Plug-In . SVG Version: 6.00 Build 0)  -->
<svg version="1.1" id="Layer_1" xmlns="http://www.w3.org/2000/svg" xmlns:xlink="http://www.w3.org/1999/xlink" x="0px" y="0px"
	 viewBox="0 0 200 200" style="enable-background:new 0 0 200 200;" xml:space="preserve">
<style type="text/css">
	.st0{fill:#CCD1E8;}
	.st1{fill:#FDB626;}
	.st2{fill:#A3503E;}
	.st3{fill:#8C442E;}
	.st4{fill:#B45D4C;}
	.st5{fill:#FFE376;}
	.st6{fill:#E47525;}
	.st7{fill:#FAA834;}
</style>
<circle id="XMLID_208_" class="st0" cx="100" cy="100" r="100"/>
<path id="XMLID_267_" class="st1" d="M69.6,63c-8,0-14.6-6.5-14.6-14.6s6.5-14.6,14.6-14.6s14.6,6.5,14.6,14.6S77.6,63,69.6,63z"/>
<g id="XMLID_279_">
	<path id="XMLID_265_" class="st1" d="M171.1,114.1c-5.4,0-9.7-4.4-9.7-9.7c0-5.4,4.4-9.7,9.7-9.7c5.4,0,9.7,4.4,9.7,9.7
		C180.8,109.7,176.4,114.1,171.1,114.1z"/>
	<path id="XMLID_264_" class="st1" d="M156.5,143.2h-4.9v-4.9c0-2.7-2.2-4.9-4.9-4.9s-4.9,2.2-4.9,4.9v4.9h-4.9
		c-2.7,0-4.9,2.2-4.9,4.9s2.2,4.9,4.9,4.9h4.9v4.9c0,2.7,2.2,4.9,4.9,4.9c2.7,0,4.9-2.2,4.9-4.9v-4.9h4.9c2.7,0,4.9-2.2,4.9-4.9
		C161.3,145.4,159.2,143.2,156.5,143.2z"/>
</g>
<path id="XMLID_276_" class="st2" d="M184.9,24.6c-4.4-4.4-10.5-7.1-16.7-6.7c-6.3,0.4-12.2,3.4-16.1,8.3l-50.6,61.3
	c-1.5,1.9-1.4,4.7,0.3,6.5l13.7,13.7c1.8,1.8,4.6,1.9,6.5,0.3l61.3-50.6c4.9-3.9,7.9-9.8,8.3-16.1C191.9,35.1,189.2,29,184.9,24.6z
	 M171.3,45c-1.9,1.9-4.9,1.9-6.9,0s-1.9-4.9,0-6.9c1.9-1.9,4.9-1.9,6.9,0C173.3,40,173.3,43,171.3,45z"/>
<path id="XMLID_259_" class="st3" d="M184.9,24.6l-13.5,13.5c1.9,1.9,1.9,4.9,0,6.9c-1.9,1.9-4.9,1.9-6.9,0l-55.9,55.9l6.9,6.9
	c1.8,1.8,4.6,1.9,6.5,0.3l61.3-50.6c4.9-3.9,7.9-9.8,8.3-16.1C191.9,35.1,189.2,29,184.9,24.6z"/>
<path id="XMLID_258_" class="st4" d="M132.2,138.3l-13.4,0.3l-48.1-48l0.3-13.4c9.4-6.2,22.2-5.2,30.5,3.1l27.5,27.5
	C137.4,116.1,138.5,128.9,132.2,138.3z"/>
<path id="XMLID_257_" class="st2" d="M132.2,138.3l-13.4,0.3l-24-24L115.4,94l13.7,13.7C137.4,116.1,138.5,128.9,132.2,138.3z"/>
<path id="XMLID_255_" class="st5" d="M125.7,145.5l-17.2,17.2c-9.5,9.5-24.8,9.5-34.3,0l-0.1-0.1l-6.6-7l-7.1-6.7l-6.9-6.9l-8.2-8.6
	l-5.4-5l-6.9-6.9c-9.5-9.5-9.5-24.8,0-34.3l6.9-6.9c1.9-1.9,4.9-1.9,6.9,0c1.9,1.9,1.9,4.9,0,6.9c-1.9,1.9-1.9,4.9,0,6.9
	c1.9,1.9,4.9,1.9,6.9,0l10.3-10.3c2.7-2.6,4.1-4.5,7.2-6.5l61.1,61.1C130.2,141.3,128.2,142.8,125.7,145.5z"/>
<path id="XMLID_254_" class="st1" d="M125.7,145.5l-17.2,17.2c-9.5,9.5-24.8,9.5-34.3,0l-0.1-0.1l-6.6-7l-7.1-6.7l41.2-41.2
	l30.5,30.5C130.2,141.3,128.2,142.8,125.7,145.5z"/>
<path id="XMLID_251_" class="st6" d="M87.9,148.9c-1.9-1.9-5-1.9-6.9,0c-5.7,5.7-14.9,5.7-20.6,0l13.6,13.6
	c5.1-0.7,9.9-2.9,13.8-6.8C89.8,153.9,89.8,150.8,87.9,148.9z"/>
<path id="XMLID_250_" class="st7" d="M67.4,128.4c-1.9-1.9-5-1.9-6.9,0c-5.7,5.7-14.9,5.7-20.6,0L53.5,142c5.1-0.7,9.9-2.9,13.8-6.8
	C69.3,133.3,69.3,130.2,67.4,128.4z"/>
</svg>
