<?xml version="1.0" encoding="utf-8"?>
<!-- Generator: Adobe Illustrator 19.0.0, SVG Export Plug-In . SVG Version: 6.00 Build 0)  -->
<svg version="1.1" id="Layer_1" xmlns="http://www.w3.org/2000/svg" xmlns:xlink="http://www.w3.org/1999/xlink" x="0px" y="0px"
	 viewBox="228 -228 512 512" style="enable-background:new 228 -228 512 512;" xml:space="preserve">
<style type="text/css">
	.st0{fill:#3E396B;}
	.st1{fill:#BBC3DF;}
</style>
<path class="st0" d="M674.8-124c-63.9-17.5-128.2-44.8-185.8-78.8c-3.1-1.8-6.9-1.8-9.9,0c-59.4,35-120.1,60.8-185.9,78.8
	c-4.2,1.2-7.2,5-7.2,9.4v99.8C286,88,333.4,156,373.2,195c42.8,42,92.7,65.2,110.8,65.2c18.1,0,68-23.2,110.8-65.2
	C634.6,156,682,88,682-14.8v-99.8C682-119,679.1-122.8,674.8-124z M662.5-14.8c0,96-44.2,159.5-81.3,195.8
	C539,222.3,494,240.6,484,240.6c-10,0-55-18.3-97.1-59.6c-37.1-36.4-81.3-99.8-81.3-195.8v-92.4c62.8-17.8,121.3-42.7,178.5-75.9
	c55.7,32.3,117.1,58.4,178.5,75.9V-14.8z"/>
<path class="st1" d="M397.4-108.2c-2-5-7.6-7.5-12.7-5.5c-17.4,6.9-35.4,13.2-53.2,18.8c-4.1,1.3-6.8,5.1-6.8,9.3v37.7
	c0,5.4,4.4,9.8,9.8,9.8c5.4,0,9.8-4.4,9.8-9.8v-30.6c16-5.2,32-10.9,47.7-17.1C396.9-97.6,399.4-103.2,397.4-108.2z"/>
<path class="st1" d="M416-106.4c1.3,0,2.6-0.3,3.9-0.8l0.2-0.1c4.9-2.2,7.2-7.9,5-12.9c-2.2-4.9-8-7.2-12.9-5l-0.2,0.1
	c-4.9,2.2-7.2,7.9-5,12.9C408.6-108.6,412.2-106.4,416-106.4z"/>
<path class="st1" d="M600.4,110.8c-4.5-3-10.6-1.7-13.5,2.8c-8,12.3-17.5,24.1-28.1,35.1c-8.7,9-18.1,17.4-28,24.9
	c-4.3,3.3-5.1,9.4-1.8,13.7c1.9,2.5,4.8,3.8,7.8,3.8c2.1,0,4.1-0.7,5.9-2c10.7-8.1,20.8-17.2,30.2-26.9c11.4-11.8,21.7-24.6,30.4-38
	C606.2,119.8,604.9,113.7,600.4,110.8z"/>
<path class="st1" d="M508.1,188.9l-0.6,0.3c-4.7,2.7-6.3,8.7-3.6,13.3c1.8,3.1,5.1,4.9,8.5,4.9c1.7,0,3.3-0.4,4.9-1.3l0.6-0.4
	c4.7-2.7,6.2-8.7,3.5-13.4C518.7,187.8,512.7,186.2,508.1,188.9z"/>
<path class="st0" d="M417.4,8.1c-6-6-14-9.3-22.5-9.3c-8.5,0-16.5,3.3-22.5,9.3c-12.4,12.4-12.4,32.5,0,44.9l57.7,57.7
	c6,6,14,9.3,22.5,9.3s16.5-3.3,22.5-9.3L595.5-9.7c12.4-12.4,12.4-32.5,0-44.9c-6-6-14-9.3-22.5-9.3c-8.5,0-16.5,3.3-22.5,9.3
	l-97.9,97.9L417.4,8.1z M564.4-40.9c2.3-2.3,5.4-3.6,8.6-3.6c3.3,0,6.3,1.3,8.6,3.6c4.8,4.8,4.8,12.5,0,17.3L461.3,96.8
	c-2.3,2.3-5.4,3.6-8.6,3.6s-6.3-1.3-8.6-3.6l-57.7-57.7c-4.8-4.8-4.8-12.5,0-17.3c2.3-2.3,5.4-3.6,8.6-3.6s6.3,1.3,8.6,3.6L445.7,64
	c1.8,1.8,4.3,2.9,6.9,2.9s5.1-1,6.9-2.9L564.4-40.9z"/>
<g id="XMLID_9_">
</g>
</svg>
