<?xml version="1.0" encoding="utf-8"?>
<!-- Generator: Adobe Illustrator 19.0.0, SVG Export Plug-In . SVG Version: 6.00 Build 0)  -->
<svg version="1.1" id="Layer_1" xmlns="http://www.w3.org/2000/svg" xmlns:xlink="http://www.w3.org/1999/xlink" x="0px" y="0px"
	 viewBox="0 0 1920 800" style="enable-background:new 0 0 1920 800;" xml:space="preserve">
<style type="text/css">
	.st0{fill:url(#XMLID_656_);}
	.st1{opacity:0.1;fill:#FFFFFF;}
	.st2{fill:url(#XMLID_657_);}
	.st3{fill:url(#XMLID_658_);}
	.st4{fill:url(#XMLID_659_);}
	.st5{fill:url(#XMLID_660_);}
	.st6{fill:url(#XMLID_661_);}
	.st7{fill:#EFEFF8;}
	.st8{fill:#FFFFFF;}
	.st9{fill:url(#XMLID_662_);}
	.st10{fill:#D2D4EB;}
	.st11{opacity:0.4;}
	.st12{fill:url(#XMLID_663_);}
	.st13{fill:url(#XMLID_664_);}
	.st14{fill:url(#XMLID_665_);}
	.st15{fill:url(#XMLID_666_);}
	.st16{fill:url(#XMLID_667_);}
	.st17{fill:url(#XMLID_668_);}
	.st18{fill:url(#XMLID_669_);}
	.st19{fill:url(#XMLID_670_);}
	.st20{fill:#D3D5EC;}
	.st21{fill:url(#XMLID_671_);}
	.st22{fill:url(#XMLID_672_);}
	.st23{fill:url(#XMLID_673_);}
	.st24{fill:url(#XMLID_674_);}
	.st25{fill:url(#XMLID_675_);}
	.st26{fill:none;stroke:#221F54;stroke-width:8;stroke-miterlimit:10;}
	.st27{fill:url(#XMLID_676_);}
	.st28{fill:url(#XMLID_677_);}
	.st29{fill:#E54699;}
	.st30{fill:#2B55A6;}
	.st31{fill:#992867;}
	.st32{fill:url(#XMLID_678_);}
	.st33{fill:url(#XMLID_679_);}
	.st34{fill:url(#XMLID_680_);}
	.st35{fill:url(#XMLID_681_);}
	.st36{fill:url(#XMLID_682_);}
	.st37{fill:url(#XMLID_683_);}
</style>
<linearGradient id="XMLID_656_" gradientUnits="userSpaceOnUse" x1="-309.7892" y1="14.6621" x2="2178.6753" y2="14.6621">
	<stop  offset="0" style="stop-color:#4869B2"/>
	<stop  offset="1" style="stop-color:#45A7DE"/>
</linearGradient>
<polygon id="XMLID_188_" class="st0" points="2178.7,32.2 293,1080.9 -309.8,-2.9 1575.9,-1051.6 "/>
<rect id="XMLID_189_" x="1519.2" y="-413.1" class="st1" width="22.5" height="1513.3"/>
<rect id="XMLID_190_" x="1409" y="-1002.6" class="st1" width="34.1" height="1513.3"/>
<rect id="XMLID_191_" x="950.4" y="-788.1" class="st1" width="145.4" height="1513.3"/>
<rect id="XMLID_192_" x="1176.3" y="-880.1" class="st1" width="57" height="1513.3"/>
<rect id="XMLID_193_" x="1634.1" y="-1018.8" class="st1" width="119.1" height="1513.3"/>
<g id="XMLID_195_">
	<linearGradient id="XMLID_657_" gradientUnits="userSpaceOnUse" x1="1236.323" y1="586.6647" x2="1297.2799" y2="586.6647">
		<stop  offset="0" style="stop-color:#FFFFFF"/>
		<stop  offset="0.45" style="stop-color:#FFFFFF"/>
		<stop  offset="0.6" style="stop-color:#D2D4EB"/>
		<stop  offset="1" style="stop-color:#D2D4EB"/>
	</linearGradient>
	<rect id="XMLID_196_" x="1236.3" y="173.8" class="st2" width="61" height="825.8"/>
	<linearGradient id="XMLID_658_" gradientUnits="userSpaceOnUse" x1="1236.323" y1="173.771" x2="1297.2799" y2="173.771">
		<stop  offset="0" style="stop-color:#3E396B"/>
		<stop  offset="1" style="stop-color:#161D29"/>
	</linearGradient>
	<path id="XMLID_197_" class="st3" d="M1296.1,175.4l-26.3,15.5c-1.6,1-4.3,1-5.9,0l-26.4-15.5c-1.6-1-1.6-2.5,0-3.5l26.3-15.4
		c1.6-1,4.3-1,5.9,0l26.3,15.4C1297.7,172.9,1297.7,174.5,1296.1,175.4z"/>
</g>
<g id="XMLID_198_">
	<linearGradient id="XMLID_659_" gradientUnits="userSpaceOnUse" x1="1501.0432" y1="659.5499" x2="1616.4199" y2="659.5499">
		<stop  offset="0" style="stop-color:#FFFFFF"/>
		<stop  offset="0.45" style="stop-color:#FFFFFF"/>
		<stop  offset="0.6" style="stop-color:#D2D4EB"/>
		<stop  offset="1" style="stop-color:#D2D4EB"/>
	</linearGradient>
	<rect id="XMLID_199_" x="1501" y="320.7" class="st4" width="115.4" height="677.7"/>
	<linearGradient id="XMLID_660_" gradientUnits="userSpaceOnUse" x1="1501.0432" y1="320.7113" x2="1616.4199" y2="320.7113">
		<stop  offset="0" style="stop-color:#3E396B"/>
		<stop  offset="1" style="stop-color:#161D29"/>
	</linearGradient>
	<path id="XMLID_200_" class="st5" d="M1614.1,323.9l-49.7,29.4c-3.1,1.8-8.1,1.8-11.1,0l-49.9-29.4c-3.1-1.8-3.1-4.7,0-6.5
		l49.8-29.2c3.1-1.8,8.1-1.8,11.1,0l49.8,29.2C1617.2,319.1,1617.2,322.1,1614.1,323.9z"/>
</g>
<g id="XMLID_201_">
	<linearGradient id="XMLID_661_" gradientUnits="userSpaceOnUse" x1="1317.2488" y1="569.1216" x2="1471.6204" y2="569.1216">
		<stop  offset="0" style="stop-color:#FFFFFF"/>
		<stop  offset="0.45" style="stop-color:#FFFFFF"/>
		<stop  offset="0.6" style="stop-color:#D2D4EB"/>
		<stop  offset="1" style="stop-color:#D2D4EB"/>
	</linearGradient>
	<rect id="XMLID_202_" x="1317.2" y="221.8" class="st6" width="154.4" height="694.6"/>
	<g id="XMLID_203_">
		<path id="XMLID_606_" class="st7" d="M1394.5,266.2c-2.6,0-5.1-0.6-6.9-1.7l-66.8-39.3c-1.7-1-2.6-2.2-2.6-3.5
			c0-1.3,0.9-2.5,2.6-3.5l66.6-39c1.8-1.1,4.3-1.7,7-1.7s5.1,0.6,7,1.7l66.6,39c1.7,1,2.6,2.2,2.6,3.5s-0.9,2.5-2.6,3.5l-66.6,39.3
			C1399.6,265.6,1397.2,266.2,1394.5,266.2z"/>
		<path id="XMLID_594_" class="st8" d="M1394.4,178.5c2.4,0,4.8,0.6,6.4,1.5l66.6,39c1.3,0.8,2.1,1.7,2.1,2.7c0,0.9-0.8,1.9-2.1,2.7
			l-66.6,39.3c-1.7,1-4,1.5-6.4,1.5c-2.4,0-4.8-0.6-6.4-1.5l-66.8-39.3c-1.3-0.8-2.1-1.8-2.1-2.7c0-0.9,0.8-1.9,2.1-2.6l66.6-39
			C1389.7,179,1392,178.5,1394.4,178.5 M1394.4,176.5c-2.7,0-5.4,0.6-7.5,1.8l-66.6,39c-4.1,2.4-4.1,6.3,0,8.8l66.8,39.3
			c2.1,1.2,4.7,1.8,7.4,1.8c2.7,0,5.4-0.6,7.5-1.8l66.6-39.3c4.1-2.4,4.1-6.3,0-8.8l-66.6-39
			C1399.8,177.1,1397.1,176.5,1394.4,176.5L1394.4,176.5z"/>
	</g>
</g>
<linearGradient id="XMLID_662_" gradientUnits="userSpaceOnUse" x1="1388.7087" y1="851.498" x2="1655.8656" y2="851.498">
	<stop  offset="0" style="stop-color:#FFFFFF"/>
	<stop  offset="0.45" style="stop-color:#FFFFFF"/>
	<stop  offset="0.6" style="stop-color:#D2D4EB"/>
	<stop  offset="1" style="stop-color:#D2D4EB"/>
</linearGradient>
<rect id="XMLID_204_" x="1388.7" y="563.3" class="st9" width="267.2" height="576.5"/>
<g id="XMLID_205_">
	<path id="XMLID_592_" class="st7" d="M1522.5,640.8c-4.7,0-9.1-1.1-12.4-3l-115.5-68.1c-3.1-1.8-4.8-4.2-4.8-6.7
		c0-2.5,1.7-4.9,4.9-6.7l115.3-67.5c3.3-1.9,7.7-3,12.4-3c4.7,0,9.1,1.1,12.4,3l115.3,67.5c3.1,1.8,4.9,4.2,4.9,6.7
		c0,2.5-1.7,4.9-4.8,6.7l-115.2,68C1531.5,639.7,1527.1,640.8,1522.5,640.8z"/>
	<path id="XMLID_589_" class="st8" d="M1522.3,486.8c4.5,0,8.7,1,11.9,2.9l115.3,67.5c2.8,1.6,4.4,3.7,4.4,5.8
		c0,2.1-1.5,4.2-4.3,5.9l-115.2,68c-3.1,1.9-7.4,2.9-11.9,2.9c-4.5,0-8.7-1-11.8-2.9l-115.5-68.1c-2.8-1.7-4.3-3.7-4.3-5.9
		c0-2.1,1.6-4.2,4.4-5.8l115.3-67.5C1513.5,487.8,1517.8,486.8,1522.3,486.8 M1522.3,484.8c-4.7,0-9.3,1-12.9,3.1l-115.3,67.5
		c-7.1,4.2-7.1,11,0,15.1l115.5,68.1c3.6,2.1,8.2,3.1,12.9,3.1c4.7,0,9.3-1.1,12.9-3.2l115.2-68c7.1-4.2,7.1-11,0-15.2l-115.3-67.5
		C1531.6,485.8,1527,484.8,1522.3,484.8L1522.3,484.8z"/>
</g>
<g id="XMLID_206_">
	<path id="XMLID_207_" class="st8" d="M1545.3,648.1c0,1-0.9,2-2.2,2.4c-1.7,0.5-3.4-0.2-3.4-1.8c0-1.5,1.7-2.7,3.4-2.6
		C1544.5,646.3,1545.3,647.1,1545.3,648.1z"/>
	<path id="XMLID_208_" class="st8" d="M1556.8,642.2c0,1-0.9,2-2.2,2.4c-1.7,0.5-3.4-0.2-3.4-1.8c0-1.5,1.7-2.7,3.4-2.6
		C1556,640.4,1556.8,641.3,1556.8,642.2z"/>
	<path id="XMLID_209_" class="st8" d="M1568.2,635.7c0,1-0.9,2-2.2,2.4c-1.7,0.5-3.4-0.2-3.4-1.8c0-1.5,1.7-2.7,3.4-2.6
		C1567.3,633.9,1568.2,634.7,1568.2,635.7z"/>
	<path id="XMLID_210_" class="st8" d="M1579.7,629.8c0,1-0.9,2-2.2,2.4c-1.7,0.5-3.4-0.2-3.4-1.8c0-1.5,1.7-2.7,3.4-2.6
		C1578.8,628,1579.7,628.9,1579.7,629.8z"/>
	<path id="XMLID_211_" class="st8" d="M1590.8,623.1c0,1-0.9,2-2.2,2.4c-1.7,0.5-3.4-0.2-3.4-1.8c0-1.5,1.7-2.7,3.4-2.6
		C1590,621.3,1590.8,622.1,1590.8,623.1z"/>
	<path id="XMLID_212_" class="st8" d="M1602.2,616.6c0,1-0.9,2-2.2,2.4c-1.7,0.5-3.4-0.2-3.4-1.8c0-1.5,1.7-2.7,3.4-2.6
		C1601.3,614.8,1602.2,615.6,1602.2,616.6z"/>
	<path id="XMLID_213_" class="st8" d="M1613.7,610.7c0,1-0.9,2-2.2,2.4c-1.7,0.5-3.4-0.2-3.4-1.8c0-1.5,1.7-2.7,3.4-2.6
		C1612.8,608.9,1613.7,609.7,1613.7,610.7z"/>
	<path id="XMLID_214_" class="st8" d="M1545.5,662c0,1-0.9,2-2.2,2.4c-1.7,0.5-3.4-0.2-3.4-1.8c0-1.5,1.7-2.7,3.4-2.6
		C1544.6,660.1,1545.5,661,1545.5,662z"/>
	<path id="XMLID_215_" class="st8" d="M1557,656.1c0,1-0.9,2-2.2,2.4c-1.7,0.5-3.4-0.2-3.4-1.8c0-1.5,1.7-2.7,3.4-2.6
		C1556.1,654.3,1557,655.1,1557,656.1z"/>
	<path id="XMLID_216_" class="st8" d="M1568.4,649.6c0,1-0.9,2-2.2,2.4c-1.7,0.5-3.4-0.2-3.4-1.8c0-1.5,1.7-2.7,3.4-2.6
		C1567.5,647.7,1568.4,648.6,1568.4,649.6z"/>
	<path id="XMLID_217_" class="st8" d="M1579.9,643.7c0,1-0.9,2-2.2,2.4c-1.7,0.5-3.4-0.2-3.4-1.8c0-1.5,1.7-2.7,3.4-2.6
		C1579,641.9,1579.9,642.7,1579.9,643.7z"/>
	<path id="XMLID_218_" class="st8" d="M1591,637c0,1-0.9,2-2.2,2.4c-1.7,0.5-3.4-0.2-3.4-1.8c0-1.5,1.7-2.7,3.4-2.6
		C1590.1,635.2,1591,636,1591,637z"/>
	<path id="XMLID_219_" class="st8" d="M1602.4,630.5c0,1-0.9,2-2.2,2.4c-1.7,0.5-3.4-0.2-3.4-1.8c0-1.5,1.7-2.7,3.4-2.6
		C1601.5,628.6,1602.4,629.5,1602.4,630.5z"/>
	<path id="XMLID_220_" class="st8" d="M1613.9,624.6c0,1-0.9,2-2.2,2.4c-1.7,0.5-3.4-0.2-3.4-1.8c0-1.5,1.7-2.7,3.4-2.6
		C1613,622.8,1613.9,623.6,1613.9,624.6z"/>
	<path id="XMLID_221_" class="st8" d="M1545.5,677.6c0,1-0.9,2-2.2,2.4c-1.7,0.5-3.4-0.2-3.4-1.8c0-1.5,1.7-2.7,3.4-2.6
		C1544.6,675.8,1545.5,676.6,1545.5,677.6z"/>
	<path id="XMLID_222_" class="st8" d="M1557,671.7c0,1-0.9,2-2.2,2.4c-1.7,0.5-3.4-0.2-3.4-1.8c0-1.5,1.7-2.7,3.4-2.6
		C1556.1,669.9,1557,670.7,1557,671.7z"/>
	<path id="XMLID_223_" class="st8" d="M1568.4,665.2c0,1-0.9,2-2.2,2.4c-1.7,0.5-3.4-0.2-3.4-1.8c0-1.5,1.7-2.7,3.4-2.6
		C1567.5,663.4,1568.4,664.2,1568.4,665.2z"/>
	<path id="XMLID_224_" class="st8" d="M1579.9,659.3c0,1-0.9,2-2.2,2.4c-1.7,0.5-3.4-0.2-3.4-1.8c0-1.5,1.7-2.7,3.4-2.6
		C1579,657.5,1579.9,658.3,1579.9,659.3z"/>
	<path id="XMLID_225_" class="st8" d="M1591,652.6c0,1-0.9,2-2.2,2.4c-1.7,0.5-3.4-0.2-3.4-1.8c0-1.5,1.7-2.7,3.4-2.6
		C1590.1,650.8,1591,651.6,1591,652.6z"/>
	<path id="XMLID_226_" class="st8" d="M1602.4,646.1c0,1-0.9,2-2.2,2.4c-1.7,0.5-3.4-0.2-3.4-1.8c0-1.5,1.7-2.7,3.4-2.6
		C1601.5,644.2,1602.4,645.1,1602.4,646.1z"/>
	<path id="XMLID_227_" class="st8" d="M1613.9,640.2c0,1-0.9,2-2.2,2.4c-1.7,0.5-3.4-0.2-3.4-1.8c0-1.5,1.7-2.7,3.4-2.6
		C1613,638.4,1613.9,639.2,1613.9,640.2z"/>
	<path id="XMLID_228_" class="st8" d="M1545.3,693.1c0,1-0.9,2-2.2,2.4c-1.7,0.5-3.4-0.2-3.4-1.8c0-1.5,1.7-2.7,3.4-2.6
		C1544.5,691.3,1545.3,692.2,1545.3,693.1z"/>
	<path id="XMLID_229_" class="st8" d="M1556.8,687.3c0,1-0.9,2-2.2,2.4c-1.7,0.5-3.4-0.2-3.4-1.8c0-1.5,1.7-2.7,3.4-2.6
		C1556,685.4,1556.8,686.3,1556.8,687.3z"/>
	<path id="XMLID_230_" class="st8" d="M1568.2,680.7c0,1-0.9,2-2.2,2.4c-1.7,0.5-3.4-0.2-3.4-1.8c0-1.5,1.7-2.7,3.4-2.6
		C1567.3,678.9,1568.2,679.8,1568.2,680.7z"/>
	<path id="XMLID_231_" class="st8" d="M1579.7,674.9c0,1-0.9,2-2.2,2.4c-1.7,0.5-3.4-0.2-3.4-1.8c0-1.5,1.7-2.7,3.4-2.6
		C1578.8,673.1,1579.7,673.9,1579.7,674.9z"/>
	<path id="XMLID_232_" class="st8" d="M1590.8,668.1c0,1-0.9,2-2.2,2.4c-1.7,0.5-3.4-0.2-3.4-1.8c0-1.5,1.7-2.7,3.4-2.6
		C1590,666.3,1590.8,667.2,1590.8,668.1z"/>
	<path id="XMLID_233_" class="st8" d="M1602.2,661.6c0,1-0.9,2-2.2,2.4c-1.7,0.5-3.4-0.2-3.4-1.8c0-1.5,1.7-2.7,3.4-2.6
		C1601.3,659.8,1602.2,660.6,1602.2,661.6z"/>
	<path id="XMLID_234_" class="st8" d="M1613.7,655.8c0,1-0.9,2-2.2,2.4c-1.7,0.5-3.4-0.2-3.4-1.8c0-1.5,1.7-2.7,3.4-2.6
		C1612.8,653.9,1613.7,654.8,1613.7,655.8z"/>
	<path id="XMLID_235_" class="st8" d="M1624.9,604.8c0,1-0.9,2-2.2,2.4c-1.7,0.5-3.4-0.2-3.4-1.8c0-1.5,1.7-2.7,3.4-2.6
		C1624.1,603,1624.9,603.8,1624.9,604.8z"/>
	<path id="XMLID_236_" class="st8" d="M1625.1,618.7c0,1-0.9,2-2.2,2.4c-1.7,0.5-3.4-0.2-3.4-1.8c0-1.5,1.7-2.7,3.4-2.6
		C1624.3,616.8,1625.1,617.7,1625.1,618.7z"/>
	<path id="XMLID_237_" class="st8" d="M1625.1,634.3c0,1-0.9,2-2.2,2.4c-1.7,0.5-3.4-0.2-3.4-1.8c0-1.5,1.7-2.7,3.4-2.6
		C1624.3,632.5,1625.1,633.3,1625.1,634.3z"/>
	<path id="XMLID_238_" class="st8" d="M1624.9,649.8c0,1-0.9,2-2.2,2.4c-1.7,0.5-3.4-0.2-3.4-1.8c0-1.5,1.7-2.7,3.4-2.6
		C1624.1,648,1624.9,648.9,1624.9,649.8z"/>
	<path id="XMLID_239_" class="st8" d="M1545.2,707.6c0,1-0.9,2-2.2,2.4c-1.7,0.5-3.4-0.2-3.4-1.8c0-1.5,1.7-2.7,3.4-2.6
		C1544.4,705.8,1545.2,706.6,1545.2,707.6z"/>
	<path id="XMLID_240_" class="st8" d="M1556.7,701.7c0,1-0.9,2-2.2,2.4c-1.7,0.5-3.4-0.2-3.4-1.8c0-1.5,1.7-2.7,3.4-2.6
		C1555.9,699.9,1556.7,700.7,1556.7,701.7z"/>
	<path id="XMLID_241_" class="st8" d="M1568.1,695.2c0,1-0.9,2-2.2,2.4c-1.7,0.5-3.4-0.2-3.4-1.8s1.7-2.7,3.4-2.6
		C1567.2,693.4,1568.1,694.2,1568.1,695.2z"/>
	<path id="XMLID_242_" class="st8" d="M1579.6,689.3c0,1-0.9,2-2.2,2.4c-1.7,0.5-3.4-0.2-3.4-1.8c0-1.5,1.7-2.7,3.4-2.6
		C1578.7,687.5,1579.6,688.4,1579.6,689.3z"/>
	<path id="XMLID_243_" class="st8" d="M1590.7,682.6c0,1-0.9,2-2.2,2.4c-1.7,0.5-3.4-0.2-3.4-1.8c0-1.5,1.7-2.7,3.4-2.6
		C1589.9,680.8,1590.7,681.6,1590.7,682.6z"/>
	<path id="XMLID_244_" class="st8" d="M1602.1,676.1c0,1-0.9,2-2.2,2.4c-1.7,0.5-3.4-0.2-3.4-1.8c0-1.5,1.7-2.7,3.4-2.6
		C1601.3,674.3,1602.1,675.1,1602.1,676.1z"/>
	<path id="XMLID_245_" class="st8" d="M1613.6,670.2c0,1-0.9,2-2.2,2.4c-1.7,0.5-3.4-0.2-3.4-1.8c0-1.5,1.7-2.7,3.4-2.6
		C1612.7,668.4,1613.6,669.2,1613.6,670.2z"/>
	<path id="XMLID_246_" class="st8" d="M1545.4,721.5c0,1-0.9,2-2.2,2.4c-1.7,0.5-3.4-0.2-3.4-1.8c0-1.5,1.7-2.7,3.4-2.6
		C1544.6,719.6,1545.4,720.5,1545.4,721.5z"/>
	<path id="XMLID_247_" class="st8" d="M1568.3,709.1c0,1-0.9,2-2.2,2.4c-1.7,0.5-3.4-0.2-3.4-1.8c0-1.5,1.7-2.7,3.4-2.6
		C1567.4,707.2,1568.3,708.1,1568.3,709.1z"/>
	<path id="XMLID_248_" class="st8" d="M1590.9,696.5c0,1-0.9,2-2.2,2.4c-1.7,0.5-3.4-0.2-3.4-1.8c0-1.5,1.7-2.7,3.4-2.6
		C1590,694.6,1590.9,695.5,1590.9,696.5z"/>
	<path id="XMLID_249_" class="st8" d="M1613.8,684.1c0,1-0.9,2-2.2,2.4c-1.7,0.5-3.4-0.2-3.4-1.8c0-1.5,1.7-2.7,3.4-2.6
		C1612.9,682.3,1613.8,683.1,1613.8,684.1z"/>
	<path id="XMLID_250_" class="st8" d="M1545.4,737.1c0,1-0.9,2-2.2,2.4c-1.7,0.5-3.4-0.2-3.4-1.8c0-1.5,1.7-2.7,3.4-2.6
		C1544.6,735.3,1545.4,736.1,1545.4,737.1z"/>
	<path id="XMLID_251_" class="st8" d="M1590.9,712.1c0,1-0.9,2-2.2,2.4c-1.7,0.5-3.4-0.2-3.4-1.8c0-1.5,1.7-2.7,3.4-2.6
		C1590,710.3,1590.9,711.1,1590.9,712.1z"/>
	<path id="XMLID_252_" class="st8" d="M1613.8,699.7c0,1-0.9,2-2.2,2.4c-1.7,0.5-3.4-0.2-3.4-1.8c0-1.5,1.7-2.7,3.4-2.6
		C1612.9,697.9,1613.8,698.7,1613.8,699.7z"/>
	<path id="XMLID_253_" class="st8" d="M1545.2,752.6c0,1-0.9,2-2.2,2.4c-1.7,0.5-3.4-0.2-3.4-1.8c0-1.5,1.7-2.7,3.4-2.6
		C1544.4,750.8,1545.2,751.7,1545.2,752.6z"/>
	<path id="XMLID_254_" class="st8" d="M1590.7,727.6c0,1-0.9,2-2.2,2.4c-1.7,0.5-3.4-0.2-3.4-1.8c0-1.5,1.7-2.7,3.4-2.6
		C1589.9,725.8,1590.7,726.7,1590.7,727.6z"/>
	<path id="XMLID_255_" class="st8" d="M1624.9,664.3c0,1-0.9,2-2.2,2.4c-1.7,0.5-3.4-0.2-3.4-1.8c0-1.5,1.7-2.7,3.4-2.6
		C1624,662.5,1624.9,663.3,1624.9,664.3z"/>
</g>
<g id="XMLID_256_">
	<path id="XMLID_257_" class="st10" d="M1482.9,636.8c0,1,0.9,2,2.2,2.4c1.7,0.5,3.4-0.2,3.4-1.8c0-1.5-1.7-2.7-3.4-2.6
		C1483.8,635,1482.9,635.8,1482.9,636.8z"/>
	<path id="XMLID_258_" class="st10" d="M1471.4,630.9c0,1,0.9,2,2.2,2.4c1.7,0.5,3.4-0.2,3.4-1.8c0-1.5-1.7-2.7-3.4-2.6
		C1472.3,629.1,1471.4,629.9,1471.4,630.9z"/>
	<path id="XMLID_259_" class="st10" d="M1460,624.4c0,1,0.9,2,2.2,2.4c1.7,0.5,3.4-0.2,3.4-1.8c0-1.5-1.7-2.7-3.4-2.6
		C1460.9,622.6,1460,623.4,1460,624.4z"/>
	<path id="XMLID_260_" class="st10" d="M1448.5,618.5c0,1,0.9,2,2.2,2.4c1.7,0.5,3.4-0.2,3.4-1.8c0-1.5-1.7-2.7-3.4-2.6
		C1449.4,616.7,1448.5,617.6,1448.5,618.5z"/>
	<path id="XMLID_261_" class="st10" d="M1437.4,611.8c0,1,0.9,2,2.2,2.4c1.7,0.5,3.4-0.2,3.4-1.8c0-1.5-1.7-2.7-3.4-2.6
		C1438.3,610,1437.4,610.8,1437.4,611.8z"/>
	<path id="XMLID_262_" class="st10" d="M1426,605.3c0,1,0.9,2,2.2,2.4c1.7,0.5,3.4-0.2,3.4-1.8c0-1.5-1.7-2.7-3.4-2.6
		C1426.9,603.4,1426,604.3,1426,605.3z"/>
	<path id="XMLID_263_" class="st10" d="M1414.5,599.4c0,1,0.9,2,2.2,2.4c1.7,0.5,3.4-0.2,3.4-1.8c0-1.5-1.7-2.7-3.4-2.6
		C1415.4,597.6,1414.5,598.4,1414.5,599.4z"/>
	<path id="XMLID_264_" class="st10" d="M1482.7,650.7c0,1,0.9,2,2.2,2.4c1.7,0.5,3.4-0.2,3.4-1.8c0-1.5-1.7-2.7-3.4-2.6
		C1483.6,648.8,1482.7,649.7,1482.7,650.7z"/>
	<path id="XMLID_265_" class="st10" d="M1471.2,644.8c0,1,0.9,2,2.2,2.4c1.7,0.5,3.4-0.2,3.4-1.8c0-1.5-1.7-2.7-3.4-2.6
		C1472.1,643,1471.2,643.8,1471.2,644.8z"/>
	<path id="XMLID_266_" class="st10" d="M1459.9,638.3c0,1,0.9,2,2.2,2.4c1.7,0.5,3.4-0.2,3.4-1.8c0-1.5-1.7-2.7-3.4-2.6
		C1460.7,636.4,1459.9,637.3,1459.9,638.3z"/>
	<path id="XMLID_267_" class="st10" d="M1448.4,632.4c0,1,0.9,2,2.2,2.4c1.7,0.5,3.4-0.2,3.4-1.8c0-1.5-1.7-2.7-3.4-2.6
		C1449.2,630.6,1448.4,631.4,1448.4,632.4z"/>
	<path id="XMLID_268_" class="st10" d="M1437.2,625.7c0,1,0.9,2,2.2,2.4c1.7,0.5,3.4-0.2,3.4-1.8c0-1.5-1.7-2.7-3.4-2.6
		C1438.1,623.8,1437.2,624.7,1437.2,625.7z"/>
	<path id="XMLID_269_" class="st10" d="M1425.8,619.1c0,1,0.9,2,2.2,2.4c1.7,0.5,3.4-0.2,3.4-1.8c0-1.5-1.7-2.7-3.4-2.6
		C1426.7,617.3,1425.8,618.2,1425.8,619.1z"/>
	<path id="XMLID_270_" class="st10" d="M1414.4,613.3c0,1,0.9,2,2.2,2.4c1.7,0.5,3.4-0.2,3.4-1.8c0-1.5-1.7-2.7-3.4-2.6
		C1415.2,611.5,1414.4,612.3,1414.4,613.3z"/>
	<path id="XMLID_271_" class="st10" d="M1482.7,666.3c0,1,0.9,2,2.2,2.4c1.7,0.5,3.4-0.2,3.4-1.8c0-1.5-1.7-2.7-3.4-2.6
		C1483.6,664.5,1482.7,665.3,1482.7,666.3z"/>
	<path id="XMLID_272_" class="st10" d="M1471.2,660.4c0,1,0.9,2,2.2,2.4c1.7,0.5,3.4-0.2,3.4-1.8c0-1.5-1.7-2.7-3.4-2.6
		C1472.1,658.6,1471.2,659.4,1471.2,660.4z"/>
	<path id="XMLID_273_" class="st10" d="M1459.9,653.9c0,1,0.9,2,2.2,2.4c1.7,0.5,3.4-0.2,3.4-1.8c0-1.5-1.7-2.7-3.4-2.6
		C1460.7,652.1,1459.9,652.9,1459.9,653.9z"/>
	<path id="XMLID_274_" class="st10" d="M1450.5,650.4c1.7,0.5,3.4-0.2,3.4-1.8c0-1.5-1.7-2.7-3.4-2.6
		C1449.2,646.2,1449.2,650,1450.5,650.4z"/>
	<path id="XMLID_275_" class="st10" d="M1437.2,641.3c0,1,0.9,2,2.2,2.4c1.7,0.5,3.4-0.2,3.4-1.8c0-1.5-1.7-2.7-3.4-2.6
		C1438.1,639.5,1437.2,640.3,1437.2,641.3z"/>
	<path id="XMLID_276_" class="st10" d="M1425.8,634.8c0,1,0.9,2,2.2,2.4c1.7,0.5,3.4-0.2,3.4-1.8c0-1.5-1.7-2.7-3.4-2.6
		C1426.7,632.9,1425.8,633.8,1425.8,634.8z"/>
	<path id="XMLID_277_" class="st10" d="M1414.4,628.9c0,1,0.9,2,2.2,2.4c1.7,0.5,3.4-0.2,3.4-1.8c0-1.5-1.7-2.7-3.4-2.6
		C1415.2,627.1,1414.4,627.9,1414.4,628.9z"/>
	<path id="XMLID_278_" class="st10" d="M1482.9,681.8c0,1,0.9,2,2.2,2.4c1.7,0.5,3.4-0.2,3.4-1.8c0-1.5-1.7-2.7-3.4-2.6
		C1483.8,680,1482.9,680.9,1482.9,681.8z"/>
	<path id="XMLID_279_" class="st10" d="M1471.4,676c0,1,0.9,2,2.2,2.4c1.7,0.5,3.4-0.2,3.4-1.8c0-1.5-1.7-2.7-3.4-2.6
		C1472.3,674.1,1471.4,675,1471.4,676z"/>
	<path id="XMLID_280_" class="st10" d="M1460,669.4c0,1,0.9,2,2.2,2.4c1.7,0.5,3.4-0.2,3.4-1.8c0-1.5-1.7-2.7-3.4-2.6
		C1460.9,667.6,1460,668.5,1460,669.4z"/>
	<path id="XMLID_281_" class="st10" d="M1448.5,663.6c0,1,0.9,2,2.2,2.4c1.7,0.5,3.4-0.2,3.4-1.8c0-1.5-1.7-2.7-3.4-2.6
		C1449.4,661.7,1448.5,662.6,1448.5,663.6z"/>
	<path id="XMLID_282_" class="st10" d="M1437.4,656.8c0,1,0.9,2,2.2,2.4c1.7,0.5,3.4-0.2,3.4-1.8c0-1.5-1.7-2.7-3.4-2.6
		C1438.3,655,1437.4,655.9,1437.4,656.8z"/>
	<path id="XMLID_283_" class="st10" d="M1426,650.3c0,1,0.9,2,2.2,2.4c1.7,0.5,3.4-0.2,3.4-1.8c0-1.5-1.7-2.7-3.4-2.6
		C1426.9,648.5,1426,649.3,1426,650.3z"/>
	<path id="XMLID_284_" class="st10" d="M1414.5,644.4c0,1,0.9,2,2.2,2.4c1.7,0.5,3.4-0.2,3.4-1.8c0-1.5-1.7-2.7-3.4-2.6
		C1415.4,642.6,1414.5,643.5,1414.5,644.4z"/>
	<path id="XMLID_285_" class="st10" d="M1403.3,593.5c0,1,0.9,2,2.2,2.4c1.7,0.5,3.4-0.2,3.4-1.8c0-1.5-1.7-2.7-3.4-2.6
		C1404.1,591.7,1403.3,592.5,1403.3,593.5z"/>
	<path id="XMLID_286_" class="st10" d="M1403.1,607.4c0,1,0.9,2,2.2,2.4c1.7,0.5,3.4-0.2,3.4-1.8s-1.7-2.7-3.4-2.6
		C1404,605.5,1403.1,606.4,1403.1,607.4z"/>
	<path id="XMLID_287_" class="st10" d="M1403.1,623c0,1,0.9,2,2.2,2.4c1.7,0.5,3.4-0.2,3.4-1.8c0-1.5-1.7-2.7-3.4-2.6
		C1404,621.1,1403.1,622,1403.1,623z"/>
	<path id="XMLID_288_" class="st10" d="M1403.3,638.5c0,1,0.9,2,2.2,2.4c1.7,0.5,3.4-0.2,3.4-1.8c0-1.5-1.7-2.7-3.4-2.6
		C1404.1,636.7,1403.3,637.5,1403.3,638.5z"/>
	<path id="XMLID_289_" class="st10" d="M1483,696.3c0,1,0.9,2,2.2,2.4c1.7,0.5,3.4-0.2,3.4-1.8c0-1.5-1.7-2.7-3.4-2.6
		C1483.8,694.5,1483,695.3,1483,696.3z"/>
	<path id="XMLID_290_" class="st10" d="M1471.5,690.4c0,1,0.9,2,2.2,2.4c1.7,0.5,3.4-0.2,3.4-1.8c0-1.5-1.7-2.7-3.4-2.6
		C1472.3,688.6,1471.5,689.4,1471.5,690.4z"/>
	<path id="XMLID_291_" class="st10" d="M1460.1,683.9c0,1,0.9,2,2.2,2.4c1.7,0.5,3.4-0.2,3.4-1.8c0-1.5-1.7-2.7-3.4-2.6
		C1461,682.1,1460.1,682.9,1460.1,683.9z"/>
	<path id="XMLID_292_" class="st10" d="M1448.6,678c0,1,0.9,2,2.2,2.4c1.7,0.5,3.4-0.2,3.4-1.8c0-1.5-1.7-2.7-3.4-2.6
		C1449.5,676.2,1448.6,677,1448.6,678z"/>
	<path id="XMLID_293_" class="st10" d="M1437.5,671.3c0,1,0.9,2,2.2,2.4c1.7,0.5,3.4-0.2,3.4-1.8c0-1.5-1.7-2.7-3.4-2.6
		C1438.3,669.5,1437.5,670.3,1437.5,671.3z"/>
	<path id="XMLID_294_" class="st10" d="M1426.1,664.8c0,1,0.9,2,2.2,2.4c1.7,0.5,3.4-0.2,3.4-1.8c0-1.5-1.7-2.7-3.4-2.6
		C1427,662.9,1426.1,663.8,1426.1,664.8z"/>
	<path id="XMLID_295_" class="st10" d="M1414.6,658.9c0,1,0.9,2,2.2,2.4c1.7,0.5,3.4-0.2,3.4-1.8c0-1.5-1.7-2.7-3.4-2.6
		C1415.5,657.1,1414.6,657.9,1414.6,658.9z"/>
	<path id="XMLID_296_" class="st10" d="M1482.8,710.2c0,1,0.9,2,2.2,2.4c1.7,0.5,3.4-0.2,3.4-1.8c0-1.5-1.7-2.7-3.4-2.6
		C1483.7,708.3,1482.8,709.2,1482.8,710.2z"/>
	<path id="XMLID_297_" class="st10" d="M1459.9,697.8c0,1,0.9,2,2.2,2.4c1.7,0.5,3.4-0.2,3.4-1.8c0-1.5-1.7-2.7-3.4-2.6
		C1460.8,695.9,1459.9,696.8,1459.9,697.8z"/>
	<path id="XMLID_298_" class="st10" d="M1437.3,685.2c0,1,0.9,2,2.2,2.4c1.7,0.5,3.4-0.2,3.4-1.8c0-1.5-1.7-2.7-3.4-2.6
		C1438.2,683.3,1437.3,684.2,1437.3,685.2z"/>
	<path id="XMLID_299_" class="st10" d="M1414.4,672.8c0,1,0.9,2,2.2,2.4c1.7,0.5,3.4-0.2,3.4-1.8c0-1.5-1.7-2.7-3.4-2.6
		C1415.3,670.9,1414.4,671.8,1414.4,672.8z"/>
	<path id="XMLID_300_" class="st10" d="M1482.8,725.8c0,1,0.9,2,2.2,2.4c1.7,0.5,3.4-0.2,3.4-1.8c0-1.5-1.7-2.7-3.4-2.6
		C1483.7,723.9,1482.8,724.8,1482.8,725.8z"/>
	<path id="XMLID_301_" class="st10" d="M1437.3,700.8c0,1,0.9,2,2.2,2.4c1.7,0.5,3.4-0.2,3.4-1.8c0-1.5-1.7-2.7-3.4-2.6
		C1438.2,699,1437.3,699.8,1437.3,700.8z"/>
	<path id="XMLID_302_" class="st10" d="M1414.4,688.4c0,1,0.9,2,2.2,2.4c1.7,0.5,3.4-0.2,3.4-1.8c0-1.5-1.7-2.7-3.4-2.6
		C1415.3,686.6,1414.4,687.4,1414.4,688.4z"/>
	<path id="XMLID_303_" class="st10" d="M1483,741.3c0,1,0.9,2,2.2,2.4c1.7,0.5,3.4-0.2,3.4-1.8c0-1.5-1.7-2.7-3.4-2.6
		C1483.8,739.5,1483,740.4,1483,741.3z"/>
	<path id="XMLID_304_" class="st10" d="M1437.5,716.3c0,1,0.9,2,2.2,2.4c1.7,0.5,3.4-0.2,3.4-1.8c0-1.5-1.7-2.7-3.4-2.6
		C1438.3,714.5,1437.5,715.4,1437.5,716.3z"/>
	<path id="XMLID_305_" class="st10" d="M1403.4,653c0,1,0.9,2,2.2,2.4c1.7,0.5,3.4-0.2,3.4-1.8c0-1.5-1.7-2.7-3.4-2.6
		C1404.2,651.2,1403.4,652,1403.4,653z"/>
</g>
<g id="XMLID_306_">
	<path id="XMLID_307_" class="st8" d="M1408.8,275.6c0,1-0.9,2-2.2,2.4c-1.7,0.5-3.4-0.2-3.4-1.8s1.7-2.7,3.4-2.6
		C1407.9,273.7,1408.8,274.6,1408.8,275.6z"/>
	<path id="XMLID_308_" class="st8" d="M1420.2,269.7c0,1-0.9,2-2.2,2.4c-1.7,0.5-3.4-0.2-3.4-1.8s1.7-2.7,3.4-2.6
		C1419.4,267.9,1420.2,268.7,1420.2,269.7z"/>
	<path id="XMLID_309_" class="st8" d="M1431.6,263.2c0,1-0.9,2-2.2,2.4c-1.7,0.5-3.4-0.2-3.4-1.8s1.7-2.7,3.4-2.6
		C1430.8,261.3,1431.6,262.2,1431.6,263.2z"/>
	<path id="XMLID_310_" class="st8" d="M1443.1,257.3c0,1-0.9,2-2.2,2.4c-1.7,0.5-3.4-0.2-3.4-1.8s1.7-2.7,3.4-2.6
		C1442.2,255.5,1443.1,256.3,1443.1,257.3z"/>
	<path id="XMLID_311_" class="st8" d="M1454.3,250.6c0,1-0.9,2-2.2,2.4c-1.7,0.5-3.4-0.2-3.4-1.8s1.7-2.7,3.4-2.6
		C1453.4,248.7,1454.3,249.6,1454.3,250.6z"/>
	<path id="XMLID_312_" class="st8" d="M1465.6,244c0,1-0.9,2-2.2,2.4c-1.7,0.5-3.4-0.2-3.4-1.8s1.7-2.7,3.4-2.6
		C1464.8,242.2,1465.6,243.1,1465.6,244z"/>
	<path id="XMLID_313_" class="st8" d="M1408.9,289.4c0,1-0.9,2-2.2,2.4c-1.7,0.5-3.4-0.2-3.4-1.8s1.7-2.7,3.4-2.6
		C1408.1,287.6,1408.9,288.4,1408.9,289.4z"/>
	<path id="XMLID_314_" class="st8" d="M1420.4,283.6c0,1-0.9,2-2.2,2.4c-1.7,0.5-3.4-0.2-3.4-1.8s1.7-2.7,3.4-2.6
		C1419.6,281.7,1420.4,282.6,1420.4,283.6z"/>
	<path id="XMLID_315_" class="st8" d="M1431.8,277c0,1-0.9,2-2.2,2.4c-1.7,0.5-3.4-0.2-3.4-1.8s1.7-2.7,3.4-2.6
		C1430.9,275.2,1431.8,276,1431.8,277z"/>
	<path id="XMLID_316_" class="st8" d="M1443.3,271.2c0,1-0.9,2-2.2,2.4c-1.7,0.5-3.4-0.2-3.4-1.8s1.7-2.7,3.4-2.6
		C1442.4,269.3,1443.3,270.2,1443.3,271.2z"/>
	<path id="XMLID_317_" class="st8" d="M1454.4,264.4c0,1-0.9,2-2.2,2.4c-1.7,0.5-3.4-0.2-3.4-1.8c0-1.5,1.7-2.7,3.4-2.6
		C1453.6,262.6,1454.4,263.5,1454.4,264.4z"/>
	<path id="XMLID_318_" class="st8" d="M1465.8,257.9c0,1-0.9,2-2.2,2.4c-1.7,0.5-3.4-0.2-3.4-1.8s1.7-2.7,3.4-2.6
		C1464.9,256.1,1465.8,256.9,1465.8,257.9z"/>
	<path id="XMLID_319_" class="st8" d="M1408.9,305c0,1-0.9,2-2.2,2.4c-1.7,0.5-3.4-0.2-3.4-1.8s1.7-2.7,3.4-2.6
		C1408.1,303.2,1408.9,304.1,1408.9,305z"/>
	<path id="XMLID_320_" class="st8" d="M1420.4,299.2c0,1-0.9,2-2.2,2.4c-1.7,0.5-3.4-0.2-3.4-1.8s1.7-2.7,3.4-2.6
		C1419.6,297.3,1420.4,298.2,1420.4,299.2z"/>
	<path id="XMLID_321_" class="st8" d="M1431.8,292.6c0,1-0.9,2-2.2,2.4c-1.7,0.5-3.4-0.2-3.4-1.8s1.7-2.7,3.4-2.6
		C1430.9,290.8,1431.8,291.7,1431.8,292.6z"/>
	<path id="XMLID_322_" class="st8" d="M1443.3,286.8c0,1-0.9,2-2.2,2.4c-1.7,0.5-3.4-0.2-3.4-1.8s1.7-2.7,3.4-2.6
		C1442.4,284.9,1443.3,285.8,1443.3,286.8z"/>
	<path id="XMLID_323_" class="st8" d="M1454.4,280c0,1-0.9,2-2.2,2.4c-1.7,0.5-3.4-0.2-3.4-1.8s1.7-2.7,3.4-2.6
		C1453.6,278.2,1454.4,279.1,1454.4,280z"/>
	<path id="XMLID_324_" class="st8" d="M1465.8,273.5c0,1-0.9,2-2.2,2.4c-1.7,0.5-3.4-0.2-3.4-1.8s1.7-2.7,3.4-2.6
		C1464.9,271.7,1465.8,272.5,1465.8,273.5z"/>
	<path id="XMLID_325_" class="st8" d="M1408.8,320.6c0,1-0.9,2-2.2,2.4c-1.7,0.5-3.4-0.2-3.4-1.8s1.7-2.7,3.4-2.6
		C1407.9,318.8,1408.8,319.6,1408.8,320.6z"/>
	<path id="XMLID_326_" class="st8" d="M1420.2,314.7c0,1-0.9,2-2.2,2.4c-1.7,0.5-3.4-0.2-3.4-1.8s1.7-2.7,3.4-2.6
		C1419.4,312.9,1420.2,313.7,1420.2,314.7z"/>
	<path id="XMLID_327_" class="st8" d="M1431.6,308.2c0,1-0.9,2-2.2,2.4c-1.7,0.5-3.4-0.2-3.4-1.8s1.7-2.7,3.4-2.6
		C1430.8,306.4,1431.6,307.2,1431.6,308.2z"/>
	<path id="XMLID_328_" class="st8" d="M1443.1,302.3c0,1-0.9,2-2.2,2.4c-1.7,0.5-3.4-0.2-3.4-1.8s1.7-2.7,3.4-2.6
		C1442.2,300.5,1443.1,301.4,1443.1,302.3z"/>
	<path id="XMLID_329_" class="st8" d="M1454.3,295.6c0,1-0.9,2-2.2,2.4c-1.7,0.5-3.4-0.2-3.4-1.8s1.7-2.7,3.4-2.6
		C1453.4,293.8,1454.3,294.6,1454.3,295.6z"/>
	<path id="XMLID_330_" class="st8" d="M1465.6,289.1c0,1-0.9,2-2.2,2.4c-1.7,0.5-3.4-0.2-3.4-1.8s1.7-2.7,3.4-2.6
		C1464.8,287.2,1465.6,288.1,1465.6,289.1z"/>
	<path id="XMLID_331_" class="st8" d="M1408.7,335c0,1-0.9,2-2.2,2.4c-1.7,0.5-3.4-0.2-3.4-1.8s1.7-2.7,3.4-2.6
		C1407.8,333.2,1408.7,334.1,1408.7,335z"/>
	<path id="XMLID_332_" class="st8" d="M1420.2,329.2c0,1-0.9,2-2.2,2.4c-1.7,0.5-3.4-0.2-3.4-1.8s1.7-2.7,3.4-2.6
		C1419.3,327.4,1420.2,328.2,1420.2,329.2z"/>
	<path id="XMLID_333_" class="st8" d="M1431.5,322.7c0,1-0.9,2-2.2,2.4c-1.7,0.5-3.4-0.2-3.4-1.8c0-1.5,1.7-2.7,3.4-2.6
		C1430.7,320.8,1431.5,321.7,1431.5,322.7z"/>
	<path id="XMLID_334_" class="st8" d="M1443,316.8c0,1-0.9,2-2.2,2.4c-1.7,0.5-3.4-0.2-3.4-1.8c0-1.5,1.7-2.7,3.4-2.6
		C1442.2,315,1443,315.8,1443,316.8z"/>
	<path id="XMLID_335_" class="st8" d="M1454.2,310.1c0,1-0.9,2-2.2,2.4c-1.7,0.5-3.4-0.2-3.4-1.8s1.7-2.7,3.4-2.6
		C1453.3,308.2,1454.2,309.1,1454.2,310.1z"/>
	<path id="XMLID_336_" class="st8" d="M1465.5,303.5c0,1-0.9,2-2.2,2.4c-1.7,0.5-3.4-0.2-3.4-1.8s1.7-2.7,3.4-2.6
		C1464.7,301.7,1465.5,302.6,1465.5,303.5z"/>
	<path id="XMLID_337_" class="st8" d="M1408.8,348.9c0,1-0.9,2-2.2,2.4c-1.7,0.5-3.4-0.2-3.4-1.8s1.7-2.7,3.4-2.6
		C1408,347.1,1408.8,347.9,1408.8,348.9z"/>
	<path id="XMLID_338_" class="st8" d="M1431.7,336.5c0,1-0.9,2-2.2,2.4c-1.7,0.5-3.4-0.2-3.4-1.8s1.7-2.7,3.4-2.6
		C1430.8,334.7,1431.7,335.5,1431.7,336.5z"/>
	<path id="XMLID_339_" class="st8" d="M1454.3,323.9c0,1-0.9,2-2.2,2.4c-1.7,0.5-3.4-0.2-3.4-1.8s1.7-2.7,3.4-2.6
		C1453.5,322.1,1454.3,323,1454.3,323.9z"/>
	<path id="XMLID_340_" class="st8" d="M1408.8,364.5c0,1-0.9,2-2.2,2.4c-1.7,0.5-3.4-0.2-3.4-1.8c0-1.5,1.7-2.7,3.4-2.6
		C1408,362.7,1408.8,363.6,1408.8,364.5z"/>
	<path id="XMLID_341_" class="st8" d="M1454.3,339.5c0,1-0.9,2-2.2,2.4c-1.7,0.5-3.4-0.2-3.4-1.8s1.7-2.7,3.4-2.6
		C1453.5,337.7,1454.3,338.6,1454.3,339.5z"/>
	<path id="XMLID_342_" class="st8" d="M1408.7,380.1c0,1-0.9,2-2.2,2.4c-1.7,0.5-3.4-0.2-3.4-1.8s1.7-2.7,3.4-2.6
		C1407.8,378.3,1408.7,379.1,1408.7,380.1z"/>
	<path id="XMLID_343_" class="st8" d="M1454.2,355.1c0,1-0.9,2-2.2,2.4c-1.7,0.5-3.4-0.2-3.4-1.8s1.7-2.7,3.4-2.6
		C1453.3,353.3,1454.2,354.1,1454.2,355.1z"/>
</g>
<path id="XMLID_345_" class="st10" d="M1376.9,274.9c0,1,0.9,2,2.2,2.4c1.7,0.5,3.4-0.2,3.4-1.8s-1.7-2.7-3.4-2.6
	C1377.8,273.1,1376.9,273.9,1376.9,274.9z"/>
<path id="XMLID_346_" class="st10" d="M1365.4,269.1c0,1,0.9,2,2.2,2.4c1.7,0.5,3.4-0.2,3.4-1.8s-1.7-2.7-3.4-2.6
	C1366.3,267.2,1365.4,268.1,1365.4,269.1z"/>
<path id="XMLID_347_" class="st10" d="M1354.3,262.3c0,1,0.9,2,2.2,2.4c1.7,0.5,3.4-0.2,3.4-1.8s-1.7-2.7-3.4-2.6
	C1355.1,260.5,1354.3,261.3,1354.3,262.3z"/>
<path id="XMLID_348_" class="st10" d="M1342.9,255.8c0,1,0.9,2,2.2,2.4c1.7,0.5,3.4-0.2,3.4-1.8s-1.7-2.7-3.4-2.6
	C1343.8,254,1342.9,254.8,1342.9,255.8z"/>
<path id="XMLID_349_" class="st10" d="M1331.4,249.9c0,1,0.9,2,2.2,2.4c1.7,0.5,3.4-0.2,3.4-1.8s-1.7-2.7-3.4-2.6
	C1332.3,248.1,1331.4,249,1331.4,249.9z"/>
<path id="XMLID_350_" class="st10" d="M1376.7,288.8c0,1,0.9,2,2.2,2.4c1.7,0.5,3.4-0.2,3.4-1.8s-1.7-2.7-3.4-2.6
	C1377.6,287,1376.7,287.8,1376.7,288.8z"/>
<path id="XMLID_351_" class="st10" d="M1365.2,282.9c0,1,0.9,2,2.2,2.4c1.7,0.5,3.4-0.2,3.4-1.8s-1.7-2.7-3.4-2.6
	C1366.1,281.1,1365.2,281.9,1365.2,282.9z"/>
<path id="XMLID_352_" class="st10" d="M1354.1,276.2c0,1,0.9,2,2.2,2.4c1.7,0.5,3.4-0.2,3.4-1.8s-1.7-2.7-3.4-2.6
	C1355,274.4,1354.1,275.2,1354.1,276.2z"/>
<path id="XMLID_353_" class="st10" d="M1342.7,269.7c0,1,0.9,2,2.2,2.4c1.7,0.5,3.4-0.2,3.4-1.8c0-1.5-1.7-2.7-3.4-2.6
	C1343.6,267.8,1342.7,268.7,1342.7,269.7z"/>
<path id="XMLID_354_" class="st10" d="M1331.2,263.8c0,1,0.9,2,2.2,2.4c1.7,0.5,3.4-0.2,3.4-1.8c0-1.5-1.7-2.7-3.4-2.6
	C1332.1,262,1331.2,262.8,1331.2,263.8z"/>
<path id="XMLID_355_" class="st10" d="M1376.7,304.4c0,1,0.9,2,2.2,2.4c1.7,0.5,3.4-0.2,3.4-1.8s-1.7-2.7-3.4-2.6
	C1377.6,302.6,1376.7,303.4,1376.7,304.4z"/>
<path id="XMLID_356_" class="st10" d="M1365.2,298.5c0,1,0.9,2,2.2,2.4c1.7,0.5,3.4-0.2,3.4-1.8s-1.7-2.7-3.4-2.6
	C1366.1,296.7,1365.2,297.6,1365.2,298.5z"/>
<path id="XMLID_357_" class="st10" d="M1354.1,291.8c0,1,0.9,2,2.2,2.4c1.7,0.5,3.4-0.2,3.4-1.8s-1.7-2.7-3.4-2.6
	C1355,290,1354.1,290.8,1354.1,291.8z"/>
<path id="XMLID_358_" class="st10" d="M1342.7,285.3c0,1,0.9,2,2.2,2.4c1.7,0.5,3.4-0.2,3.4-1.8s-1.7-2.7-3.4-2.6
	C1343.6,283.5,1342.7,284.3,1342.7,285.3z"/>
<path id="XMLID_359_" class="st10" d="M1331.2,279.4c0,1,0.9,2,2.2,2.4c1.7,0.5,3.4-0.2,3.4-1.8s-1.7-2.7-3.4-2.6
	C1332.1,277.6,1331.2,278.4,1331.2,279.4z"/>
<path id="XMLID_360_" class="st10" d="M1376.9,320c0,1,0.9,2,2.2,2.4c1.7,0.5,3.4-0.2,3.4-1.8s-1.7-2.7-3.4-2.6
	C1377.8,318.1,1376.9,319,1376.9,320z"/>
<path id="XMLID_361_" class="st10" d="M1365.4,314.1c0,1,0.9,2,2.2,2.4c1.7,0.5,3.4-0.2,3.4-1.8s-1.7-2.7-3.4-2.6
	C1366.3,312.3,1365.4,313.1,1365.4,314.1z"/>
<path id="XMLID_362_" class="st10" d="M1354.3,307.4c0,1,0.9,2,2.2,2.4c1.7,0.5,3.4-0.2,3.4-1.8s-1.7-2.7-3.4-2.6
	C1355.1,305.5,1354.3,306.4,1354.3,307.4z"/>
<path id="XMLID_363_" class="st10" d="M1342.9,300.8c0,1,0.9,2,2.2,2.4c1.7,0.5,3.4-0.2,3.4-1.8s-1.7-2.7-3.4-2.6
	C1343.8,299,1342.9,299.9,1342.9,300.8z"/>
<path id="XMLID_364_" class="st10" d="M1331.4,295c0,1,0.9,2,2.2,2.4c1.7,0.5,3.4-0.2,3.4-1.8s-1.7-2.7-3.4-2.6
	C1332.3,293.1,1331.4,294,1331.4,295z"/>
<path id="XMLID_365_" class="st10" d="M1320.1,244c0,1,0.9,2,2.2,2.4c1.7,0.5,3.4-0.2,3.4-1.8c0-1.5-1.7-2.7-3.4-2.6
	C1321,242.2,1320.1,243,1320.1,244z"/>
<path id="XMLID_366_" class="st10" d="M1320,257.9c0,1,0.9,2,2.2,2.4c1.7,0.5,3.4-0.2,3.4-1.8s-1.7-2.7-3.4-2.6
	C1320.8,256.1,1320,256.9,1320,257.9z"/>
<path id="XMLID_367_" class="st10" d="M1320,273.5c0,1,0.9,2,2.2,2.4c1.7,0.5,3.4-0.2,3.4-1.8s-1.7-2.7-3.4-2.6
	C1320.8,271.7,1320,272.5,1320,273.5z"/>
<path id="XMLID_368_" class="st10" d="M1320.1,289.1c0,1,0.9,2,2.2,2.4c1.7,0.5,3.4-0.2,3.4-1.8s-1.7-2.7-3.4-2.6
	C1321,287.2,1320.1,288.1,1320.1,289.1z"/>
<path id="XMLID_369_" class="st10" d="M1377,334.4c0,1,0.9,2,2.2,2.4c1.7,0.5,3.4-0.2,3.4-1.8s-1.7-2.7-3.4-2.6
	C1377.9,332.6,1377,333.4,1377,334.4z"/>
<path id="XMLID_370_" class="st10" d="M1365.5,328.6c0,1,0.9,2,2.2,2.4c1.7,0.5,3.4-0.2,3.4-1.8s-1.7-2.7-3.4-2.6
	C1366.4,326.7,1365.5,327.6,1365.5,328.6z"/>
<path id="XMLID_371_" class="st10" d="M1354.4,321.8c0,1,0.9,2,2.2,2.4c1.7,0.5,3.4-0.2,3.4-1.8s-1.7-2.7-3.4-2.6
	C1355.2,320,1354.4,320.8,1354.4,321.8z"/>
<path id="XMLID_372_" class="st10" d="M1343,315.3c0,1,0.9,2,2.2,2.4c1.7,0.5,3.4-0.2,3.4-1.8s-1.7-2.7-3.4-2.6
	C1343.8,313.5,1343,314.3,1343,315.3z"/>
<path id="XMLID_373_" class="st10" d="M1331.5,309.4c0,1,0.9,2,2.2,2.4c1.7,0.5,3.4-0.2,3.4-1.8s-1.7-2.7-3.4-2.6
	C1332.4,307.6,1331.5,308.5,1331.5,309.4z"/>
<path id="XMLID_374_" class="st10" d="M1376.8,348.3c0,1,0.9,2,2.2,2.4c1.7,0.5,3.4-0.2,3.4-1.8s-1.7-2.7-3.4-2.6
	C1377.7,346.5,1376.8,347.3,1376.8,348.3z"/>
<path id="XMLID_375_" class="st10" d="M1354.2,335.7c0,1,0.9,2,2.2,2.4c1.7,0.5,3.4-0.2,3.4-1.8s-1.7-2.7-3.4-2.6
	C1355,333.9,1354.2,334.7,1354.2,335.7z"/>
<path id="XMLID_376_" class="st10" d="M1331.3,323.3c0,1,0.9,2,2.2,2.4c1.7,0.5,3.4-0.2,3.4-1.8s-1.7-2.7-3.4-2.6
	C1332.2,321.5,1331.3,322.3,1331.3,323.3z"/>
<path id="XMLID_377_" class="st10" d="M1354.2,351.3c0,1,0.9,2,2.2,2.4c1.7,0.5,3.4-0.2,3.4-1.8s-1.7-2.7-3.4-2.6
	C1355,349.5,1354.2,350.3,1354.2,351.3z"/>
<path id="XMLID_378_" class="st10" d="M1331.3,338.9c0,1,0.9,2,2.2,2.4c1.7,0.5,3.4-0.2,3.4-1.8s-1.7-2.7-3.4-2.6
	C1332.2,337.1,1331.3,337.9,1331.3,338.9z"/>
<path id="XMLID_379_" class="st10" d="M1354.4,366.9c0,1,0.9,2,2.2,2.4c1.7,0.5,3.4-0.2,3.4-1.8s-1.7-2.7-3.4-2.6
	C1355.2,365,1354.4,365.9,1354.4,366.9z"/>
<path id="XMLID_380_" class="st10" d="M1320.2,303.5c0,1,0.9,2,2.2,2.4c1.7,0.5,3.4-0.2,3.4-1.8c0-1.5-1.7-2.7-3.4-2.6
	C1321.1,301.7,1320.2,302.5,1320.2,303.5z"/>
<g id="XMLID_381_" class="st11">
	<path id="XMLID_382_" class="st8" d="M1078.3,628.4c0-1,0.9-2,2.2-2.4c1.7-0.5,3.4,0.2,3.4,1.8c0,1.5-1.7,2.7-3.4,2.6
		C1079.1,630.2,1078.3,629.4,1078.3,628.4z"/>
	<path id="XMLID_383_" class="st8" d="M1066.8,634.3c0-1,0.9-2,2.2-2.4c1.7-0.5,3.4,0.2,3.4,1.8c0,1.5-1.7,2.7-3.4,2.6
		C1067.6,636.1,1066.8,635.3,1066.8,634.3z"/>
	<path id="XMLID_384_" class="st8" d="M1055.4,640.8c0-1,0.9-2,2.2-2.4c1.7-0.5,3.4,0.2,3.4,1.8c0,1.5-1.7,2.7-3.4,2.6
		C1056.3,642.6,1055.4,641.8,1055.4,640.8z"/>
	<path id="XMLID_385_" class="st8" d="M1043.9,646.7c0-1,0.9-2,2.2-2.4c1.7-0.5,3.4,0.2,3.4,1.8c0,1.5-1.7,2.7-3.4,2.6
		C1044.8,648.5,1043.9,647.7,1043.9,646.7z"/>
	<path id="XMLID_386_" class="st8" d="M1032.8,653.4c0-1,0.9-2,2.2-2.4c1.7-0.5,3.4,0.2,3.4,1.8c0,1.5-1.7,2.7-3.4,2.6
		C1033.6,655.2,1032.8,654.4,1032.8,653.4z"/>
	<path id="XMLID_387_" class="st8" d="M1021.4,659.9c0-1,0.9-2,2.2-2.4c1.7-0.5,3.4,0.2,3.4,1.8c0,1.5-1.7,2.7-3.4,2.6
		C1022.3,661.8,1021.4,660.9,1021.4,659.9z"/>
	<path id="XMLID_388_" class="st8" d="M1078.1,614.5c0-1,0.9-2,2.2-2.4c1.7-0.5,3.4,0.2,3.4,1.8c0,1.5-1.7,2.7-3.4,2.6
		C1079,616.4,1078.1,615.5,1078.1,614.5z"/>
	<path id="XMLID_389_" class="st8" d="M1066.6,620.4c0-1,0.9-2,2.2-2.4c1.7-0.5,3.4,0.2,3.4,1.8c0,1.5-1.7,2.7-3.4,2.6
		C1067.5,622.2,1066.6,621.4,1066.6,620.4z"/>
	<path id="XMLID_390_" class="st8" d="M1055.2,626.9c0-1,0.9-2,2.2-2.4c1.7-0.5,3.4,0.2,3.4,1.8c0,1.5-1.7,2.7-3.4,2.6
		C1056.1,628.8,1055.2,627.9,1055.2,626.9z"/>
	<path id="XMLID_391_" class="st8" d="M1043.7,632.8c0-1,0.9-2,2.2-2.4c1.7-0.5,3.4,0.2,3.4,1.8c0,1.5-1.7,2.7-3.4,2.6
		C1044.6,634.6,1043.7,633.8,1043.7,632.8z"/>
	<path id="XMLID_392_" class="st8" d="M1032.6,639.5c0-1,0.9-2,2.2-2.4c1.7-0.5,3.4,0.2,3.4,1.8c0,1.5-1.7,2.7-3.4,2.6
		C1033.5,641.4,1032.6,640.5,1032.6,639.5z"/>
	<path id="XMLID_393_" class="st8" d="M1021.2,646.1c0-1,0.9-2,2.2-2.4c1.7-0.5,3.4,0.2,3.4,1.8c0,1.5-1.7,2.7-3.4,2.6
		C1022.1,647.9,1021.2,647,1021.2,646.1z"/>
	<path id="XMLID_394_" class="st8" d="M1078.1,598.9c0-1,0.9-2,2.2-2.4c1.7-0.5,3.4,0.2,3.4,1.8s-1.7,2.7-3.4,2.6
		C1079,600.8,1078.1,599.9,1078.1,598.9z"/>
	<path id="XMLID_395_" class="st8" d="M1066.6,604.8c0-1,0.9-2,2.2-2.4c1.7-0.5,3.4,0.2,3.4,1.8s-1.7,2.7-3.4,2.6
		C1067.5,606.6,1066.6,605.8,1066.6,604.8z"/>
	<path id="XMLID_396_" class="st8" d="M1055.2,611.3c0-1,0.9-2,2.2-2.4c1.7-0.5,3.4,0.2,3.4,1.8c0,1.5-1.7,2.7-3.4,2.6
		C1056.1,613.1,1055.2,612.3,1055.2,611.3z"/>
	<path id="XMLID_397_" class="st8" d="M1043.7,617.2c0-1,0.9-2,2.2-2.4c1.7-0.5,3.4,0.2,3.4,1.8s-1.7,2.7-3.4,2.6
		C1044.6,619,1043.7,618.2,1043.7,617.2z"/>
	<path id="XMLID_398_" class="st8" d="M1032.6,623.9c0-1,0.9-2,2.2-2.4c1.7-0.5,3.4,0.2,3.4,1.8c0,1.5-1.7,2.7-3.4,2.6
		C1033.5,625.7,1032.6,624.9,1032.6,623.9z"/>
	<path id="XMLID_399_" class="st8" d="M1021.2,630.4c0-1,0.9-2,2.2-2.4c1.7-0.5,3.4,0.2,3.4,1.8c0,1.5-1.7,2.7-3.4,2.6
		C1022.1,632.3,1021.2,631.4,1021.2,630.4z"/>
	<path id="XMLID_400_" class="st8" d="M1078.3,583.4c0-1,0.9-2,2.2-2.4c1.7-0.5,3.4,0.2,3.4,1.8s-1.7,2.7-3.4,2.6
		C1079.1,585.2,1078.3,584.3,1078.3,583.4z"/>
	<path id="XMLID_401_" class="st8" d="M1066.8,589.2c0-1,0.9-2,2.2-2.4c1.7-0.5,3.4,0.2,3.4,1.8s-1.7,2.7-3.4,2.6
		C1067.6,591.1,1066.8,590.2,1066.8,589.2z"/>
	<path id="XMLID_402_" class="st8" d="M1055.4,595.8c0-1,0.9-2,2.2-2.4c1.7-0.5,3.4,0.2,3.4,1.8c0,1.5-1.7,2.7-3.4,2.6
		C1056.3,597.6,1055.4,596.7,1055.4,595.8z"/>
	<path id="XMLID_403_" class="st8" d="M1043.9,601.6c0-1,0.9-2,2.2-2.4c1.7-0.5,3.4,0.2,3.4,1.8c0,1.5-1.7,2.7-3.4,2.6
		C1044.8,603.5,1043.9,602.6,1043.9,601.6z"/>
	<path id="XMLID_404_" class="st8" d="M1032.8,608.4c0-1,0.9-2,2.2-2.4c1.7-0.5,3.4,0.2,3.4,1.8c0,1.5-1.7,2.7-3.4,2.6
		C1033.6,610.2,1032.8,609.3,1032.8,608.4z"/>
	<path id="XMLID_405_" class="st8" d="M1021.4,614.9c0-1,0.9-2,2.2-2.4c1.7-0.5,3.4,0.2,3.4,1.8c0,1.5-1.7,2.7-3.4,2.6
		C1022.3,616.7,1021.4,615.9,1021.4,614.9z"/>
	<path id="XMLID_406_" class="st8" d="M1078.3,568.9c0-1,0.9-2,2.2-2.4c1.7-0.5,3.4,0.2,3.4,1.8c0,1.5-1.7,2.7-3.4,2.6
		C1079.2,570.7,1078.3,569.9,1078.3,568.9z"/>
	<path id="XMLID_407_" class="st8" d="M1066.9,574.8c0-1,0.9-2,2.2-2.4c1.7-0.5,3.4,0.2,3.4,1.8c0,1.5-1.7,2.7-3.4,2.6
		C1067.7,576.6,1066.9,575.8,1066.9,574.8z"/>
	<path id="XMLID_408_" class="st8" d="M1055.5,581.3c0-1,0.9-2,2.2-2.4c1.7-0.5,3.4,0.2,3.4,1.8c0,1.5-1.7,2.7-3.4,2.6
		C1056.4,583.1,1055.5,582.3,1055.5,581.3z"/>
	<path id="XMLID_409_" class="st8" d="M1044,587.2c0-1,0.9-2,2.2-2.4c1.7-0.5,3.4,0.2,3.4,1.8c0,1.5-1.7,2.7-3.4,2.6
		C1044.9,589,1044,588.2,1044,587.2z"/>
	<path id="XMLID_410_" class="st8" d="M1032.9,593.9c0-1,0.9-2,2.2-2.4c1.7-0.5,3.4,0.2,3.4,1.8c0,1.5-1.7,2.7-3.4,2.6
		C1033.7,595.7,1032.9,594.9,1032.9,593.9z"/>
	<path id="XMLID_411_" class="st8" d="M1021.5,600.4c0-1,0.9-2,2.2-2.4c1.7-0.5,3.4,0.2,3.4,1.8c0,1.5-1.7,2.7-3.4,2.6
		C1022.3,602.3,1021.5,601.4,1021.5,600.4z"/>
	<path id="XMLID_412_" class="st8" d="M1078.2,555c0-1,0.9-2,2.2-2.4c1.7-0.5,3.4,0.2,3.4,1.8s-1.7,2.7-3.4,2.6
		C1079,556.9,1078.2,556,1078.2,555z"/>
	<path id="XMLID_413_" class="st8" d="M1055.3,567.4c0-1,0.9-2,2.2-2.4c1.7-0.5,3.4,0.2,3.4,1.8c0,1.5-1.7,2.7-3.4,2.6
		C1056.2,569.3,1055.3,568.4,1055.3,567.4z"/>
	<path id="XMLID_414_" class="st8" d="M1032.7,580c0-1,0.9-2,2.2-2.4c1.7-0.5,3.4,0.2,3.4,1.8c0,1.5-1.7,2.7-3.4,2.6
		C1033.5,581.9,1032.7,581,1032.7,580z"/>
	<path id="XMLID_415_" class="st8" d="M1078.2,539.4c0-1,0.9-2,2.2-2.4c1.7-0.5,3.4,0.2,3.4,1.8c0,1.5-1.7,2.7-3.4,2.6
		C1079,541.3,1078.2,540.4,1078.2,539.4z"/>
	<path id="XMLID_416_" class="st8" d="M1032.7,564.4c0-1,0.9-2,2.2-2.4c1.7-0.5,3.4,0.2,3.4,1.8s-1.7,2.7-3.4,2.6
		C1033.5,566.2,1032.7,565.4,1032.7,564.4z"/>
	<path id="XMLID_417_" class="st8" d="M1078.3,523.9c0-1,0.9-2,2.2-2.4c1.7-0.5,3.4,0.2,3.4,1.8c0,1.5-1.7,2.7-3.4,2.6
		C1079.2,525.7,1078.3,524.8,1078.3,523.9z"/>
	<path id="XMLID_418_" class="st8" d="M1032.9,548.9c0-1,0.9-2,2.2-2.4c1.7-0.5,3.4,0.2,3.4,1.8c0,1.5-1.7,2.7-3.4,2.6
		C1033.7,550.7,1032.9,549.8,1032.9,548.9z"/>
</g>
<g id="XMLID_419_" class="st11">
	<path id="XMLID_420_" class="st8" d="M1717.5,268.3c0-1,0.9-2,2.2-2.4c1.7-0.5,3.4,0.2,3.4,1.8s-1.7,2.7-3.4,2.6
		C1718.3,270.1,1717.5,269.3,1717.5,268.3z"/>
	<path id="XMLID_421_" class="st8" d="M1706,274.2c0-1,0.9-2,2.2-2.4c1.7-0.5,3.4,0.2,3.4,1.8s-1.7,2.7-3.4,2.6
		C1706.8,276,1706,275.2,1706,274.2z"/>
	<path id="XMLID_422_" class="st8" d="M1694.6,280.7c0-1,0.9-2,2.2-2.4c1.7-0.5,3.4,0.2,3.4,1.8c0,1.5-1.7,2.7-3.4,2.6
		C1695.5,282.5,1694.6,281.7,1694.6,280.7z"/>
	<path id="XMLID_423_" class="st8" d="M1683.1,286.6c0-1,0.9-2,2.2-2.4c1.7-0.5,3.4,0.2,3.4,1.8c0,1.5-1.7,2.7-3.4,2.6
		C1684,288.4,1683.1,287.6,1683.1,286.6z"/>
	<path id="XMLID_424_" class="st8" d="M1672,293.3c0-1,0.9-2,2.2-2.4c1.7-0.5,3.4,0.2,3.4,1.8s-1.7,2.7-3.4,2.6
		C1672.8,295.1,1672,294.3,1672,293.3z"/>
	<path id="XMLID_425_" class="st8" d="M1660.6,299.8c0-1,0.9-2,2.2-2.4c1.7-0.5,3.4,0.2,3.4,1.8s-1.7,2.7-3.4,2.6
		C1661.5,301.7,1660.6,300.8,1660.6,299.8z"/>
	<path id="XMLID_426_" class="st8" d="M1717.3,254.4c0-1,0.9-2,2.2-2.4c1.7-0.5,3.4,0.2,3.4,1.8s-1.7,2.7-3.4,2.6
		C1718.2,256.3,1717.3,255.4,1717.3,254.4z"/>
	<path id="XMLID_427_" class="st8" d="M1705.8,260.3c0-1,0.9-2,2.2-2.4c1.7-0.5,3.4,0.2,3.4,1.8s-1.7,2.7-3.4,2.6
		C1706.7,262.1,1705.8,261.3,1705.8,260.3z"/>
	<path id="XMLID_428_" class="st8" d="M1694.4,266.8c0-1,0.9-2,2.2-2.4c1.7-0.5,3.4,0.2,3.4,1.8s-1.7,2.7-3.4,2.6
		C1695.3,268.7,1694.4,267.8,1694.4,266.8z"/>
	<path id="XMLID_429_" class="st8" d="M1682.9,272.7c0-1,0.9-2,2.2-2.4c1.7-0.5,3.4,0.2,3.4,1.8s-1.7,2.7-3.4,2.6
		C1683.8,274.5,1682.9,273.7,1682.9,272.7z"/>
	<path id="XMLID_430_" class="st8" d="M1671.8,279.4c0-1,0.9-2,2.2-2.4c1.7-0.5,3.4,0.2,3.4,1.8s-1.7,2.7-3.4,2.6
		C1672.7,281.3,1671.8,280.4,1671.8,279.4z"/>
	<path id="XMLID_431_" class="st8" d="M1660.4,286c0-1,0.9-2,2.2-2.4c1.7-0.5,3.4,0.2,3.4,1.8s-1.7,2.7-3.4,2.6
		C1661.3,287.8,1660.4,286.9,1660.4,286z"/>
	<path id="XMLID_432_" class="st8" d="M1717.3,238.8c0-1,0.9-2,2.2-2.4c1.7-0.5,3.4,0.2,3.4,1.8s-1.7,2.7-3.4,2.6
		C1718.2,240.7,1717.3,239.8,1717.3,238.8z"/>
	<path id="XMLID_433_" class="st8" d="M1705.8,244.7c0-1,0.9-2,2.2-2.4c1.7-0.5,3.4,0.2,3.4,1.8s-1.7,2.7-3.4,2.6
		C1706.7,246.5,1705.8,245.7,1705.8,244.7z"/>
	<path id="XMLID_434_" class="st8" d="M1694.4,251.2c0-1,0.9-2,2.2-2.4c1.7-0.5,3.4,0.2,3.4,1.8s-1.7,2.7-3.4,2.6
		C1695.3,253,1694.4,252.2,1694.4,251.2z"/>
	<path id="XMLID_435_" class="st8" d="M1682.9,257.1c0-1,0.9-2,2.2-2.4c1.7-0.5,3.4,0.2,3.4,1.8c0,1.5-1.7,2.7-3.4,2.6
		C1683.8,258.9,1682.9,258.1,1682.9,257.1z"/>
	<path id="XMLID_436_" class="st8" d="M1671.8,263.8c0-1,0.9-2,2.2-2.4c1.7-0.5,3.4,0.2,3.4,1.8s-1.7,2.7-3.4,2.6
		C1672.7,265.6,1671.8,264.8,1671.8,263.8z"/>
	<path id="XMLID_437_" class="st8" d="M1660.4,270.3c0-1,0.9-2,2.2-2.4c1.7-0.5,3.4,0.2,3.4,1.8s-1.7,2.7-3.4,2.6
		C1661.3,272.2,1660.4,271.3,1660.4,270.3z"/>
	<path id="XMLID_438_" class="st8" d="M1717.5,223.3c0-1,0.9-2,2.2-2.4c1.7-0.5,3.4,0.2,3.4,1.8s-1.7,2.7-3.4,2.6
		C1718.3,225.1,1717.5,224.3,1717.5,223.3z"/>
	<path id="XMLID_439_" class="st8" d="M1706,229.1c0-1,0.9-2,2.2-2.4c1.7-0.5,3.4,0.2,3.4,1.8s-1.7,2.7-3.4,2.6
		C1706.8,231,1706,230.1,1706,229.1z"/>
	<path id="XMLID_440_" class="st8" d="M1694.6,235.7c0-1,0.9-2,2.2-2.4c1.7-0.5,3.4,0.2,3.4,1.8c0,1.5-1.7,2.7-3.4,2.6
		C1695.5,237.5,1694.6,236.6,1694.6,235.7z"/>
	<path id="XMLID_441_" class="st8" d="M1683.1,241.5c0-1,0.9-2,2.2-2.4c1.7-0.5,3.4,0.2,3.4,1.8s-1.7,2.7-3.4,2.6
		C1684,243.4,1683.1,242.5,1683.1,241.5z"/>
	<path id="XMLID_442_" class="st8" d="M1672,248.3c0-1,0.9-2,2.2-2.4c1.7-0.5,3.4,0.2,3.4,1.8s-1.7,2.7-3.4,2.6
		C1672.8,250.1,1672,249.2,1672,248.3z"/>
	<path id="XMLID_443_" class="st8" d="M1660.6,254.8c0-1,0.9-2,2.2-2.4c1.7-0.5,3.4,0.2,3.4,1.8s-1.7,2.7-3.4,2.6
		C1661.5,256.6,1660.6,255.8,1660.6,254.8z"/>
	<path id="XMLID_444_" class="st8" d="M1717.5,208.8c0-1,0.9-2,2.2-2.4c1.7-0.5,3.4,0.2,3.4,1.8s-1.7,2.7-3.4,2.6
		C1718.4,210.6,1717.5,209.8,1717.5,208.8z"/>
	<path id="XMLID_445_" class="st8" d="M1706.1,214.7c0-1,0.9-2,2.2-2.4c1.7-0.5,3.4,0.2,3.4,1.8s-1.7,2.7-3.4,2.6
		C1706.9,216.5,1706.1,215.7,1706.1,214.7z"/>
	<path id="XMLID_446_" class="st8" d="M1694.7,221.2c0-1,0.9-2,2.2-2.4c1.7-0.5,3.4,0.2,3.4,1.8c0,1.5-1.7,2.7-3.4,2.6
		C1695.6,223,1694.7,222.2,1694.7,221.2z"/>
	<path id="XMLID_447_" class="st8" d="M1683.2,227.1c0-1,0.9-2,2.2-2.4c1.7-0.5,3.4,0.2,3.4,1.8c0,1.5-1.7,2.7-3.4,2.6
		C1684.1,228.9,1683.2,228.1,1683.2,227.1z"/>
	<path id="XMLID_448_" class="st8" d="M1672.1,233.8c0-1,0.9-2,2.2-2.4c1.7-0.5,3.4,0.2,3.4,1.8s-1.7,2.7-3.4,2.6
		C1672.9,235.6,1672.1,234.8,1672.1,233.8z"/>
	<path id="XMLID_449_" class="st8" d="M1660.7,240.3c0-1,0.9-2,2.2-2.4c1.7-0.5,3.4,0.2,3.4,1.8s-1.7,2.7-3.4,2.6
		C1661.5,242.2,1660.7,241.3,1660.7,240.3z"/>
	<path id="XMLID_450_" class="st8" d="M1717.4,194.9c0-1,0.9-2,2.2-2.4c1.7-0.5,3.4,0.2,3.4,1.8s-1.7,2.7-3.4,2.6
		C1718.2,196.8,1717.4,195.9,1717.4,194.9z"/>
	<path id="XMLID_451_" class="st8" d="M1694.5,207.3c0-1,0.9-2,2.2-2.4c1.7-0.5,3.4,0.2,3.4,1.8c0,1.5-1.7,2.7-3.4,2.6
		C1695.4,209.2,1694.5,208.3,1694.5,207.3z"/>
	<path id="XMLID_452_" class="st8" d="M1671.9,219.9c0-1,0.9-2,2.2-2.4c1.7-0.5,3.4,0.2,3.4,1.8s-1.7,2.7-3.4,2.6
		C1672.7,221.8,1671.9,220.9,1671.9,219.9z"/>
	<path id="XMLID_453_" class="st8" d="M1717.4,179.3c0-1,0.9-2,2.2-2.4c1.7-0.5,3.4,0.2,3.4,1.8c0,1.5-1.7,2.7-3.4,2.6
		C1718.2,181.2,1717.4,180.3,1717.4,179.3z"/>
	<path id="XMLID_454_" class="st8" d="M1671.9,204.3c0-1,0.9-2,2.2-2.4c1.7-0.5,3.4,0.2,3.4,1.8s-1.7,2.7-3.4,2.6
		C1672.7,206.1,1671.9,205.3,1671.9,204.3z"/>
	<path id="XMLID_455_" class="st8" d="M1717.5,163.8c0-1,0.9-2,2.2-2.4c1.7-0.5,3.4,0.2,3.4,1.8c0,1.5-1.7,2.7-3.4,2.6
		C1718.4,165.6,1717.5,164.8,1717.5,163.8z"/>
	<path id="XMLID_456_" class="st8" d="M1672.1,188.8c0-1,0.9-2,2.2-2.4c1.7-0.5,3.4,0.2,3.4,1.8s-1.7,2.7-3.4,2.6
		C1672.9,190.6,1672.1,189.7,1672.1,188.8z"/>
</g>
<g id="XMLID_457_">
	<linearGradient id="XMLID_663_" gradientUnits="userSpaceOnUse" x1="1637.5861" y1="713.347" x2="1698.543" y2="713.347">
		<stop  offset="0" style="stop-color:#FFFFFF"/>
		<stop  offset="0.45" style="stop-color:#FFFFFF"/>
		<stop  offset="0.6" style="stop-color:#D2D4EB"/>
		<stop  offset="1" style="stop-color:#D2D4EB"/>
	</linearGradient>
	<rect id="XMLID_458_" x="1637.6" y="428.1" class="st12" width="61" height="570.5"/>
	<linearGradient id="XMLID_664_" gradientUnits="userSpaceOnUse" x1="1637.5861" y1="428.0785" x2="1698.543" y2="428.0785">
		<stop  offset="0" style="stop-color:#3E396B"/>
		<stop  offset="1" style="stop-color:#161D29"/>
	</linearGradient>
	<path id="XMLID_459_" class="st13" d="M1697.3,429.7l-26.3,15.5c-1.6,1-4.3,1-5.9,0l-26.4-15.5c-1.6-1-1.6-2.5,0-3.5l26.3-15.4
		c1.6-1,4.3-1,5.9,0l26.3,15.4C1698.9,427.2,1699,428.8,1697.3,429.7z"/>
</g>
<g id="XMLID_460_">
	<linearGradient id="XMLID_665_" gradientUnits="userSpaceOnUse" x1="1576.3956" y1="842.4649" x2="1691.7723" y2="842.4649">
		<stop  offset="0" style="stop-color:#FFFFFF"/>
		<stop  offset="0.45" style="stop-color:#FFFFFF"/>
		<stop  offset="0.6" style="stop-color:#D2D4EB"/>
		<stop  offset="1" style="stop-color:#D2D4EB"/>
	</linearGradient>
	<rect id="XMLID_461_" x="1576.4" y="686.3" class="st14" width="115.4" height="312.3"/>
	<linearGradient id="XMLID_666_" gradientUnits="userSpaceOnUse" x1="1576.3956" y1="686.3141" x2="1691.7723" y2="686.3141">
		<stop  offset="0" style="stop-color:#3E396B"/>
		<stop  offset="1" style="stop-color:#161D29"/>
	</linearGradient>
	<path id="XMLID_462_" class="st15" d="M1689.5,689.5l-49.7,29.4c-3.1,1.8-8.1,1.8-11.1,0l-49.9-29.4c-3.1-1.8-3.1-4.7,0-6.5
		l49.8-29.2c3.1-1.8,8.1-1.8,11.1,0l49.8,29.2C1692.5,684.7,1692.5,687.7,1689.5,689.5z"/>
</g>
<g id="XMLID_463_">
	<linearGradient id="XMLID_667_" gradientUnits="userSpaceOnUse" x1="1380.7686" y1="861.55" x2="1445.8237" y2="861.55">
		<stop  offset="0" style="stop-color:#FFFFFF"/>
		<stop  offset="0.45" style="stop-color:#FFFFFF"/>
		<stop  offset="0.6" style="stop-color:#D2D4EB"/>
		<stop  offset="1" style="stop-color:#D2D4EB"/>
	</linearGradient>
	<rect id="XMLID_464_" x="1380.8" y="724.5" class="st16" width="65.1" height="274.1"/>
	<linearGradient id="XMLID_668_" gradientUnits="userSpaceOnUse" x1="1380.7686" y1="724.4844" x2="1445.8237" y2="724.4844">
		<stop  offset="0" style="stop-color:#3E396B"/>
		<stop  offset="1" style="stop-color:#161D29"/>
	</linearGradient>
	<path id="XMLID_465_" class="st17" d="M1444.5,726.3l-28.1,16.6c-1.7,1-4.5,1-6.3,0l-28.1-16.6c-1.7-1-1.7-2.7,0-3.7l28.1-16.4
		c1.7-1,4.5-1,6.3,0l28.1,16.4C1446.3,723.6,1446.3,725.2,1444.5,726.3z"/>
</g>
<g id="XMLID_466_">
	<linearGradient id="XMLID_669_" gradientUnits="userSpaceOnUse" x1="1116.8971" y1="658.6104" x2="1292.6573" y2="658.6104">
		<stop  offset="0" style="stop-color:#FFFFFF"/>
		<stop  offset="0.45" style="stop-color:#FFFFFF"/>
		<stop  offset="0.6" style="stop-color:#D2D4EB"/>
		<stop  offset="1" style="stop-color:#D2D4EB"/>
	</linearGradient>
	<rect id="XMLID_467_" x="1116.9" y="316.3" class="st18" width="175.8" height="684.7"/>
	<g id="XMLID_468_">
		<path id="XMLID_578_" class="st7" d="M1204.9,366.9c-3,0-5.8-0.7-8-1.9l-76-44.8c-1.9-1.1-3-2.6-3-4.1c0-1.5,1.1-3,3-4.1
			l75.9-44.4c2.1-1.2,5-1.9,8-1.9s5.9,0.7,8,1.9l75.9,44.4c1.9,1.1,3,2.6,3,4.1c0,1.5-1.1,3-3,4.1l-75.8,44.8
			C1210.7,366.2,1207.9,366.9,1204.9,366.9z"/>
		<path id="XMLID_575_" class="st8" d="M1204.8,266.6c2.8,0,5.5,0.7,7.5,1.8l75.9,44.4c1.6,0.9,2.5,2.1,2.5,3.3
			c0,1.1-0.9,2.3-2.5,3.3l-75.8,44.8c-1.9,1.1-4.7,1.8-7.5,1.8c-2.8,0-5.5-0.7-7.4-1.8l-76-44.8c-1.6-0.9-2.5-2.1-2.5-3.3
			c0-1.1,0.9-2.3,2.5-3.3l75.9-44.4C1199.2,267.3,1202,266.6,1204.8,266.6 M1204.8,264.6c-3.1,0-6.1,0.7-8.5,2.1l-75.9,44.4
			c-4.7,2.7-4.7,7.2,0,10l76,44.8c2.3,1.4,5.4,2.1,8.5,2.1c3.1,0,6.1-0.7,8.5-2.1l75.8-44.8c4.7-2.8,4.7-7.2,0-10l-75.9-44.4
			C1210.9,265.3,1207.8,264.6,1204.8,264.6L1204.8,264.6z"/>
	</g>
</g>
<path id="XMLID_470_" class="st8" d="M1651.8,553.4l23.2-113.5c1.1-5.6-2-12.3-7-15.1l-131.1-72c-5-2.7-10-0.4-11.1,5.1l-23.4,111.7
	c-1.2,5.6,1.9,12.3,6.9,15.1l131.5,73.7C1645.7,561.3,1650.6,559,1651.8,553.4z"/>
<linearGradient id="XMLID_670_" gradientUnits="userSpaceOnUse" x1="1502.1326" y1="454.8078" x2="1673.1665" y2="454.8078">
	<stop  offset="0" style="stop-color:#3E396B"/>
	<stop  offset="1" style="stop-color:#161D29"/>
</linearGradient>
<path id="XMLID_471_" class="st19" d="M1650,551.4l22.9-112.2c1.1-5.5-2-12.2-6.9-14.9l-129.6-71.2c-4.9-2.7-9.9-0.4-11,5.1
	l-23.1,110.4c-1.2,5.5,1.9,12.2,6.8,15l129.9,72.9C1644,559.2,1648.9,556.9,1650,551.4z"/>
<path id="XMLID_472_" class="st8" d="M1541.8,627.3l98.1-60.4c4.8-3,4.7-7.6-0.2-10.4l-131.4-72.7c-5-2.8-13-2.6-17.8,0.4l-91.8,56
	c-4.9,3-4.9,7.8,0,10.7l125.5,76.5C1529.1,630.3,1536.9,630.3,1541.8,627.3z"/>
<path id="XMLID_473_" class="st20" d="M1498,500.1l-48.5,28.4c-2,1.1-2,3,0,4.2l104.5,62.7c2,1.2,5.1,1.2,7.1,0l50.4-30.8
	c1.9-1.2,1.9-3.1-0.1-4.2L1505.1,500C1503.2,498.9,1500,498.9,1498,500.1z"/>
<path id="XMLID_474_" class="st7" d="M1457.6,549.8l-20.7,12.1c-2,1.1-2,3,0,4.2l48.7,29.3c2,1.2,5.1,1.2,7.1,0l21.7-13.2
	c1.9-1.2,1.9-3.1-0.1-4.2l-49.5-28.2C1462.8,548.7,1459.6,548.7,1457.6,549.8z"/>
<g id="XMLID_478_">
	<linearGradient id="XMLID_671_" gradientUnits="userSpaceOnUse" x1="1079.8213" y1="745.6988" x2="1140.7782" y2="745.6988">
		<stop  offset="0" style="stop-color:#FFFFFF"/>
		<stop  offset="0.45" style="stop-color:#FFFFFF"/>
		<stop  offset="0.6" style="stop-color:#D2D4EB"/>
		<stop  offset="1" style="stop-color:#D2D4EB"/>
	</linearGradient>
	<rect id="XMLID_479_" x="1079.8" y="492.8" class="st21" width="61" height="505.8"/>
	<linearGradient id="XMLID_672_" gradientUnits="userSpaceOnUse" x1="1079.8213" y1="492.782" x2="1140.7782" y2="492.782">
		<stop  offset="0" style="stop-color:#3E396B"/>
		<stop  offset="1" style="stop-color:#161D29"/>
	</linearGradient>
	<path id="XMLID_480_" class="st22" d="M1139.6,494.4l-26.3,15.5c-1.6,1-4.3,1-5.9,0l-26.4-15.5c-1.6-1-1.6-2.5,0-3.5l26.3-15.4
		c1.6-1,4.3-1,5.9,0l26.3,15.4C1141.2,491.9,1141.2,493.5,1139.6,494.4z"/>
</g>
<g id="XMLID_484_">
	<path id="XMLID_485_" class="st8" d="M1229.8,372.5c0,1-0.9,2-2.2,2.4c-1.7,0.5-3.4-0.2-3.4-1.8c0-1.5,1.7-2.7,3.4-2.6
		C1229,370.6,1229.8,371.5,1229.8,372.5z"/>
	<path id="XMLID_486_" class="st8" d="M1241.3,366.6c0,1-0.9,2-2.2,2.4c-1.7,0.5-3.4-0.2-3.4-1.8c0-1.5,1.7-2.7,3.4-2.6
		C1240.5,364.8,1241.3,365.6,1241.3,366.6z"/>
	<path id="XMLID_487_" class="st8" d="M1252.7,360.1c0,1-0.9,2-2.2,2.4c-1.7,0.5-3.4-0.2-3.4-1.8s1.7-2.7,3.4-2.6
		C1251.8,358.2,1252.7,359.1,1252.7,360.1z"/>
	<path id="XMLID_488_" class="st8" d="M1264.2,354.2c0,1-0.9,2-2.2,2.4c-1.7,0.5-3.4-0.2-3.4-1.8s1.7-2.7,3.4-2.6
		C1263.3,352.4,1264.2,353.2,1264.2,354.2z"/>
	<path id="XMLID_489_" class="st8" d="M1275.3,347.5c0,1-0.9,2-2.2,2.4c-1.7,0.5-3.4-0.2-3.4-1.8s1.7-2.7,3.4-2.6
		C1274.5,345.6,1275.3,346.5,1275.3,347.5z"/>
	<path id="XMLID_490_" class="st8" d="M1286.7,340.9c0,1-0.9,2-2.2,2.4c-1.7,0.5-3.4-0.2-3.4-1.8s1.7-2.7,3.4-2.6
		C1285.9,339.1,1286.7,340,1286.7,340.9z"/>
	<path id="XMLID_491_" class="st8" d="M1230,386.3c0,1-0.9,2-2.2,2.4c-1.7,0.5-3.4-0.2-3.4-1.8s1.7-2.7,3.4-2.6
		C1229.2,384.5,1230,385.4,1230,386.3z"/>
	<path id="XMLID_492_" class="st8" d="M1241.5,380.5c0,1-0.9,2-2.2,2.4c-1.7,0.5-3.4-0.2-3.4-1.8s1.7-2.7,3.4-2.6
		C1240.6,378.6,1241.5,379.5,1241.5,380.5z"/>
	<path id="XMLID_493_" class="st8" d="M1252.9,373.9c0,1-0.9,2-2.2,2.4c-1.7,0.5-3.4-0.2-3.4-1.8s1.7-2.7,3.4-2.6
		C1252,372.1,1252.9,373,1252.9,373.9z"/>
	<path id="XMLID_494_" class="st8" d="M1264.4,368.1c0,1-0.9,2-2.2,2.4c-1.7,0.5-3.4-0.2-3.4-1.8s1.7-2.7,3.4-2.6
		C1263.5,366.2,1264.4,367.1,1264.4,368.1z"/>
	<path id="XMLID_495_" class="st8" d="M1275.5,361.3c0,1-0.9,2-2.2,2.4c-1.7,0.5-3.4-0.2-3.4-1.8s1.7-2.7,3.4-2.6
		C1274.7,359.5,1275.5,360.4,1275.5,361.3z"/>
	<path id="XMLID_496_" class="st8" d="M1286.9,354.8c0,1-0.9,2-2.2,2.4c-1.7,0.5-3.4-0.2-3.4-1.8c0-1.5,1.7-2.7,3.4-2.6
		C1286,353,1286.9,353.8,1286.9,354.8z"/>
	<path id="XMLID_497_" class="st8" d="M1230,401.9c0,1-0.9,2-2.2,2.4c-1.7,0.5-3.4-0.2-3.4-1.8s1.7-2.7,3.4-2.6
		C1229.2,400.1,1230,401,1230,401.9z"/>
	<path id="XMLID_498_" class="st8" d="M1241.5,396.1c0,1-0.9,2-2.2,2.4c-1.7,0.5-3.4-0.2-3.4-1.8s1.7-2.7,3.4-2.6
		C1240.6,394.3,1241.5,395.1,1241.5,396.1z"/>
	<path id="XMLID_499_" class="st8" d="M1252.9,389.6c0,1-0.9,2-2.2,2.4c-1.7,0.5-3.4-0.2-3.4-1.8s1.7-2.7,3.4-2.6
		C1252,387.7,1252.9,388.6,1252.9,389.6z"/>
	<path id="XMLID_500_" class="st8" d="M1264.4,383.7c0,1-0.9,2-2.2,2.4c-1.7,0.5-3.4-0.2-3.4-1.8s1.7-2.7,3.4-2.6
		C1263.5,381.9,1264.4,382.7,1264.4,383.7z"/>
	<path id="XMLID_501_" class="st8" d="M1275.5,377c0,1-0.9,2-2.2,2.4c-1.7,0.5-3.4-0.2-3.4-1.8s1.7-2.7,3.4-2.6
		C1274.7,375.1,1275.5,376,1275.5,377z"/>
	<path id="XMLID_502_" class="st8" d="M1286.9,370.4c0,1-0.9,2-2.2,2.4c-1.7,0.5-3.4-0.2-3.4-1.8s1.7-2.7,3.4-2.6
		C1286,368.6,1286.9,369.5,1286.9,370.4z"/>
	<path id="XMLID_503_" class="st8" d="M1229.8,417.5c0,1-0.9,2-2.2,2.4c-1.7,0.5-3.4-0.2-3.4-1.8s1.7-2.7,3.4-2.6
		C1229,415.7,1229.8,416.5,1229.8,417.5z"/>
	<path id="XMLID_504_" class="st8" d="M1241.3,411.6c0,1-0.9,2-2.2,2.4c-1.7,0.5-3.4-0.2-3.4-1.8s1.7-2.7,3.4-2.6
		C1240.5,409.8,1241.3,410.7,1241.3,411.6z"/>
	<path id="XMLID_505_" class="st8" d="M1252.7,405.1c0,1-0.9,2-2.2,2.4c-1.7,0.5-3.4-0.2-3.4-1.8s1.7-2.7,3.4-2.6
		C1251.8,403.3,1252.7,404.1,1252.7,405.1z"/>
	<path id="XMLID_506_" class="st8" d="M1264.2,399.2c0,1-0.9,2-2.2,2.4c-1.7,0.5-3.4-0.2-3.4-1.8s1.7-2.7,3.4-2.6
		C1263.3,397.4,1264.2,398.3,1264.2,399.2z"/>
	<path id="XMLID_507_" class="st8" d="M1275.3,392.5c0,1-0.9,2-2.2,2.4c-1.7,0.5-3.4-0.2-3.4-1.8s1.7-2.7,3.4-2.6
		C1274.5,390.7,1275.3,391.5,1275.3,392.5z"/>
	<path id="XMLID_508_" class="st8" d="M1286.7,386c0,1-0.9,2-2.2,2.4c-1.7,0.5-3.4-0.2-3.4-1.8s1.7-2.7,3.4-2.6
		C1285.9,384.2,1286.7,385,1286.7,386z"/>
	<path id="XMLID_509_" class="st8" d="M1229.8,432c0,1-0.9,2-2.2,2.4c-1.7,0.5-3.4-0.2-3.4-1.8s1.7-2.7,3.4-2.6
		C1228.9,430.1,1229.8,431,1229.8,432z"/>
	<path id="XMLID_510_" class="st8" d="M1241.3,426.1c0,1-0.9,2-2.2,2.4c-1.7,0.5-3.4-0.2-3.4-1.8s1.7-2.7,3.4-2.6
		C1240.4,424.3,1241.3,425.1,1241.3,426.1z"/>
	<path id="XMLID_511_" class="st8" d="M1252.6,419.6c0,1-0.9,2-2.2,2.4c-1.7,0.5-3.4-0.2-3.4-1.8s1.7-2.7,3.4-2.6
		C1251.8,417.7,1252.6,418.6,1252.6,419.6z"/>
	<path id="XMLID_512_" class="st8" d="M1264.1,413.7c0,1-0.9,2-2.2,2.4c-1.7,0.5-3.4-0.2-3.4-1.8s1.7-2.7,3.4-2.6
		C1263.2,411.9,1264.1,412.7,1264.1,413.7z"/>
	<path id="XMLID_513_" class="st8" d="M1275.3,407c0,1-0.9,2-2.2,2.4c-1.7,0.5-3.4-0.2-3.4-1.8s1.7-2.7,3.4-2.6
		C1274.4,405.1,1275.3,406,1275.3,407z"/>
	<path id="XMLID_514_" class="st8" d="M1286.6,400.4c0,1-0.9,2-2.2,2.4c-1.7,0.5-3.4-0.2-3.4-1.8s1.7-2.7,3.4-2.6
		C1285.8,398.6,1286.6,399.5,1286.6,400.4z"/>
	<path id="XMLID_515_" class="st8" d="M1229.9,445.8c0,1-0.9,2-2.2,2.4c-1.7,0.5-3.4-0.2-3.4-1.8s1.7-2.7,3.4-2.6
		C1229.1,444,1229.9,444.9,1229.9,445.8z"/>
	<path id="XMLID_516_" class="st8" d="M1252.8,433.4c0,1-0.9,2-2.2,2.4c-1.7,0.5-3.4-0.2-3.4-1.8s1.7-2.7,3.4-2.6
		C1251.9,431.6,1252.8,432.5,1252.8,433.4z"/>
	<path id="XMLID_517_" class="st8" d="M1275.4,420.8c0,1-0.9,2-2.2,2.4c-1.7,0.5-3.4-0.2-3.4-1.8s1.7-2.7,3.4-2.6
		C1274.6,419,1275.4,419.9,1275.4,420.8z"/>
	<path id="XMLID_518_" class="st8" d="M1229.9,461.4c0,1-0.9,2-2.2,2.4c-1.7,0.5-3.4-0.2-3.4-1.8c0-1.5,1.7-2.7,3.4-2.6
		C1229.1,459.6,1229.9,460.5,1229.9,461.4z"/>
	<path id="XMLID_519_" class="st8" d="M1275.4,436.5c0,1-0.9,2-2.2,2.4c-1.7,0.5-3.4-0.2-3.4-1.8s1.7-2.7,3.4-2.6
		C1274.6,434.6,1275.4,435.5,1275.4,436.5z"/>
	<path id="XMLID_520_" class="st8" d="M1229.8,477c0,1-0.9,2-2.2,2.4c-1.7,0.5-3.4-0.2-3.4-1.8c0-1.5,1.7-2.7,3.4-2.6
		C1228.9,475.2,1229.8,476,1229.8,477z"/>
	<path id="XMLID_521_" class="st8" d="M1275.3,452c0,1-0.9,2-2.2,2.4c-1.7,0.5-3.4-0.2-3.4-1.8s1.7-2.7,3.4-2.6
		C1274.4,450.2,1275.3,451,1275.3,452z"/>
</g>
<g id="XMLID_522_">
	<path id="XMLID_523_" class="st10" d="M1181.1,370c0,1,0.9,2,2.2,2.4c1.7,0.5,3.4-0.2,3.4-1.8s-1.7-2.7-3.4-2.6
		C1182,368.1,1181.1,369,1181.1,370z"/>
	<path id="XMLID_524_" class="st10" d="M1169.6,364.1c0,1,0.9,2,2.2,2.4c1.7,0.5,3.4-0.2,3.4-1.8s-1.7-2.7-3.4-2.6
		C1170.5,362.3,1169.6,363.1,1169.6,364.1z"/>
	<path id="XMLID_525_" class="st10" d="M1158.5,357.4c0,1,0.9,2,2.2,2.4c1.7,0.5,3.4-0.2,3.4-1.8s-1.7-2.7-3.4-2.6
		C1159.4,355.6,1158.5,356.4,1158.5,357.4z"/>
	<path id="XMLID_526_" class="st10" d="M1147.1,350.9c0,1,0.9,2,2.2,2.4c1.7,0.5,3.4-0.2,3.4-1.8s-1.7-2.7-3.4-2.6
		C1148,349,1147.1,349.9,1147.1,350.9z"/>
	<path id="XMLID_527_" class="st10" d="M1135.6,345c0,1,0.9,2,2.2,2.4c1.7,0.5,3.4-0.2,3.4-1.8s-1.7-2.7-3.4-2.6
		C1136.5,343.2,1135.6,344,1135.6,345z"/>
	<path id="XMLID_528_" class="st10" d="M1181,383.8c0,1,0.9,2,2.2,2.4c1.7,0.5,3.4-0.2,3.4-1.8c0-1.5-1.7-2.7-3.4-2.6
		C1181.8,382,1181,382.9,1181,383.8z"/>
	<path id="XMLID_529_" class="st10" d="M1169.5,378c0,1,0.9,2,2.2,2.4c1.7,0.5,3.4-0.2,3.4-1.8s-1.7-2.7-3.4-2.6
		C1170.3,376.2,1169.5,377,1169.5,378z"/>
	<path id="XMLID_530_" class="st10" d="M1158.3,371.3c0,1,0.9,2,2.2,2.4c1.7,0.5,3.4-0.2,3.4-1.8s-1.7-2.7-3.4-2.6
		C1159.2,369.4,1158.3,370.3,1158.3,371.3z"/>
	<path id="XMLID_531_" class="st10" d="M1147,364.7c0,1,0.9,2,2.2,2.4c1.7,0.5,3.4-0.2,3.4-1.8s-1.7-2.7-3.4-2.6
		C1147.8,362.9,1147,363.7,1147,364.7z"/>
	<path id="XMLID_532_" class="st10" d="M1135.5,358.9c0,1,0.9,2,2.2,2.4c1.7,0.5,3.4-0.2,3.4-1.8s-1.7-2.7-3.4-2.6
		C1136.3,357,1135.5,357.9,1135.5,358.9z"/>
	<path id="XMLID_533_" class="st10" d="M1181,399.5c0,1,0.9,2,2.2,2.4c1.7,0.5,3.4-0.2,3.4-1.8s-1.7-2.7-3.4-2.6
		C1181.8,397.6,1181,398.5,1181,399.5z"/>
	<path id="XMLID_534_" class="st10" d="M1171.6,396c1.7,0.5,3.4-0.2,3.4-1.8s-1.7-2.7-3.4-2.6C1170.3,391.8,1170.3,395.6,1171.6,396
		z"/>
	<path id="XMLID_535_" class="st10" d="M1158.3,386.9c0,1,0.9,2,2.2,2.4c1.7,0.5,3.4-0.2,3.4-1.8s-1.7-2.7-3.4-2.6
		C1159.2,385,1158.3,385.9,1158.3,386.9z"/>
	<path id="XMLID_536_" class="st10" d="M1147,380.3c0,1,0.9,2,2.2,2.4c1.7,0.5,3.4-0.2,3.4-1.8c0-1.5-1.7-2.7-3.4-2.6
		C1147.8,378.5,1147,379.4,1147,380.3z"/>
	<path id="XMLID_537_" class="st10" d="M1135.5,374.5c0,1,0.9,2,2.2,2.4c1.7,0.5,3.4-0.2,3.4-1.8s-1.7-2.7-3.4-2.6
		C1136.3,372.6,1135.5,373.5,1135.5,374.5z"/>
	<path id="XMLID_538_" class="st10" d="M1181.1,415c0,1,0.9,2,2.2,2.4c1.7,0.5,3.4-0.2,3.4-1.8s-1.7-2.7-3.4-2.6
		C1182,413.2,1181.1,414,1181.1,415z"/>
	<path id="XMLID_539_" class="st10" d="M1169.6,409.1c0,1,0.9,2,2.2,2.4c1.7,0.5,3.4-0.2,3.4-1.8s-1.7-2.7-3.4-2.6
		C1170.5,407.3,1169.6,408.2,1169.6,409.1z"/>
	<path id="XMLID_540_" class="st10" d="M1158.5,402.4c0,1,0.9,2,2.2,2.4c1.7,0.5,3.4-0.2,3.4-1.8s-1.7-2.7-3.4-2.6
		C1159.4,400.6,1158.5,401.4,1158.5,402.4z"/>
	<path id="XMLID_541_" class="st10" d="M1147.1,395.9c0,1,0.9,2,2.2,2.4c1.7,0.5,3.4-0.2,3.4-1.8c0-1.5-1.7-2.7-3.4-2.6
		C1148,394.1,1147.1,394.9,1147.1,395.9z"/>
	<path id="XMLID_542_" class="st10" d="M1135.6,390c0,1,0.9,2,2.2,2.4c1.7,0.5,3.4-0.2,3.4-1.8c0-1.5-1.7-2.7-3.4-2.6
		C1136.5,388.2,1135.6,389,1135.6,390z"/>
	<path id="XMLID_543_" class="st10" d="M1124.4,339.1c0,1,0.9,2,2.2,2.4c1.7,0.5,3.4-0.2,3.4-1.8s-1.7-2.7-3.4-2.6
		C1125.2,337.2,1124.4,338.1,1124.4,339.1z"/>
	<path id="XMLID_544_" class="st10" d="M1124.2,352.9c0,1,0.9,2,2.2,2.4c1.7,0.5,3.4-0.2,3.4-1.8c0-1.5-1.7-2.7-3.4-2.6
		C1125.1,351.1,1124.2,352,1124.2,352.9z"/>
	<path id="XMLID_545_" class="st10" d="M1124.2,368.6c0,1,0.9,2,2.2,2.4c1.7,0.5,3.4-0.2,3.4-1.8s-1.7-2.7-3.4-2.6
		C1125.1,366.7,1124.2,367.6,1124.2,368.6z"/>
	<path id="XMLID_546_" class="st10" d="M1124.4,384.1c0,1,0.9,2,2.2,2.4c1.7,0.5,3.4-0.2,3.4-1.8s-1.7-2.7-3.4-2.6
		C1125.2,382.3,1124.4,383.1,1124.4,384.1z"/>
	<path id="XMLID_547_" class="st10" d="M1181.2,429.5c0,1,0.9,2,2.2,2.4c1.7,0.5,3.4-0.2,3.4-1.8s-1.7-2.7-3.4-2.6
		C1182.1,427.6,1181.2,428.5,1181.2,429.5z"/>
	<path id="XMLID_548_" class="st10" d="M1169.7,423.6c0,1,0.9,2,2.2,2.4c1.7,0.5,3.4-0.2,3.4-1.8s-1.7-2.7-3.4-2.6
		C1170.6,421.8,1169.7,422.6,1169.7,423.6z"/>
	<path id="XMLID_549_" class="st10" d="M1158.6,416.9c0,1,0.9,2,2.2,2.4c1.7,0.5,3.4-0.2,3.4-1.8s-1.7-2.7-3.4-2.6
		C1159.4,415,1158.6,415.9,1158.6,416.9z"/>
	<path id="XMLID_550_" class="st10" d="M1147.2,410.3c0,1,0.9,2,2.2,2.4c1.7,0.5,3.4-0.2,3.4-1.8s-1.7-2.7-3.4-2.6
		C1148.1,408.5,1147.2,409.4,1147.2,410.3z"/>
	<path id="XMLID_551_" class="st10" d="M1135.7,404.5c0,1,0.9,2,2.2,2.4c1.7,0.5,3.4-0.2,3.4-1.8s-1.7-2.7-3.4-2.6
		C1136.6,402.7,1135.7,403.5,1135.7,404.5z"/>
	<path id="XMLID_552_" class="st10" d="M1181,443.3c0,1,0.9,2,2.2,2.4c1.7,0.5,3.4-0.2,3.4-1.8s-1.7-2.7-3.4-2.6
		C1181.9,441.5,1181,442.4,1181,443.3z"/>
	<path id="XMLID_553_" class="st10" d="M1158.4,430.7c0,1,0.9,2,2.2,2.4c1.7,0.5,3.4-0.2,3.4-1.8s-1.7-2.7-3.4-2.6
		C1159.3,428.9,1158.4,429.8,1158.4,430.7z"/>
	<path id="XMLID_554_" class="st10" d="M1135.5,418.4c0,1,0.9,2,2.2,2.4c1.7,0.5,3.4-0.2,3.4-1.8c0-1.5-1.7-2.7-3.4-2.6
		C1136.4,416.5,1135.5,417.4,1135.5,418.4z"/>
	<path id="XMLID_555_" class="st10" d="M1158.4,446.4c0,1,0.9,2,2.2,2.4c1.7,0.5,3.4-0.2,3.4-1.8s-1.7-2.7-3.4-2.6
		C1159.3,444.5,1158.4,445.4,1158.4,446.4z"/>
	<path id="XMLID_556_" class="st10" d="M1135.5,434c0,1,0.9,2,2.2,2.4c1.7,0.5,3.4-0.2,3.4-1.8s-1.7-2.7-3.4-2.6
		C1136.4,432.1,1135.5,433,1135.5,434z"/>
	<path id="XMLID_557_" class="st10" d="M1158.6,461.9c0,1,0.9,2,2.2,2.4c1.7,0.5,3.4-0.2,3.4-1.8s-1.7-2.7-3.4-2.6
		C1159.4,460.1,1158.6,460.9,1158.6,461.9z"/>
	<path id="XMLID_558_" class="st10" d="M1124.5,398.6c0,1,0.9,2,2.2,2.4c1.7,0.5,3.4-0.2,3.4-1.8s-1.7-2.7-3.4-2.6
		C1125.3,396.7,1124.5,397.6,1124.5,398.6z"/>
</g>
<g id="XMLID_559_">
	<linearGradient id="XMLID_673_" gradientUnits="userSpaceOnUse" x1="1246.3318" y1="724.3499" x2="1368.2457" y2="724.3499">
		<stop  offset="0" style="stop-color:#FFFFFF"/>
		<stop  offset="0.45" style="stop-color:#FFFFFF"/>
		<stop  offset="0.6" style="stop-color:#D2D4EB"/>
		<stop  offset="1" style="stop-color:#D2D4EB"/>
	</linearGradient>
	<rect id="XMLID_560_" x="1246.3" y="450.1" class="st23" width="121.9" height="548.5"/>
	<linearGradient id="XMLID_674_" gradientUnits="userSpaceOnUse" x1="1246.3318" y1="450.0841" x2="1368.2457" y2="450.0841">
		<stop  offset="0" style="stop-color:#3E396B"/>
		<stop  offset="1" style="stop-color:#161D29"/>
	</linearGradient>
	<path id="XMLID_561_" class="st24" d="M1365.8,453.4l-52.6,31c-3.2,1.9-8.5,1.9-11.8,0l-52.7-31.1c-3.2-1.9-3.2-5,0-6.9l52.6-30.8
		c3.3-1.9,8.5-1.9,11.8,0l52.6,30.8C1369.1,448.4,1369.1,451.5,1365.8,453.4z"/>
</g>
<linearGradient id="XMLID_675_" gradientUnits="userSpaceOnUse" x1="-559.478" y1="782.6055" x2="1481.8046" y2="782.6055" gradientTransform="matrix(1.1311 0.1053 -0.2821 1.0355 186.3289 -90.622)">
	<stop  offset="0" style="stop-color:#3E396B"/>
	<stop  offset="1" style="stop-color:#161D29"/>
</linearGradient>
<polygon id="XMLID_562_" class="st25" points="537.1,-453.5 1474.2,1490.1 437.2,1990.1 -499.9,46.5 "/>
<path id="XMLID_567_" class="st26" d="M1672.1,233.8"/>
<path id="XMLID_566_" class="st26" d="M1698.5,570.1"/>
<path id="XMLID_469_" class="st26" d="M1015.6,768.3"/>
<g id="XMLID_614_">
	<linearGradient id="XMLID_676_" gradientUnits="userSpaceOnUse" x1="1523.101" y1="438.6621" x2="1585.9133" y2="438.6621">
		<stop  offset="0" style="stop-color:#4869B2"/>
		<stop  offset="1" style="stop-color:#45A7DE"/>
	</linearGradient>
	<polygon id="XMLID_194_" class="st27" points="1585.9,423.4 1573.8,481.5 1523.1,453.1 1535,395.8 	"/>
	<linearGradient id="XMLID_677_" gradientUnits="userSpaceOnUse" x1="1580.6646" y1="470.4535" x2="1643.4769" y2="470.4535">
		<stop  offset="0" style="stop-color:#4869B2"/>
		<stop  offset="1" style="stop-color:#45A7DE"/>
	</linearGradient>
	<polygon id="XMLID_563_" class="st28" points="1643.5,455.2 1631.4,513.3 1580.7,484.9 1592.6,427.6 	"/>
	<polygon id="XMLID_565_" class="st10" points="1526.6,436.2 1544.6,428.1 1546,445 1574.3,433.5 1578.7,458.1 1573.8,481.5 
		1523.1,453.1 	"/>
	<polygon id="XMLID_569_" class="st10" points="1591.8,455.7 1590.9,460.1 1632.2,483.3 1633.2,478.5 	"/>
	<polygon id="XMLID_568_" class="st10" points="1593.7,446.7 1592.8,451.2 1634.1,474.3 1635.1,469.6 	"/>
	<polygon id="XMLID_574_" class="st10" points="1595.6,438.2 1594.6,442.7 1636,465.8 1636.9,461.1 	"/>
	<polygon id="XMLID_570_" class="st10" points="1589.6,464.3 1588.7,468.7 1607.1,479.1 1608.1,474.3 	"/>
	<polygon id="XMLID_344_" class="st29" points="1587.3,473.8 1586.4,478.3 1595.4,483.3 1596.4,478.6 	"/>
	<polygon id="XMLID_588_" class="st30" points="1631.4,513.3 1636.9,512.3 1648.7,453.2 1597.8,425.9 1592.6,427.6 1643.5,455.2 	
		"/>
	<polygon id="XMLID_593_" class="st30" points="1573.6,482 1579.2,480.9 1590.9,421.8 1540,394.5 1534.8,396.2 1585.7,423.9 	"/>
	<polygon id="XMLID_607_" class="st30" points="1636,465.8 1637.4,465.4 1638.3,460.5 1596.7,437.4 1595.6,438.2 1636.9,461.1 	"/>
	<polygon id="XMLID_608_" class="st30" points="1634.1,474.4 1635.6,474 1636.5,469.1 1594.9,446 1593.7,446.8 1635.1,469.7 	"/>
	<polygon id="XMLID_609_" class="st30" points="1632.2,483.2 1633.6,482.8 1634.6,477.9 1592.9,454.8 1591.8,455.6 1633.2,478.5 	
		"/>
	<polygon id="XMLID_610_" class="st30" points="1607.1,479.1 1608.6,478.9 1609.4,473.6 1590.4,463.5 1589.6,464.3 1608.1,474.3 	
		"/>
	<polygon id="XMLID_611_" class="st31" points="1595.4,483.3 1596.8,483.2 1597.6,478 1588.1,473.3 1587.3,473.8 1596.4,478.6 	"/>
	<polygon id="XMLID_612_" class="st30" points="1544.6,428.1 1547.1,427.9 1548.8,443.8 1546,445 	"/>
	<polygon id="XMLID_613_" class="st30" points="1574.3,433.5 1576.3,433.3 1579.8,452.9 1578.6,457.8 	"/>
	<path id="XMLID_615_" class="st30" d="M1555.6,418c2.2,0.3,4.1,1.3,4.9,3.3c0.6,1.4,0.2,3.1-1,4c-2.3,1.7-5.7,0.8-8.6-1.2
		L1555.6,418z"/>
	<path id="XMLID_564_" class="st10" d="M1549.4,421.2c0,1.8,1.6,3.7,3.9,4.4c3,0.9,6.2-0.4,6.2-3.2s-3.1-4.8-6.2-4.6
		C1551,417.9,1549.4,419.4,1549.4,421.2z"/>
</g>
<path id="XMLID_635_" class="st8" d="M1256.7,351.4l17.7-86.6c0.9-4.2-0.8-10-4.5-12.1l-99.5-53c-3.8-2.1-7.6,0.5-8.5,4.7l-17.6,84
	c-0.9,4.2,1.4,8.3,5.2,10.4l98.8,55.4C1252.1,356.3,1255.8,355.6,1256.7,351.4z"/>
<linearGradient id="XMLID_678_" gradientUnits="userSpaceOnUse" x1="1143.6448" y1="277.4878" x2="1272.2268" y2="277.4878">
	<stop  offset="0" style="stop-color:#3E396B"/>
	<stop  offset="1" style="stop-color:#161D29"/>
</linearGradient>
<path id="XMLID_634_" class="st32" d="M1254.8,350.1l17.2-84.3c0.8-4.1-1.5-9.2-5.2-11.2l-97.4-53.5c-3.7-2-7.4-0.3-8.3,3.8
	l-17.3,83c-0.9,4.1,1.4,9.2,5.1,11.2l97.7,54.8C1250.3,355.9,1254,354.3,1254.8,350.1z"/>
<g id="XMLID_481_">
	<linearGradient id="XMLID_679_" gradientUnits="userSpaceOnUse" x1="1159.4087" y1="265.3496" x2="1206.6306" y2="265.3496">
		<stop  offset="0" style="stop-color:#4869B2"/>
		<stop  offset="1" style="stop-color:#45A7DE"/>
	</linearGradient>
	<polygon id="XMLID_633_" class="st33" points="1206.6,253.9 1197.5,297.6 1159.4,276.2 1168.4,233.1 	"/>
	<linearGradient id="XMLID_680_" gradientUnits="userSpaceOnUse" x1="1202.6846" y1="289.2501" x2="1249.9064" y2="289.2501">
		<stop  offset="0" style="stop-color:#4869B2"/>
		<stop  offset="1" style="stop-color:#45A7DE"/>
	</linearGradient>
	<polygon id="XMLID_632_" class="st34" points="1249.9,277.8 1240.8,321.5 1202.7,300.1 1211.6,257 	"/>
	<polygon id="XMLID_631_" class="st10" points="1162.1,263.5 1175.6,257.4 1176.6,270.1 1197.9,261.5 1201.2,280 1197.5,297.6 
		1159.4,276.2 	"/>
	<polygon id="XMLID_630_" class="st10" points="1211.1,278.1 1210.4,281.5 1241.4,298.9 1242.2,295.3 	"/>
	<polygon id="XMLID_629_" class="st10" points="1212.5,271.4 1211.8,274.8 1242.9,292.2 1243.6,288.6 	"/>
	<polygon id="XMLID_627_" class="st10" points="1213.9,265 1213.2,268.4 1244.3,285.8 1245,282.2 	"/>
	<polygon id="XMLID_626_" class="st10" points="1209.4,284.6 1208.7,288 1222.6,295.7 1223.3,292.2 	"/>
	<polygon id="XMLID_625_" class="st29" points="1207.7,291.8 1207,295.1 1213.8,298.9 1214.5,295.4 	"/>
	<polygon id="XMLID_624_" class="st30" points="1240.8,321.5 1245,320.7 1253.8,276.3 1215.5,255.7 1211.6,257 1249.9,277.8 	"/>
	<polygon id="XMLID_623_" class="st30" points="1197.4,297.9 1201.5,297.1 1210.4,252.7 1172.1,232.2 1168.2,233.4 1206.5,254.2 	
		"/>
	<polygon id="XMLID_622_" class="st30" points="1244.3,285.8 1245.3,285.5 1246,281.8 1214.7,264.4 1213.9,265 1245,282.2 	"/>
	<polygon id="XMLID_621_" class="st30" points="1242.9,292.2 1244,291.9 1244.7,288.2 1213.4,270.9 1212.5,271.5 1243.6,288.7 	"/>
	<polygon id="XMLID_620_" class="st30" points="1241.4,298.8 1242.5,298.5 1243.2,294.9 1211.9,277.5 1211.1,278.1 1242.2,295.3 	
		"/>
	<polygon id="XMLID_619_" class="st30" points="1222.6,295.7 1223.7,295.6 1224.3,291.6 1210,284 1209.4,284.6 1223.3,292.2 	"/>
	<polygon id="XMLID_618_" class="st31" points="1213.8,298.9 1214.8,298.8 1215.4,294.9 1208.2,291.4 1207.7,291.8 1214.5,295.4 	
		"/>
	<polygon id="XMLID_617_" class="st30" points="1175.6,257.4 1177.5,257.3 1178.7,269.2 1176.6,270.1 	"/>
	<polygon id="XMLID_616_" class="st30" points="1197.9,261.5 1199.4,261.3 1202,276.1 1201.2,279.7 	"/>
	<path id="XMLID_483_" class="st30" d="M1183.8,249.8c1.6,0.2,3.1,1,3.7,2.5c0.4,1.1,0.2,2.3-0.7,3c-1.7,1.3-4.3,0.6-6.5-0.9
		L1183.8,249.8z"/>
	<path id="XMLID_482_" class="st10" d="M1179.2,252.2c0,1.3,1.2,2.8,2.9,3.3c2.3,0.7,4.6-0.3,4.6-2.4c0-2.1-2.4-3.6-4.6-3.5
		C1180.4,249.8,1179.2,250.9,1179.2,252.2z"/>
</g>
<path id="XMLID_477_" class="st8" d="M1432.2,147.5l-17.5,81.6c-0.6,2.7-4.4,3.2-6.9,1.9l-26.6-15.4c-2.4-1.3-3.9-4.6-3.4-7.3
	l13.1-81.8c0.6-2.7,2.6-6.1,5-4.8l34,18.1C1432.5,141,1432.7,144.7,1432.2,147.5z"/>
<linearGradient id="XMLID_681_" gradientUnits="userSpaceOnUse" x1="1374.302" y1="177.1504" x2="1430.0768" y2="177.1504">
	<stop  offset="0" style="stop-color:#3E396B"/>
	<stop  offset="1" style="stop-color:#161D29"/>
</linearGradient>
<path id="XMLID_475_" class="st35" d="M1430,146.7l-16.8,81.8c-0.6,2.7-3,3.8-5.4,2.5l-30-16.7c-2.4-1.3-3.9-4.6-3.4-7.3l16.7-81.1
	c0.6-2.7,3-3.8,5.4-2.5l30.1,16.1C1429,140.7,1430.5,144,1430,146.7z"/>
<g id="XMLID_476_">
	
		<linearGradient id="XMLID_682_" gradientUnits="userSpaceOnUse" x1="1388.9828" y1="159.9675" x2="1422.6945" y2="159.9675" gradientTransform="matrix(0.9998 -2.217636e-002 2.217636e-002 0.9998 -3.5689 31.1428)">
		<stop  offset="0" style="stop-color:#4869B2"/>
		<stop  offset="1" style="stop-color:#45A7DE"/>
	</linearGradient>
	<polygon id="XMLID_654_" class="st36" points="1422.1,151.4 1416.3,182.7 1388.8,168 1394.5,137.1 	"/>
	
		<linearGradient id="XMLID_683_" gradientUnits="userSpaceOnUse" x1="1379.9377" y1="194.719" x2="1413.6493" y2="194.719" gradientTransform="matrix(0.9998 -2.217636e-002 2.217636e-002 0.9998 -3.5689 31.1428)">
		<stop  offset="0" style="stop-color:#4869B2"/>
		<stop  offset="1" style="stop-color:#45A7DE"/>
	</linearGradient>
	<polygon id="XMLID_653_" class="st37" points="1413.9,186.3 1408.1,217.6 1380.5,203 1386.2,172.1 	"/>
	<polygon id="XMLID_652_" class="st10" points="1390.5,158.9 1400.1,154.3 1401,163.4 1416,156.9 1418.7,170 1416.3,182.7 
		1388.8,168 	"/>
	<polygon id="XMLID_651_" class="st10" points="1386.2,187.1 1385.7,189.5 1408.2,201.5 1408.6,198.9 	"/>
	<polygon id="XMLID_650_" class="st10" points="1387.1,182.3 1386.6,184.7 1409.1,196.7 1409.5,194.1 	"/>
	<polygon id="XMLID_649_" class="st10" points="1388,177.8 1387.5,180.2 1410,192.1 1410.4,189.5 	"/>
	<polygon id="XMLID_648_" class="st10" points="1385.1,191.8 1384.6,194.2 1394.7,199.5 1395.1,197 	"/>
	<polygon id="XMLID_647_" class="st29" points="1383.9,196.9 1383.5,199.3 1388.4,201.9 1388.9,199.4 	"/>
	<polygon id="XMLID_646_" class="st30" points="1408.1,217.6 1409.5,217.3 1415.1,185.9 1387.5,171.6 1386.2,172.1 1413.9,186.3 	
		"/>
	<polygon id="XMLID_644_" class="st30" points="1410,192.1 1410.7,191.8 1411.2,189.2 1388.6,177.3 1388,177.8 1410.4,189.5 	"/>
	<polygon id="XMLID_643_" class="st30" points="1409.1,196.7 1409.8,196.5 1410.3,193.8 1387.7,181.9 1387.1,182.4 1409.6,194.1 	
		"/>
	<polygon id="XMLID_642_" class="st30" points="1408.2,201.4 1408.9,201.2 1409.4,198.6 1386.7,186.7 1386.2,187.1 1408.6,198.9 	
		"/>
	<polygon id="XMLID_641_" class="st30" points="1394.7,199.5 1395.4,199.4 1395.8,196.6 1385.5,191.4 1385.1,191.8 1395.1,197 	"/>
	<polygon id="XMLID_640_" class="st31" points="1388.4,201.9 1389.1,201.8 1389.5,199.1 1384.4,196.7 1383.9,196.9 1388.9,199.4 	
		"/>
	<polygon id="XMLID_639_" class="st30" points="1400.1,154.3 1401.4,154.2 1402.5,162.7 1401,163.4 	"/>
	<polygon id="XMLID_638_" class="st30" points="1416,156.9 1417.1,156.8 1419.2,167.3 1418.6,169.9 	"/>
	<path id="XMLID_637_" class="st30" d="M1405.8,148.8c1.2,0.1,2.2,0.7,2.7,1.7c0.3,0.8,0.2,1.7-0.5,2.2c-1.2,0.9-3,0.5-4.6-0.5
		L1405.8,148.8z"/>
	<path id="XMLID_636_" class="st10" d="M1402.5,150.6c0,0.9,0.9,2,2.2,2.3c1.6,0.4,3.3-0.3,3.3-1.8c0-1.5-1.7-2.6-3.4-2.4
		C1403.3,148.8,1402.5,149.6,1402.5,150.6z"/>
	<polygon id="XMLID_645_" class="st30" points="1416.4,182.7 1417.6,182.3 1423.2,150.9 1395.8,136.7 1394.6,137.1 1422.2,151.4 	
		"/>
</g>
</svg>
