<?xml version="1.0" encoding="utf-8"?>
<!-- Generator: Adobe Illustrator 19.0.0, SVG Export Plug-In . SVG Version: 6.00 Build 0)  -->
<svg version="1.1" id="Layer_1" xmlns="http://www.w3.org/2000/svg" xmlns:xlink="http://www.w3.org/1999/xlink" x="0px" y="0px"
	 viewBox="0 0 768 800" style="enable-background:new 0 0 768 800;" xml:space="preserve">
<style type="text/css">
	.st0{fill:url(#XMLID_2_);}
	.st1{opacity:0.1;fill:#FFFFFF;}
	.st2{fill:url(#XMLID_3_);}
	.st3{fill:url(#XMLID_4_);}
	.st4{fill:url(#XMLID_5_);}
	.st5{fill:url(#XMLID_6_);}
	.st6{fill:url(#XMLID_7_);}
	.st7{fill:#EFEFF8;}
	.st8{fill:#FFFFFF;}
	.st9{fill:url(#XMLID_8_);}
	.st10{fill:#D2D4EB;}
	.st11{opacity:0.4;}
	.st12{fill:url(#XMLID_12_);}
	.st13{fill:url(#XMLID_13_);}
	.st14{fill:url(#XMLID_14_);}
	.st15{fill:url(#XMLID_27_);}
	.st16{fill:url(#XMLID_28_);}
	.st17{fill:url(#XMLID_29_);}
	.st18{fill:url(#XMLID_30_);}
	.st19{fill:url(#XMLID_31_);}
	.st20{fill:#D3D5EC;}
	.st21{fill:url(#XMLID_32_);}
	.st22{fill:url(#XMLID_33_);}
	.st23{fill:url(#XMLID_34_);}
	.st24{fill:url(#XMLID_35_);}
	.st25{fill:url(#XMLID_36_);}
	.st26{fill:none;stroke:#221F54;stroke-width:8;stroke-miterlimit:10;}
	.st27{fill:url(#XMLID_37_);}
	.st28{fill:url(#XMLID_38_);}
	.st29{fill:#E54699;}
	.st30{fill:#2B55A6;}
	.st31{fill:#992867;}
	.st32{fill:url(#XMLID_39_);}
	.st33{fill:url(#XMLID_40_);}
	.st34{fill:url(#XMLID_41_);}
	.st35{fill:url(#XMLID_42_);}
	.st36{fill:url(#XMLID_43_);}
	.st37{fill:url(#XMLID_44_);}
</style>
<linearGradient id="XMLID_2_" gradientUnits="userSpaceOnUse" x1="-550.3278" y1="645.7481" x2="1249.5824" y2="645.7481">
	<stop  offset="0" style="stop-color:#4869B2"/>
	<stop  offset="1" style="stop-color:#45A7DE"/>
</linearGradient>
<polygon id="XMLID_188_" class="st0" points="1249.6,658.4 -114.3,1417 -550.3,633.1 813.6,-125.5 "/>
<rect id="XMLID_189_" x="483.6" y="16.6" class="st1" width="16.2" height="1340.4"/>
<rect id="XMLID_190_" x="403.8" y="-505.5" class="st1" width="24.7" height="1340.4"/>
<rect id="XMLID_191_" x="72.2" y="-350.4" class="st1" width="105.2" height="1232.9"/>
<rect id="XMLID_192_" x="235.5" y="-397" class="st1" width="41.2" height="1340.4"/>
<rect id="XMLID_193_" x="566.7" y="-517.2" class="st1" width="86.2" height="1352.8"/>
<g id="XMLID_195_">
	<linearGradient id="XMLID_3_" gradientUnits="userSpaceOnUse" x1="278.9593" y1="643.9922" x2="323.0496" y2="643.9922">
		<stop  offset="0" style="stop-color:#FFFFFF"/>
		<stop  offset="0.45" style="stop-color:#FFFFFF"/>
		<stop  offset="0.6" style="stop-color:#D2D4EB"/>
		<stop  offset="1" style="stop-color:#D2D4EB"/>
	</linearGradient>
	<rect id="XMLID_196_" x="279" y="345.3" class="st2" width="44.1" height="597.3"/>
	<linearGradient id="XMLID_4_" gradientUnits="userSpaceOnUse" x1="278.9593" y1="345.3456" x2="323.0496" y2="345.3456">
		<stop  offset="0" style="stop-color:#3E396B"/>
		<stop  offset="1" style="stop-color:#161D29"/>
	</linearGradient>
	<path id="XMLID_197_" class="st3" d="M322.2,346.6l-19,11.2c-1.2,0.7-3.1,0.7-4.3,0l-19.1-11.2c-1.2-0.7-1.2-1.8,0-2.5l19-11.1
		c1.2-0.7,3.1-0.7,4.3,0l19,11.1C323.3,344.7,323.3,345.9,322.2,346.6z"/>
</g>
<g id="XMLID_198_">
	<linearGradient id="XMLID_5_" gradientUnits="userSpaceOnUse" x1="470.4319" y1="696.7102" x2="553.884" y2="696.7102">
		<stop  offset="0" style="stop-color:#FFFFFF"/>
		<stop  offset="0.45" style="stop-color:#FFFFFF"/>
		<stop  offset="0.6" style="stop-color:#D2D4EB"/>
		<stop  offset="1" style="stop-color:#D2D4EB"/>
	</linearGradient>
	<rect id="XMLID_199_" x="470.4" y="451.6" class="st4" width="83.5" height="490.2"/>
	<linearGradient id="XMLID_6_" gradientUnits="userSpaceOnUse" x1="470.4319" y1="451.6278" x2="553.884" y2="451.6278">
		<stop  offset="0" style="stop-color:#3E396B"/>
		<stop  offset="1" style="stop-color:#161D29"/>
	</linearGradient>
	<path id="XMLID_200_" class="st5" d="M552.2,453.9l-36,21.3c-2.2,1.3-5.8,1.3-8,0l-36.1-21.3c-2.2-1.3-2.2-3.4,0-4.7l36-21.1
		c2.2-1.3,5.8-1.3,8.1,0l36,21.1C554.4,450.5,554.4,452.6,552.2,453.9z"/>
</g>
<g id="XMLID_201_">
	<linearGradient id="XMLID_7_" gradientUnits="userSpaceOnUse" x1="337.4931" y1="631.3033" x2="449.1503" y2="631.3033">
		<stop  offset="0" style="stop-color:#FFFFFF"/>
		<stop  offset="0.45" style="stop-color:#FFFFFF"/>
		<stop  offset="0.6" style="stop-color:#D2D4EB"/>
		<stop  offset="1" style="stop-color:#D2D4EB"/>
	</linearGradient>
	<rect id="XMLID_202_" x="337.5" y="380.1" class="st6" width="111.7" height="502.4"/>
	<g id="XMLID_203_">
		<path id="XMLID_26_" class="st7" d="M393.4,411.9c-1.9,0-3.6-0.4-4.9-1.2l-48.3-28.5c-1.1-0.7-1.7-1.5-1.7-2.3
			c0-0.8,0.6-1.6,1.7-2.3l48.2-28.2c1.3-0.8,3-1.2,4.9-1.2s3.6,0.4,4.9,1.2l48.2,28.2c1.1,0.7,1.7,1.5,1.7,2.3
			c0,0.8-0.6,1.6-1.7,2.3l-48.1,28.4C397,411.5,395.3,411.9,393.4,411.9z"/>
		<path id="XMLID_23_" class="st8" d="M393.3,349.3c1.7,0,3.3,0.4,4.4,1l48.2,28.2c0.8,0.5,1.2,1,1.2,1.4c0,0.4-0.5,1-1.2,1.4
			l-48.1,28.4c-1.1,0.7-2.7,1-4.4,1c-1.7,0-3.2-0.4-4.4-1l-48.3-28.5c-0.8-0.5-1.2-1-1.2-1.4c0-0.4,0.5-1,1.2-1.4l48.2-28.2
			C390.1,349.7,391.7,349.3,393.3,349.3 M393.3,347.3c-2,0-3.9,0.4-5.4,1.3l-48.2,28.2c-3,1.7-3,4.6,0,6.3l48.3,28.5
			c1.5,0.9,3.4,1.3,5.4,1.3c2,0,3.9-0.4,5.4-1.3l48.1-28.4c3-1.8,3-4.6,0-6.3l-48.2-28.2C397.2,347.7,395.3,347.3,393.3,347.3
			L393.3,347.3z"/>
	</g>
</g>
<linearGradient id="XMLID_8_" gradientUnits="userSpaceOnUse" x1="389.1802" y1="835.5466" x2="582.4152" y2="835.5466">
	<stop  offset="0" style="stop-color:#FFFFFF"/>
	<stop  offset="0.45" style="stop-color:#FFFFFF"/>
	<stop  offset="0.6" style="stop-color:#D2D4EB"/>
	<stop  offset="1" style="stop-color:#D2D4EB"/>
</linearGradient>
<rect id="XMLID_204_" x="389.2" y="627.1" class="st9" width="193.2" height="417"/>
<g id="XMLID_205_">
	<path id="XMLID_21_" class="st7" d="M485.9,682.8c-3.3,0-6.5-0.8-8.8-2.1l-83.6-49.2c-2.2-1.3-3.4-2.9-3.4-4.6
		c0-1.7,1.2-3.3,3.4-4.6l83.4-48.8c2.3-1.4,5.5-2.1,8.8-2.1c3.4,0,6.5,0.8,8.8,2.1l83.4,48.8c2.2,1.3,3.4,2.9,3.4,4.6
		c0,1.7-1.2,3.3-3.4,4.6l-83.3,49.2C492.4,682.1,489.3,682.8,485.9,682.8z"/>
	<path id="XMLID_18_" class="st8" d="M485.8,572.3c3.1,0,6.2,0.7,8.3,2l83.4,48.8c1.8,1.1,2.9,2.4,2.9,3.8c0,1.3-1,2.7-2.9,3.8
		l-83.3,49.2c-2.2,1.3-5.2,2-8.3,2c-3.1,0-6.1-0.7-8.3-2l-83.6-49.2c-1.8-1.1-2.9-2.4-2.9-3.8c0-1.3,1.1-2.7,2.9-3.7l83.4-48.8
		C479.6,573,482.7,572.3,485.8,572.3 M485.8,570.3c-3.4,0-6.8,0.8-9.3,2.3l-83.4,48.8c-5.2,3-5.2,7.9,0,11l83.6,49.2
		c2.6,1.5,5.9,2.3,9.3,2.3c3.4,0,6.8-0.8,9.3-2.3l83.3-49.2c5.1-3,5.1-7.9,0-11l-83.4-48.8C492.6,571,489.2,570.3,485.8,570.3
		L485.8,570.3z"/>
</g>
<g id="XMLID_206_">
	<path id="XMLID_207_" class="st8" d="M502.5,688.4c0,0.7-0.6,1.5-1.6,1.8c-1.2,0.4-2.5-0.2-2.5-1.3c0-1.1,1.3-1.9,2.5-1.9
		C501.8,687.1,502.5,687.7,502.5,688.4z"/>
	<path id="XMLID_208_" class="st8" d="M510.8,684.2c0,0.7-0.6,1.5-1.6,1.8c-1.2,0.4-2.5-0.2-2.5-1.3s1.3-1.9,2.5-1.9
		C510.1,682.9,510.8,683.5,510.8,684.2z"/>
	<path id="XMLID_209_" class="st8" d="M519,679.5c0,0.7-0.6,1.5-1.6,1.8c-1.2,0.4-2.5-0.2-2.5-1.3c0-1.1,1.3-1.9,2.5-1.9
		C518.4,678.1,519,678.8,519,679.5z"/>
	<path id="XMLID_210_" class="st8" d="M527.3,675.2c0,0.7-0.6,1.5-1.6,1.8c-1.2,0.4-2.5-0.2-2.5-1.3s1.3-1.9,2.5-1.9
		C526.7,673.9,527.3,674.5,527.3,675.2z"/>
	<path id="XMLID_211_" class="st8" d="M535.4,670.4c0,0.7-0.6,1.5-1.6,1.8c-1.2,0.4-2.5-0.2-2.5-1.3s1.3-1.9,2.5-1.9
		C534.7,669,535.4,669.6,535.4,670.4z"/>
	<path id="XMLID_212_" class="st8" d="M543.6,665.6c0,0.7-0.6,1.5-1.6,1.8c-1.2,0.4-2.5-0.2-2.5-1.3c0-1.1,1.3-1.9,2.5-1.9
		C543,664.3,543.6,664.9,543.6,665.6z"/>
	<path id="XMLID_213_" class="st8" d="M551.9,661.4c0,0.7-0.6,1.5-1.6,1.8c-1.2,0.4-2.5-0.2-2.5-1.3s1.3-1.9,2.5-1.9
		C551.3,660.1,551.9,660.7,551.9,661.4z"/>
	<path id="XMLID_214_" class="st8" d="M502.6,698.5c0,0.7-0.6,1.5-1.6,1.8c-1.2,0.4-2.5-0.2-2.5-1.3s1.3-1.9,2.5-1.9
		C502,697.1,502.6,697.8,502.6,698.5z"/>
	<path id="XMLID_215_" class="st8" d="M510.9,694.2c0,0.7-0.6,1.5-1.6,1.8c-1.2,0.4-2.5-0.2-2.5-1.3c0-1.1,1.3-1.9,2.5-1.9
		C510.3,692.9,510.9,693.5,510.9,694.2z"/>
	<path id="XMLID_216_" class="st8" d="M519.1,689.5c0,0.7-0.6,1.5-1.6,1.8c-1.2,0.4-2.5-0.2-2.5-1.3s1.3-1.9,2.5-1.9
		C518.5,688.2,519.1,688.8,519.1,689.5z"/>
	<path id="XMLID_217_" class="st8" d="M527.4,685.3c0,0.7-0.6,1.5-1.6,1.8c-1.2,0.4-2.5-0.2-2.5-1.3c0-1.1,1.3-1.9,2.5-1.9
		C526.8,683.9,527.4,684.5,527.4,685.3z"/>
	<path id="XMLID_218_" class="st8" d="M535.5,680.4c0,0.7-0.6,1.5-1.6,1.8c-1.2,0.4-2.5-0.2-2.5-1.3c0-1.1,1.3-1.9,2.5-1.9
		C534.9,679.1,535.5,679.7,535.5,680.4z"/>
	<path id="XMLID_219_" class="st8" d="M543.7,675.7c0,0.7-0.6,1.5-1.6,1.8c-1.2,0.4-2.5-0.2-2.5-1.3c0-1.1,1.3-1.9,2.5-1.9
		C543.1,674.3,543.7,675,543.7,675.7z"/>
	<path id="XMLID_220_" class="st8" d="M552,671.4c0,0.7-0.6,1.5-1.6,1.8c-1.2,0.4-2.5-0.2-2.5-1.3c0-1.1,1.3-1.9,2.5-1.9
		C551.4,670.1,552,670.7,552,671.4z"/>
	<path id="XMLID_221_" class="st8" d="M502.6,709.8c0,0.7-0.6,1.5-1.6,1.8c-1.2,0.4-2.5-0.2-2.5-1.3c0-1.1,1.3-1.9,2.5-1.9
		C502,708.4,502.6,709,502.6,709.8z"/>
	<path id="XMLID_222_" class="st8" d="M510.9,705.5c0,0.7-0.6,1.5-1.6,1.8c-1.2,0.4-2.5-0.2-2.5-1.3s1.3-1.9,2.5-1.9
		C510.3,704.2,510.9,704.8,510.9,705.5z"/>
	<path id="XMLID_223_" class="st8" d="M519.1,700.8c0,0.7-0.6,1.5-1.6,1.8c-1.2,0.4-2.5-0.2-2.5-1.3c0-1.1,1.3-1.9,2.5-1.9
		C518.5,699.5,519.1,700.1,519.1,700.8z"/>
	<path id="XMLID_224_" class="st8" d="M527.4,696.5c0,0.7-0.6,1.5-1.6,1.8c-1.2,0.4-2.5-0.2-2.5-1.3s1.3-1.9,2.5-1.9
		C526.8,695.2,527.4,695.8,527.4,696.5z"/>
	<path id="XMLID_225_" class="st8" d="M535.5,691.7c0,0.7-0.6,1.5-1.6,1.8c-1.2,0.4-2.5-0.2-2.5-1.3c0-1.1,1.3-1.9,2.5-1.9
		C534.9,690.4,535.5,691,535.5,691.7z"/>
	<path id="XMLID_226_" class="st8" d="M543.7,687c0,0.7-0.6,1.5-1.6,1.8c-1.2,0.4-2.5-0.2-2.5-1.3s1.3-1.9,2.5-1.9
		C543.1,685.6,543.7,686.2,543.7,687z"/>
	<path id="XMLID_227_" class="st8" d="M552,682.7c0,0.7-0.6,1.5-1.6,1.8c-1.2,0.4-2.5-0.2-2.5-1.3c0-1.1,1.3-1.9,2.5-1.9
		C551.4,681.4,552,682,552,682.7z"/>
	<path id="XMLID_228_" class="st8" d="M502.5,721c0,0.7-0.6,1.5-1.6,1.8c-1.2,0.4-2.5-0.2-2.5-1.3c0-1.1,1.3-1.9,2.5-1.9
		C501.8,719.7,502.5,720.3,502.5,721z"/>
	<path id="XMLID_229_" class="st8" d="M510.8,716.8c0,0.7-0.6,1.5-1.6,1.8c-1.2,0.4-2.5-0.2-2.5-1.3s1.3-1.9,2.5-1.9
		C510.1,715.4,510.8,716.1,510.8,716.8z"/>
	<path id="XMLID_230_" class="st8" d="M519,712c0,0.7-0.6,1.5-1.6,1.8c-1.2,0.4-2.5-0.2-2.5-1.3c0-1.1,1.3-1.9,2.5-1.9
		C518.4,710.7,519,711.3,519,712z"/>
	<path id="XMLID_231_" class="st8" d="M527.3,707.8c0,0.7-0.6,1.5-1.6,1.8c-1.2,0.4-2.5-0.2-2.5-1.3c0-1.1,1.3-1.9,2.5-1.9
		C526.7,706.5,527.3,707.1,527.3,707.8z"/>
	<path id="XMLID_232_" class="st8" d="M535.4,702.9c0,0.7-0.6,1.5-1.6,1.8c-1.2,0.4-2.5-0.2-2.5-1.3s1.3-1.9,2.5-1.9
		C534.7,701.6,535.4,702.2,535.4,702.9z"/>
	<path id="XMLID_233_" class="st8" d="M543.6,698.2c0,0.7-0.6,1.5-1.6,1.8c-1.2,0.4-2.5-0.2-2.5-1.3c0-1.1,1.3-1.9,2.5-1.9
		C543,696.9,543.6,697.5,543.6,698.2z"/>
	<path id="XMLID_234_" class="st8" d="M551.9,694c0,0.7-0.6,1.5-1.6,1.8c-1.2,0.4-2.5-0.2-2.5-1.3s1.3-1.9,2.5-1.9
		C551.3,692.6,551.9,693.3,551.9,694z"/>
	<path id="XMLID_235_" class="st8" d="M560.1,657.1c0,0.7-0.6,1.5-1.6,1.8c-1.2,0.4-2.5-0.2-2.5-1.3c0-1.1,1.3-1.9,2.5-1.9
		C559.4,655.8,560.1,656.4,560.1,657.1z"/>
	<path id="XMLID_236_" class="st8" d="M560.2,667.1c0,0.7-0.6,1.5-1.6,1.8c-1.2,0.4-2.5-0.2-2.5-1.3c0-1.1,1.3-1.9,2.5-1.9
		C559.6,665.8,560.2,666.4,560.2,667.1z"/>
	<path id="XMLID_237_" class="st8" d="M560.2,678.4c0,0.7-0.6,1.5-1.6,1.8c-1.2,0.4-2.5-0.2-2.5-1.3c0-1.1,1.3-1.9,2.5-1.9
		C559.6,677.1,560.2,677.7,560.2,678.4z"/>
	<path id="XMLID_238_" class="st8" d="M560.1,689.7c0,0.7-0.6,1.5-1.6,1.8c-1.2,0.4-2.5-0.2-2.5-1.3c0-1.1,1.3-1.9,2.5-1.9
		C559.4,688.4,560.1,689,560.1,689.7z"/>
	<path id="XMLID_239_" class="st8" d="M502.4,731.5c0,0.7-0.6,1.5-1.6,1.8c-1.2,0.4-2.5-0.2-2.5-1.3c0-1.1,1.3-1.9,2.5-1.9
		C501.8,730.1,502.4,730.8,502.4,731.5z"/>
	<path id="XMLID_240_" class="st8" d="M510.7,727.2c0,0.7-0.6,1.5-1.6,1.8c-1.2,0.4-2.5-0.2-2.5-1.3s1.3-1.9,2.5-1.9
		C510.1,725.9,510.7,726.5,510.7,727.2z"/>
	<path id="XMLID_241_" class="st8" d="M518.9,722.5c0,0.7-0.6,1.5-1.6,1.8c-1.2,0.4-2.5-0.2-2.5-1.3c0-1.1,1.3-1.9,2.5-1.9
		C518.3,721.2,518.9,721.8,518.9,722.5z"/>
	<path id="XMLID_242_" class="st8" d="M527.2,718.3c0,0.7-0.6,1.5-1.6,1.8c-1.2,0.4-2.5-0.2-2.5-1.3c0-1.1,1.3-1.9,2.5-1.9
		C526.6,716.9,527.2,717.5,527.2,718.3z"/>
	<path id="XMLID_243_" class="st8" d="M535.3,713.4c0,0.7-0.6,1.5-1.6,1.8c-1.2,0.4-2.5-0.2-2.5-1.3s1.3-1.9,2.5-1.9
		C534.7,712.1,535.3,712.7,535.3,713.4z"/>
	<path id="XMLID_244_" class="st8" d="M543.5,708.7c0,0.7-0.6,1.5-1.6,1.8c-1.2,0.4-2.5-0.2-2.5-1.3c0-1.1,1.3-1.9,2.5-1.9
		C542.9,707.3,543.5,708,543.5,708.7z"/>
	<path id="XMLID_245_" class="st8" d="M551.8,704.4c0,0.7-0.6,1.5-1.6,1.8c-1.2,0.4-2.5-0.2-2.5-1.3s1.3-1.9,2.5-1.9
		C551.2,703.1,551.8,703.7,551.8,704.4z"/>
	<path id="XMLID_246_" class="st8" d="M502.5,741.5c0,0.7-0.6,1.5-1.6,1.8c-1.2,0.4-2.5-0.2-2.5-1.3s1.3-1.9,2.5-1.9
		C501.9,740.2,502.5,740.8,502.5,741.5z"/>
	<path id="XMLID_247_" class="st8" d="M519.1,732.5c0,0.7-0.6,1.5-1.6,1.8c-1.2,0.4-2.5-0.2-2.5-1.3s1.3-1.9,2.5-1.9
		C518.4,731.2,519.1,731.8,519.1,732.5z"/>
	<path id="XMLID_248_" class="st8" d="M535.4,723.4c0,0.7-0.6,1.5-1.6,1.8c-1.2,0.4-2.5-0.2-2.5-1.3c0-1.1,1.3-1.9,2.5-1.9
		C534.8,722.1,535.4,722.7,535.4,723.4z"/>
	<path id="XMLID_249_" class="st8" d="M552,714.5c0,0.7-0.6,1.5-1.6,1.8c-1.2,0.4-2.5-0.2-2.5-1.3c0-1.1,1.3-1.9,2.5-1.9
		C551.3,713.1,552,713.7,552,714.5z"/>
	<path id="XMLID_250_" class="st8" d="M502.5,752.8c0,0.7-0.6,1.5-1.6,1.8c-1.2,0.4-2.5-0.2-2.5-1.3c0-1.1,1.3-1.9,2.5-1.9
		C501.9,751.5,502.5,752.1,502.5,752.8z"/>
	<path id="XMLID_251_" class="st8" d="M535.4,734.7c0,0.7-0.6,1.5-1.6,1.8c-1.2,0.4-2.5-0.2-2.5-1.3s1.3-1.9,2.5-1.9
		C534.8,733.4,535.4,734,535.4,734.7z"/>
	<path id="XMLID_252_" class="st8" d="M552,725.7c0,0.7-0.6,1.5-1.6,1.8c-1.2,0.4-2.5-0.2-2.5-1.3s1.3-1.9,2.5-1.9
		C551.3,724.4,552,725,552,725.7z"/>
	<path id="XMLID_253_" class="st8" d="M502.4,764c0,0.7-0.6,1.5-1.6,1.8c-1.2,0.4-2.5-0.2-2.5-1.3c0-1.1,1.3-1.9,2.5-1.9
		C501.8,762.7,502.4,763.3,502.4,764z"/>
	<path id="XMLID_254_" class="st8" d="M535.3,746c0,0.7-0.6,1.5-1.6,1.8c-1.2,0.4-2.5-0.2-2.5-1.3s1.3-1.9,2.5-1.9
		C534.7,744.6,535.3,745.3,535.3,746z"/>
	<path id="XMLID_255_" class="st8" d="M560,700.1c0,0.7-0.6,1.5-1.6,1.8c-1.2,0.4-2.5-0.2-2.5-1.3c0-1.1,1.3-1.9,2.5-1.9
		C559.4,698.8,560,699.4,560,700.1z"/>
</g>
<g id="XMLID_256_">
	<path id="XMLID_257_" class="st10" d="M457.3,680.2c0,0.7,0.6,1.5,1.6,1.8c1.2,0.4,2.5-0.2,2.5-1.3c0-1.1-1.3-1.9-2.5-1.9
		C457.9,678.9,457.3,679.5,457.3,680.2z"/>
	<path id="XMLID_258_" class="st10" d="M449,676c0,0.7,0.6,1.5,1.6,1.8c1.2,0.4,2.5-0.2,2.5-1.3c0-1.1-1.3-1.9-2.5-1.9
		C449.6,674.7,449,675.3,449,676z"/>
	<path id="XMLID_259_" class="st10" d="M440.8,671.3c0,0.7,0.6,1.5,1.6,1.8c1.2,0.4,2.5-0.2,2.5-1.3c0-1.1-1.3-1.9-2.5-1.9
		C441.4,670,440.8,670.6,440.8,671.3z"/>
	<path id="XMLID_260_" class="st10" d="M432.5,667c0,0.7,0.6,1.5,1.6,1.8c1.2,0.4,2.5-0.2,2.5-1.3c0-1.1-1.3-1.9-2.5-1.9
		C433.1,665.7,432.5,666.3,432.5,667z"/>
	<path id="XMLID_261_" class="st10" d="M424.4,662.2c0,0.7,0.6,1.5,1.6,1.8c1.2,0.4,2.5-0.2,2.5-1.3c0-1.1-1.3-1.9-2.5-1.9
		C425,660.9,424.4,661.5,424.4,662.2z"/>
	<path id="XMLID_262_" class="st10" d="M416.2,657.5c0,0.7,0.6,1.5,1.6,1.8c1.2,0.4,2.5-0.2,2.5-1.3c0-1.1-1.3-1.9-2.5-1.9
		C416.8,656.1,416.2,656.7,416.2,657.5z"/>
	<path id="XMLID_263_" class="st10" d="M407.9,653.2c0,0.7,0.6,1.5,1.6,1.8c1.2,0.4,2.5-0.2,2.5-1.3c0-1.1-1.3-1.9-2.5-1.9
		C408.5,651.9,407.9,652.5,407.9,653.2z"/>
	<path id="XMLID_264_" class="st10" d="M457.2,690.3c0,0.7,0.6,1.5,1.6,1.8c1.2,0.4,2.5-0.2,2.5-1.3c0-1.1-1.3-1.9-2.5-1.9
		C457.8,689,457.2,689.6,457.2,690.3z"/>
	<path id="XMLID_265_" class="st10" d="M448.9,686c0,0.7,0.6,1.5,1.6,1.8c1.2,0.4,2.5-0.2,2.5-1.3s-1.3-1.9-2.5-1.9
		C449.5,684.7,448.9,685.3,448.9,686z"/>
	<path id="XMLID_266_" class="st10" d="M440.6,681.3c0,0.7,0.6,1.5,1.6,1.8c1.2,0.4,2.5-0.2,2.5-1.3c0-1.1-1.3-1.9-2.5-1.9
		C441.3,680,440.6,680.6,440.6,681.3z"/>
	<path id="XMLID_267_" class="st10" d="M432.3,677.1c0,0.7,0.6,1.5,1.6,1.8c1.2,0.4,2.5-0.2,2.5-1.3s-1.3-1.9-2.5-1.9
		C433,675.8,432.3,676.4,432.3,677.1z"/>
	<path id="XMLID_268_" class="st10" d="M424.3,672.2c0,0.7,0.6,1.5,1.6,1.8c1.2,0.4,2.5-0.2,2.5-1.3s-1.3-1.9-2.5-1.9
		C424.9,670.9,424.3,671.5,424.3,672.2z"/>
	<path id="XMLID_269_" class="st10" d="M416,667.5c0,0.7,0.6,1.5,1.6,1.8c1.2,0.4,2.5-0.2,2.5-1.3c0-1.1-1.3-1.9-2.5-1.9
		C416.7,666.2,416,666.8,416,667.5z"/>
	<path id="XMLID_270_" class="st10" d="M407.7,663.2c0,0.7,0.6,1.5,1.6,1.8c1.2,0.4,2.5-0.2,2.5-1.3s-1.3-1.9-2.5-1.9
		C408.4,661.9,407.7,662.5,407.7,663.2z"/>
	<path id="XMLID_271_" class="st10" d="M457.2,701.6c0,0.7,0.6,1.5,1.6,1.8c1.2,0.4,2.5-0.2,2.5-1.3c0-1.1-1.3-1.9-2.5-1.9
		C457.8,700.3,457.2,700.9,457.2,701.6z"/>
	<path id="XMLID_272_" class="st10" d="M448.9,697.3c0,0.7,0.6,1.5,1.6,1.8c1.2,0.4,2.5-0.2,2.5-1.3c0-1.1-1.3-1.9-2.5-1.9
		C449.5,696,448.9,696.6,448.9,697.3z"/>
	<path id="XMLID_273_" class="st10" d="M440.6,692.6c0,0.7,0.6,1.5,1.6,1.8c1.2,0.4,2.5-0.2,2.5-1.3c0-1.1-1.3-1.9-2.5-1.9
		C441.3,691.3,440.6,691.9,440.6,692.6z"/>
	<path id="XMLID_274_" class="st10" d="M433.9,690.1c1.2,0.4,2.5-0.2,2.5-1.3c0-1.1-1.3-1.9-2.5-1.9C433,687,433,689.8,433.9,690.1z
		"/>
	<path id="XMLID_275_" class="st10" d="M424.3,683.5c0,0.7,0.6,1.5,1.6,1.8c1.2,0.4,2.5-0.2,2.5-1.3c0-1.1-1.3-1.9-2.5-1.9
		C424.9,682.2,424.3,682.8,424.3,683.5z"/>
	<path id="XMLID_276_" class="st10" d="M416,678.8c0,0.7,0.6,1.5,1.6,1.8c1.2,0.4,2.5-0.2,2.5-1.3c0-1.1-1.3-1.9-2.5-1.9
		C416.7,677.5,416,678.1,416,678.8z"/>
	<path id="XMLID_277_" class="st10" d="M407.7,674.5c0,0.7,0.6,1.5,1.6,1.8c1.2,0.4,2.5-0.2,2.5-1.3c0-1.1-1.3-1.9-2.5-1.9
		C408.4,673.2,407.7,673.8,407.7,674.5z"/>
	<path id="XMLID_278_" class="st10" d="M457.3,712.8c0,0.7,0.6,1.5,1.6,1.8c1.2,0.4,2.5-0.2,2.5-1.3c0-1.1-1.3-1.9-2.5-1.9
		C457.9,711.5,457.3,712.1,457.3,712.8z"/>
	<path id="XMLID_279_" class="st10" d="M449,708.6c0,0.7,0.6,1.5,1.6,1.8c1.2,0.4,2.5-0.2,2.5-1.3c0-1.1-1.3-1.9-2.5-1.9
		C449.6,707.3,449,707.9,449,708.6z"/>
	<path id="XMLID_280_" class="st10" d="M440.8,703.9c0,0.7,0.6,1.5,1.6,1.8c1.2,0.4,2.5-0.2,2.5-1.3c0-1.1-1.3-1.9-2.5-1.9
		C441.4,702.5,440.8,703.2,440.8,703.9z"/>
	<path id="XMLID_281_" class="st10" d="M432.5,699.6c0,0.7,0.6,1.5,1.6,1.8c1.2,0.4,2.5-0.2,2.5-1.3c0-1.1-1.3-1.9-2.5-1.9
		C433.1,698.3,432.5,698.9,432.5,699.6z"/>
	<path id="XMLID_282_" class="st10" d="M424.4,694.8c0,0.7,0.6,1.5,1.6,1.8c1.2,0.4,2.5-0.2,2.5-1.3c0-1.1-1.3-1.9-2.5-1.9
		C425,693.4,424.4,694,424.4,694.8z"/>
	<path id="XMLID_283_" class="st10" d="M416.2,690c0,0.7,0.6,1.5,1.6,1.8c1.2,0.4,2.5-0.2,2.5-1.3c0-1.1-1.3-1.9-2.5-1.9
		C416.8,688.7,416.2,689.3,416.2,690z"/>
	<path id="XMLID_284_" class="st10" d="M407.9,685.8c0,0.7,0.6,1.5,1.6,1.8c1.2,0.4,2.5-0.2,2.5-1.3c0-1.1-1.3-1.9-2.5-1.9
		C408.5,684.5,407.9,685.1,407.9,685.8z"/>
	<path id="XMLID_285_" class="st10" d="M399.7,648.9c0,0.7,0.6,1.5,1.6,1.8c1.2,0.4,2.5-0.2,2.5-1.3c0-1.1-1.3-1.9-2.5-1.9
		C400.3,647.6,399.7,648.2,399.7,648.9z"/>
	<path id="XMLID_286_" class="st10" d="M399.6,659c0,0.7,0.6,1.5,1.6,1.8c1.2,0.4,2.5-0.2,2.5-1.3c0-1.1-1.3-1.9-2.5-1.9
		C400.2,657.6,399.6,658.3,399.6,659z"/>
	<path id="XMLID_287_" class="st10" d="M399.6,670.3c0,0.7,0.6,1.5,1.6,1.8c1.2,0.4,2.5-0.2,2.5-1.3s-1.3-1.9-2.5-1.9
		C400.2,668.9,399.6,669.5,399.6,670.3z"/>
	<path id="XMLID_288_" class="st10" d="M399.7,681.5c0,0.7,0.6,1.5,1.6,1.8c1.2,0.4,2.5-0.2,2.5-1.3c0-1.1-1.3-1.9-2.5-1.9
		C400.3,680.2,399.7,680.8,399.7,681.5z"/>
	<path id="XMLID_289_" class="st10" d="M457.4,723.3c0,0.7,0.6,1.5,1.6,1.8c1.2,0.4,2.5-0.2,2.5-1.3c0-1.1-1.3-1.9-2.5-1.9
		C458,722,457.4,722.6,457.4,723.3z"/>
	<path id="XMLID_290_" class="st10" d="M449.1,719c0,0.7,0.6,1.5,1.6,1.8c1.2,0.4,2.5-0.2,2.5-1.3c0-1.1-1.3-1.9-2.5-1.9
		C449.7,717.7,449.1,718.3,449.1,719z"/>
	<path id="XMLID_291_" class="st10" d="M440.8,714.3c0,0.7,0.6,1.5,1.6,1.8c1.2,0.4,2.5-0.2,2.5-1.3s-1.3-1.9-2.5-1.9
		C441.5,713,440.8,713.6,440.8,714.3z"/>
	<path id="XMLID_292_" class="st10" d="M432.5,710.1c0,0.7,0.6,1.5,1.6,1.8c1.2,0.4,2.5-0.2,2.5-1.3c0-1.1-1.3-1.9-2.5-1.9
		C433.1,708.8,432.5,709.4,432.5,710.1z"/>
	<path id="XMLID_293_" class="st10" d="M424.5,705.2c0,0.7,0.6,1.5,1.6,1.8c1.2,0.4,2.5-0.2,2.5-1.3c0-1.1-1.3-1.9-2.5-1.9
		C425.1,703.9,424.5,704.5,424.5,705.2z"/>
	<path id="XMLID_294_" class="st10" d="M416.2,700.5c0,0.7,0.6,1.5,1.6,1.8c1.2,0.4,2.5-0.2,2.5-1.3c0-1.1-1.3-1.9-2.5-1.9
		C416.9,699.2,416.2,699.8,416.2,700.5z"/>
	<path id="XMLID_295_" class="st10" d="M407.9,696.2c0,0.7,0.6,1.5,1.6,1.8c1.2,0.4,2.5-0.2,2.5-1.3c0-1.1-1.3-1.9-2.5-1.9
		C408.5,694.9,407.9,695.5,407.9,696.2z"/>
	<path id="XMLID_296_" class="st10" d="M457.2,733.3c0,0.7,0.6,1.5,1.6,1.8c1.2,0.4,2.5-0.2,2.5-1.3c0-1.1-1.3-1.9-2.5-1.9
		C457.9,732,457.2,732.6,457.2,733.3z"/>
	<path id="XMLID_297_" class="st10" d="M440.7,724.4c0,0.7,0.6,1.5,1.6,1.8c1.2,0.4,2.5-0.2,2.5-1.3c0-1.1-1.3-1.9-2.5-1.9
		C441.3,723,440.7,723.6,440.7,724.4z"/>
	<path id="XMLID_298_" class="st10" d="M424.3,715.2c0,0.7,0.6,1.5,1.6,1.8c1.2,0.4,2.5-0.2,2.5-1.3s-1.3-1.9-2.5-1.9
		C425,713.9,424.3,714.5,424.3,715.2z"/>
	<path id="XMLID_299_" class="st10" d="M407.8,706.3c0,0.7,0.6,1.5,1.6,1.8c1.2,0.4,2.5-0.2,2.5-1.3s-1.3-1.9-2.5-1.9
		C408.4,705,407.8,705.6,407.8,706.3z"/>
	<path id="XMLID_300_" class="st10" d="M457.2,744.6c0,0.7,0.6,1.5,1.6,1.8c1.2,0.4,2.5-0.2,2.5-1.3c0-1.1-1.3-1.9-2.5-1.9
		C457.9,743.3,457.2,743.9,457.2,744.6z"/>
	<path id="XMLID_301_" class="st10" d="M424.3,726.5c0,0.7,0.6,1.5,1.6,1.8c1.2,0.4,2.5-0.2,2.5-1.3c0-1.1-1.3-1.9-2.5-1.9
		C425,725.2,424.3,725.8,424.3,726.5z"/>
	<path id="XMLID_302_" class="st10" d="M407.8,717.6c0,0.7,0.6,1.5,1.6,1.8c1.2,0.4,2.5-0.2,2.5-1.3c0-1.1-1.3-1.9-2.5-1.9
		C408.4,716.2,407.8,716.9,407.8,717.6z"/>
	<path id="XMLID_303_" class="st10" d="M457.4,755.9c0,0.7,0.6,1.5,1.6,1.8c1.2,0.4,2.5-0.2,2.5-1.3c0-1.1-1.3-1.9-2.5-1.9
		C458,754.5,457.4,755.2,457.4,755.9z"/>
	<path id="XMLID_304_" class="st10" d="M424.5,737.8c0,0.7,0.6,1.5,1.6,1.8c1.2,0.4,2.5-0.2,2.5-1.3c0-1.1-1.3-1.9-2.5-1.9
		C425.1,736.5,424.5,737.1,424.5,737.8z"/>
	<path id="XMLID_305_" class="st10" d="M399.8,692c0,0.7,0.6,1.5,1.6,1.8c1.2,0.4,2.5-0.2,2.5-1.3c0-1.1-1.3-1.9-2.5-1.9
		C400.4,690.6,399.8,691.3,399.8,692z"/>
</g>
<g id="XMLID_306_">
	<path id="XMLID_307_" class="st8" d="M403.7,419c0,0.7-0.6,1.5-1.6,1.8c-1.2,0.4-2.5-0.2-2.5-1.3c0-1.1,1.3-1.9,2.5-1.9
		C403.1,417.6,403.7,418.3,403.7,419z"/>
	<path id="XMLID_308_" class="st8" d="M412,414.7c0,0.7-0.6,1.5-1.6,1.8c-1.2,0.4-2.5-0.2-2.5-1.3s1.3-1.9,2.5-1.9
		C411.4,413.4,412,414,412,414.7z"/>
	<path id="XMLID_309_" class="st8" d="M420.2,410c0,0.7-0.6,1.5-1.6,1.8c-1.2,0.4-2.5-0.2-2.5-1.3c0-1.1,1.3-1.9,2.5-1.9
		C419.6,408.7,420.2,409.3,420.2,410z"/>
	<path id="XMLID_310_" class="st8" d="M428.5,405.8c0,0.7-0.6,1.5-1.6,1.8c-1.2,0.4-2.5-0.2-2.5-1.3s1.3-1.9,2.5-1.9
		C427.9,404.4,428.5,405,428.5,405.8z"/>
	<path id="XMLID_311_" class="st8" d="M436.6,400.9c0,0.7-0.6,1.5-1.6,1.8c-1.2,0.4-2.5-0.2-2.5-1.3c0-1.1,1.3-1.9,2.5-1.9
		C436,399.6,436.6,400.2,436.6,400.9z"/>
	<path id="XMLID_312_" class="st8" d="M444.8,396.2c0,0.7-0.6,1.5-1.6,1.8c-1.2,0.4-2.5-0.2-2.5-1.3c0-1.1,1.3-1.9,2.5-1.9
		C444.2,394.8,444.8,395.5,444.8,396.2z"/>
	<path id="XMLID_313_" class="st8" d="M403.8,429c0,0.7-0.6,1.5-1.6,1.8c-1.2,0.4-2.5-0.2-2.5-1.3c0-1.1,1.3-1.9,2.5-1.9
		C403.2,427.7,403.8,428.3,403.8,429z"/>
	<path id="XMLID_314_" class="st8" d="M412.1,424.8c0,0.7-0.6,1.5-1.6,1.8c-1.2,0.4-2.5-0.2-2.5-1.3s1.3-1.9,2.5-1.9
		C411.5,423.4,412.1,424,412.1,424.8z"/>
	<path id="XMLID_315_" class="st8" d="M420.3,420c0,0.7-0.6,1.5-1.6,1.8c-1.2,0.4-2.5-0.2-2.5-1.3c0-1.1,1.3-1.9,2.5-1.9
		C419.7,418.7,420.3,419.3,420.3,420z"/>
	<path id="XMLID_316_" class="st8" d="M428.7,415.8c0,0.7-0.6,1.5-1.6,1.8c-1.2,0.4-2.5-0.2-2.5-1.3c0-1.1,1.3-1.9,2.5-1.9
		C428,414.5,428.7,415.1,428.7,415.8z"/>
	<path id="XMLID_317_" class="st8" d="M436.7,410.9c0,0.7-0.6,1.5-1.6,1.8c-1.2,0.4-2.5-0.2-2.5-1.3c0-1.1,1.3-1.9,2.5-1.9
		C436.1,409.6,436.7,410.2,436.7,410.9z"/>
	<path id="XMLID_318_" class="st8" d="M444.9,406.2c0,0.7-0.6,1.5-1.6,1.8c-1.2,0.4-2.5-0.2-2.5-1.3c0-1.1,1.3-1.9,2.5-1.9
		C444.3,404.9,444.9,405.5,444.9,406.2z"/>
	<path id="XMLID_319_" class="st8" d="M403.8,440.3c0,0.7-0.6,1.5-1.6,1.8c-1.2,0.4-2.5-0.2-2.5-1.3s1.3-1.9,2.5-1.9
		C403.2,439,403.8,439.6,403.8,440.3z"/>
	<path id="XMLID_320_" class="st8" d="M412.1,436c0,0.7-0.6,1.5-1.6,1.8c-1.2,0.4-2.5-0.2-2.5-1.3c0-1.1,1.3-1.9,2.5-1.9
		C411.5,434.7,412.1,435.3,412.1,436z"/>
	<path id="XMLID_321_" class="st8" d="M420.3,431.3c0,0.7-0.6,1.5-1.6,1.8c-1.2,0.4-2.5-0.2-2.5-1.3c0-1.1,1.3-1.9,2.5-1.9
		C419.7,430,420.3,430.6,420.3,431.3z"/>
	<path id="XMLID_322_" class="st8" d="M428.7,427.1c0,0.7-0.6,1.5-1.6,1.8c-1.2,0.4-2.5-0.2-2.5-1.3s1.3-1.9,2.5-1.9
		C428,425.8,428.7,426.4,428.7,427.1z"/>
	<path id="XMLID_323_" class="st8" d="M436.7,422.2c0,0.7-0.6,1.5-1.6,1.8c-1.2,0.4-2.5-0.2-2.5-1.3c0-1.1,1.3-1.9,2.5-1.9
		C436.1,420.9,436.7,421.5,436.7,422.2z"/>
	<path id="XMLID_324_" class="st8" d="M444.9,417.5c0,0.7-0.6,1.5-1.6,1.8c-1.2,0.4-2.5-0.2-2.5-1.3s1.3-1.9,2.5-1.9
		C444.3,416.2,444.9,416.8,444.9,417.5z"/>
	<path id="XMLID_325_" class="st8" d="M403.7,451.5c0,0.7-0.6,1.5-1.6,1.8c-1.2,0.4-2.5-0.2-2.5-1.3c0-1.1,1.3-1.9,2.5-1.9
		C403.1,450.2,403.7,450.8,403.7,451.5z"/>
	<path id="XMLID_326_" class="st8" d="M412,447.3c0,0.7-0.6,1.5-1.6,1.8c-1.2,0.4-2.5-0.2-2.5-1.3s1.3-1.9,2.5-1.9
		C411.4,446,412,446.6,412,447.3z"/>
	<path id="XMLID_327_" class="st8" d="M420.2,442.6c0,0.7-0.6,1.5-1.6,1.8c-1.2,0.4-2.5-0.2-2.5-1.3c0-1.1,1.3-1.9,2.5-1.9
		C419.6,441.3,420.2,441.9,420.2,442.6z"/>
	<path id="XMLID_328_" class="st8" d="M428.5,438.3c0,0.7-0.6,1.5-1.6,1.8c-1.2,0.4-2.5-0.2-2.5-1.3s1.3-1.9,2.5-1.9
		C427.9,437,428.5,437.6,428.5,438.3z"/>
	<path id="XMLID_329_" class="st8" d="M436.6,433.5c0,0.7-0.6,1.5-1.6,1.8c-1.2,0.4-2.5-0.2-2.5-1.3c0-1.1,1.3-1.9,2.5-1.9
		C436,432.1,436.6,432.8,436.6,433.5z"/>
	<path id="XMLID_330_" class="st8" d="M444.8,428.7c0,0.7-0.6,1.5-1.6,1.8c-1.2,0.4-2.5-0.2-2.5-1.3c0-1.1,1.3-1.9,2.5-1.9
		C444.2,427.4,444.8,428,444.8,428.7z"/>
	<path id="XMLID_331_" class="st8" d="M403.6,462c0,0.7-0.6,1.5-1.6,1.8c-1.2,0.4-2.5-0.2-2.5-1.3c0-1.1,1.3-1.9,2.5-1.9
		C403,460.7,403.6,461.3,403.6,462z"/>
	<path id="XMLID_332_" class="st8" d="M411.9,457.8c0,0.7-0.6,1.5-1.6,1.8c-1.2,0.4-2.5-0.2-2.5-1.3s1.3-1.9,2.5-1.9
		C411.3,456.4,411.9,457,411.9,457.8z"/>
	<path id="XMLID_333_" class="st8" d="M420.2,453c0,0.7-0.6,1.5-1.6,1.8c-1.2,0.4-2.5-0.2-2.5-1.3c0-1.1,1.3-1.9,2.5-1.9
		C419.5,451.7,420.2,452.3,420.2,453z"/>
	<path id="XMLID_334_" class="st8" d="M428.5,448.8c0,0.7-0.6,1.5-1.6,1.8c-1.2,0.4-2.5-0.2-2.5-1.3c0-1.1,1.3-1.9,2.5-1.9
		C427.8,447.5,428.5,448.1,428.5,448.8z"/>
	<path id="XMLID_335_" class="st8" d="M436.5,443.9c0,0.7-0.6,1.5-1.6,1.8c-1.2,0.4-2.5-0.2-2.5-1.3c0-1.1,1.3-1.9,2.5-1.9
		C435.9,442.6,436.5,443.2,436.5,443.9z"/>
	<path id="XMLID_336_" class="st8" d="M444.8,439.2c0,0.7-0.6,1.5-1.6,1.8c-1.2,0.4-2.5-0.2-2.5-1.3c0-1.1,1.3-1.9,2.5-1.9
		C444.1,437.9,444.8,438.5,444.8,439.2z"/>
	<path id="XMLID_337_" class="st8" d="M403.7,472c0,0.7-0.6,1.5-1.6,1.8c-1.2,0.4-2.5-0.2-2.5-1.3c0-1.1,1.3-1.9,2.5-1.9
		C403.1,470.7,403.7,471.3,403.7,472z"/>
	<path id="XMLID_338_" class="st8" d="M420.3,463.1c0,0.7-0.6,1.5-1.6,1.8c-1.2,0.4-2.5-0.2-2.5-1.3c0-1.1,1.3-1.9,2.5-1.9
		C419.7,461.7,420.3,462.4,420.3,463.1z"/>
	<path id="XMLID_339_" class="st8" d="M436.7,454c0,0.7-0.6,1.5-1.6,1.8c-1.2,0.4-2.5-0.2-2.5-1.3s1.3-1.9,2.5-1.9
		C436,452.6,436.7,453.2,436.7,454z"/>
	<path id="XMLID_340_" class="st8" d="M403.7,483.3c0,0.7-0.6,1.5-1.6,1.8c-1.2,0.4-2.5-0.2-2.5-1.3c0-1.1,1.3-1.9,2.5-1.9
		C403.1,482,403.7,482.6,403.7,483.3z"/>
	<path id="XMLID_341_" class="st8" d="M436.7,465.3c0,0.7-0.6,1.5-1.6,1.8c-1.2,0.4-2.5-0.2-2.5-1.3c0-1.1,1.3-1.9,2.5-1.9
		C436,463.9,436.7,464.5,436.7,465.3z"/>
	<path id="XMLID_342_" class="st8" d="M403.6,494.6c0,0.7-0.6,1.5-1.6,1.8c-1.2,0.4-2.5-0.2-2.5-1.3c0-1.1,1.3-1.9,2.5-1.9
		C403,493.3,403.6,493.9,403.6,494.6z"/>
	<path id="XMLID_343_" class="st8" d="M436.5,476.5c0,0.7-0.6,1.5-1.6,1.8c-1.2,0.4-2.5-0.2-2.5-1.3s1.3-1.9,2.5-1.9
		C435.9,475.2,436.5,475.8,436.5,476.5z"/>
</g>
<path id="XMLID_345_" class="st10" d="M380.6,418.5c0,0.7,0.6,1.5,1.6,1.8c1.2,0.4,2.5-0.2,2.5-1.3s-1.3-1.9-2.5-1.9
	C381.3,417.2,380.6,417.8,380.6,418.5z"/>
<path id="XMLID_346_" class="st10" d="M372.3,414.3c0,0.7,0.6,1.5,1.6,1.8c1.2,0.4,2.5-0.2,2.5-1.3c0-1.1-1.3-1.9-2.5-1.9
	C373,412.9,372.3,413.6,372.3,414.3z"/>
<path id="XMLID_347_" class="st10" d="M364.3,409.4c0,0.7,0.6,1.5,1.6,1.8c1.2,0.4,2.5-0.2,2.5-1.3s-1.3-1.9-2.5-1.9
	C364.9,408.1,364.3,408.7,364.3,409.4z"/>
<path id="XMLID_348_" class="st10" d="M356,404.7c0,0.7,0.6,1.5,1.6,1.8c1.2,0.4,2.5-0.2,2.5-1.3c0-1.1-1.3-1.9-2.5-1.9
	C356.7,403.4,356,404,356,404.7z"/>
<path id="XMLID_349_" class="st10" d="M347.7,400.4c0,0.7,0.6,1.5,1.6,1.8c1.2,0.4,2.5-0.2,2.5-1.3c0-1.1-1.3-1.9-2.5-1.9
	C348.4,399.1,347.7,399.7,347.7,400.4z"/>
<path id="XMLID_350_" class="st10" d="M380.5,428.5c0,0.7,0.6,1.5,1.6,1.8c1.2,0.4,2.5-0.2,2.5-1.3s-1.3-1.9-2.5-1.9
	C381.1,427.2,380.5,427.8,380.5,428.5z"/>
<path id="XMLID_351_" class="st10" d="M372.2,424.3c0,0.7,0.6,1.5,1.6,1.8c1.2,0.4,2.5-0.2,2.5-1.3c0-1.1-1.3-1.9-2.5-1.9
	C372.8,423,372.2,423.6,372.2,424.3z"/>
<path id="XMLID_352_" class="st10" d="M364.1,419.4c0,0.7,0.6,1.5,1.6,1.8c1.2,0.4,2.5-0.2,2.5-1.3c0-1.1-1.3-1.9-2.5-1.9
	C364.8,418.1,364.1,418.7,364.1,419.4z"/>
<path id="XMLID_353_" class="st10" d="M355.9,414.7c0,0.7,0.6,1.5,1.6,1.8c1.2,0.4,2.5-0.2,2.5-1.3c0-1.1-1.3-1.9-2.5-1.9
	C356.5,413.4,355.9,414,355.9,414.7z"/>
<path id="XMLID_354_" class="st10" d="M347.6,410.5c0,0.7,0.6,1.5,1.6,1.8c1.2,0.4,2.5-0.2,2.5-1.3c0-1.1-1.3-1.9-2.5-1.9
	C348.2,409.1,347.6,409.8,347.6,410.5z"/>
<path id="XMLID_355_" class="st10" d="M380.5,439.8c0,0.7,0.6,1.5,1.6,1.8c1.2,0.4,2.5-0.2,2.5-1.3c0-1.1-1.3-1.9-2.5-1.9
	C381.1,438.5,380.5,439.1,380.5,439.8z"/>
<path id="XMLID_356_" class="st10" d="M372.2,435.6c0,0.7,0.6,1.5,1.6,1.8c1.2,0.4,2.5-0.2,2.5-1.3c0-1.1-1.3-1.9-2.5-1.9
	C372.8,434.3,372.2,434.9,372.2,435.6z"/>
<path id="XMLID_357_" class="st10" d="M364.1,430.7c0,0.7,0.6,1.5,1.6,1.8c1.2,0.4,2.5-0.2,2.5-1.3s-1.3-1.9-2.5-1.9
	C364.8,429.4,364.1,430,364.1,430.7z"/>
<path id="XMLID_358_" class="st10" d="M355.9,426c0,0.7,0.6,1.5,1.6,1.8c1.2,0.4,2.5-0.2,2.5-1.3c0-1.1-1.3-1.9-2.5-1.9
	C356.5,424.7,355.9,425.3,355.9,426z"/>
<path id="XMLID_359_" class="st10" d="M347.6,421.8c0,0.7,0.6,1.5,1.6,1.8c1.2,0.4,2.5-0.2,2.5-1.3s-1.3-1.9-2.5-1.9
	C348.2,420.4,347.6,421.1,347.6,421.8z"/>
<path id="XMLID_360_" class="st10" d="M380.6,451.1c0,0.7,0.6,1.5,1.6,1.8c1.2,0.4,2.5-0.2,2.5-1.3s-1.3-1.9-2.5-1.9
	C381.3,449.8,380.6,450.4,380.6,451.1z"/>
<path id="XMLID_361_" class="st10" d="M372.3,446.8c0,0.7,0.6,1.5,1.6,1.8c1.2,0.4,2.5-0.2,2.5-1.3c0-1.1-1.3-1.9-2.5-1.9
	C373,445.5,372.3,446.1,372.3,446.8z"/>
<path id="XMLID_362_" class="st10" d="M364.3,442c0,0.7,0.6,1.5,1.6,1.8c1.2,0.4,2.5-0.2,2.5-1.3s-1.3-1.9-2.5-1.9
	C364.9,440.7,364.3,441.3,364.3,442z"/>
<path id="XMLID_363_" class="st10" d="M356,437.3c0,0.7,0.6,1.5,1.6,1.8c1.2,0.4,2.5-0.2,2.5-1.3c0-1.1-1.3-1.9-2.5-1.9
	C356.7,435.9,356,436.5,356,437.3z"/>
<path id="XMLID_364_" class="st10" d="M347.7,433c0,0.7,0.6,1.5,1.6,1.8c1.2,0.4,2.5-0.2,2.5-1.3c0-1.1-1.3-1.9-2.5-1.9
	C348.4,431.7,347.7,432.3,347.7,433z"/>
<path id="XMLID_365_" class="st10" d="M339.6,396.2c0,0.7,0.6,1.5,1.6,1.8c1.2,0.4,2.5-0.2,2.5-1.3c0-1.1-1.3-1.9-2.5-1.9
	C340.2,394.8,339.6,395.4,339.6,396.2z"/>
<path id="XMLID_366_" class="st10" d="M339.5,406.2c0,0.7,0.6,1.5,1.6,1.8c1.2,0.4,2.5-0.2,2.5-1.3c0-1.1-1.3-1.9-2.5-1.9
	C340.1,404.9,339.5,405.5,339.5,406.2z"/>
<path id="XMLID_367_" class="st10" d="M339.5,417.5c0,0.7,0.6,1.5,1.6,1.8c1.2,0.4,2.5-0.2,2.5-1.3c0-1.1-1.3-1.9-2.5-1.9
	C340.1,416.2,339.5,416.8,339.5,417.5z"/>
<path id="XMLID_368_" class="st10" d="M339.6,428.7c0,0.7,0.6,1.5,1.6,1.8c1.2,0.4,2.5-0.2,2.5-1.3c0-1.1-1.3-1.9-2.5-1.9
	C340.2,427.4,339.6,428,339.6,428.7z"/>
<path id="XMLID_369_" class="st10" d="M380.7,461.5c0,0.7,0.6,1.5,1.6,1.8c1.2,0.4,2.5-0.2,2.5-1.3s-1.3-1.9-2.5-1.9
	C381.3,460.2,380.7,460.8,380.7,461.5z"/>
<path id="XMLID_370_" class="st10" d="M372.4,457.3c0,0.7,0.6,1.5,1.6,1.8c1.2,0.4,2.5-0.2,2.5-1.3c0-1.1-1.3-1.9-2.5-1.9
	C373,456,372.4,456.6,372.4,457.3z"/>
<path id="XMLID_371_" class="st10" d="M364.3,452.4c0,0.7,0.6,1.5,1.6,1.8c1.2,0.4,2.5-0.2,2.5-1.3c0-1.1-1.3-1.9-2.5-1.9
	C365,451.1,364.3,451.7,364.3,452.4z"/>
<path id="XMLID_372_" class="st10" d="M356.1,447.7c0,0.7,0.6,1.5,1.6,1.8c1.2,0.4,2.5-0.2,2.5-1.3c0-1.1-1.3-1.9-2.5-1.9
	C356.7,446.4,356.1,447,356.1,447.7z"/>
<path id="XMLID_373_" class="st10" d="M347.8,443.5c0,0.7,0.6,1.5,1.6,1.8c1.2,0.4,2.5-0.2,2.5-1.3c0-1.1-1.3-1.9-2.5-1.9
	C348.4,442.1,347.8,442.8,347.8,443.5z"/>
<path id="XMLID_374_" class="st10" d="M380.6,471.6c0,0.7,0.6,1.5,1.6,1.8c1.2,0.4,2.5-0.2,2.5-1.3c0-1.1-1.3-1.9-2.5-1.9
	C381.2,470.3,380.6,470.9,380.6,471.6z"/>
<path id="XMLID_375_" class="st10" d="M364.2,462.5c0,0.7,0.6,1.5,1.6,1.8c1.2,0.4,2.5-0.2,2.5-1.3c0-1.1-1.3-1.9-2.5-1.9
	C364.8,461.1,364.2,461.8,364.2,462.5z"/>
<path id="XMLID_376_" class="st10" d="M347.7,453.5c0,0.7,0.6,1.5,1.6,1.8c1.2,0.4,2.5-0.2,2.5-1.3c0-1.1-1.3-1.9-2.5-1.9
	C348.3,452.2,347.7,452.8,347.7,453.5z"/>
<path id="XMLID_377_" class="st10" d="M364.2,473.8c0,0.7,0.6,1.5,1.6,1.8c1.2,0.4,2.5-0.2,2.5-1.3s-1.3-1.9-2.5-1.9
	C364.8,472.4,364.2,473.1,364.2,473.8z"/>
<path id="XMLID_378_" class="st10" d="M347.7,464.8c0,0.7,0.6,1.5,1.6,1.8c1.2,0.4,2.5-0.2,2.5-1.3s-1.3-1.9-2.5-1.9
	C348.3,463.5,347.7,464.1,347.7,464.8z"/>
<path id="XMLID_379_" class="st10" d="M364.3,485c0,0.7,0.6,1.5,1.6,1.8c1.2,0.4,2.5-0.2,2.5-1.3c0-1.1-1.3-1.9-2.5-1.9
	C365,483.7,364.3,484.3,364.3,485z"/>
<path id="XMLID_380_" class="st10" d="M339.7,439.2c0,0.7,0.6,1.5,1.6,1.8c1.2,0.4,2.5-0.2,2.5-1.3s-1.3-1.9-2.5-1.9
	C340.3,437.9,339.7,438.5,339.7,439.2z"/>
<g id="XMLID_381_" class="st11">
	<path id="XMLID_382_" class="st8" d="M164.6,674.2c0-0.7,0.6-1.5,1.6-1.8c1.2-0.4,2.5,0.2,2.5,1.3c0,1.1-1.3,1.9-2.5,1.9
		C165.3,675.5,164.6,674.9,164.6,674.2z"/>
	<path id="XMLID_383_" class="st8" d="M156.3,678.4c0-0.7,0.6-1.5,1.6-1.8c1.2-0.4,2.5,0.2,2.5,1.3c0,1.1-1.3,1.9-2.5,1.9
		C157,679.8,156.3,679.1,156.3,678.4z"/>
	<path id="XMLID_384_" class="st8" d="M148.1,683.2c0-0.7,0.6-1.5,1.6-1.8c1.2-0.4,2.5,0.2,2.5,1.3c0,1.1-1.3,1.9-2.5,1.9
		C148.7,684.5,148.1,683.9,148.1,683.2z"/>
	<path id="XMLID_385_" class="st8" d="M139.8,687.4c0-0.7,0.6-1.5,1.6-1.8c1.2-0.4,2.5,0.2,2.5,1.3c0,1.1-1.3,1.9-2.5,1.9
		C140.4,688.7,139.8,688.1,139.8,687.4z"/>
	<path id="XMLID_386_" class="st8" d="M131.7,692.3c0-0.7,0.6-1.5,1.6-1.8c1.2-0.4,2.5,0.2,2.5,1.3s-1.3,1.9-2.5,1.9
		C132.4,693.6,131.7,693,131.7,692.3z"/>
	<path id="XMLID_387_" class="st8" d="M123.5,697c0-0.7,0.6-1.5,1.6-1.8c1.2-0.4,2.5,0.2,2.5,1.3c0,1.1-1.3,1.9-2.5,1.9
		C124.1,698.3,123.5,697.7,123.5,697z"/>
	<path id="XMLID_388_" class="st8" d="M164.5,664.2c0-0.7,0.6-1.5,1.6-1.8c1.2-0.4,2.5,0.2,2.5,1.3s-1.3,1.9-2.5,1.9
		C165.1,665.5,164.5,664.9,164.5,664.2z"/>
	<path id="XMLID_389_" class="st8" d="M156.2,668.4c0-0.7,0.6-1.5,1.6-1.8c1.2-0.4,2.5,0.2,2.5,1.3c0,1.1-1.3,1.9-2.5,1.9
		C156.8,669.7,156.2,669.1,156.2,668.4z"/>
	<path id="XMLID_390_" class="st8" d="M148,673.1c0-0.7,0.6-1.5,1.6-1.8c1.2-0.4,2.5,0.2,2.5,1.3s-1.3,1.9-2.5,1.9
		C148.6,674.4,148,673.8,148,673.1z"/>
	<path id="XMLID_391_" class="st8" d="M139.7,677.4c0-0.7,0.6-1.5,1.6-1.8c1.2-0.4,2.5,0.2,2.5,1.3c0,1.1-1.3,1.9-2.5,1.9
		C140.3,678.7,139.7,678.1,139.7,677.4z"/>
	<path id="XMLID_392_" class="st8" d="M131.6,682.2c0-0.7,0.6-1.5,1.6-1.8c1.2-0.4,2.5,0.2,2.5,1.3c0,1.1-1.3,1.9-2.5,1.9
		C132.2,683.6,131.6,682.9,131.6,682.2z"/>
	<path id="XMLID_393_" class="st8" d="M123.4,687c0-0.7,0.6-1.5,1.6-1.8c1.2-0.4,2.5,0.2,2.5,1.3c0,1.1-1.3,1.9-2.5,1.9
		C124,688.3,123.4,687.7,123.4,687z"/>
	<path id="XMLID_394_" class="st8" d="M164.5,652.9c0-0.7,0.6-1.5,1.6-1.8c1.2-0.4,2.5,0.2,2.5,1.3c0,1.1-1.3,1.9-2.5,1.9
		C165.1,654.2,164.5,653.6,164.5,652.9z"/>
	<path id="XMLID_395_" class="st8" d="M156.2,657.1c0-0.7,0.6-1.5,1.6-1.8c1.2-0.4,2.5,0.2,2.5,1.3s-1.3,1.9-2.5,1.9
		C156.8,658.4,156.2,657.8,156.2,657.1z"/>
	<path id="XMLID_396_" class="st8" d="M148,661.8c0-0.7,0.6-1.5,1.6-1.8c1.2-0.4,2.5,0.2,2.5,1.3c0,1.1-1.3,1.9-2.5,1.9
		C148.6,663.1,148,662.5,148,661.8z"/>
	<path id="XMLID_397_" class="st8" d="M139.7,666.1c0-0.7,0.6-1.5,1.6-1.8c1.2-0.4,2.5,0.2,2.5,1.3s-1.3,1.9-2.5,1.9
		C140.3,667.4,139.7,666.8,139.7,666.1z"/>
	<path id="XMLID_398_" class="st8" d="M131.6,670.9c0-0.7,0.6-1.5,1.6-1.8c1.2-0.4,2.5,0.2,2.5,1.3s-1.3,1.9-2.5,1.9
		C132.2,672.3,131.6,671.6,131.6,670.9z"/>
	<path id="XMLID_399_" class="st8" d="M123.4,675.7c0-0.7,0.6-1.5,1.6-1.8c1.2-0.4,2.5,0.2,2.5,1.3s-1.3,1.9-2.5,1.9
		C124,677,123.4,676.4,123.4,675.7z"/>
	<path id="XMLID_400_" class="st8" d="M164.6,641.6c0-0.7,0.6-1.5,1.6-1.8c1.2-0.4,2.5,0.2,2.5,1.3c0,1.1-1.3,1.9-2.5,1.9
		C165.3,642.9,164.6,642.3,164.6,641.6z"/>
	<path id="XMLID_401_" class="st8" d="M156.3,645.9c0-0.7,0.6-1.5,1.6-1.8c1.2-0.4,2.5,0.2,2.5,1.3c0,1.1-1.3,1.9-2.5,1.9
		C157,647.2,156.3,646.6,156.3,645.9z"/>
	<path id="XMLID_402_" class="st8" d="M148.1,650.6c0-0.7,0.6-1.5,1.6-1.8c1.2-0.4,2.5,0.2,2.5,1.3c0,1.1-1.3,1.9-2.5,1.9
		C148.7,651.9,148.1,651.3,148.1,650.6z"/>
	<path id="XMLID_403_" class="st8" d="M139.8,654.8c0-0.7,0.6-1.5,1.6-1.8c1.2-0.4,2.5,0.2,2.5,1.3c0,1.1-1.3,1.9-2.5,1.9
		C140.4,656.1,139.8,655.5,139.8,654.8z"/>
	<path id="XMLID_404_" class="st8" d="M131.7,659.7c0-0.7,0.6-1.5,1.6-1.8c1.2-0.4,2.5,0.2,2.5,1.3s-1.3,1.9-2.5,1.9
		C132.4,661,131.7,660.4,131.7,659.7z"/>
	<path id="XMLID_405_" class="st8" d="M123.5,664.4c0-0.7,0.6-1.5,1.6-1.8c1.2-0.4,2.5,0.2,2.5,1.3c0,1.1-1.3,1.9-2.5,1.9
		C124.1,665.7,123.5,665.1,123.5,664.4z"/>
	<path id="XMLID_406_" class="st8" d="M164.7,631.2c0-0.7,0.6-1.5,1.6-1.8c1.2-0.4,2.5,0.2,2.5,1.3c0,1.1-1.3,1.9-2.5,1.9
		C165.3,632.5,164.7,631.9,164.7,631.2z"/>
	<path id="XMLID_407_" class="st8" d="M156.4,635.4c0-0.7,0.6-1.5,1.6-1.8c1.2-0.4,2.5,0.2,2.5,1.3c0,1.1-1.3,1.9-2.5,1.9
		C157,636.7,156.4,636.1,156.4,635.4z"/>
	<path id="XMLID_408_" class="st8" d="M148.2,640.1c0-0.7,0.6-1.5,1.6-1.8c1.2-0.4,2.5,0.2,2.5,1.3c0,1.1-1.3,1.9-2.5,1.9
		C148.8,641.4,148.2,640.8,148.2,640.1z"/>
	<path id="XMLID_409_" class="st8" d="M139.9,644.4c0-0.7,0.6-1.5,1.6-1.8c1.2-0.4,2.5,0.2,2.5,1.3c0,1.1-1.3,1.9-2.5,1.9
		C140.5,645.7,139.9,645.1,139.9,644.4z"/>
	<path id="XMLID_410_" class="st8" d="M131.8,649.2c0-0.7,0.6-1.5,1.6-1.8c1.2-0.4,2.5,0.2,2.5,1.3s-1.3,1.9-2.5,1.9
		C132.4,650.5,131.8,649.9,131.8,649.2z"/>
	<path id="XMLID_411_" class="st8" d="M123.6,653.9c0-0.7,0.6-1.5,1.6-1.8c1.2-0.4,2.5,0.2,2.5,1.3c0,1.1-1.3,1.9-2.5,1.9
		C124.2,655.3,123.6,654.7,123.6,653.9z"/>
	<path id="XMLID_412_" class="st8" d="M164.6,621.1c0-0.7,0.6-1.5,1.6-1.8c1.2-0.4,2.5,0.2,2.5,1.3s-1.3,1.9-2.5,1.9
		C165.2,622.4,164.6,621.8,164.6,621.1z"/>
	<path id="XMLID_413_" class="st8" d="M148,630.1c0-0.7,0.6-1.5,1.6-1.8c1.2-0.4,2.5,0.2,2.5,1.3s-1.3,1.9-2.5,1.9
		C148.7,631.4,148,630.8,148,630.1z"/>
	<path id="XMLID_414_" class="st8" d="M131.7,639.2c0-0.7,0.6-1.5,1.6-1.8c1.2-0.4,2.5,0.2,2.5,1.3c0,1.1-1.3,1.9-2.5,1.9
		C132.3,640.5,131.7,639.9,131.7,639.2z"/>
	<path id="XMLID_415_" class="st8" d="M164.6,609.8c0-0.7,0.6-1.5,1.6-1.8c1.2-0.4,2.5,0.2,2.5,1.3c0,1.1-1.3,1.9-2.5,1.9
		C165.2,611.1,164.6,610.5,164.6,609.8z"/>
	<path id="XMLID_416_" class="st8" d="M131.7,627.9c0-0.7,0.6-1.5,1.6-1.8c1.2-0.4,2.5,0.2,2.5,1.3s-1.3,1.9-2.5,1.9
		C132.3,629.2,131.7,628.6,131.7,627.9z"/>
	<path id="XMLID_417_" class="st8" d="M164.7,598.6c0-0.7,0.6-1.5,1.6-1.8c1.2-0.4,2.5,0.2,2.5,1.3c0,1.1-1.3,1.9-2.5,1.9
		C165.3,599.9,164.7,599.3,164.7,598.6z"/>
	<path id="XMLID_418_" class="st8" d="M131.8,616.6c0-0.7,0.6-1.5,1.6-1.8c1.2-0.4,2.5,0.2,2.5,1.3s-1.3,1.9-2.5,1.9
		C132.4,618,131.8,617.4,131.8,616.6z"/>
</g>
<g id="XMLID_419_" class="st11">
	<path id="XMLID_420_" class="st8" d="M627,413.7c0-0.7,0.6-1.5,1.6-1.8c1.2-0.4,2.5,0.2,2.5,1.3s-1.3,1.9-2.5,1.9
		C627.6,415.1,627,414.4,627,413.7z"/>
	<path id="XMLID_421_" class="st8" d="M618.7,418c0-0.7,0.6-1.5,1.6-1.8c1.2-0.4,2.5,0.2,2.5,1.3c0,1.1-1.3,1.9-2.5,1.9
		C619.3,419.3,618.7,418.7,618.7,418z"/>
	<path id="XMLID_422_" class="st8" d="M610.4,422.7c0-0.7,0.6-1.5,1.6-1.8c1.2-0.4,2.5,0.2,2.5,1.3s-1.3,1.9-2.5,1.9
		C611.1,424,610.4,423.4,610.4,422.7z"/>
	<path id="XMLID_423_" class="st8" d="M602.1,426.9c0-0.7,0.6-1.5,1.6-1.8c1.2-0.4,2.5,0.2,2.5,1.3c0,1.1-1.3,1.9-2.5,1.9
		C602.7,428.3,602.1,427.6,602.1,426.9z"/>
	<path id="XMLID_424_" class="st8" d="M594.1,431.8c0-0.7,0.6-1.5,1.6-1.8c1.2-0.4,2.5,0.2,2.5,1.3c0,1.1-1.3,1.9-2.5,1.9
		C594.7,433.1,594.1,432.5,594.1,431.8z"/>
	<path id="XMLID_425_" class="st8" d="M585.8,436.5c0-0.7,0.6-1.5,1.6-1.8c1.2-0.4,2.5,0.2,2.5,1.3c0,1.1-1.3,1.9-2.5,1.9
		C586.5,437.8,585.8,437.2,585.8,436.5z"/>
	<path id="XMLID_426_" class="st8" d="M626.8,403.7c0-0.7,0.6-1.5,1.6-1.8c1.2-0.4,2.5,0.2,2.5,1.3s-1.3,1.9-2.5,1.9
		C627.5,405,626.8,404.4,626.8,403.7z"/>
	<path id="XMLID_427_" class="st8" d="M618.5,407.9c0-0.7,0.6-1.5,1.6-1.8c1.2-0.4,2.5,0.2,2.5,1.3c0,1.1-1.3,1.9-2.5,1.9
		C619.2,409.3,618.5,408.6,618.5,407.9z"/>
	<path id="XMLID_428_" class="st8" d="M610.3,412.7c0-0.7,0.6-1.5,1.6-1.8c1.2-0.4,2.5,0.2,2.5,1.3s-1.3,1.9-2.5,1.9
		C610.9,414,610.3,413.4,610.3,412.7z"/>
	<path id="XMLID_429_" class="st8" d="M602,416.9c0-0.7,0.6-1.5,1.6-1.8c1.2-0.4,2.5,0.2,2.5,1.3c0,1.1-1.3,1.9-2.5,1.9
		C602.6,418.2,602,417.6,602,416.9z"/>
	<path id="XMLID_430_" class="st8" d="M593.9,421.8c0-0.7,0.6-1.5,1.6-1.8c1.2-0.4,2.5,0.2,2.5,1.3c0,1.1-1.3,1.9-2.5,1.9
		C594.6,423.1,593.9,422.5,593.9,421.8z"/>
	<path id="XMLID_431_" class="st8" d="M585.7,426.5c0-0.7,0.6-1.5,1.6-1.8c1.2-0.4,2.5,0.2,2.5,1.3s-1.3,1.9-2.5,1.9
		C586.3,427.8,585.7,427.2,585.7,426.5z"/>
	<path id="XMLID_432_" class="st8" d="M626.8,392.4c0-0.7,0.6-1.5,1.6-1.8c1.2-0.4,2.5,0.2,2.5,1.3c0,1.1-1.3,1.9-2.5,1.9
		C627.5,393.7,626.8,393.1,626.8,392.4z"/>
	<path id="XMLID_433_" class="st8" d="M618.5,396.6c0-0.7,0.6-1.5,1.6-1.8c1.2-0.4,2.5,0.2,2.5,1.3c0,1.1-1.3,1.9-2.5,1.9
		C619.2,398,618.5,397.4,618.5,396.6z"/>
	<path id="XMLID_434_" class="st8" d="M610.3,401.4c0-0.7,0.6-1.5,1.6-1.8c1.2-0.4,2.5,0.2,2.5,1.3c0,1.1-1.3,1.9-2.5,1.9
		C610.9,402.7,610.3,402.1,610.3,401.4z"/>
	<path id="XMLID_435_" class="st8" d="M602,405.6c0-0.7,0.6-1.5,1.6-1.8c1.2-0.4,2.5,0.2,2.5,1.3c0,1.1-1.3,1.9-2.5,1.9
		C602.6,406.9,602,406.3,602,405.6z"/>
	<path id="XMLID_436_" class="st8" d="M593.9,410.5c0-0.7,0.6-1.5,1.6-1.8c1.2-0.4,2.5,0.2,2.5,1.3s-1.3,1.9-2.5,1.9
		C594.6,411.8,593.9,411.2,593.9,410.5z"/>
	<path id="XMLID_437_" class="st8" d="M585.7,415.2c0-0.7,0.6-1.5,1.6-1.8c1.2-0.4,2.5,0.2,2.5,1.3c0,1.1-1.3,1.9-2.5,1.9
		C586.3,416.5,585.7,415.9,585.7,415.2z"/>
	<path id="XMLID_438_" class="st8" d="M627,381.2c0-0.7,0.6-1.5,1.6-1.8c1.2-0.4,2.5,0.2,2.5,1.3s-1.3,1.9-2.5,1.9
		C627.6,382.5,627,381.9,627,381.2z"/>
	<path id="XMLID_439_" class="st8" d="M618.7,385.4c0-0.7,0.6-1.5,1.6-1.8c1.2-0.4,2.5,0.2,2.5,1.3c0,1.1-1.3,1.9-2.5,1.9
		C619.3,386.7,618.7,386.1,618.7,385.4z"/>
	<path id="XMLID_440_" class="st8" d="M610.4,390.1c0-0.7,0.6-1.5,1.6-1.8c1.2-0.4,2.5,0.2,2.5,1.3s-1.3,1.9-2.5,1.9
		C611.1,391.4,610.4,390.8,610.4,390.1z"/>
	<path id="XMLID_441_" class="st8" d="M602.1,394.4c0-0.7,0.6-1.5,1.6-1.8c1.2-0.4,2.5,0.2,2.5,1.3c0,1.1-1.3,1.9-2.5,1.9
		C602.7,395.7,602.1,395.1,602.1,394.4z"/>
	<path id="XMLID_442_" class="st8" d="M594.1,399.2c0-0.7,0.6-1.5,1.6-1.8c1.2-0.4,2.5,0.2,2.5,1.3c0,1.1-1.3,1.9-2.5,1.9
		C594.7,400.5,594.1,399.9,594.1,399.2z"/>
	<path id="XMLID_443_" class="st8" d="M585.8,403.9c0-0.7,0.6-1.5,1.6-1.8c1.2-0.4,2.5,0.2,2.5,1.3c0,1.1-1.3,1.9-2.5,1.9
		C586.5,405.3,585.8,404.7,585.8,403.9z"/>
	<path id="XMLID_444_" class="st8" d="M627,370.7c0-0.7,0.6-1.5,1.6-1.8c1.2-0.4,2.5,0.2,2.5,1.3s-1.3,1.9-2.5,1.9
		C627.7,372,627,371.4,627,370.7z"/>
	<path id="XMLID_445_" class="st8" d="M618.7,374.9c0-0.7,0.6-1.5,1.6-1.8c1.2-0.4,2.5,0.2,2.5,1.3c0,1.1-1.3,1.9-2.5,1.9
		C619.3,376.3,618.7,375.6,618.7,374.9z"/>
	<path id="XMLID_446_" class="st8" d="M610.5,379.7c0-0.7,0.6-1.5,1.6-1.8c1.2-0.4,2.5,0.2,2.5,1.3c0,1.1-1.3,1.9-2.5,1.9
		C611.1,381,610.5,380.4,610.5,379.7z"/>
	<path id="XMLID_447_" class="st8" d="M602.2,383.9c0-0.7,0.6-1.5,1.6-1.8c1.2-0.4,2.5,0.2,2.5,1.3c0,1.1-1.3,1.9-2.5,1.9
		C602.8,385.2,602.2,384.6,602.2,383.9z"/>
	<path id="XMLID_448_" class="st8" d="M594.1,388.8c0-0.7,0.6-1.5,1.6-1.8c1.2-0.4,2.5,0.2,2.5,1.3c0,1.1-1.3,1.9-2.5,1.9
		C594.7,390.1,594.1,389.5,594.1,388.8z"/>
	<path id="XMLID_449_" class="st8" d="M585.9,393.5c0-0.7,0.6-1.5,1.6-1.8c1.2-0.4,2.5,0.2,2.5,1.3s-1.3,1.9-2.5,1.9
		C586.5,394.8,585.9,394.2,585.9,393.5z"/>
	<path id="XMLID_450_" class="st8" d="M626.9,360.7c0-0.7,0.6-1.5,1.6-1.8c1.2-0.4,2.5,0.2,2.5,1.3s-1.3,1.9-2.5,1.9
		C627.5,362,626.9,361.4,626.9,360.7z"/>
	<path id="XMLID_451_" class="st8" d="M610.4,369.6c0-0.7,0.6-1.5,1.6-1.8c1.2-0.4,2.5,0.2,2.5,1.3c0,1.1-1.3,1.9-2.5,1.9
		C611,370.9,610.4,370.3,610.4,369.6z"/>
	<path id="XMLID_452_" class="st8" d="M594,378.7c0-0.7,0.6-1.5,1.6-1.8c1.2-0.4,2.5,0.2,2.5,1.3c0,1.1-1.3,1.9-2.5,1.9
		C594.6,380.1,594,379.4,594,378.7z"/>
	<path id="XMLID_453_" class="st8" d="M626.9,349.4c0-0.7,0.6-1.5,1.6-1.8c1.2-0.4,2.5,0.2,2.5,1.3c0,1.1-1.3,1.9-2.5,1.9
		C627.5,350.7,626.9,350.1,626.9,349.4z"/>
	<path id="XMLID_454_" class="st8" d="M594,367.4c0-0.7,0.6-1.5,1.6-1.8c1.2-0.4,2.5,0.2,2.5,1.3s-1.3,1.9-2.5,1.9
		C594.6,368.8,594,368.1,594,367.4z"/>
	<path id="XMLID_455_" class="st8" d="M627,338.1c0-0.7,0.6-1.5,1.6-1.8c1.2-0.4,2.5,0.2,2.5,1.3s-1.3,1.9-2.5,1.9
		C627.7,339.4,627,338.8,627,338.1z"/>
	<path id="XMLID_456_" class="st8" d="M594.1,356.2c0-0.7,0.6-1.5,1.6-1.8c1.2-0.4,2.5,0.2,2.5,1.3c0,1.1-1.3,1.9-2.5,1.9
		C594.7,357.5,594.1,356.9,594.1,356.2z"/>
</g>
<g id="XMLID_457_">
	<linearGradient id="XMLID_12_" gradientUnits="userSpaceOnUse" x1="569.1935" y1="735.6218" x2="613.2838" y2="735.6218">
		<stop  offset="0" style="stop-color:#FFFFFF"/>
		<stop  offset="0.45" style="stop-color:#FFFFFF"/>
		<stop  offset="0.6" style="stop-color:#D2D4EB"/>
		<stop  offset="1" style="stop-color:#D2D4EB"/>
	</linearGradient>
	<rect id="XMLID_458_" x="569.2" y="529.3" class="st12" width="44.1" height="412.7"/>
	<linearGradient id="XMLID_13_" gradientUnits="userSpaceOnUse" x1="569.1935" y1="529.2866" x2="613.2838" y2="529.2866">
		<stop  offset="0" style="stop-color:#3E396B"/>
		<stop  offset="1" style="stop-color:#161D29"/>
	</linearGradient>
	<path id="XMLID_459_" class="st13" d="M612.4,530.5l-19,11.2c-1.2,0.7-3.1,0.7-4.3,0l-19.1-11.2c-1.2-0.7-1.2-1.8,0-2.5l19-11.1
		c1.2-0.7,3.1-0.7,4.3,0l19,11.1C613.6,528.7,613.6,529.8,612.4,530.5z"/>
</g>
<g id="XMLID_460_">
	<linearGradient id="XMLID_14_" gradientUnits="userSpaceOnUse" x1="524.9344" y1="829.0129" x2="608.3866" y2="829.0129">
		<stop  offset="0" style="stop-color:#FFFFFF"/>
		<stop  offset="0.45" style="stop-color:#FFFFFF"/>
		<stop  offset="0.6" style="stop-color:#D2D4EB"/>
		<stop  offset="1" style="stop-color:#D2D4EB"/>
	</linearGradient>
	<rect id="XMLID_461_" x="524.9" y="716.1" class="st14" width="83.5" height="225.9"/>
	<linearGradient id="XMLID_27_" gradientUnits="userSpaceOnUse" x1="524.9344" y1="716.0688" x2="608.3866" y2="716.0688">
		<stop  offset="0" style="stop-color:#3E396B"/>
		<stop  offset="1" style="stop-color:#161D29"/>
	</linearGradient>
	<path id="XMLID_462_" class="st15" d="M606.7,718.4l-36,21.3c-2.2,1.3-5.8,1.3-8,0l-36.1-21.3c-2.2-1.3-2.2-3.4,0-4.7l36-21.1
		c2.2-1.3,5.8-1.3,8.1,0l36,21.1C608.9,714.9,608.9,717,606.7,718.4z"/>
</g>
<g id="XMLID_463_">
	<linearGradient id="XMLID_28_" gradientUnits="userSpaceOnUse" x1="383.4371" y1="842.8173" x2="430.4915" y2="842.8173">
		<stop  offset="0" style="stop-color:#FFFFFF"/>
		<stop  offset="0.45" style="stop-color:#FFFFFF"/>
		<stop  offset="0.6" style="stop-color:#D2D4EB"/>
		<stop  offset="1" style="stop-color:#D2D4EB"/>
	</linearGradient>
	<rect id="XMLID_464_" x="383.4" y="743.7" class="st16" width="47.1" height="198.3"/>
	<linearGradient id="XMLID_29_" gradientUnits="userSpaceOnUse" x1="383.4371" y1="743.6774" x2="430.4915" y2="743.6774">
		<stop  offset="0" style="stop-color:#3E396B"/>
		<stop  offset="1" style="stop-color:#161D29"/>
	</linearGradient>
	<path id="XMLID_465_" class="st17" d="M429.6,745l-20.3,12c-1.3,0.7-3.3,0.7-4.5,0l-20.4-12c-1.3-0.7-1.3-1.9,0-2.7l20.3-11.9
		c1.3-0.7,3.3-0.7,4.5,0l20.3,11.9C430.8,743,430.8,744.2,429.6,745z"/>
</g>
<g id="XMLID_466_">
	<linearGradient id="XMLID_30_" gradientUnits="userSpaceOnUse" x1="192.5784" y1="696.0306" x2="319.7061" y2="696.0306">
		<stop  offset="0" style="stop-color:#FFFFFF"/>
		<stop  offset="0.45" style="stop-color:#FFFFFF"/>
		<stop  offset="0.6" style="stop-color:#D2D4EB"/>
		<stop  offset="1" style="stop-color:#D2D4EB"/>
	</linearGradient>
	<rect id="XMLID_467_" x="192.6" y="448.4" class="st18" width="127.1" height="495.2"/>
	<g id="XMLID_468_">
		<path id="XMLID_22_" class="st7" d="M256.2,484.8c-2.1,0-4.1-0.5-5.6-1.4l-55-32.4c-1.3-0.8-2-1.8-2-2.7c0-1,0.7-2,2.1-2.7
			l54.9-32.1c1.5-0.9,3.5-1.4,5.6-1.4c2.1,0,4.1,0.5,5.6,1.4l54.9,32.1c1.3,0.8,2.1,1.7,2.1,2.7c0,1-0.7,2-2,2.7l-54.8,32.4
			C260.4,484.3,258.4,484.8,256.2,484.8z"/>
		<path id="XMLID_15_" class="st8" d="M256.1,413.1c1.9,0,3.8,0.4,5.1,1.2l54.9,32.1c1,0.6,1.6,1.3,1.6,1.9c0,0.6-0.6,1.3-1.6,1.9
			l-54.8,32.4c-1.3,0.8-3.2,1.2-5.1,1.2c-1.9,0-3.8-0.4-5.1-1.2l-55-32.4c-1-0.6-1.6-1.3-1.6-1.9c0-0.6,0.6-1.3,1.6-1.9l54.9-32.1
			C252.3,413.5,254.2,413.1,256.1,413.1 M256.1,411.1c-2.2,0-4.4,0.5-6.1,1.5l-54.9,32.1c-3.4,2-3.4,5.2,0,7.2l55,32.4
			c1.7,1,3.9,1.5,6.1,1.5c2.2,0,4.4-0.5,6.1-1.5l54.8-32.4c3.4-2,3.4-5.2,0-7.2l-54.9-32.1C260.6,411.6,258.4,411.1,256.1,411.1
			L256.1,411.1z"/>
	</g>
</g>
<path id="XMLID_470_" class="st8" d="M579.5,619.9l16.8-82.1c0.8-4-1.4-8.9-5-10.9l-94.8-52.1c-3.6-2-7.2-0.3-8.1,3.7l-16.9,80.8
	c-0.8,4,1.4,8.9,5,10.9l95.1,53.3C575.1,625.6,578.6,624,579.5,619.9z"/>
<linearGradient id="XMLID_31_" gradientUnits="userSpaceOnUse" x1="471.2198" y1="548.6199" x2="594.929" y2="548.6199">
	<stop  offset="0" style="stop-color:#3E396B"/>
	<stop  offset="1" style="stop-color:#161D29"/>
</linearGradient>
<path id="XMLID_471_" class="st19" d="M578.2,618.5l16.6-81.2c0.8-4-1.4-8.8-5-10.8l-93.7-51.5c-3.6-2-7.1-0.3-8,3.7l-16.7,79.8
	c-0.8,4,1.4,8.8,4.9,10.8l94,52.7C573.8,624.1,577.4,622.5,578.2,618.5z"/>
<path id="XMLID_472_" class="st8" d="M499.9,673.4l71-43.7c3.5-2.2,3.4-5.5-0.2-7.5l-95.1-52.6c-3.6-2-9.4-1.9-12.9,0.3l-66.4,40.5
	c-3.5,2.1-3.5,5.6,0,7.8l90.8,55.3C490.7,675.5,496.4,675.5,499.9,673.4z"/>
<path id="XMLID_473_" class="st20" d="M468.2,581.4l-35.1,20.5c-1.4,0.8-1.4,2.2,0,3l75.6,45.4c1.4,0.8,3.7,0.8,5.1,0l36.5-22.2
	c1.4-0.9,1.4-2.2,0-3l-76.8-43.7C472,580.5,469.7,580.5,468.2,581.4z"/>
<path id="XMLID_474_" class="st7" d="M439,617.4l-15,8.8c-1.4,0.8-1.4,2.2,0,3l35.2,21.2c1.4,0.8,3.7,0.8,5.1,0l15.7-9.6
	c1.4-0.9,1.4-2.2,0-3l-35.8-20.4C442.7,616.5,440.4,616.5,439,617.4z"/>
<g id="XMLID_478_">
	<linearGradient id="XMLID_32_" gradientUnits="userSpaceOnUse" x1="165.7614" y1="759.0219" x2="209.8517" y2="759.0219">
		<stop  offset="0" style="stop-color:#FFFFFF"/>
		<stop  offset="0.45" style="stop-color:#FFFFFF"/>
		<stop  offset="0.6" style="stop-color:#D2D4EB"/>
		<stop  offset="1" style="stop-color:#D2D4EB"/>
	</linearGradient>
	<rect id="XMLID_479_" x="165.8" y="576.1" class="st21" width="44.1" height="365.9"/>
	<linearGradient id="XMLID_33_" gradientUnits="userSpaceOnUse" x1="165.7614" y1="576.0867" x2="209.8517" y2="576.0867">
		<stop  offset="0" style="stop-color:#3E396B"/>
		<stop  offset="1" style="stop-color:#161D29"/>
	</linearGradient>
	<path id="XMLID_480_" class="st22" d="M209,577.3l-19,11.2c-1.2,0.7-3.1,0.7-4.3,0l-19.1-11.2c-1.2-0.7-1.2-1.8,0-2.5l19-11.1
		c1.2-0.7,3.1-0.7,4.3,0l19,11.1C210.1,575.5,210.1,576.6,209,577.3z"/>
</g>
<g id="XMLID_484_">
	<path id="XMLID_485_" class="st8" d="M274.3,489.1c0,0.7-0.6,1.5-1.6,1.8c-1.2,0.4-2.5-0.2-2.5-1.3c0-1.1,1.3-1.9,2.5-1.9
		C273.7,487.7,274.3,488.4,274.3,489.1z"/>
	<path id="XMLID_486_" class="st8" d="M282.6,484.8c0,0.7-0.6,1.5-1.6,1.8c-1.2,0.4-2.5-0.2-2.5-1.3c0-1.1,1.3-1.9,2.5-1.9
		C282,483.5,282.6,484.1,282.6,484.8z"/>
	<path id="XMLID_487_" class="st8" d="M290.8,480.1c0,0.7-0.6,1.5-1.6,1.8c-1.2,0.4-2.5-0.2-2.5-1.3s1.3-1.9,2.5-1.9
		C290.2,478.8,290.8,479.4,290.8,480.1z"/>
	<path id="XMLID_488_" class="st8" d="M299.1,475.9c0,0.7-0.6,1.5-1.6,1.8c-1.2,0.4-2.5-0.2-2.5-1.3c0-1.1,1.3-1.9,2.5-1.9
		C298.5,474.5,299.1,475.1,299.1,475.9z"/>
	<path id="XMLID_489_" class="st8" d="M307.2,471c0,0.7-0.6,1.5-1.6,1.8c-1.2,0.4-2.5-0.2-2.5-1.3s1.3-1.9,2.5-1.9
		C306.6,469.7,307.2,470.3,307.2,471z"/>
	<path id="XMLID_490_" class="st8" d="M315.4,466.3c0,0.7-0.6,1.5-1.6,1.8c-1.2,0.4-2.5-0.2-2.5-1.3c0-1.1,1.3-1.9,2.5-1.9
		C314.8,464.9,315.4,465.6,315.4,466.3z"/>
	<path id="XMLID_491_" class="st8" d="M274.4,499.1c0,0.7-0.6,1.5-1.6,1.8c-1.2,0.4-2.5-0.2-2.5-1.3c0-1.1,1.3-1.9,2.5-1.9
		C273.8,497.8,274.4,498.4,274.4,499.1z"/>
	<path id="XMLID_492_" class="st8" d="M282.7,494.8c0,0.7-0.6,1.5-1.6,1.8c-1.2,0.4-2.5-0.2-2.5-1.3c0-1.1,1.3-1.9,2.5-1.9
		C282.1,493.5,282.7,494.1,282.7,494.8z"/>
	<path id="XMLID_493_" class="st8" d="M290.9,490.1c0,0.7-0.6,1.5-1.6,1.8c-1.2,0.4-2.5-0.2-2.5-1.3s1.3-1.9,2.5-1.9
		C290.3,488.8,290.9,489.4,290.9,490.1z"/>
	<path id="XMLID_494_" class="st8" d="M299.2,485.9c0,0.7-0.6,1.5-1.6,1.8c-1.2,0.4-2.5-0.2-2.5-1.3c0-1.1,1.3-1.9,2.5-1.9
		C298.6,484.6,299.2,485.2,299.2,485.9z"/>
	<path id="XMLID_495_" class="st8" d="M307.3,481c0,0.7-0.6,1.5-1.6,1.8c-1.2,0.4-2.5-0.2-2.5-1.3s1.3-1.9,2.5-1.9
		C306.7,479.7,307.3,480.3,307.3,481z"/>
	<path id="XMLID_496_" class="st8" d="M315.5,476.3c0,0.7-0.6,1.5-1.6,1.8c-1.2,0.4-2.5-0.2-2.5-1.3c0-1.1,1.3-1.9,2.5-1.9
		C314.9,475,315.5,475.6,315.5,476.3z"/>
	<path id="XMLID_497_" class="st8" d="M274.4,510.4c0,0.7-0.6,1.5-1.6,1.8c-1.2,0.4-2.5-0.2-2.5-1.3c0-1.1,1.3-1.9,2.5-1.9
		C273.8,509.1,274.4,509.7,274.4,510.4z"/>
	<path id="XMLID_498_" class="st8" d="M282.7,506.1c0,0.7-0.6,1.5-1.6,1.8c-1.2,0.4-2.5-0.2-2.5-1.3s1.3-1.9,2.5-1.9
		C282.1,504.8,282.7,505.4,282.7,506.1z"/>
	<path id="XMLID_499_" class="st8" d="M290.9,501.4c0,0.7-0.6,1.5-1.6,1.8c-1.2,0.4-2.5-0.2-2.5-1.3c0-1.1,1.3-1.9,2.5-1.9
		C290.3,500.1,290.9,500.7,290.9,501.4z"/>
	<path id="XMLID_500_" class="st8" d="M299.2,497.2c0,0.7-0.6,1.5-1.6,1.8c-1.2,0.4-2.5-0.2-2.5-1.3s1.3-1.9,2.5-1.9
		C298.6,495.9,299.2,496.5,299.2,497.2z"/>
	<path id="XMLID_501_" class="st8" d="M307.3,492.3c0,0.7-0.6,1.5-1.6,1.8c-1.2,0.4-2.5-0.2-2.5-1.3c0-1.1,1.3-1.9,2.5-1.9
		C306.7,491,307.3,491.6,307.3,492.3z"/>
	<path id="XMLID_502_" class="st8" d="M315.5,487.6c0,0.7-0.6,1.5-1.6,1.8c-1.2,0.4-2.5-0.2-2.5-1.3c0-1.1,1.3-1.9,2.5-1.9
		C314.9,486.3,315.5,486.9,315.5,487.6z"/>
	<path id="XMLID_503_" class="st8" d="M274.3,521.6c0,0.7-0.6,1.5-1.6,1.8c-1.2,0.4-2.5-0.2-2.5-1.3s1.3-1.9,2.5-1.9
		C273.7,520.3,274.3,520.9,274.3,521.6z"/>
	<path id="XMLID_504_" class="st8" d="M282.6,517.4c0,0.7-0.6,1.5-1.6,1.8c-1.2,0.4-2.5-0.2-2.5-1.3c0-1.1,1.3-1.9,2.5-1.9
		C282,516.1,282.6,516.7,282.6,517.4z"/>
	<path id="XMLID_505_" class="st8" d="M290.8,512.7c0,0.7-0.6,1.5-1.6,1.8c-1.2,0.4-2.5-0.2-2.5-1.3s1.3-1.9,2.5-1.9
		C290.2,511.4,290.8,512,290.8,512.7z"/>
	<path id="XMLID_506_" class="st8" d="M299.1,508.4c0,0.7-0.6,1.5-1.6,1.8c-1.2,0.4-2.5-0.2-2.5-1.3c0-1.1,1.3-1.9,2.5-1.9
		C298.5,507.1,299.1,507.7,299.1,508.4z"/>
	<path id="XMLID_507_" class="st8" d="M307.2,503.6c0,0.7-0.6,1.5-1.6,1.8c-1.2,0.4-2.5-0.2-2.5-1.3s1.3-1.9,2.5-1.9
		C306.6,502.2,307.2,502.9,307.2,503.6z"/>
	<path id="XMLID_508_" class="st8" d="M315.4,498.8c0,0.7-0.6,1.5-1.6,1.8c-1.2,0.4-2.5-0.2-2.5-1.3c0-1.1,1.3-1.9,2.5-1.9
		C314.8,497.5,315.4,498.1,315.4,498.8z"/>
	<path id="XMLID_509_" class="st8" d="M274.2,532.1c0,0.7-0.6,1.5-1.6,1.8c-1.2,0.4-2.5-0.2-2.5-1.3s1.3-1.9,2.5-1.9
		C273.6,530.8,274.2,531.4,274.2,532.1z"/>
	<path id="XMLID_510_" class="st8" d="M282.5,527.9c0,0.7-0.6,1.5-1.6,1.8c-1.2,0.4-2.5-0.2-2.5-1.3c0-1.1,1.3-1.9,2.5-1.9
		C281.9,526.5,282.5,527.1,282.5,527.9z"/>
	<path id="XMLID_511_" class="st8" d="M290.8,523.1c0,0.7-0.6,1.5-1.6,1.8c-1.2,0.4-2.5-0.2-2.5-1.3s1.3-1.9,2.5-1.9
		C290.1,521.8,290.8,522.4,290.8,523.1z"/>
	<path id="XMLID_512_" class="st8" d="M299.1,518.9c0,0.7-0.6,1.5-1.6,1.8c-1.2,0.4-2.5-0.2-2.5-1.3c0-1.1,1.3-1.9,2.5-1.9
		C298.4,517.6,299.1,518.2,299.1,518.9z"/>
	<path id="XMLID_513_" class="st8" d="M307.1,514c0,0.7-0.6,1.5-1.6,1.8c-1.2,0.4-2.5-0.2-2.5-1.3c0-1.1,1.3-1.9,2.5-1.9
		C306.5,512.7,307.1,513.3,307.1,514z"/>
	<path id="XMLID_514_" class="st8" d="M315.3,509.3c0,0.7-0.6,1.5-1.6,1.8c-1.2,0.4-2.5-0.2-2.5-1.3c0-1.1,1.3-1.9,2.5-1.9
		C314.7,508,315.3,508.6,315.3,509.3z"/>
	<path id="XMLID_515_" class="st8" d="M274.3,542.1c0,0.7-0.6,1.5-1.6,1.8c-1.2,0.4-2.5-0.2-2.5-1.3c0-1.1,1.3-1.9,2.5-1.9
		C273.7,540.8,274.3,541.4,274.3,542.1z"/>
	<path id="XMLID_516_" class="st8" d="M290.9,533.2c0,0.7-0.6,1.5-1.6,1.8c-1.2,0.4-2.5-0.2-2.5-1.3c0-1.1,1.3-1.9,2.5-1.9
		C290.2,531.8,290.9,532.5,290.9,533.2z"/>
	<path id="XMLID_517_" class="st8" d="M307.2,524.1c0,0.7-0.6,1.5-1.6,1.8c-1.2,0.4-2.5-0.2-2.5-1.3s1.3-1.9,2.5-1.9
		C306.6,522.7,307.2,523.3,307.2,524.1z"/>
	<path id="XMLID_518_" class="st8" d="M274.3,553.4c0,0.7-0.6,1.5-1.6,1.8c-1.2,0.4-2.5-0.2-2.5-1.3c0-1.1,1.3-1.9,2.5-1.9
		C273.7,552.1,274.3,552.7,274.3,553.4z"/>
	<path id="XMLID_519_" class="st8" d="M307.2,535.3c0,0.7-0.6,1.5-1.6,1.8c-1.2,0.4-2.5-0.2-2.5-1.3c0-1.1,1.3-1.9,2.5-1.9
		C306.6,534,307.2,534.6,307.2,535.3z"/>
	<path id="XMLID_520_" class="st8" d="M274.2,564.7c0,0.7-0.6,1.5-1.6,1.8c-1.2,0.4-2.5-0.2-2.5-1.3s1.3-1.9,2.5-1.9
		C273.6,563.4,274.2,564,274.2,564.7z"/>
	<path id="XMLID_521_" class="st8" d="M307.1,546.6c0,0.7-0.6,1.5-1.6,1.8c-1.2,0.4-2.5-0.2-2.5-1.3c0-1.1,1.3-1.9,2.5-1.9
		C306.5,545.3,307.1,545.9,307.1,546.6z"/>
</g>
<g id="XMLID_522_">
	<path id="XMLID_523_" class="st10" d="M239,487.3c0,0.7,0.6,1.5,1.6,1.8c1.2,0.4,2.5-0.2,2.5-1.3s-1.3-1.9-2.5-1.9
		C239.7,485.9,239,486.6,239,487.3z"/>
	<path id="XMLID_524_" class="st10" d="M230.7,483c0,0.7,0.6,1.5,1.6,1.8c1.2,0.4,2.5-0.2,2.5-1.3c0-1.1-1.3-1.9-2.5-1.9
		C231.4,481.7,230.7,482.3,230.7,483z"/>
	<path id="XMLID_525_" class="st10" d="M222.7,478.1c0,0.7,0.6,1.5,1.6,1.8c1.2,0.4,2.5-0.2,2.5-1.3s-1.3-1.9-2.5-1.9
		C223.3,476.8,222.7,477.4,222.7,478.1z"/>
	<path id="XMLID_526_" class="st10" d="M214.4,473.4c0,0.7,0.6,1.5,1.6,1.8c1.2,0.4,2.5-0.2,2.5-1.3c0-1.1-1.3-1.9-2.5-1.9
		C215.1,472.1,214.4,472.7,214.4,473.4z"/>
	<path id="XMLID_527_" class="st10" d="M206.1,469.2c0,0.7,0.6,1.5,1.6,1.8c1.2,0.4,2.5-0.2,2.5-1.3c0-1.1-1.3-1.9-2.5-1.9
		C206.8,467.9,206.1,468.5,206.1,469.2z"/>
	<path id="XMLID_528_" class="st10" d="M238.9,497.3c0,0.7,0.6,1.5,1.6,1.8c1.2,0.4,2.5-0.2,2.5-1.3s-1.3-1.9-2.5-1.9
		C239.5,496,238.9,496.6,238.9,497.3z"/>
	<path id="XMLID_529_" class="st10" d="M230.6,493c0,0.7,0.6,1.5,1.6,1.8c1.2,0.4,2.5-0.2,2.5-1.3c0-1.1-1.3-1.9-2.5-1.9
		C231.2,491.7,230.6,492.3,230.6,493z"/>
	<path id="XMLID_530_" class="st10" d="M222.5,488.2c0,0.7,0.6,1.5,1.6,1.8c1.2,0.4,2.5-0.2,2.5-1.3c0-1.1-1.3-1.9-2.5-1.9
		C223.2,486.9,222.5,487.5,222.5,488.2z"/>
	<path id="XMLID_531_" class="st10" d="M214.3,483.5c0,0.7,0.6,1.5,1.6,1.8c1.2,0.4,2.5-0.2,2.5-1.3c0-1.1-1.3-1.9-2.5-1.9
		C214.9,482.1,214.3,482.8,214.3,483.5z"/>
	<path id="XMLID_532_" class="st10" d="M206,479.2c0,0.7,0.6,1.5,1.6,1.8c1.2,0.4,2.5-0.2,2.5-1.3c0-1.1-1.3-1.9-2.5-1.9
		C206.6,477.9,206,478.5,206,479.2z"/>
	<path id="XMLID_533_" class="st10" d="M238.9,508.6c0,0.7,0.6,1.5,1.6,1.8c1.2,0.4,2.5-0.2,2.5-1.3c0-1.1-1.3-1.9-2.5-1.9
		C239.5,507.3,238.9,507.9,238.9,508.6z"/>
	<path id="XMLID_534_" class="st10" d="M232.2,506.1c1.2,0.4,2.5-0.2,2.5-1.3c0-1.1-1.3-1.9-2.5-1.9
		C231.2,503,231.2,505.8,232.2,506.1z"/>
	<path id="XMLID_535_" class="st10" d="M222.5,499.5c0,0.7,0.6,1.5,1.6,1.8c1.2,0.4,2.5-0.2,2.5-1.3s-1.3-1.9-2.5-1.9
		C223.2,498.2,222.5,498.8,222.5,499.5z"/>
	<path id="XMLID_536_" class="st10" d="M214.3,494.8c0,0.7,0.6,1.5,1.6,1.8c1.2,0.4,2.5-0.2,2.5-1.3c0-1.1-1.3-1.9-2.5-1.9
		C214.9,493.4,214.3,494,214.3,494.8z"/>
	<path id="XMLID_537_" class="st10" d="M206,490.5c0,0.7,0.6,1.5,1.6,1.8c1.2,0.4,2.5-0.2,2.5-1.3s-1.3-1.9-2.5-1.9
		C206.6,489.2,206,489.8,206,490.5z"/>
	<path id="XMLID_538_" class="st10" d="M239,519.8c0,0.7,0.6,1.5,1.6,1.8c1.2,0.4,2.5-0.2,2.5-1.3c0-1.1-1.3-1.9-2.5-1.9
		C239.7,518.5,239,519.1,239,519.8z"/>
	<path id="XMLID_539_" class="st10" d="M230.7,515.6c0,0.7,0.6,1.5,1.6,1.8c1.2,0.4,2.5-0.2,2.5-1.3c0-1.1-1.3-1.9-2.5-1.9
		C231.4,514.3,230.7,514.9,230.7,515.6z"/>
	<path id="XMLID_540_" class="st10" d="M222.7,510.7c0,0.7,0.6,1.5,1.6,1.8c1.2,0.4,2.5-0.2,2.5-1.3s-1.3-1.9-2.5-1.9
		C223.3,509.4,222.7,510,222.7,510.7z"/>
	<path id="XMLID_541_" class="st10" d="M214.4,506c0,0.7,0.6,1.5,1.6,1.8c1.2,0.4,2.5-0.2,2.5-1.3c0-1.1-1.3-1.9-2.5-1.9
		C215.1,504.7,214.4,505.3,214.4,506z"/>
	<path id="XMLID_542_" class="st10" d="M206.1,501.8c0,0.7,0.6,1.5,1.6,1.8c1.2,0.4,2.5-0.2,2.5-1.3c0-1.1-1.3-1.9-2.5-1.9
		C206.8,500.4,206.1,501.1,206.1,501.8z"/>
	<path id="XMLID_543_" class="st10" d="M198,464.9c0,0.7,0.6,1.5,1.6,1.8c1.2,0.4,2.5-0.2,2.5-1.3c0-1.1-1.3-1.9-2.5-1.9
		C198.6,463.6,198,464.2,198,464.9z"/>
	<path id="XMLID_544_" class="st10" d="M197.9,474.9c0,0.7,0.6,1.5,1.6,1.8c1.2,0.4,2.5-0.2,2.5-1.3s-1.3-1.9-2.5-1.9
		C198.5,473.6,197.9,474.2,197.9,474.9z"/>
	<path id="XMLID_545_" class="st10" d="M197.9,486.2c0,0.7,0.6,1.5,1.6,1.8c1.2,0.4,2.5-0.2,2.5-1.3c0-1.1-1.3-1.9-2.5-1.9
		C198.5,484.9,197.9,485.5,197.9,486.2z"/>
	<path id="XMLID_546_" class="st10" d="M198,497.5c0,0.7,0.6,1.5,1.6,1.8c1.2,0.4,2.5-0.2,2.5-1.3s-1.3-1.9-2.5-1.9
		C198.6,496.2,198,496.8,198,497.5z"/>
	<path id="XMLID_547_" class="st10" d="M239.1,530.3c0,0.7,0.6,1.5,1.6,1.8c1.2,0.4,2.5-0.2,2.5-1.3c0-1.1-1.3-1.9-2.5-1.9
		C239.7,529,239.1,529.6,239.1,530.3z"/>
	<path id="XMLID_548_" class="st10" d="M230.8,526.1c0,0.7,0.6,1.5,1.6,1.8c1.2,0.4,2.5-0.2,2.5-1.3c0-1.1-1.3-1.9-2.5-1.9
		C231.4,524.7,230.8,525.3,230.8,526.1z"/>
	<path id="XMLID_549_" class="st10" d="M222.7,521.2c0,0.7,0.6,1.5,1.6,1.8c1.2,0.4,2.5-0.2,2.5-1.3s-1.3-1.9-2.5-1.9
		C223.4,519.9,222.7,520.5,222.7,521.2z"/>
	<path id="XMLID_550_" class="st10" d="M214.5,516.5c0,0.7,0.6,1.5,1.6,1.8c1.2,0.4,2.5-0.2,2.5-1.3c0-1.1-1.3-1.9-2.5-1.9
		C215.1,515.1,214.5,515.8,214.5,516.5z"/>
	<path id="XMLID_551_" class="st10" d="M206.2,512.2c0,0.7,0.6,1.5,1.6,1.8c1.2,0.4,2.5-0.2,2.5-1.3c0-1.1-1.3-1.9-2.5-1.9
		C206.8,510.9,206.2,511.5,206.2,512.2z"/>
	<path id="XMLID_552_" class="st10" d="M239,540.3c0,0.7,0.6,1.5,1.6,1.8c1.2,0.4,2.5-0.2,2.5-1.3s-1.3-1.9-2.5-1.9
		C239.6,539,239,539.6,239,540.3z"/>
	<path id="XMLID_553_" class="st10" d="M222.6,531.2c0,0.7,0.6,1.5,1.6,1.8c1.2,0.4,2.5-0.2,2.5-1.3c0-1.1-1.3-1.9-2.5-1.9
		C223.2,529.9,222.6,530.5,222.6,531.2z"/>
	<path id="XMLID_554_" class="st10" d="M206.1,522.3c0,0.7,0.6,1.5,1.6,1.8c1.2,0.4,2.5-0.2,2.5-1.3c0-1.1-1.3-1.9-2.5-1.9
		C206.7,520.9,206.1,521.5,206.1,522.3z"/>
	<path id="XMLID_555_" class="st10" d="M222.6,542.5c0,0.7,0.6,1.5,1.6,1.8c1.2,0.4,2.5-0.2,2.5-1.3s-1.3-1.9-2.5-1.9
		C223.2,541.2,222.6,541.8,222.6,542.5z"/>
	<path id="XMLID_556_" class="st10" d="M206.1,533.5c0,0.7,0.6,1.5,1.6,1.8c1.2,0.4,2.5-0.2,2.5-1.3s-1.3-1.9-2.5-1.9
		C206.7,532.2,206.1,532.8,206.1,533.5z"/>
	<path id="XMLID_557_" class="st10" d="M222.7,553.8c0,0.7,0.6,1.5,1.6,1.8c1.2,0.4,2.5-0.2,2.5-1.3c0-1.1-1.3-1.9-2.5-1.9
		C223.4,552.4,222.7,553.1,222.7,553.8z"/>
	<path id="XMLID_558_" class="st10" d="M198,507.9c0,0.7,0.6,1.5,1.6,1.8c1.2,0.4,2.5-0.2,2.5-1.3s-1.3-1.9-2.5-1.9
		C198.7,506.6,198,507.2,198,507.9z"/>
</g>
<g id="XMLID_559_">
	<linearGradient id="XMLID_34_" gradientUnits="userSpaceOnUse" x1="286.1987" y1="743.5801" x2="374.3792" y2="743.5801">
		<stop  offset="0" style="stop-color:#FFFFFF"/>
		<stop  offset="0.45" style="stop-color:#FFFFFF"/>
		<stop  offset="0.6" style="stop-color:#D2D4EB"/>
		<stop  offset="1" style="stop-color:#D2D4EB"/>
	</linearGradient>
	<rect id="XMLID_560_" x="286.2" y="545.2" class="st23" width="88.2" height="396.8"/>
	<linearGradient id="XMLID_35_" gradientUnits="userSpaceOnUse" x1="286.1987" y1="545.2032" x2="374.3792" y2="545.2032">
		<stop  offset="0" style="stop-color:#3E396B"/>
		<stop  offset="1" style="stop-color:#161D29"/>
	</linearGradient>
	<path id="XMLID_561_" class="st24" d="M372.6,547.6l-38,22.5c-2.3,1.4-6.2,1.4-8.5,0L288,547.6c-2.3-1.4-2.3-3.6,0-5l38.1-22.3
		c2.4-1.4,6.2-1.4,8.5,0l38.1,22.3C375,544,375,546.2,372.6,547.6z"/>
</g>
<linearGradient id="XMLID_36_" gradientUnits="userSpaceOnUse" x1="-2422.2756" y1="110.4501" x2="-945.8129" y2="110.4501" gradientTransform="matrix(-0.391 1.0665 -0.929 -0.5375 -378.5748 1754.5815)">
	<stop  offset="0" style="stop-color:#3E396B"/>
	<stop  offset="1" style="stop-color:#161D29"/>
</linearGradient>
<polygon id="XMLID_562_" class="st25" points="1022.4,160.1 -510,455.8 -667.8,-361.8 864.6,-657.6 "/>
<path id="XMLID_567_" class="st26" d="M594.1,388.8"/>
<path id="XMLID_566_" class="st26" d="M613.3,632"/>
<path id="XMLID_469_" class="st26" d="M119.3,775.4"/>
<g id="XMLID_614_">
	<linearGradient id="XMLID_37_" gradientUnits="userSpaceOnUse" x1="486.3863" y1="536.9418" x2="531.8186" y2="536.9418">
		<stop  offset="0" style="stop-color:#4869B2"/>
		<stop  offset="1" style="stop-color:#45A7DE"/>
	</linearGradient>
	<polygon id="XMLID_344_" class="st27" points="531.8,525.9 523.1,568 486.4,547.4 495,505.9 	"/>
	<linearGradient id="XMLID_38_" gradientUnits="userSpaceOnUse" x1="528.0221" y1="559.9365" x2="573.4544" y2="559.9365">
		<stop  offset="0" style="stop-color:#4869B2"/>
		<stop  offset="1" style="stop-color:#45A7DE"/>
	</linearGradient>
	<polygon id="XMLID_563_" class="st28" points="573.5,548.9 564.7,590.9 528,570.4 536.6,528.9 	"/>
	<polygon id="XMLID_565_" class="st10" points="488.9,535.2 502,529.3 502.9,541.5 523.4,533.2 526.6,551 523.1,568 486.4,547.4 	
		"/>
	<polygon id="XMLID_569_" class="st10" points="536.1,549.2 535.4,552.5 565.3,569.2 566,565.8 	"/>
	<polygon id="XMLID_568_" class="st10" points="537.5,542.8 536.8,546 566.7,562.7 567.4,559.3 	"/>
	<polygon id="XMLID_574_" class="st10" points="538.8,536.6 538.1,539.9 568,556.6 568.7,553.2 	"/>
	<polygon id="XMLID_570_" class="st10" points="534.5,555.5 533.8,558.7 547.2,566.2 547.8,562.7 	"/>
	<polygon id="XMLID_475_" class="st29" points="532.8,562.4 532.1,565.6 538.7,569.3 539.4,565.8 	"/>
	<polygon id="XMLID_588_" class="st30" points="564.7,590.9 568.7,590.2 577.2,547.4 540.4,527.7 536.6,528.9 573.5,548.9 	"/>
	<polygon id="XMLID_593_" class="st30" points="522.9,568.3 526.9,567.5 535.4,524.8 498.6,505 494.8,506.2 531.7,526.2 	"/>
	<polygon id="XMLID_607_" class="st30" points="568,556.6 569,556.3 569.7,552.8 539.6,536.1 538.8,536.6 568.7,553.2 	"/>
	<polygon id="XMLID_608_" class="st30" points="566.7,562.8 567.7,562.5 568.4,559 538.3,542.2 537.5,542.8 567.4,559.4 	"/>
	<polygon id="XMLID_609_" class="st30" points="565.3,569.2 566.3,568.9 567,565.3 536.9,548.6 536.1,549.2 566,565.7 	"/>
	<polygon id="XMLID_610_" class="st30" points="547.2,566.2 548.2,566 548.8,562.2 535,554.9 534.5,555.5 547.8,562.7 	"/>
	<polygon id="XMLID_611_" class="st31" points="538.7,569.3 539.7,569.1 540.3,565.4 533.4,562 532.8,562.4 539.4,565.8 	"/>
	<polygon id="XMLID_612_" class="st30" points="502,529.3 503.8,529.2 505,540.7 502.9,541.5 	"/>
	<polygon id="XMLID_613_" class="st30" points="523.4,533.2 524.9,533.1 527.4,547.3 526.6,550.8 	"/>
	<path id="XMLID_615_" class="st30" d="M509.9,522c1.6,0.2,3,0.9,3.6,2.4c0.4,1,0.2,2.3-0.7,2.9c-1.6,1.2-4.1,0.6-6.2-0.9L509.9,522
		z"/>
	<path id="XMLID_564_" class="st10" d="M505.4,524.3c0,1.3,1.1,2.7,2.8,3.2c2.2,0.7,4.5-0.3,4.5-2.3c0-2-2.3-3.5-4.5-3.4
		C506.6,521.9,505.4,523,505.4,524.3z"/>
</g>
<path id="XMLID_635_" class="st8" d="M293.7,473.8l12.8-62.6c0.6-3-0.6-7.3-3.3-8.7l-72-38.3c-2.7-1.5-5.5,0.4-6.1,3.4l-12.7,60.7
	c-0.6,3,1,6,3.7,7.5l71.5,40.1C290.4,477.3,293.1,476.8,293.7,473.8z"/>
<linearGradient id="XMLID_39_" gradientUnits="userSpaceOnUse" x1="211.9251" y1="420.3641" x2="304.9287" y2="420.3641">
	<stop  offset="0" style="stop-color:#3E396B"/>
	<stop  offset="1" style="stop-color:#161D29"/>
</linearGradient>
<path id="XMLID_634_" class="st32" d="M292.3,472.9l12.5-61c0.6-3-1.1-6.6-3.7-8.1l-70.5-38.7c-2.7-1.5-5.4-0.2-6,2.8l-12.5,60
	c-0.6,3,1,6.6,3.7,8.1l70.6,39.6C289.1,477.1,291.7,475.9,292.3,472.9z"/>
<g id="XMLID_481_">
	<linearGradient id="XMLID_40_" gradientUnits="userSpaceOnUse" x1="223.3271" y1="411.5845" x2="257.4828" y2="411.5845">
		<stop  offset="0" style="stop-color:#4869B2"/>
		<stop  offset="1" style="stop-color:#45A7DE"/>
	</linearGradient>
	<polygon id="XMLID_633_" class="st33" points="257.5,403.3 250.9,434.9 223.3,419.5 229.8,388.3 	"/>
	<linearGradient id="XMLID_41_" gradientUnits="userSpaceOnUse" x1="254.6286" y1="428.8718" x2="288.7843" y2="428.8718">
		<stop  offset="0" style="stop-color:#4869B2"/>
		<stop  offset="1" style="stop-color:#45A7DE"/>
	</linearGradient>
	<polygon id="XMLID_632_" class="st34" points="288.8,420.6 282.2,452.2 254.6,436.7 261.1,405.6 	"/>
	<polygon id="XMLID_631_" class="st10" points="225.2,410.3 235,405.8 235.8,415 251.1,408.8 253.6,422.1 250.9,434.9 223.3,419.5 	
		"/>
	<polygon id="XMLID_630_" class="st10" points="260.7,420.8 260.2,423.2 282.7,435.8 283.2,433.3 	"/>
	<polygon id="XMLID_629_" class="st10" points="261.7,416 261.2,418.4 283.7,431 284.2,428.4 	"/>
	<polygon id="XMLID_627_" class="st10" points="262.7,411.4 262.2,413.8 284.7,426.4 285.2,423.8 	"/>
	<polygon id="XMLID_626_" class="st10" points="259.5,425.5 259,427.9 269,433.6 269.5,431 	"/>
	<polygon id="XMLID_625_" class="st29" points="258.2,430.7 257.7,433.1 262.6,435.9 263.2,433.3 	"/>
	<polygon id="XMLID_624_" class="st30" points="282.2,452.2 285.2,451.6 291.6,419.5 263.9,404.6 261.1,405.6 288.8,420.6 	"/>
	<polygon id="XMLID_623_" class="st30" points="250.8,435.1 253.8,434.5 260.2,402.4 232.5,387.6 229.7,388.5 257.4,403.5 	"/>
	<polygon id="XMLID_622_" class="st30" points="284.7,426.4 285.5,426.1 286,423.5 263.3,410.9 262.7,411.4 285.2,423.8 	"/>
	<polygon id="XMLID_621_" class="st30" points="283.7,431 284.5,430.8 285,428.1 262.4,415.6 261.7,416 284.2,428.4 	"/>
	<polygon id="XMLID_620_" class="st30" points="282.7,435.8 283.4,435.6 283.9,432.9 261.3,420.4 260.7,420.8 283.2,433.2 	"/>
	<polygon id="XMLID_619_" class="st30" points="269,433.6 269.8,433.4 270.3,430.6 259.9,425.1 259.5,425.5 269.5,431 	"/>
	<polygon id="XMLID_618_" class="st31" points="262.6,435.9 263.4,435.8 263.8,433 258.7,430.4 258.2,430.7 263.2,433.3 	"/>
	<polygon id="XMLID_617_" class="st30" points="235,405.8 236.4,405.8 237.3,414.4 235.8,415 	"/>
	<polygon id="XMLID_616_" class="st30" points="251.1,408.8 252.3,408.7 254.1,419.3 253.5,422 	"/>
	<path id="XMLID_483_" class="st30" d="M241,400.4c1.2,0.2,2.2,0.7,2.7,1.8c0.3,0.8,0.1,1.7-0.5,2.2c-1.2,0.9-3.1,0.4-4.7-0.6
		L241,400.4z"/>
	<path id="XMLID_482_" class="st10" d="M237.6,402.1c0,1,0.8,2,2.1,2.4c1.6,0.5,3.3-0.2,3.3-1.7s-1.7-2.6-3.3-2.5
		C238.5,400.3,237.6,401.1,237.6,402.1z"/>
</g>
<path id="XMLID_477_" class="st8" d="M420.6,326.3l-12.7,59c-0.4,2-3.2,2.3-5,1.4l-19.2-11.1c-1.7-1-2.8-3.3-2.4-5.3l9.5-59.2
	c0.4-2,1.9-4.4,3.7-3.5l24.6,13.1C420.9,321.6,421,324.4,420.6,326.3z"/>
<linearGradient id="XMLID_42_" gradientUnits="userSpaceOnUse" x1="378.7598" y1="347.7899" x2="419.1018" y2="347.7899">
	<stop  offset="0" style="stop-color:#3E396B"/>
	<stop  offset="1" style="stop-color:#161D29"/>
</linearGradient>
<path id="XMLID_194_" class="st35" d="M419,325.7l-12.1,59.2c-0.4,2-2.1,2.8-3.9,1.8l-21.7-12.1c-1.7-1-2.8-3.3-2.4-5.3l12.1-58.7
	c0.4-2,2.2-2.8,3.9-1.8l21.7,11.6C418.3,321.4,419.4,323.8,419,325.7z"/>
<g id="XMLID_476_">
	
		<linearGradient id="XMLID_43_" gradientUnits="userSpaceOnUse" x1="385.6953" y1="325.8434" x2="410.0789" y2="325.8434" gradientTransform="matrix(0.9998 -2.217636e-002 2.217636e-002 0.9998 -3.7106 18.3693)">
		<stop  offset="0" style="stop-color:#4869B2"/>
		<stop  offset="1" style="stop-color:#45A7DE"/>
	</linearGradient>
	<polygon id="XMLID_654_" class="st36" points="413.4,329.1 409.2,351.8 389.2,341.2 393.4,318.8 	"/>
	
		<linearGradient id="XMLID_44_" gradientUnits="userSpaceOnUse" x1="379.153" y1="350.9792" x2="403.5366" y2="350.9792" gradientTransform="matrix(0.9998 -2.217636e-002 2.217636e-002 0.9998 -3.7106 18.3693)">
		<stop  offset="0" style="stop-color:#4869B2"/>
		<stop  offset="1" style="stop-color:#45A7DE"/>
	</linearGradient>
	<polygon id="XMLID_653_" class="st37" points="407.4,354.4 403.2,377.1 383.3,366.5 387.4,344.1 	"/>
	<polygon id="XMLID_652_" class="st10" points="390.5,334.6 397.4,331.3 398.1,337.8 408.9,333.1 410.9,342.6 409.2,351.8 
		389.2,341.2 	"/>
	<polygon id="XMLID_651_" class="st10" points="387.3,355 387,356.8 403.2,365.4 403.6,363.5 	"/>
	<polygon id="XMLID_650_" class="st10" points="388,351.5 387.7,353.3 403.9,361.9 404.3,360.1 	"/>
	<polygon id="XMLID_649_" class="st10" points="388.6,348.2 388.3,350 404.6,358.6 404.9,356.7 	"/>
	<polygon id="XMLID_648_" class="st10" points="386.5,358.4 386.2,360.1 393.5,364 393.8,362.1 	"/>
	<polygon id="XMLID_647_" class="st29" points="385.7,362.1 385.4,363.8 389,365.7 389.3,363.9 	"/>
	<polygon id="XMLID_646_" class="st30" points="403.2,377.1 404.2,376.8 408.3,354.1 388.3,343.8 387.4,344.1 407.4,354.4 	"/>
	<polygon id="XMLID_644_" class="st30" points="404.6,358.6 405.1,358.4 405.4,356.5 389.1,347.9 388.6,348.2 404.9,356.7 	"/>
	<polygon id="XMLID_643_" class="st30" points="403.9,361.9 404.5,361.8 404.8,359.8 388.4,351.2 388,351.6 404.3,360.1 	"/>
	<polygon id="XMLID_642_" class="st30" points="403.2,365.4 403.8,365.2 404.1,363.3 387.8,354.7 387.3,355 403.6,363.5 	"/>
	<polygon id="XMLID_641_" class="st30" points="393.5,364 394,363.9 394.3,361.8 386.8,358.1 386.5,358.4 393.8,362.1 	"/>
	<polygon id="XMLID_640_" class="st31" points="389,365.7 389.5,365.6 389.8,363.6 386,361.9 385.7,362.1 389.3,363.9 	"/>
	<polygon id="XMLID_639_" class="st30" points="397.4,331.3 398.3,331.2 399.1,337.4 398.1,337.8 	"/>
	<polygon id="XMLID_638_" class="st30" points="408.9,333.1 409.7,333 411.2,340.6 410.8,342.5 	"/>
	<path id="XMLID_637_" class="st30" d="M401.5,327.3c0.8,0.1,1.6,0.5,1.9,1.2c0.2,0.5,0.1,1.2-0.3,1.6c-0.9,0.7-2.2,0.4-3.4-0.4
		L401.5,327.3z"/>
	<path id="XMLID_636_" class="st10" d="M399.2,328.6c0,0.7,0.6,1.4,1.6,1.7c1.2,0.3,2.4-0.2,2.4-1.3c0-1.1-1.3-1.8-2.4-1.7
		C399.8,327.3,399.2,327.9,399.2,328.6z"/>
	<polygon id="XMLID_645_" class="st30" points="409.2,351.8 410.1,351.5 414.1,328.8 394.3,318.5 393.4,318.8 413.4,329.1 	"/>
</g>
</svg>
