<?xml version="1.0" encoding="utf-8"?>
<!-- Generator: Adobe Illustrator 19.0.0, SVG Export Plug-In . SVG Version: 6.00 Build 0)  -->
<svg version="1.1" id="Layer_1" xmlns="http://www.w3.org/2000/svg" xmlns:xlink="http://www.w3.org/1999/xlink" x="0px" y="0px"
	 viewBox="156 -156 512 512" style="enable-background:new 156 -156 512 512;" xml:space="preserve">
<style type="text/css">
	.st0{fill:#8994C6;}
</style>
<g id="Quotemarks-left">
	<g>
		<path class="st0" d="M546,274.5c-59.8,0-106.6-46.4-111.3-110.4c-7.8-106.5,46-193.5,94.4-235.6c2.2-1.9,5-3,7.9-3
			c3,0,5.8,1.1,8.1,3.1c4.4,4,7.5,7.2,13.7,13.5l1,1.1c4.8,4.9,11.4,11.6,21.8,22c4.1,4.1,4.7,10.6,1.4,15.3
			c-23.7,34.4-26.8,59.8-26.5,71.9c56.9,5.3,100.9,53.3,100.9,110.8C657.3,224.6,607.4,274.5,546,274.5z M458.7,162.5
			c3.8,51,40.5,88,87.3,88c48.1,0,87.3-39.1,87.3-87.3c0-48.1-39.1-87.3-87.3-87.3c-4.4,0-8.7-2.6-10.7-6.6
			c-3.4-6.4-9.7-43,22.4-94.2c-7.2-7.3-12.2-12.4-16-16.2l-0.1-0.1c-1.8-1.8-3.3-3.4-4.7-4.8c-24.1,24.1-86.2,97.7-78.2,208.2
			L458.7,162.5z"/>
		<path class="st0" d="M537-70c1.8,0,3.6,0.6,5.1,1.9c4.2,3.9,7.2,6.8,13.5,13.3c4.8,4.9,11.7,11.9,22.9,23.1
			c2.6,2.6,2.9,6.6,0.9,9.6c-27.3,39.6-28.1,68.2-27.1,78.6c56,3.2,100.6,49.8,100.6,106.6c0,58.9-47.9,106.8-106.8,106.8
			c-57.4,0-102.3-44.7-106.8-106.3C431.6,58.9,484.4-26.7,532-68.2C533.5-69.4,535.2-70,537-70 M546,254.9
			c50.6,0,91.8-41.2,91.8-91.8c0-50.6-41.2-91.8-91.8-91.8c-2.8,0-5.5-1.7-6.8-4.1c-2.7-5.2-9-41.6,24.2-92.7
			c-8.7-8.7-14.4-14.5-18.6-18.8c-3.5-3.5-5.8-5.9-7.9-8c-21.2,20.3-91.3,96.9-82.7,214.8c0,0,0,0,0,0
			C458.1,216.1,496.7,254.9,546,254.9 M537-79c-4,0-7.8,1.4-10.8,4.1C477-32.2,422.3,56.2,430.2,164.4c2.3,31.9,15.2,61,36.2,82
			c21.2,21.1,49.4,32.7,79.6,32.7c63.9,0,115.8-52,115.8-115.8c0-58.5-43.7-107.4-100.8-114.9c0.5-12.6,5-35.3,25.7-65.3
			c4.5-6.6,3.7-15.4-1.9-21.1c-10.3-10.3-16.9-17-21.7-21.9l-1.1-1.1c-6.2-6.4-9.4-9.6-13.9-13.6C545-77.5,541.1-79,537-79L537-79z
			 M463.2,162.2l0-0.2c-7.6-104.1,48.2-174.9,73.7-201.4c0.5,0.5,1,1,1.5,1.5l0.2,0.2c3.3,3.4,7.6,7.7,13.4,13.6
			c-15.5,25.7-21.1,47.2-23,61c-2.3,16.5-0.5,29.2,2.3,34.6c2.9,5.4,8.6,9,14.7,9c45.6,0,82.8,37.1,82.8,82.8
			c0,45.6-37.1,82.8-82.8,82.8C501.6,245.9,466.9,210.7,463.2,162.2L463.2,162.2z"/>
	</g>
	<g>
		<path class="st0" d="M278.7,274.5c-59.8,0-106.6-46.4-111.3-110.4l0-0.2c-7.7-106.5,46-193.4,94.4-235.5c2.2-1.9,5-2.9,7.9-2.9
			c3,0,5.9,1.1,8.1,3.1c4.4,4,7.3,7,13.7,13.5l0.5,0.5c4.9,5,11.6,11.8,22.3,22.5c4.1,4.1,4.7,10.5,1.4,15.3
			c-23.7,34.4-26.8,59.8-26.5,71.9C346.1,57.7,390,105.6,390,163.2C390,224.6,340.1,274.5,278.7,274.5z M191.4,162.3
			c3.7,51.1,40.5,88.1,87.3,88.1c48.1,0,87.3-39.1,87.3-87.3c0-48.1-39.1-87.3-87.3-87.3c-4.4,0-8.7-2.6-10.8-6.6
			c-3.4-6.4-9.7-42.9,22.4-94.2c-7.1-7.1-12-12.1-16-16.2c-1.8-1.9-3.4-3.4-4.7-4.8C245.5-21.8,183.4,51.8,191.4,162.3L191.4,162.3z
			"/>
		<path class="st0" d="M269.7-70c1.8,0,3.6,0.6,5.1,1.9c4.2,3.9,7.2,6.8,13.5,13.3c4.8,4.9,11.7,11.9,22.8,23
			c2.6,2.6,2.9,6.6,0.9,9.6c-27.3,39.7-28.1,68.2-27.1,78.6c56,3.2,100.6,49.8,100.6,106.6c0,58.9-47.9,106.8-106.8,106.8
			c-57.4,0-102.3-44.7-106.8-106.3v0c-7.6-104.9,45.2-190.5,92.9-231.9C266.2-69.4,267.9-70,269.7-70 M186.9,162.6L186.9,162.6
			c3.9,53.5,42.5,92.3,91.8,92.3c50.6,0,91.8-41.2,91.8-91.8c0-50.6-41.2-91.8-91.8-91.8c-2.8,0-5.5-1.7-6.8-4.2
			c-2.7-5.2-9-41.6,24.2-92.7c-8.7-8.7-14.4-14.5-18.6-18.8c-3.5-3.6-5.9-6-7.9-8C248.4-31.9,178.3,44.7,186.9,162.6 M269.7-79
			c-4,0-7.8,1.4-10.8,4c-49.1,42.8-103.7,131-96,239v0l0,0.3c2.3,31.9,15.2,61,36.2,81.9c21.2,21.1,49.4,32.7,79.6,32.7
			c63.9,0,115.8-52,115.8-115.8c0-58.5-43.7-107.5-100.8-114.9c0.5-12.6,5-35.3,25.7-65.3c4.5-6.6,3.7-15.4-1.9-21.1
			c-10.7-10.7-17.4-17.6-22.3-22.5l-0.5-0.5c-6.3-6.4-9.4-9.6-13.9-13.7C277.7-77.5,273.8-79,269.7-79L269.7-79z M195.9,162
			c-7.6-104.1,48.2-174.9,73.7-201.4c0.5,0.5,1,1,1.5,1.6c2.6,2.7,7.1,7.2,13.6,13.8c-15.5,25.7-21.1,47.2-23,61
			c-2.3,16.5-0.5,29.2,2.3,34.6c2.9,5.4,8.6,9,14.7,9c45.6,0,82.8,37.1,82.8,82.8c0,45.6-37.1,82.8-82.8,82.8
			C234.3,245.9,199.4,210.6,195.9,162L195.9,162L195.9,162L195.9,162z"/>
	</g>
</g>
</svg>
