<?xml version="1.0" encoding="UTF-8" standalone="no"?><!DOCTYPE svg PUBLIC "-//W3C//DTD SVG 1.1//EN" "http://www.w3.org/Graphics/SVG/1.1/DTD/svg11.dtd"><svg width="100%" height="100%" viewBox="0 0 851 851" version="1.1" xmlns="http://www.w3.org/2000/svg" xmlns:xlink="http://www.w3.org/1999/xlink" xml:space="preserve" style="fill-rule:evenodd;clip-rule:evenodd;stroke-linejoin:round;stroke-miterlimit:1.41421;"><circle cx="424.945" cy="425.592" r="423.723" style="fill:#e7eaf5;"/><clipPath id="_clip1"><circle cx="424.945" cy="425.592" r="423.723"/></clipPath><g clip-path="url(#_clip1)"><path d="M458.9,53.195c0,-1.617 -1.312,-2.929 -2.929,-2.929l-61.34,0c-1.616,0 -2.928,1.312 -2.928,2.929l0,142.706c0,1.616 1.312,2.928 2.928,2.928l61.34,0c1.617,0 2.929,-1.312 2.929,-2.928l0,-142.706Z" style="fill:#bbc3e1;"/><path d="M526.301,126.773c0,-4.193 -3.404,-7.596 -7.596,-7.596l-183.807,0c-4.192,0 -7.596,3.403 -7.596,7.596l0,159.107c0,4.192 3.404,7.596 7.596,7.596l183.807,0c4.192,0 7.596,-3.404 7.596,-7.596l0,-159.107Z" style="fill:#ccd1e8;"/><path d="M574.136,192.33c0,-5.33 -4.327,-9.657 -9.658,-9.657l-278.993,0c-5.33,0 -9.658,4.327 -9.658,9.657l0,202.291c0,5.331 4.328,9.658 9.658,9.658l278.993,0c5.331,0 9.658,-4.327 9.658,-9.658l0,-202.291Z" style="fill:#bbc3e1;"/><path d="M654.002,260.727c0,-8.172 -6.635,-14.806 -14.807,-14.806l-429.762,0c-8.172,0 -14.807,6.634 -14.807,14.806l0,310.134c0,8.172 6.635,14.806 14.807,14.806l429.762,0c8.172,0 14.807,-6.634 14.807,-14.806l0,-310.134Z" style="fill:#ccd1e8;"/><path d="M752.177,464.702c0,-9.867 -8.011,-17.877 -17.877,-17.877l-618.71,0c-9.867,0 -17.878,8.01 -17.878,17.877l0,374.455c0,9.866 8.011,17.877 17.878,17.877l618.71,0c9.866,0 17.877,-8.011 17.877,-17.877l0,-374.455Z" style="fill:#ccd1e8;"/><clipPath id="_clip2"><path d="M752.177,464.702c0,-9.867 -8.011,-17.877 -17.877,-17.877l-618.71,0c-9.867,0 -17.878,8.01 -17.878,17.877l0,374.455c0,9.866 8.011,17.877 17.878,17.877l618.71,0c9.866,0 17.877,-8.011 17.877,-17.877l0,-374.455Z"/></clipPath><g clip-path="url(#_clip2)"><path d="M331.393,654.85c0,-11.882 -9.647,-21.529 -21.529,-21.529l-43.058,0c-11.883,0 -21.53,9.647 -21.53,21.529l0,341.765c0,11.882 9.647,21.529 21.53,21.529l43.058,0c11.882,0 21.529,-9.647 21.529,-21.529l0,-341.765Z" style="fill:#bec5e3;"/><path d="M481.605,658.53c0,-14.511 -11.781,-26.292 -26.292,-26.292l-52.584,0c-14.511,0 -26.292,11.781 -26.292,26.292l0,348.642c0,14.511 11.781,26.292 26.292,26.292l52.584,0c14.511,0 26.292,-11.781 26.292,-26.292l0,-348.642Z" style="fill:#bec5e3;"/><path d="M607.225,653.767c0,-11.882 -9.647,-21.529 -21.529,-21.529l-43.059,0c-11.882,0 -21.529,9.647 -21.529,21.529l0,374.865c0,11.882 9.647,21.529 21.529,21.529l43.059,0c11.882,0 21.529,-9.647 21.529,-21.529l0,-374.865Z" style="fill:#bec5e3;"/></g><rect x="260.036" y="296.917" width="81.997" height="81.997" style="fill:#afb9dd;"/><rect x="260.036" y="296.917" width="81.997" height="81.997" style="fill:#bbc3e1;"/><rect x="260.036" y="411.639" width="81.997" height="81.997" style="fill:#bbc3e1;"/><rect x="260.036" y="526.361" width="81.997" height="81.997" style="fill:#afb9dd;"/><rect x="143.693" y="526.361" width="81.997" height="81.997" style="fill:#bbc3e1;"/><rect x="143.693" y="640.885" width="81.997" height="81.997" style="fill:#bbc3e1;"/><rect x="505.904" y="526.361" width="81.997" height="81.997" style="fill:#bbc3e1;"/><rect x="367.014" y="526.361" width="115.861" height="81.997" style="fill:#bbc3e1;"/><rect x="367.014" y="412.662" width="115.861" height="81.997" style="fill:#bbc3e1;"/><rect x="367.014" y="298.963" width="115.861" height="81.997" style="fill:#afb9dd;"/><rect x="505.904" y="411.639" width="81.997" height="81.997" style="fill:#afb9dd;"/><rect x="505.904" y="296.917" width="81.997" height="81.997" style="fill:#bbc3e1;"/><rect x="623.78" y="526.361" width="81.997" height="81.997" style="fill:#afb9dd;"/><rect x="623.78" y="641.265" width="81.997" height="81.997" style="fill:#bbc3e1;"/></g></svg>