<?xml version="1.0" encoding="UTF-8" standalone="no"?><!DOCTYPE svg PUBLIC "-//W3C//DTD SVG 1.1//EN" "http://www.w3.org/Graphics/SVG/1.1/DTD/svg11.dtd"><svg width="100%" height="100%" viewBox="0 0 851 851" version="1.1" xmlns="http://www.w3.org/2000/svg" xmlns:xlink="http://www.w3.org/1999/xlink" xml:space="preserve" style="fill-rule:evenodd;clip-rule:evenodd;stroke-linejoin:round;stroke-miterlimit:1.41421;"><circle cx="424.945" cy="425.592" r="423.723" style="fill:#ebebeb;"/><clipPath id="_clip1"><circle cx="424.945" cy="425.592" r="423.723"/></clipPath><g clip-path="url(#_clip1)"><path d="M-28.292,394.107l242.394,6.125l123.534,-215.172l296.901,-8.736l119.435,-158.9c-255.611,-22.911 -517.551,-23.96 -782.264,-15.555l0,392.238Z" style="fill:url(#_Linear2);"/><path d="M-23.709,386.839l195.417,-2.093c58.402,1.213 111.923,-227.191 188.277,-223.965l246.723,-1.228c45.609,0.686 73.962,-81.188 103.387,-78.057l295.139,456.974l-1044.46,27.975l15.514,-179.606Z" style="fill:url(#_Linear3);"/><path d="M-28.292,534.573l202.899,-1.256c56.196,-1.344 90.945,-165.875 166.352,-166.014l284.184,-2.223c55.883,0.942 82.133,-170.809 173.372,-171.445l138.4,26.948l15.167,526.496l-939.687,-21.411l-40.687,-191.095Z" style="fill:url(#_Linear4);"/><path d="M78.468,691.768l103.515,-2.045c77.844,-1.794 67.292,-109.536 142.384,-109.366l302.479,-3.336c54.009,0.491 79.686,-112.351 150.29,-113.976l145,0.703l4.943,433.557l-848.141,10.069l-0.47,-215.606Z" style="fill:url(#_Linear5);"/></g><defs><linearGradient id="_Linear2" x1="0" y1="0" x2="1" y2="0" gradientUnits="userSpaceOnUse" gradientTransform="matrix(666.078,-297.312,297.312,666.078,11.9246,392.036)"><stop offset="0" style="stop-color:#fa6585;stop-opacity:1"/><stop offset="1" style="stop-color:#fb786e;stop-opacity:1"/></linearGradient><linearGradient id="_Linear3" x1="0" y1="0" x2="1" y2="0" gradientUnits="userSpaceOnUse" gradientTransform="matrix(-7.25273,456.148,-456.148,-7.25273,483.005,81.4083)"><stop offset="0" style="stop-color:#fb9b93;stop-opacity:1"/><stop offset="1" style="stop-color:#fa7695;stop-opacity:1"/></linearGradient><linearGradient id="_Linear4" x1="0" y1="0" x2="1" y2="0" gradientUnits="userSpaceOnUse" gradientTransform="matrix(-5.2855,499.285,-499.285,-5.2855,541.128,192.82)"><stop offset="0" style="stop-color:#fdcac6;stop-opacity:1"/><stop offset="1" style="stop-color:#fa7fa1;stop-opacity:1"/></linearGradient><linearGradient id="_Linear5" x1="0" y1="0" x2="1" y2="0" gradientUnits="userSpaceOnUse" gradientTransform="matrix(2.36523e-14,386.271,-386.271,2.36523e-14,424.945,463.045)"><stop offset="0" style="stop-color:#fff;stop-opacity:1"/><stop offset="1" style="stop-color:#fb658a;stop-opacity:1"/></linearGradient></defs></svg>