<?xml version="1.0" encoding="utf-8"?>
<!-- Generator: Adobe Illustrator 19.0.0, SVG Export Plug-In . SVG Version: 6.00 Build 0)  -->
<svg version="1.1" id="Layer_1" xmlns="http://www.w3.org/2000/svg" xmlns:xlink="http://www.w3.org/1999/xlink" x="0px" y="0px"
	 viewBox="228 -228 512 512" style="enable-background:new 228 -228 512 512;" xml:space="preserve">
<style type="text/css">
	.st0{fill:#E7EAF5;}
	.st1{fill:#CCD1E8;}
	.st2{clip-path:url(#SVGID_2_);}
	.st3{fill:#BBC3E1;}
</style>
<circle class="st0" cx="484" cy="28" r="256"/>
<polygon class="st1" points="622,108.5 495.5,0 434,28 403.5,28 399.5,11 406,-16.5 434,-48.5 468,-71.5 498.5,-74 539,-62 612,-34 
	656,92 "/>
<g>
	<defs>
		<circle id="SVGID_1_" cx="484" cy="28" r="256"/>
	</defs>
	<clipPath id="SVGID_2_">
		<use xlink:href="#SVGID_1_"  style="overflow:visible;"/>
	</clipPath>
	<g class="st2">
		<path class="st1" d="M249.3,83.2h45.5c0,0,60.7-121,39.1-154.5c-11.6-18-84.5-15.1-84.5-15.1V83.2z"/>
		<g>
			<g>
				<path class="st3" d="M440.9-65.8h-95.8c-5.9,0-10.6,4.8-10.6,10.6s4.8,10.6,10.6,10.6h95.8c5.9,0,10.6-4.8,10.6-10.6
					S446.8-65.8,440.9-65.8z"/>
			</g>
		</g>
		<g>
			<g>
				<path class="st3" d="M352.4-84.2c-18.2-17.3-91.2-22.9-113.1-24.2c-3-0.1-5.8,0.9-7.9,2.9c-2.1,2-3.3,4.8-3.3,7.7V93.9
					c0,5.9,4.8,10.6,10.6,10.6h63.9c4.6,0,8.7-3,10.1-7.3c1.6-4.8,38.2-117.4,43.1-172.7C356-78.8,354.8-82,352.4-84.2z M294.7,83.2
					h-45.5V-86.3c34.2,2.7,71.1,8.6,84.5,15.1C328.2-24.6,302.7,58.2,294.7,83.2z"/>
			</g>
		</g>
		<g>
			<g>
				<path class="st3" d="M728.4-87.1c-83.6,0-130,21.4-131.9,22.3c-2.8,1.3-4.8,3.7-5.7,6.6c-0.9,2.9-0.4,6,1.2,8.6
					c13.2,21.2,54.4,138.8,62.3,167.5c1.3,4.6,5.5,7.8,10.3,7.8h63.9c5.9,0,10.6-4.8,10.6-10.6V-76.4
					C739-82.3,734.2-87.1,728.4-87.1z M717.7,104.5h-45.3c-10.1-32.9-39.9-118.6-56.5-154c16.2-5.5,51.1-15,101.8-16.2V104.5z"/>
			</g>
		</g>
		<g>
			<g>
				<path class="st3" d="M554,160.1c-12.8-10.2-44.8-44.2-52-52.1c-4-4.3-10.7-4.6-15.1-0.6c-4.3,4-4.6,10.7-0.6,15.1
					c0.4,0.4,38.6,41.7,54.4,54.3c2,1.6,4.3,2.3,6.6,2.3c3.1,0,6.2-1.4,8.3-4C559.4,170.5,558.6,163.8,554,160.1z"/>
			</g>
		</g>
		<g>
			<g>
				<path class="st3" d="M511.7,181.6c-15.2-12.8-46.2-45.9-52.3-52.4c-4-4.3-10.8-4.5-15.1-0.5c-4.3,4-4.5,10.8-0.5,15.1
					c8.7,9.3,38.5,40.9,54.1,54.1c2,1.7,4.4,2.5,6.9,2.5c3,0,6-1.3,8.2-3.8C516.7,192,516.2,185.3,511.7,181.6z"/>
			</g>
		</g>
		<g>
			<g>
				<path class="st3" d="M631.5,110.6c-10-20.9-45.9-49.9-80.6-78C531.6,17,513.3,2.2,501.7-9.4c-2.9-2.9-7.3-3.9-11.1-2.5
					c-7.2,2.6-11.6,4.6-15.1,6.2c-5.3,2.4-7.1,3.2-14.3,3.9c-3.2,0.3-6,2-7.8,4.7c-15.1,22.5-30.6,20.6-41.1,17.1
					c-3.3-1.1-3.9-2.5-4.2-3.9c-2.2-9.3,9-31.1,23.5-45.6c34.6-34.6,52.4-43.3,90.1-26.4c42.8,19.1,85.6,34.1,86,34.2
					c5.6,1.9,11.6-1,13.6-6.6c1.9-5.6-1-11.6-6.6-13.6c-0.4-0.1-42.4-14.8-84.3-33.6c-48.8-21.8-75.6-7.5-113.9,30.8
					c-14.6,14.6-34.3,44-29.2,65.6c2.2,9.2,8.7,16,18.3,19.2c24.1,8,46.1,0.3,62.5-21.4c6.8-1,10.5-2.6,16-5.1
					c2-0.9,4.3-1.9,7.5-3.2c12.2,11.4,28.6,24.7,45.9,38.7c31.3,25.3,66.8,54,74.8,70.6c3.9,8.2-0.3,13.5-3.2,16
					c-4.2,3.6-10,4.8-13.1,2.6c-3.4-2.4-7.9-2.5-11.5-0.4c-3.6,2.1-5.6,6.2-5.1,10.3c0.7,6.8-5.5,10.6-8.2,12
					c-6.8,3.4-13.9,2.9-16.6,0.4c-3-2.8-7.3-3.6-11.1-2.2c-3.8,1.4-6.4,4.9-6.8,9c-0.6,7-5.8,13.7-12.6,16.3c-3.3,1.2-8,2-12.2-1.9
					c-2.6-2.4-6.3-3.3-9.7-2.5c-3.5,0.9-6.3,3.4-7.5,6.7c-0.4,1.1-1.3,3.6-11.3,3.6c-7.1,0-19.8-4.8-26.1-8.9
					c-7.5-4.9-54.3-39.9-94.8-73.8c-5.7-4.8-15.5-15.1-24.2-24.1c-7.7-8-14.8-15.4-18.4-18.4c-4.5-3.8-11.2-3.3-15,1.3
					c-3.8,4.5-3.2,11.2,1.3,15c3.3,2.8,9.7,9.5,16.7,16.9c9.5,9.9,19.3,20.2,25.9,25.7c39.6,33.2,87.3,69,96.8,75.3
					c7.8,5.2,24.7,12.4,37.8,12.4c10.5,0,18.6-2.4,24.2-7.1c7.5,2.9,16,2.9,24.2-0.3c9.7-3.7,17.7-11.3,22.2-20.5
					c8.4,1.8,18,0.5,26.7-3.9c8.5-4.3,14.7-10.9,17.8-18.6c8.5,0.4,17.2-2.6,24.4-8.8C635.2,141.5,638.5,125.3,631.5,110.6z"/>
			</g>
		</g>
		<g>
			<g>
				<path class="st3" d="M596.6,138.8c-7.6-6-41.7-40.9-62.8-62.9c-4.1-4.3-10.8-4.4-15.1-0.3c-4.3,4.1-4.4,10.8-0.3,15.1
					c5.5,5.7,53.7,56,65,64.9c1.9,1.5,4.3,2.3,6.6,2.3c3.1,0,6.3-1.4,8.4-4.1C602,149.1,601.2,142.4,596.6,138.8z"/>
			</g>
		</g>
		<g>
			<g>
				<path class="st3" d="M662.7,88c-3.3-4.9-9.9-6.2-14.8-2.9L616.8,106c-4.9,3.3-6.2,9.9-2.9,14.8c2.1,3,5.4,4.7,8.9,4.7
					c2,0,4.1-0.6,5.9-1.8l31.1-20.9C664.6,99.4,665.9,92.8,662.7,88z"/>
			</g>
		</g>
	</g>
</g>
</svg>
