<?xml version="1.0" encoding="utf-8"?>
<!-- Generator: Adobe Illustrator 19.0.0, SVG Export Plug-In . SVG Version: 6.00 Build 0)  -->
<svg version="1.1" id="Layer_1" xmlns="http://www.w3.org/2000/svg" xmlns:xlink="http://www.w3.org/1999/xlink" x="0px" y="0px"
	 viewBox="228 -228 512 512" style="enable-background:new 228 -228 512 512;" xml:space="preserve">
<style type="text/css">
	.st0{fill:#3E396B;stroke:#3E396B;stroke-width:5;stroke-miterlimit:10;}
	.st1{fill:#3E396B;}
	.st2{fill:none;stroke:#CCD1E8;stroke-width:19;stroke-linecap:round;stroke-linejoin:round;stroke-miterlimit:10;}
	.st3{fill:#CCD1E8;}
</style>
<g>
	<g>
		<path class="st0" d="M693-207H274.9c-21.9,0-39.5,17.8-39.5,39.5v57.5c0,4.5,3.6,8.1,8.1,8.1c4.5,0,8.1-3.6,8.1-8.1v-57.5
			c0-12.9,10.5-23.4,23.4-23.4H693c12.9,0,23.4,10.5,23.4,23.4v276.2h-31.6V8.7c0-15.7-12.8-28.5-28.5-28.5H538.6
			c-15.7,0-28.5,12.8-28.5,28.5v154.4H274.9c-12.9,0-23.4-10.5-23.4-23.4v-14.9h239.7c4.5,0,8.1-3.6,8.1-8.1c0-4.5-3.6-8.1-8.1-8.1
			H251.6V-83c0-4.5-3.6-8.1-8.1-8.1c-4.5,0-8.1,3.6-8.1,8.1v222.8c0,21.9,17.8,39.5,39.5,39.5h138.7l-20,46.6h-38.9
			c-4.5,0-8.1,3.6-8.1,8.1c0,4.5,3.6,8.1,8.1,8.1H399h90.2h1.1c4.5,0,8.1-3.6,8.1-8.1c0-4.5-3.6-8.1-8.1-8.1h-1.1h-77.9l13.8-32.3
			h85v40.9c0,15.7,12.8,28.5,28.5,28.5h117.8c15.7,0,28.5-12.8,28.5-28.5V125h31.6v14.9c0,9.4-5.6,17.9-14.3,21.6
			c-4.1,1.7-6,6.5-4.3,10.6c1.3,3.1,4.3,5,7.5,5c1.1,0,2.1-0.2,3.1-0.7c14.7-6.2,24.2-20.5,24.2-36.4v-307.3
			C732.6-189.3,714.9-207,693-207z M526.3,8.7L526.3,8.7c0-6.8,5.5-12.3,12.3-12.3h117.8c6.8,0,12.3,5.5,12.3,12.3v188.4H526.3V8.7z
			 M668.7,234.4c0,6.8-5.5,12.3-12.3,12.3H538.6c-6.8,0-12.3-5.5-12.3-12.3v-21.2h142.4L668.7,234.4L668.7,234.4z"/>
	</g>
</g>
<g>
	<g>
		<path class="st1" d="M490.9,141c-4-6-13.7-4.1-15.1,3c-0.7,3.4,0.9,7,4,8.8c3,1.8,7,1.4,9.6-0.9
			C492.6,149.2,493.2,144.4,490.9,141z"/>
	</g>
</g>
<g>
	<g>
		<path class="st1" d="M608.6,227.9c-1.3-3.1-4.5-5.2-7.9-5.1c-3.4,0.1-6.5,2.3-7.6,5.5c-1.2,3.3-0.1,7,2.6,9.2
			c2.8,2.3,6.9,2.5,9.9,0.5C608.8,235.8,610,231.5,608.6,227.9z"/>
	</g>
</g>
<g>
	<g>
		<path class="st1" d="M623.7,5.5h-45.5c-4.6,0-8.3,3.7-8.3,8.3s3.7,8.3,8.3,8.3h45.5c4.6,0,8.3-3.7,8.3-8.3
			C632,9.3,628.3,5.5,623.7,5.5z"/>
	</g>
</g>
<path class="st2" d="M571.3-167h109.4c6.7,0,12.2,5.4,12.2,12.2v13.9"/>
<circle class="st3" cx="693.1" cy="-111.9" r="9.7"/>
<path class="st2" d="M647.3,69v61"/>
</svg>
