<?xml version="1.0" encoding="utf-8"?>
<!-- Generator: Adobe Illustrator 19.0.0, SVG Export Plug-In . SVG Version: 6.00 Build 0)  -->
<svg version="1.1" id="Capa_1" xmlns="http://www.w3.org/2000/svg" xmlns:xlink="http://www.w3.org/1999/xlink" x="0px" y="0px"
	 viewBox="-2 3 51 51" style="enable-background:new -2 3 51 51;" xml:space="preserve">
<style type="text/css">
	.st0{fill:#F6F7FC;stroke:#3F396A;stroke-width:2;stroke-linejoin:round;stroke-miterlimit:10;}
	.st1{fill:#BBC3DF;stroke:#3F396A;stroke-width:2;stroke-linejoin:round;stroke-miterlimit:10;}
	.st2{fill:none;stroke:#BBC3DF;stroke-width:2;stroke-linecap:round;stroke-linejoin:round;stroke-miterlimit:10;}
	.st3{fill:#BBC3DF;}
</style>
<polygon class="st0" points="45.8,38 23.5,50.8 1.2,38 23.5,25.4 "/>
<polygon class="st1" points="45.8,28.5 23.5,41.2 1.2,28.5 23.5,15.8 "/>
<polygon class="st0" points="45.8,18.8 23.5,31.6 1.2,18.8 23.5,6.2 "/>
<line class="st2" x1="39.2" y1="18.7" x2="33.8" y2="22"/>
<g id="XMLID_1_">
	<g id="XMLID_3_">
		<path id="XMLID_4_" class="st3" d="M32.1,22.9c-0.3-0.5-0.8-0.6-1.4-0.4l0,0c-0.5,0.3-0.6,0.8-0.4,1.4c0.2,0.3,0.5,0.5,0.8,0.5
			c0.2,0,0.4,0,0.5-0.1l0,0C32.2,24,32.3,23.3,32.1,22.9z"/>
	</g>
</g>
<line class="st2" x1="14.9" y1="42.6" x2="20.4" y2="45.7"/>
<g id="XMLID_5_">
	<g id="XMLID_6_">
		<path id="XMLID_7_" class="st3" d="M21.9,46.6c-0.3,0.5-0.1,1,0.4,1.3l0,0c0.5,0.3,1,0.1,1.3-0.4c0.1-0.3,0.1-0.7,0-0.9
			c-0.1-0.2-0.2-0.3-0.3-0.3l0,0C22.8,46,22.2,46.3,21.9,46.6z"/>
	</g>
</g>
</svg>
