<?xml version="1.0" encoding="UTF-8" standalone="no"?><!DOCTYPE svg PUBLIC "-//W3C//DTD SVG 1.1//EN" "http://www.w3.org/Graphics/SVG/1.1/DTD/svg11.dtd"><svg width="100%" height="100%" viewBox="0 0 851 851" version="1.1" xmlns="http://www.w3.org/2000/svg" xmlns:xlink="http://www.w3.org/1999/xlink" xml:space="preserve" style="fill-rule:evenodd;clip-rule:evenodd;stroke-linecap:round;stroke-linejoin:round;stroke-miterlimit:1.5;"><circle cx="424.945" cy="425.592" r="423.723" style="fill:#e7eaf5;"/><clipPath id="_clip1"><circle cx="424.945" cy="425.592" r="423.723"/></clipPath><g clip-path="url(#_clip1)"><path d="M636.755,563.271c0,-7.387 -5.998,-13.385 -13.386,-13.385l-394.537,0c-7.388,0 -13.386,5.998 -13.386,13.385l0,280.377c0,7.388 5.998,13.386 13.386,13.386l394.537,0c7.388,0 13.386,-5.998 13.386,-13.386l0,-280.377Z" style="fill:#ccd1e8;"/><clipPath id="_clip2"><path d="M636.755,563.271c0,-7.387 -5.998,-13.385 -13.386,-13.385l-394.537,0c-7.388,0 -13.386,5.998 -13.386,13.385l0,280.377c0,7.388 5.998,13.386 13.386,13.386l394.537,0c7.388,0 13.386,-5.998 13.386,-13.386l0,-280.377Z"/></clipPath><g clip-path="url(#_clip2)"><path d="M380.046,674.049c0,-5.365 -4.356,-9.721 -9.721,-9.721l-19.44,0c-5.365,0 -9.721,4.356 -9.721,9.721l0,268.699c0,5.365 4.356,9.721 9.721,9.721l19.44,0c5.365,0 9.721,-4.356 9.721,-9.721l0,-268.699Z" style="fill:#bec5e3;"/><path d="M447.866,675.388c0,-6.552 -5.319,-11.871 -11.871,-11.871l-23.742,0c-6.551,0 -11.87,5.319 -11.87,11.871l0,276.68c0,6.552 5.319,11.871 11.87,11.871l23.742,0c6.552,0 11.871,-5.319 11.871,-11.871l0,-276.68Z" style="fill:#bec5e3;"/><path d="M504.583,673.238c0,-5.365 -4.356,-9.721 -9.721,-9.721l-19.44,0c-5.365,0 -9.721,4.356 -9.721,9.721l0,293.483c0,5.365 4.356,9.721 9.721,9.721l19.44,0c5.365,0 9.721,-4.356 9.721,-9.721l0,-293.483Z" style="fill:#bec5e3;"/></g></g><path d="M536.34,161.641c34.279,-4.821 63.18,-3.512 76.413,15.663c18.891,56.298 -44.889,110.14 -119.551,147.906" style="fill:none;stroke:#bec5e3;stroke-width:17px;"/><path d="M313.549,161.641c-34.278,-4.821 -63.179,-3.512 -76.413,15.663c-18.891,56.298 44.889,110.14 119.551,147.906" style="fill:none;stroke:#bec5e3;stroke-width:17px;"/><path d="M442.242,407.891c0,-5.209 -4.228,-9.438 -9.437,-9.438l-18.874,0c-5.209,0 -9.438,4.229 -9.438,9.438l0,80.341c0,5.209 4.229,9.438 9.438,9.438l18.874,0c5.209,0 9.437,-4.229 9.437,-9.438l0,-80.341Z" style="fill:#ccd1e8;"/><path d="M686.792,557.257c0,-4.069 -3.303,-7.371 -7.371,-7.371l-508.953,0c-4.068,0 -7.371,3.302 -7.371,7.371l0,14.741c0,4.068 3.303,7.371 7.371,7.371l508.953,0c4.068,0 7.371,-3.303 7.371,-7.371l0,-14.741Z" style="fill:#bec5e3;"/><path d="M490.817,480.227c0,-6.03 -4.895,-10.925 -10.925,-10.925l-114.037,0c-6.03,0 -10.925,4.895 -10.925,10.925l0,21.85c0,6.03 4.895,10.925 10.925,10.925l114.037,0c6.03,0 10.925,-4.895 10.925,-10.925l0,-21.85Z" style="fill:#bec5e3;"/><path d="M520.625,518.111c0,-6.03 -4.895,-10.925 -10.925,-10.925l-173.521,0c-6.03,0 -10.925,4.895 -10.925,10.925l0,21.85c0,6.029 4.895,10.925 10.925,10.925l173.521,0c6.03,0 10.925,-4.896 10.925,-10.925l0,-21.85Z" style="fill:#ccd1e8;"/><path d="M295.235,98.587c2.11,170.709 58.577,309.304 127.638,309.304c69.062,0 125.529,-138.595 127.639,-309.304l-255.277,0Z" style="fill:#bec5e3;stroke:#bec5e3;stroke-width:1px;"/><path d="M429.763,366.755c43.167,-1.793 69.785,-75.073 80.022,-219.111" style="fill:none;stroke:#ccd1e8;stroke-width:8px;"/></svg>